G04 #@! TF.FileFunction,Legend,Top*
%FSLAX46Y46*%
G04 Gerber Fmt 4.6, Leading zero omitted, Abs format (unit mm)*
G04 Created by KiCad (PCBNEW 4.0.4-stable) date 11/08/16 09:08:38*
%MOMM*%
%LPD*%
G01*
G04 APERTURE LIST*
%ADD10C,0.100000*%
%ADD11C,0.300000*%
%ADD12C,0.200000*%
%ADD13C,1.000000*%
%ADD14C,0.150000*%
G04 APERTURE END LIST*
D10*
D11*
X167497143Y-73133371D02*
X167782857Y-73133371D01*
X167925715Y-73204800D01*
X168068572Y-73347657D01*
X168140000Y-73633371D01*
X168140000Y-74133371D01*
X168068572Y-74419086D01*
X167925715Y-74561943D01*
X167782857Y-74633371D01*
X167497143Y-74633371D01*
X167354286Y-74561943D01*
X167211429Y-74419086D01*
X167140000Y-74133371D01*
X167140000Y-73633371D01*
X167211429Y-73347657D01*
X167354286Y-73204800D01*
X167497143Y-73133371D01*
X168032857Y-75754800D02*
X167890000Y-75683371D01*
X167675714Y-75683371D01*
X167461429Y-75754800D01*
X167318571Y-75897657D01*
X167247143Y-76040514D01*
X167175714Y-76326229D01*
X167175714Y-76540514D01*
X167247143Y-76826229D01*
X167318571Y-76969086D01*
X167461429Y-77111943D01*
X167675714Y-77183371D01*
X167818571Y-77183371D01*
X168032857Y-77111943D01*
X168104286Y-77040514D01*
X168104286Y-76540514D01*
X167818571Y-76540514D01*
X167140000Y-78233371D02*
X167640000Y-79733371D01*
X168140000Y-78233371D01*
X142122543Y-72676171D02*
X142408257Y-72676171D01*
X142551115Y-72747600D01*
X142693972Y-72890457D01*
X142765400Y-73176171D01*
X142765400Y-73676171D01*
X142693972Y-73961886D01*
X142551115Y-74104743D01*
X142408257Y-74176171D01*
X142122543Y-74176171D01*
X141979686Y-74104743D01*
X141836829Y-73961886D01*
X141765400Y-73676171D01*
X141765400Y-73176171D01*
X141836829Y-72890457D01*
X141979686Y-72747600D01*
X142122543Y-72676171D01*
X142658257Y-75297600D02*
X142515400Y-75226171D01*
X142301114Y-75226171D01*
X142086829Y-75297600D01*
X141943971Y-75440457D01*
X141872543Y-75583314D01*
X141801114Y-75869029D01*
X141801114Y-76083314D01*
X141872543Y-76369029D01*
X141943971Y-76511886D01*
X142086829Y-76654743D01*
X142301114Y-76726171D01*
X142443971Y-76726171D01*
X142658257Y-76654743D01*
X142729686Y-76583314D01*
X142729686Y-76083314D01*
X142443971Y-76083314D01*
X141765400Y-77776171D02*
X142265400Y-79276171D01*
X142765400Y-77776171D01*
X142909943Y-97491971D02*
X143195657Y-97491971D01*
X143338515Y-97563400D01*
X143481372Y-97706257D01*
X143552800Y-97991971D01*
X143552800Y-98491971D01*
X143481372Y-98777686D01*
X143338515Y-98920543D01*
X143195657Y-98991971D01*
X142909943Y-98991971D01*
X142767086Y-98920543D01*
X142624229Y-98777686D01*
X142552800Y-98491971D01*
X142552800Y-97991971D01*
X142624229Y-97706257D01*
X142767086Y-97563400D01*
X142909943Y-97491971D01*
X143445657Y-100113400D02*
X143302800Y-100041971D01*
X143088514Y-100041971D01*
X142874229Y-100113400D01*
X142731371Y-100256257D01*
X142659943Y-100399114D01*
X142588514Y-100684829D01*
X142588514Y-100899114D01*
X142659943Y-101184829D01*
X142731371Y-101327686D01*
X142874229Y-101470543D01*
X143088514Y-101541971D01*
X143231371Y-101541971D01*
X143445657Y-101470543D01*
X143517086Y-101399114D01*
X143517086Y-100899114D01*
X143231371Y-100899114D01*
X142552800Y-102591971D02*
X143052800Y-104091971D01*
X143552800Y-102591971D01*
X167763843Y-97936471D02*
X168049557Y-97936471D01*
X168192415Y-98007900D01*
X168335272Y-98150757D01*
X168406700Y-98436471D01*
X168406700Y-98936471D01*
X168335272Y-99222186D01*
X168192415Y-99365043D01*
X168049557Y-99436471D01*
X167763843Y-99436471D01*
X167620986Y-99365043D01*
X167478129Y-99222186D01*
X167406700Y-98936471D01*
X167406700Y-98436471D01*
X167478129Y-98150757D01*
X167620986Y-98007900D01*
X167763843Y-97936471D01*
X168299557Y-100557900D02*
X168156700Y-100486471D01*
X167942414Y-100486471D01*
X167728129Y-100557900D01*
X167585271Y-100700757D01*
X167513843Y-100843614D01*
X167442414Y-101129329D01*
X167442414Y-101343614D01*
X167513843Y-101629329D01*
X167585271Y-101772186D01*
X167728129Y-101915043D01*
X167942414Y-101986471D01*
X168085271Y-101986471D01*
X168299557Y-101915043D01*
X168370986Y-101843614D01*
X168370986Y-101343614D01*
X168085271Y-101343614D01*
X167406700Y-103036471D02*
X167906700Y-104536471D01*
X168406700Y-103036471D01*
D12*
X144106900Y-112458500D02*
X143662400Y-112458500D01*
D13*
X144106900Y-63296800D02*
X144106900Y-112458500D01*
X119570500Y-88011000D02*
X168465500Y-88011000D01*
D14*
X121220900Y-70408800D02*
X121220900Y-68858800D01*
X121220900Y-68858800D02*
X124320900Y-68858800D01*
X124320900Y-68858800D02*
X124320900Y-70408800D01*
X124040900Y-71678800D02*
X124040900Y-81838800D01*
X124040900Y-81838800D02*
X121500900Y-81838800D01*
X121500900Y-81838800D02*
X121500900Y-71678800D01*
X124040900Y-71678800D02*
X121500900Y-71678800D01*
X140690600Y-77241400D02*
X140690600Y-72161400D01*
X140690600Y-72161400D02*
X138150600Y-72161400D01*
X138150600Y-72161400D02*
X138150600Y-77241400D01*
X137870600Y-80061400D02*
X137870600Y-78511400D01*
X138150600Y-77241400D02*
X140690600Y-77241400D01*
X140970600Y-78511400D02*
X140970600Y-80061400D01*
X140970600Y-80061400D02*
X137870600Y-80061400D01*
X146024000Y-70675500D02*
X146024000Y-69125500D01*
X146024000Y-69125500D02*
X149124000Y-69125500D01*
X149124000Y-69125500D02*
X149124000Y-70675500D01*
X148844000Y-71945500D02*
X148844000Y-82105500D01*
X148844000Y-82105500D02*
X146304000Y-82105500D01*
X146304000Y-82105500D02*
X146304000Y-71945500D01*
X148844000Y-71945500D02*
X146304000Y-71945500D01*
X166344600Y-77685900D02*
X166344600Y-72605900D01*
X166344600Y-72605900D02*
X163804600Y-72605900D01*
X163804600Y-72605900D02*
X163804600Y-77685900D01*
X163524600Y-80505900D02*
X163524600Y-78955900D01*
X163804600Y-77685900D02*
X166344600Y-77685900D01*
X166624600Y-78955900D02*
X166624600Y-80505900D01*
X166624600Y-80505900D02*
X163524600Y-80505900D01*
X121132000Y-95504000D02*
X121132000Y-93954000D01*
X121132000Y-93954000D02*
X124232000Y-93954000D01*
X124232000Y-93954000D02*
X124232000Y-95504000D01*
X123952000Y-96774000D02*
X123952000Y-106934000D01*
X123952000Y-106934000D02*
X121412000Y-106934000D01*
X121412000Y-106934000D02*
X121412000Y-96774000D01*
X123952000Y-96774000D02*
X121412000Y-96774000D01*
X141897100Y-102006400D02*
X141897100Y-96926400D01*
X141897100Y-96926400D02*
X139357100Y-96926400D01*
X139357100Y-96926400D02*
X139357100Y-102006400D01*
X139077100Y-104826400D02*
X139077100Y-103276400D01*
X139357100Y-102006400D02*
X141897100Y-102006400D01*
X142177100Y-103276400D02*
X142177100Y-104826400D01*
X142177100Y-104826400D02*
X139077100Y-104826400D01*
X146671700Y-96354900D02*
X146671700Y-94804900D01*
X146671700Y-94804900D02*
X149771700Y-94804900D01*
X149771700Y-94804900D02*
X149771700Y-96354900D01*
X149491700Y-97624900D02*
X149491700Y-107784900D01*
X149491700Y-107784900D02*
X146951700Y-107784900D01*
X146951700Y-107784900D02*
X146951700Y-97624900D01*
X149491700Y-97624900D02*
X146951700Y-97624900D01*
X166776400Y-102374700D02*
X166776400Y-97294700D01*
X166776400Y-97294700D02*
X164236400Y-97294700D01*
X164236400Y-97294700D02*
X164236400Y-102374700D01*
X163956400Y-105194700D02*
X163956400Y-103644700D01*
X164236400Y-102374700D02*
X166776400Y-102374700D01*
X167056400Y-103644700D02*
X167056400Y-105194700D01*
X167056400Y-105194700D02*
X163956400Y-105194700D01*
X128831900Y-77932100D02*
X128881900Y-77932100D01*
X128831900Y-73782100D02*
X128976900Y-73782100D01*
X133981900Y-73782100D02*
X133836900Y-73782100D01*
X133981900Y-77932100D02*
X133836900Y-77932100D01*
X128831900Y-77932100D02*
X128831900Y-73782100D01*
X133981900Y-77932100D02*
X133981900Y-73782100D01*
X128881900Y-77932100D02*
X128881900Y-79332100D01*
X154003300Y-78236900D02*
X154053300Y-78236900D01*
X154003300Y-74086900D02*
X154148300Y-74086900D01*
X159153300Y-74086900D02*
X159008300Y-74086900D01*
X159153300Y-78236900D02*
X159008300Y-78236900D01*
X154003300Y-78236900D02*
X154003300Y-74086900D01*
X159153300Y-78236900D02*
X159153300Y-74086900D01*
X154053300Y-78236900D02*
X154053300Y-79636900D01*
X126873000Y-101981000D02*
X126873000Y-104394000D01*
X126873000Y-100203000D02*
X126873000Y-97790000D01*
X126873000Y-101981000D02*
G75*
G03X127762000Y-101092000I0J889000D01*
G01*
X127762000Y-101092000D02*
G75*
G03X126873000Y-100203000I-889000J0D01*
G01*
X128016000Y-103251000D02*
G75*
G03X128016000Y-103251000I-254000J0D01*
G01*
X137033000Y-104394000D02*
X136906000Y-104394000D01*
X134366000Y-104394000D02*
X134620000Y-104394000D01*
X131826000Y-104394000D02*
X132080000Y-104394000D01*
X129286000Y-104394000D02*
X129540000Y-104394000D01*
X126873000Y-104394000D02*
X127000000Y-104394000D01*
X126873000Y-97790000D02*
X127000000Y-97790000D01*
X137033000Y-97790000D02*
X136906000Y-97790000D01*
X134366000Y-97790000D02*
X134620000Y-97790000D01*
X131826000Y-97790000D02*
X132080000Y-97790000D01*
X129286000Y-97790000D02*
X129540000Y-97790000D01*
X137033000Y-104394000D02*
X137033000Y-97790000D01*
X152019000Y-101854000D02*
X152019000Y-104267000D01*
X152019000Y-100076000D02*
X152019000Y-97663000D01*
X152019000Y-101854000D02*
G75*
G03X152908000Y-100965000I0J889000D01*
G01*
X152908000Y-100965000D02*
G75*
G03X152019000Y-100076000I-889000J0D01*
G01*
X153162000Y-103124000D02*
G75*
G03X153162000Y-103124000I-254000J0D01*
G01*
X162179000Y-104267000D02*
X162052000Y-104267000D01*
X159512000Y-104267000D02*
X159766000Y-104267000D01*
X156972000Y-104267000D02*
X157226000Y-104267000D01*
X154432000Y-104267000D02*
X154686000Y-104267000D01*
X152019000Y-104267000D02*
X152146000Y-104267000D01*
X152019000Y-97663000D02*
X152146000Y-97663000D01*
X162179000Y-97663000D02*
X162052000Y-97663000D01*
X159512000Y-97663000D02*
X159766000Y-97663000D01*
X156972000Y-97663000D02*
X157226000Y-97663000D01*
X154432000Y-97663000D02*
X154686000Y-97663000D01*
X162179000Y-104267000D02*
X162179000Y-97663000D01*
X122058205Y-68384681D02*
X122058205Y-67384681D01*
X122439158Y-67384681D01*
X122534396Y-67432300D01*
X122582015Y-67479919D01*
X122629634Y-67575157D01*
X122629634Y-67718014D01*
X122582015Y-67813252D01*
X122534396Y-67860871D01*
X122439158Y-67908490D01*
X122058205Y-67908490D01*
X123582015Y-68384681D02*
X123010586Y-68384681D01*
X123296300Y-68384681D02*
X123296300Y-67384681D01*
X123201062Y-67527538D01*
X123105824Y-67622776D01*
X123010586Y-67670395D01*
X138669805Y-71394581D02*
X138669805Y-70394581D01*
X139050758Y-70394581D01*
X139145996Y-70442200D01*
X139193615Y-70489819D01*
X139241234Y-70585057D01*
X139241234Y-70727914D01*
X139193615Y-70823152D01*
X139145996Y-70870771D01*
X139050758Y-70918390D01*
X138669805Y-70918390D01*
X139622186Y-70489819D02*
X139669805Y-70442200D01*
X139765043Y-70394581D01*
X140003139Y-70394581D01*
X140098377Y-70442200D01*
X140145996Y-70489819D01*
X140193615Y-70585057D01*
X140193615Y-70680295D01*
X140145996Y-70823152D01*
X139574567Y-71394581D01*
X140193615Y-71394581D01*
X146823205Y-68498981D02*
X146823205Y-67498981D01*
X147204158Y-67498981D01*
X147299396Y-67546600D01*
X147347015Y-67594219D01*
X147394634Y-67689457D01*
X147394634Y-67832314D01*
X147347015Y-67927552D01*
X147299396Y-67975171D01*
X147204158Y-68022790D01*
X146823205Y-68022790D01*
X147727967Y-67498981D02*
X148347015Y-67498981D01*
X148013681Y-67879933D01*
X148156539Y-67879933D01*
X148251777Y-67927552D01*
X148299396Y-67975171D01*
X148347015Y-68070410D01*
X148347015Y-68308505D01*
X148299396Y-68403743D01*
X148251777Y-68451362D01*
X148156539Y-68498981D01*
X147870824Y-68498981D01*
X147775586Y-68451362D01*
X147727967Y-68403743D01*
X164349205Y-71775581D02*
X164349205Y-70775581D01*
X164730158Y-70775581D01*
X164825396Y-70823200D01*
X164873015Y-70870819D01*
X164920634Y-70966057D01*
X164920634Y-71108914D01*
X164873015Y-71204152D01*
X164825396Y-71251771D01*
X164730158Y-71299390D01*
X164349205Y-71299390D01*
X165777777Y-71108914D02*
X165777777Y-71775581D01*
X165539681Y-70727962D02*
X165301586Y-71442248D01*
X165920634Y-71442248D01*
X121867705Y-93416381D02*
X121867705Y-92416381D01*
X122248658Y-92416381D01*
X122343896Y-92464000D01*
X122391515Y-92511619D01*
X122439134Y-92606857D01*
X122439134Y-92749714D01*
X122391515Y-92844952D01*
X122343896Y-92892571D01*
X122248658Y-92940190D01*
X121867705Y-92940190D01*
X123343896Y-92416381D02*
X122867705Y-92416381D01*
X122820086Y-92892571D01*
X122867705Y-92844952D01*
X122962943Y-92797333D01*
X123201039Y-92797333D01*
X123296277Y-92844952D01*
X123343896Y-92892571D01*
X123391515Y-92987810D01*
X123391515Y-93225905D01*
X123343896Y-93321143D01*
X123296277Y-93368762D01*
X123201039Y-93416381D01*
X122962943Y-93416381D01*
X122867705Y-93368762D01*
X122820086Y-93321143D01*
X139965205Y-96083381D02*
X139965205Y-95083381D01*
X140346158Y-95083381D01*
X140441396Y-95131000D01*
X140489015Y-95178619D01*
X140536634Y-95273857D01*
X140536634Y-95416714D01*
X140489015Y-95511952D01*
X140441396Y-95559571D01*
X140346158Y-95607190D01*
X139965205Y-95607190D01*
X141393777Y-95083381D02*
X141203300Y-95083381D01*
X141108062Y-95131000D01*
X141060443Y-95178619D01*
X140965205Y-95321476D01*
X140917586Y-95511952D01*
X140917586Y-95892905D01*
X140965205Y-95988143D01*
X141012824Y-96035762D01*
X141108062Y-96083381D01*
X141298539Y-96083381D01*
X141393777Y-96035762D01*
X141441396Y-95988143D01*
X141489015Y-95892905D01*
X141489015Y-95654810D01*
X141441396Y-95559571D01*
X141393777Y-95511952D01*
X141298539Y-95464333D01*
X141108062Y-95464333D01*
X141012824Y-95511952D01*
X140965205Y-95559571D01*
X140917586Y-95654810D01*
X147572505Y-93937081D02*
X147572505Y-92937081D01*
X147953458Y-92937081D01*
X148048696Y-92984700D01*
X148096315Y-93032319D01*
X148143934Y-93127557D01*
X148143934Y-93270414D01*
X148096315Y-93365652D01*
X148048696Y-93413271D01*
X147953458Y-93460890D01*
X147572505Y-93460890D01*
X148477267Y-92937081D02*
X149143934Y-92937081D01*
X148715362Y-93937081D01*
X164781005Y-96235781D02*
X164781005Y-95235781D01*
X165161958Y-95235781D01*
X165257196Y-95283400D01*
X165304815Y-95331019D01*
X165352434Y-95426257D01*
X165352434Y-95569114D01*
X165304815Y-95664352D01*
X165257196Y-95711971D01*
X165161958Y-95759590D01*
X164781005Y-95759590D01*
X165923862Y-95664352D02*
X165828624Y-95616733D01*
X165781005Y-95569114D01*
X165733386Y-95473876D01*
X165733386Y-95426257D01*
X165781005Y-95331019D01*
X165828624Y-95283400D01*
X165923862Y-95235781D01*
X166114339Y-95235781D01*
X166209577Y-95283400D01*
X166257196Y-95331019D01*
X166304815Y-95426257D01*
X166304815Y-95473876D01*
X166257196Y-95569114D01*
X166209577Y-95616733D01*
X166114339Y-95664352D01*
X165923862Y-95664352D01*
X165828624Y-95711971D01*
X165781005Y-95759590D01*
X165733386Y-95854829D01*
X165733386Y-96045305D01*
X165781005Y-96140543D01*
X165828624Y-96188162D01*
X165923862Y-96235781D01*
X166114339Y-96235781D01*
X166209577Y-96188162D01*
X166257196Y-96140543D01*
X166304815Y-96045305D01*
X166304815Y-95854829D01*
X166257196Y-95759590D01*
X166209577Y-95711971D01*
X166114339Y-95664352D01*
X130759295Y-75385681D02*
X130759295Y-76195205D01*
X130806914Y-76290443D01*
X130854533Y-76338062D01*
X130949771Y-76385681D01*
X131140248Y-76385681D01*
X131235486Y-76338062D01*
X131283105Y-76290443D01*
X131330724Y-76195205D01*
X131330724Y-75385681D01*
X132330724Y-76385681D02*
X131759295Y-76385681D01*
X132045009Y-76385681D02*
X132045009Y-75385681D01*
X131949771Y-75528538D01*
X131854533Y-75623776D01*
X131759295Y-75671395D01*
X155714795Y-75728581D02*
X155714795Y-76538105D01*
X155762414Y-76633343D01*
X155810033Y-76680962D01*
X155905271Y-76728581D01*
X156095748Y-76728581D01*
X156190986Y-76680962D01*
X156238605Y-76633343D01*
X156286224Y-76538105D01*
X156286224Y-75728581D01*
X156714795Y-75823819D02*
X156762414Y-75776200D01*
X156857652Y-75728581D01*
X157095748Y-75728581D01*
X157190986Y-75776200D01*
X157238605Y-75823819D01*
X157286224Y-75919057D01*
X157286224Y-76014295D01*
X157238605Y-76157152D01*
X156667176Y-76728581D01*
X157286224Y-76728581D01*
X131191095Y-100544381D02*
X131191095Y-101353905D01*
X131238714Y-101449143D01*
X131286333Y-101496762D01*
X131381571Y-101544381D01*
X131572048Y-101544381D01*
X131667286Y-101496762D01*
X131714905Y-101449143D01*
X131762524Y-101353905D01*
X131762524Y-100544381D01*
X132143476Y-100544381D02*
X132762524Y-100544381D01*
X132429190Y-100925333D01*
X132572048Y-100925333D01*
X132667286Y-100972952D01*
X132714905Y-101020571D01*
X132762524Y-101115810D01*
X132762524Y-101353905D01*
X132714905Y-101449143D01*
X132667286Y-101496762D01*
X132572048Y-101544381D01*
X132286333Y-101544381D01*
X132191095Y-101496762D01*
X132143476Y-101449143D01*
X156171995Y-100417381D02*
X156171995Y-101226905D01*
X156219614Y-101322143D01*
X156267233Y-101369762D01*
X156362471Y-101417381D01*
X156552948Y-101417381D01*
X156648186Y-101369762D01*
X156695805Y-101322143D01*
X156743424Y-101226905D01*
X156743424Y-100417381D01*
X157648186Y-100750714D02*
X157648186Y-101417381D01*
X157410090Y-100369762D02*
X157171995Y-101084048D01*
X157791043Y-101084048D01*
M02*
