G04 #@! TF.FileFunction,Copper,L2,Bot,Signal*
%FSLAX46Y46*%
G04 Gerber Fmt 4.6, Leading zero omitted, Abs format (unit mm)*
G04 Created by KiCad (PCBNEW 4.0.4-stable) date 11/08/16 09:08:38*
%MOMM*%
%LPD*%
G01*
G04 APERTURE LIST*
%ADD10C,0.100000*%
%ADD11R,2.032000X1.727200*%
%ADD12O,2.032000X1.727200*%
%ADD13C,1.905000*%
%ADD14C,0.600000*%
%ADD15C,0.250000*%
G04 APERTURE END LIST*
D10*
D11*
X122770900Y-70408800D03*
D12*
X122770900Y-72948800D03*
X122770900Y-75488800D03*
X122770900Y-78028800D03*
X122770900Y-80568800D03*
D11*
X139420600Y-78511400D03*
D12*
X139420600Y-75971400D03*
X139420600Y-73431400D03*
D11*
X147574000Y-70675500D03*
D12*
X147574000Y-73215500D03*
X147574000Y-75755500D03*
X147574000Y-78295500D03*
X147574000Y-80835500D03*
D11*
X165074600Y-78955900D03*
D12*
X165074600Y-76415900D03*
X165074600Y-73875900D03*
D11*
X122682000Y-95504000D03*
D12*
X122682000Y-98044000D03*
X122682000Y-100584000D03*
X122682000Y-103124000D03*
X122682000Y-105664000D03*
D11*
X140627100Y-103276400D03*
D12*
X140627100Y-100736400D03*
X140627100Y-98196400D03*
D11*
X148221700Y-96354900D03*
D12*
X148221700Y-98894900D03*
X148221700Y-101434900D03*
X148221700Y-103974900D03*
X148221700Y-106514900D03*
D11*
X165506400Y-103644700D03*
D12*
X165506400Y-101104700D03*
X165506400Y-98564700D03*
D13*
X128143000Y-104902000D03*
X130683000Y-104902000D03*
X133223000Y-104902000D03*
X135763000Y-104902000D03*
X135763000Y-97282000D03*
X133223000Y-97282000D03*
X130683000Y-97282000D03*
X128143000Y-97282000D03*
X153289000Y-104775000D03*
X155829000Y-104775000D03*
X158369000Y-104775000D03*
X160909000Y-104775000D03*
X160909000Y-97155000D03*
X158369000Y-97155000D03*
X155829000Y-97155000D03*
X153289000Y-97155000D03*
D14*
X127431800Y-73177400D03*
X152323800Y-73494900D03*
D15*
X122770900Y-70408800D02*
X131267200Y-70408800D01*
X136829800Y-75971400D02*
X139420600Y-75971400D01*
X131267200Y-70408800D02*
X136829800Y-75971400D01*
X122770900Y-80568800D02*
X125272800Y-80568800D01*
X126466600Y-74142600D02*
X127431800Y-73177400D01*
X126466600Y-79375000D02*
X126466600Y-74142600D01*
X125272800Y-80568800D02*
X126466600Y-79375000D01*
X147574000Y-70675500D02*
X156616400Y-70675500D01*
X162356800Y-76415900D02*
X165074600Y-76415900D01*
X156616400Y-70675500D02*
X162356800Y-76415900D01*
X147574000Y-80835500D02*
X149783800Y-80835500D01*
X151549100Y-74269600D02*
X152323800Y-73494900D01*
X151549100Y-79070200D02*
X151549100Y-74269600D01*
X149783800Y-80835500D02*
X151549100Y-79070200D01*
X122682000Y-95504000D02*
X124117100Y-95504000D01*
X133223000Y-103314500D02*
X133223000Y-104902000D01*
X131597400Y-101688900D02*
X133223000Y-103314500D01*
X129044700Y-101688900D02*
X131597400Y-101688900D01*
X125958600Y-98602800D02*
X129044700Y-101688900D01*
X125958600Y-97345500D02*
X125958600Y-98602800D01*
X124117100Y-95504000D02*
X125958600Y-97345500D01*
X128143000Y-97282000D02*
X128143000Y-96113600D01*
X138557000Y-103276400D02*
X140627100Y-103276400D01*
X137998200Y-102717600D02*
X138557000Y-103276400D01*
X137998200Y-96164400D02*
X137998200Y-102717600D01*
X136626600Y-94792800D02*
X137998200Y-96164400D01*
X129463800Y-94792800D02*
X136626600Y-94792800D01*
X128143000Y-96113600D02*
X129463800Y-94792800D01*
X158369000Y-104775000D02*
X158369000Y-102933500D01*
X149847300Y-96354900D02*
X148221700Y-96354900D01*
X150571200Y-97078800D02*
X149847300Y-96354900D01*
X150571200Y-98488500D02*
X150571200Y-97078800D01*
X153200100Y-101117400D02*
X150571200Y-98488500D01*
X156552900Y-101117400D02*
X153200100Y-101117400D01*
X158369000Y-102933500D02*
X156552900Y-101117400D01*
X153289000Y-97155000D02*
X153289000Y-96227900D01*
X153289000Y-96227900D02*
X155143200Y-94373700D01*
X155143200Y-94373700D02*
X162420300Y-94373700D01*
X162420300Y-94373700D02*
X162877500Y-94830900D01*
X162877500Y-94830900D02*
X162877500Y-103022400D01*
X162877500Y-103022400D02*
X163499800Y-103644700D01*
X163499800Y-103644700D02*
X165506400Y-103644700D01*
M02*
