M48
INCH,TZ
T1C0.016
T2C0.030
T3C0.040
%
G90
G05
T1
X50170Y-28810
X59970Y-28935
T2
X50450Y-38300
X50450Y-41300
X51450Y-38300
X51450Y-41300
X52450Y-38300
X52450Y-41300
X53450Y-38300
X53450Y-41300
X60350Y-38250
X60350Y-41250
X61350Y-38250
X61350Y-41250
X62350Y-38250
X62350Y-41250
X63350Y-38250
X63350Y-41250
T3
X48300Y-37600
X48300Y-38600
X48300Y-39600
X48300Y-40600
X48300Y-41600
X48335Y-27720
X48335Y-28720
X48335Y-29720
X48335Y-30720
X48335Y-31720
X54890Y-28910
X54890Y-29910
X54890Y-30910
X55365Y-38660
X55365Y-39660
X55365Y-40660
X58100Y-27825
X58100Y-28825
X58100Y-29825
X58100Y-30825
X58100Y-31825
X58355Y-37935
X58355Y-38935
X58355Y-39935
X58355Y-40935
X58355Y-41935
X64990Y-29085
X64990Y-30085
X64990Y-31085
X65160Y-38805
X65160Y-39805
X65160Y-40805
T0
M30
