G04 #@! TF.FileFunction,Copper,L1,Top,Signal*
%FSLAX46Y46*%
G04 Gerber Fmt 4.6, Leading zero omitted, Abs format (unit mm)*
G04 Created by KiCad (PCBNEW 4.0.4-stable) date 03/30/17 11:45:36*
%MOMM*%
%LPD*%
G01*
G04 APERTURE LIST*
%ADD10C,0.100000*%
%ADD11O,1.400000X1.000000*%
%ADD12O,0.100000X0.100000*%
%ADD13R,0.600000X1.550000*%
%ADD14R,1.250000X1.500000*%
%ADD15C,1.750000*%
%ADD16C,1.501140*%
%ADD17C,2.999740*%
%ADD18R,1.300000X1.500000*%
%ADD19R,1.500000X1.300000*%
%ADD20R,3.000000X1.600000*%
%ADD21R,1.700000X1.700000*%
%ADD22O,1.700000X1.700000*%
%ADD23R,2.500000X1.500000*%
%ADD24R,2.000000X1.500000*%
%ADD25R,1.900000X1.500000*%
%ADD26R,2.700000X1.500000*%
%ADD27R,2.100000X1.500000*%
%ADD28C,0.800000*%
%ADD29C,0.600000*%
%ADD30C,0.600000*%
%ADD31C,0.400000*%
%ADD32C,0.250000*%
%ADD33C,0.200000*%
G04 APERTURE END LIST*
D10*
D11*
X142960000Y-78840000D03*
D12*
X142960000Y-81200000D03*
D10*
G36*
X143048205Y-79523109D02*
X142701795Y-79723109D01*
X142351795Y-79116891D01*
X142698205Y-78916891D01*
X143048205Y-79523109D01*
X143048205Y-79523109D01*
G37*
G36*
X142845863Y-81077199D02*
X143185082Y-81289167D01*
X142814139Y-81882801D01*
X142474920Y-81670833D01*
X142845863Y-81077199D01*
X142845863Y-81077199D01*
G37*
D13*
X149055000Y-70810000D03*
X150325000Y-70810000D03*
X151595000Y-70810000D03*
X152865000Y-70810000D03*
X152865000Y-65410000D03*
X151595000Y-65410000D03*
X150325000Y-65410000D03*
X149055000Y-65410000D03*
D14*
X146970000Y-68060000D03*
X146970000Y-70560000D03*
D15*
X148600000Y-57400000D03*
X153000000Y-57400000D03*
D16*
X154300000Y-59400000D03*
X151800000Y-59400000D03*
X149800000Y-59400000D03*
X147300000Y-59400000D03*
D17*
X156800000Y-57400000D03*
X144800000Y-57400000D03*
D18*
X157510000Y-101090000D03*
X157510000Y-103790000D03*
D19*
X157450000Y-69950000D03*
X154750000Y-69950000D03*
D20*
X147680000Y-103860000D03*
X154680000Y-103860000D03*
D21*
X149730000Y-98450000D03*
D22*
X152270000Y-98450000D03*
D23*
X143400000Y-72997600D03*
X143400000Y-75029600D03*
X143400000Y-77112400D03*
D24*
X143700000Y-79093600D03*
D25*
X143700000Y-81125600D03*
D23*
X143400000Y-83106800D03*
X143400000Y-85113400D03*
D26*
X158450000Y-73035700D03*
X158450000Y-75118500D03*
X158450000Y-77099700D03*
D27*
X158150000Y-79119000D03*
X158150000Y-81151000D03*
D26*
X158450000Y-83056000D03*
X158450000Y-85088000D03*
X158450000Y-87120000D03*
D23*
X143400000Y-87120000D03*
D10*
G36*
X158851795Y-81296890D02*
X159198205Y-81096890D01*
X159548205Y-81703108D01*
X159201795Y-81903108D01*
X158851795Y-81296890D01*
X158851795Y-81296890D01*
G37*
G36*
X159234138Y-79782801D02*
X158894919Y-79570833D01*
X159265862Y-78977199D01*
X159605081Y-79189167D01*
X159234138Y-79782801D01*
X159234138Y-79782801D01*
G37*
D11*
X159000000Y-78870000D03*
D12*
X159000000Y-81230000D03*
D28*
X142810000Y-101720000D03*
D29*
X144350000Y-105800000D03*
D28*
X146890000Y-105800000D03*
X157640000Y-105800000D03*
X154970000Y-105800000D03*
X142810000Y-104260000D03*
X142810000Y-99140000D03*
X157180000Y-68380000D03*
X146750000Y-66390000D03*
X145150000Y-64590000D03*
X153200000Y-66940000D03*
X151980000Y-66940000D03*
X145200000Y-103670000D03*
X156430000Y-73150000D03*
X150700000Y-66810000D03*
X148460000Y-69840000D03*
D29*
X156100000Y-66710000D03*
X156100000Y-68240000D03*
D28*
X156520000Y-83280000D03*
D29*
X149900000Y-72820000D03*
D28*
X149760000Y-73710000D03*
X151750000Y-77460000D03*
X148440000Y-91270000D03*
X145720000Y-79020000D03*
X147390000Y-80010000D03*
X147390000Y-81140000D03*
X145740000Y-81120000D03*
X149150000Y-81150000D03*
X149150000Y-80020000D03*
X145690000Y-80010000D03*
X147370000Y-79030000D03*
X146050000Y-72180000D03*
D30*
X142810000Y-99140000D02*
X142810000Y-101720000D01*
X142810000Y-104260000D02*
X144350000Y-105800000D01*
X154970000Y-105800000D02*
X157640000Y-105800000D01*
X158980000Y-104460000D02*
X157640000Y-105800000D01*
X158980000Y-104460000D02*
X158980000Y-104310000D01*
X154970000Y-105800000D02*
X146890000Y-105800000D01*
X144350000Y-105800000D02*
X146890000Y-105800000D01*
X142810000Y-101720000D02*
X142810000Y-104260000D01*
X158970000Y-104310000D02*
X158980000Y-104310000D01*
X158970000Y-104310000D02*
X158960000Y-104300000D01*
D31*
X157450000Y-69950000D02*
X157450000Y-68650000D01*
X157450000Y-68650000D02*
X157180000Y-68380000D01*
D32*
X157450000Y-69950000D02*
X157450000Y-69450000D01*
D30*
X145390000Y-103860000D02*
X147680000Y-103860000D01*
X145200000Y-103670000D02*
X145390000Y-103860000D01*
X156430000Y-73150000D02*
X157846800Y-73150000D01*
X157846800Y-73150000D02*
X157871100Y-73125700D01*
D31*
X150700000Y-66810000D02*
X149470000Y-66810000D01*
X149055000Y-66395000D02*
X149055000Y-65410000D01*
X149470000Y-66810000D02*
X149055000Y-66395000D01*
X148460000Y-69840000D02*
X149055000Y-70435000D01*
X149055000Y-70810000D02*
X149055000Y-70435000D01*
X149055000Y-70810000D02*
X149055000Y-70765000D01*
D32*
X153710000Y-65410000D02*
X154410000Y-66110000D01*
X152865000Y-65410000D02*
X153710000Y-65410000D01*
X154410000Y-68620000D02*
X153915000Y-69115000D01*
X154410000Y-66110000D02*
X154410000Y-68620000D01*
X145350000Y-69740000D02*
X145950000Y-69140000D01*
X154750000Y-69950000D02*
X153915000Y-69115000D01*
X153915000Y-69115000D02*
X153900000Y-69100000D01*
X145350000Y-69740000D02*
X145350000Y-71750000D01*
X145350000Y-71750000D02*
X145140000Y-71960000D01*
X145140000Y-71960000D02*
X145140000Y-74770000D01*
X145140000Y-74770000D02*
X144790400Y-75119600D01*
X144790400Y-75119600D02*
X143883800Y-75119600D01*
X148010000Y-69100000D02*
X153900000Y-69100000D01*
X147970000Y-69140000D02*
X148010000Y-69100000D01*
X145950000Y-69140000D02*
X147970000Y-69140000D01*
X154620000Y-70080000D02*
X154750000Y-69950000D01*
X154270000Y-70430000D02*
X154750000Y-69950000D01*
X155230000Y-65270000D02*
X155460000Y-65500000D01*
X157630000Y-67570000D02*
X159400000Y-69340000D01*
X159400000Y-69340000D02*
X159400000Y-71380000D01*
X156669700Y-77189700D02*
X157947300Y-77189700D01*
X159030000Y-71750000D02*
X159400000Y-71380000D01*
X156740000Y-71750000D02*
X159030000Y-71750000D01*
X155620000Y-72870000D02*
X156740000Y-71750000D01*
X155620000Y-73460000D02*
X155620000Y-72870000D01*
X156330000Y-74170000D02*
X155620000Y-73460000D01*
X156330000Y-76850000D02*
X156330000Y-74170000D01*
X156669700Y-77189700D02*
X156330000Y-76850000D01*
X156030000Y-67570000D02*
X157630000Y-67570000D01*
X156030000Y-67570000D02*
X155660000Y-67570000D01*
X155460000Y-67370000D02*
X155660000Y-67570000D01*
X155460000Y-65500000D02*
X155460000Y-67370000D01*
X151595000Y-64295000D02*
X151595000Y-65410000D01*
X152030000Y-63860000D02*
X151595000Y-64295000D01*
X153820000Y-63860000D02*
X152030000Y-63860000D01*
X155280000Y-65320000D02*
X155230000Y-65270000D01*
X155230000Y-65270000D02*
X153820000Y-63860000D01*
X155850000Y-77130000D02*
X155850000Y-77550000D01*
X156100000Y-70950000D02*
X156100000Y-68240000D01*
X155130000Y-71920000D02*
X156100000Y-70950000D01*
X155130000Y-73663604D02*
X155130000Y-71920000D01*
X155850000Y-74383604D02*
X155130000Y-73663604D01*
X155850000Y-77130000D02*
X155850000Y-74383604D01*
X156100000Y-66710000D02*
X156100000Y-65470000D01*
X154000000Y-63370000D02*
X156100000Y-65470000D01*
X151840000Y-63370000D02*
X154000000Y-63370000D01*
X150325000Y-64885000D02*
X151840000Y-63370000D01*
X155850000Y-77550000D02*
X157419000Y-79119000D01*
X157419000Y-79119000D02*
X157940000Y-79119000D01*
X150325000Y-65410000D02*
X150325000Y-64885000D01*
X157960000Y-79209000D02*
X157929000Y-79209000D01*
X157499000Y-79209000D02*
X157960000Y-79209000D01*
X157959000Y-79210000D02*
X157960000Y-79209000D01*
D30*
X145610000Y-101010000D02*
X145610000Y-83300000D01*
X154380000Y-103830000D02*
X151520000Y-103830000D01*
X145506800Y-83196800D02*
X143934600Y-83196800D01*
X145610000Y-83300000D02*
X145506800Y-83196800D01*
X146790000Y-102190000D02*
X145610000Y-101010000D01*
X149880000Y-102190000D02*
X146790000Y-102190000D01*
X151520000Y-103830000D02*
X149880000Y-102190000D01*
X154380000Y-103830000D02*
X157470000Y-103830000D01*
X157470000Y-103830000D02*
X157510000Y-103790000D01*
X157960000Y-83146000D02*
X156654000Y-83146000D01*
X156654000Y-83146000D02*
X156520000Y-83280000D01*
D32*
X150325000Y-71865000D02*
X150325000Y-72395000D01*
X150325000Y-71865000D02*
X150325000Y-70810000D01*
X150325000Y-72395000D02*
X149900000Y-72820000D01*
D30*
X146970000Y-70560000D02*
X146970000Y-70810000D01*
X146970000Y-70810000D02*
X148000000Y-71840000D01*
X146050000Y-72180000D02*
X146050000Y-72460000D01*
X146050000Y-72460000D02*
X146520000Y-72930000D01*
D31*
X146050000Y-72160000D02*
X146080000Y-72160000D01*
X146050000Y-72180000D02*
X146050000Y-72160000D01*
X146970000Y-70560000D02*
X146970000Y-71240000D01*
X146970000Y-71240000D02*
X147910000Y-72180000D01*
X151595000Y-70810000D02*
X151595000Y-71475000D01*
X151595000Y-71475000D02*
X151000000Y-72070000D01*
X146080000Y-72160000D02*
X146040000Y-72160000D01*
X146040000Y-72160000D02*
X146910000Y-71290000D01*
X146080000Y-72160000D02*
X146330000Y-72160000D01*
X146330000Y-72160000D02*
X147080000Y-71410000D01*
X146080000Y-72170000D02*
X146090000Y-72180000D01*
X146080000Y-72160000D02*
X146080000Y-72170000D01*
D33*
G36*
X150779563Y-69690595D02*
X150751500Y-69758345D01*
X150744003Y-69753222D01*
X150625000Y-69729123D01*
X150025000Y-69729123D01*
X149913827Y-69750042D01*
X149811721Y-69815745D01*
X149743222Y-69915997D01*
X149719123Y-70035000D01*
X149719123Y-71585000D01*
X149740042Y-71696173D01*
X149805745Y-71798279D01*
X149900000Y-71862680D01*
X149900000Y-72218959D01*
X149898961Y-72219999D01*
X149781176Y-72219896D01*
X149560571Y-72311048D01*
X149391641Y-72479683D01*
X149300104Y-72700129D01*
X149299896Y-72938824D01*
X149391048Y-73159429D01*
X149559683Y-73328359D01*
X149780129Y-73419896D01*
X150018824Y-73420104D01*
X150239429Y-73328952D01*
X150408359Y-73160317D01*
X150499896Y-72939871D01*
X150500000Y-72821041D01*
X150625521Y-72695520D01*
X150717649Y-72557641D01*
X150750000Y-72395000D01*
X150750000Y-71861061D01*
X150750990Y-71860424D01*
X150779563Y-71929405D01*
X150950596Y-72100438D01*
X151174062Y-72193000D01*
X151293000Y-72193000D01*
X151445000Y-72041000D01*
X151445000Y-70964000D01*
X151745000Y-70964000D01*
X151745000Y-72041000D01*
X151897000Y-72193000D01*
X152015938Y-72193000D01*
X152230000Y-72104333D01*
X152444062Y-72193000D01*
X152563000Y-72193000D01*
X152715000Y-72041000D01*
X152715000Y-70964000D01*
X151745000Y-70964000D01*
X151445000Y-70964000D01*
X151421000Y-70964000D01*
X151421000Y-70656000D01*
X151445000Y-70656000D01*
X151445000Y-70636000D01*
X151745000Y-70636000D01*
X151745000Y-70656000D01*
X152715000Y-70656000D01*
X152715000Y-70636000D01*
X153015000Y-70636000D01*
X153015000Y-70656000D01*
X153039000Y-70656000D01*
X153039000Y-70964000D01*
X153015000Y-70964000D01*
X153015000Y-72041000D01*
X153070000Y-72096000D01*
X153070000Y-74550000D01*
X153077879Y-74588906D01*
X153099289Y-74620711D01*
X153760000Y-75281422D01*
X153760000Y-78270000D01*
X153767879Y-78308906D01*
X153789289Y-78340711D01*
X155120000Y-79671422D01*
X155120000Y-81480000D01*
X155127879Y-81518906D01*
X155149289Y-81550711D01*
X155770000Y-82171422D01*
X155770000Y-84100000D01*
X155777879Y-84138906D01*
X155800273Y-84171681D01*
X155833654Y-84193161D01*
X155870000Y-84200000D01*
X156831202Y-84200000D01*
X156818222Y-84218997D01*
X156794123Y-84338000D01*
X156794123Y-85838000D01*
X156815042Y-85949173D01*
X156880745Y-86051279D01*
X156958613Y-86104484D01*
X156886721Y-86150745D01*
X156818222Y-86250997D01*
X156794123Y-86370000D01*
X156794123Y-87870000D01*
X156815042Y-87981173D01*
X156880745Y-88083279D01*
X156980997Y-88151778D01*
X157100000Y-88175877D01*
X159450000Y-88175877D01*
X159450000Y-93295370D01*
X158793361Y-93432823D01*
X158658748Y-93490165D01*
X158658745Y-93490168D01*
X157853109Y-94040209D01*
X157750686Y-94144700D01*
X157216865Y-94961177D01*
X157165187Y-95089555D01*
X157162226Y-95096910D01*
X156990822Y-96006039D01*
X156982205Y-96026841D01*
X156982205Y-96051740D01*
X156981492Y-96055523D01*
X156982206Y-96126896D01*
X156982206Y-96173159D01*
X156982693Y-96175606D01*
X156982955Y-96201833D01*
X156992250Y-96223653D01*
X157172507Y-97129868D01*
X157228500Y-97265048D01*
X157770432Y-98076106D01*
X157873894Y-98179568D01*
X158684952Y-98721500D01*
X158820131Y-98777493D01*
X158820132Y-98777493D01*
X159475000Y-98907755D01*
X159475000Y-103991600D01*
X159404264Y-103885736D01*
X159209610Y-103755672D01*
X159202442Y-103754246D01*
X159189610Y-103745672D01*
X158960000Y-103700000D01*
X158730390Y-103745672D01*
X158535736Y-103875736D01*
X158465877Y-103980287D01*
X158465877Y-103040000D01*
X158444958Y-102928827D01*
X158379255Y-102826721D01*
X158279003Y-102758222D01*
X158160000Y-102734123D01*
X156860000Y-102734123D01*
X156748827Y-102755042D01*
X156646721Y-102820745D01*
X156578222Y-102920997D01*
X156554123Y-103040000D01*
X156554123Y-103230000D01*
X156485877Y-103230000D01*
X156485877Y-103060000D01*
X156464958Y-102948827D01*
X156399255Y-102846721D01*
X156299003Y-102778222D01*
X156180000Y-102754123D01*
X153180000Y-102754123D01*
X153068827Y-102775042D01*
X152966721Y-102840745D01*
X152898222Y-102940997D01*
X152874123Y-103060000D01*
X152874123Y-103230000D01*
X151768528Y-103230000D01*
X150304264Y-101765736D01*
X150109610Y-101635672D01*
X149880000Y-101590000D01*
X147038528Y-101590000D01*
X146210000Y-100761472D01*
X146210000Y-100340000D01*
X156554123Y-100340000D01*
X156554123Y-101840000D01*
X156575042Y-101951173D01*
X156640745Y-102053279D01*
X156740997Y-102121778D01*
X156860000Y-102145877D01*
X158160000Y-102145877D01*
X158271173Y-102124958D01*
X158373279Y-102059255D01*
X158441778Y-101959003D01*
X158465877Y-101840000D01*
X158465877Y-100340000D01*
X158444958Y-100228827D01*
X158379255Y-100126721D01*
X158279003Y-100058222D01*
X158160000Y-100034123D01*
X156860000Y-100034123D01*
X156748827Y-100055042D01*
X156646721Y-100120745D01*
X156578222Y-100220997D01*
X156554123Y-100340000D01*
X146210000Y-100340000D01*
X146210000Y-98756000D01*
X148272000Y-98756000D01*
X148272000Y-99420939D01*
X148364563Y-99644405D01*
X148535596Y-99815438D01*
X148759062Y-99908000D01*
X149424000Y-99908000D01*
X149576000Y-99756000D01*
X149576000Y-98604000D01*
X148424000Y-98604000D01*
X148272000Y-98756000D01*
X146210000Y-98756000D01*
X146210000Y-97479061D01*
X148272000Y-97479061D01*
X148272000Y-98144000D01*
X148424000Y-98296000D01*
X149576000Y-98296000D01*
X149576000Y-97144000D01*
X149884000Y-97144000D01*
X149884000Y-98296000D01*
X149904000Y-98296000D01*
X149904000Y-98604000D01*
X149884000Y-98604000D01*
X149884000Y-99756000D01*
X150036000Y-99908000D01*
X150700938Y-99908000D01*
X150924404Y-99815438D01*
X151095437Y-99644405D01*
X151188000Y-99420939D01*
X151188000Y-98814387D01*
X151207539Y-98912616D01*
X151456827Y-99285703D01*
X151829914Y-99534991D01*
X152270000Y-99622530D01*
X152710086Y-99534991D01*
X153083173Y-99285703D01*
X153332461Y-98912616D01*
X153420000Y-98472530D01*
X153420000Y-98427470D01*
X153332461Y-97987384D01*
X153083173Y-97614297D01*
X152710086Y-97365009D01*
X152270000Y-97277470D01*
X151829914Y-97365009D01*
X151456827Y-97614297D01*
X151207539Y-97987384D01*
X151188000Y-98085613D01*
X151188000Y-97479061D01*
X151095437Y-97255595D01*
X150924404Y-97084562D01*
X150700938Y-96992000D01*
X150036000Y-96992000D01*
X149884000Y-97144000D01*
X149576000Y-97144000D01*
X149424000Y-96992000D01*
X148759062Y-96992000D01*
X148535596Y-97084562D01*
X148364563Y-97255595D01*
X148272000Y-97479061D01*
X146210000Y-97479061D01*
X146210000Y-83300000D01*
X146164328Y-83070390D01*
X146034264Y-82875736D01*
X145931064Y-82772536D01*
X145736410Y-82642472D01*
X145506800Y-82596800D01*
X144955877Y-82596800D01*
X144955877Y-82356800D01*
X144934958Y-82245627D01*
X144869255Y-82143521D01*
X144853926Y-82133047D01*
X144913279Y-82094855D01*
X144981778Y-81994603D01*
X145005877Y-81875600D01*
X145005877Y-80375600D01*
X144984958Y-80264427D01*
X144919255Y-80162321D01*
X144819003Y-80093822D01*
X144816076Y-80093229D01*
X144863279Y-80062855D01*
X144931778Y-79962603D01*
X144955877Y-79843600D01*
X144955877Y-78343600D01*
X144934958Y-78232427D01*
X144869255Y-78130321D01*
X144829676Y-78103278D01*
X144863279Y-78081655D01*
X144931778Y-77981403D01*
X144955877Y-77862400D01*
X144955877Y-76362400D01*
X144934958Y-76251227D01*
X144915483Y-76220962D01*
X144930711Y-76210711D01*
X146230711Y-74910711D01*
X146252650Y-74877629D01*
X146260000Y-74840000D01*
X146260000Y-71918000D01*
X146664000Y-71918000D01*
X146816000Y-71766000D01*
X146816000Y-70714000D01*
X147124000Y-70714000D01*
X147124000Y-71766000D01*
X147276000Y-71918000D01*
X147715938Y-71918000D01*
X147939404Y-71825438D01*
X148110437Y-71654405D01*
X148203000Y-71430939D01*
X148203000Y-70866000D01*
X148051000Y-70714000D01*
X147124000Y-70714000D01*
X146816000Y-70714000D01*
X146796000Y-70714000D01*
X146796000Y-70406000D01*
X146816000Y-70406000D01*
X146816000Y-70386000D01*
X147124000Y-70386000D01*
X147124000Y-70406000D01*
X148035926Y-70406000D01*
X148062964Y-70433085D01*
X148320150Y-70539878D01*
X148449123Y-70539991D01*
X148449123Y-71585000D01*
X148470042Y-71696173D01*
X148535745Y-71798279D01*
X148635997Y-71866778D01*
X148755000Y-71890877D01*
X149355000Y-71890877D01*
X149466173Y-71869958D01*
X149568279Y-71804255D01*
X149636778Y-71704003D01*
X149660877Y-71585000D01*
X149660877Y-70035000D01*
X149639958Y-69923827D01*
X149574255Y-69821721D01*
X149474003Y-69753222D01*
X149355000Y-69729123D01*
X149160097Y-69729123D01*
X149160121Y-69701372D01*
X149151290Y-69680000D01*
X150790158Y-69680000D01*
X150779563Y-69690595D01*
X150779563Y-69690595D01*
G37*
X150779563Y-69690595D02*
X150751500Y-69758345D01*
X150744003Y-69753222D01*
X150625000Y-69729123D01*
X150025000Y-69729123D01*
X149913827Y-69750042D01*
X149811721Y-69815745D01*
X149743222Y-69915997D01*
X149719123Y-70035000D01*
X149719123Y-71585000D01*
X149740042Y-71696173D01*
X149805745Y-71798279D01*
X149900000Y-71862680D01*
X149900000Y-72218959D01*
X149898961Y-72219999D01*
X149781176Y-72219896D01*
X149560571Y-72311048D01*
X149391641Y-72479683D01*
X149300104Y-72700129D01*
X149299896Y-72938824D01*
X149391048Y-73159429D01*
X149559683Y-73328359D01*
X149780129Y-73419896D01*
X150018824Y-73420104D01*
X150239429Y-73328952D01*
X150408359Y-73160317D01*
X150499896Y-72939871D01*
X150500000Y-72821041D01*
X150625521Y-72695520D01*
X150717649Y-72557641D01*
X150750000Y-72395000D01*
X150750000Y-71861061D01*
X150750990Y-71860424D01*
X150779563Y-71929405D01*
X150950596Y-72100438D01*
X151174062Y-72193000D01*
X151293000Y-72193000D01*
X151445000Y-72041000D01*
X151445000Y-70964000D01*
X151745000Y-70964000D01*
X151745000Y-72041000D01*
X151897000Y-72193000D01*
X152015938Y-72193000D01*
X152230000Y-72104333D01*
X152444062Y-72193000D01*
X152563000Y-72193000D01*
X152715000Y-72041000D01*
X152715000Y-70964000D01*
X151745000Y-70964000D01*
X151445000Y-70964000D01*
X151421000Y-70964000D01*
X151421000Y-70656000D01*
X151445000Y-70656000D01*
X151445000Y-70636000D01*
X151745000Y-70636000D01*
X151745000Y-70656000D01*
X152715000Y-70656000D01*
X152715000Y-70636000D01*
X153015000Y-70636000D01*
X153015000Y-70656000D01*
X153039000Y-70656000D01*
X153039000Y-70964000D01*
X153015000Y-70964000D01*
X153015000Y-72041000D01*
X153070000Y-72096000D01*
X153070000Y-74550000D01*
X153077879Y-74588906D01*
X153099289Y-74620711D01*
X153760000Y-75281422D01*
X153760000Y-78270000D01*
X153767879Y-78308906D01*
X153789289Y-78340711D01*
X155120000Y-79671422D01*
X155120000Y-81480000D01*
X155127879Y-81518906D01*
X155149289Y-81550711D01*
X155770000Y-82171422D01*
X155770000Y-84100000D01*
X155777879Y-84138906D01*
X155800273Y-84171681D01*
X155833654Y-84193161D01*
X155870000Y-84200000D01*
X156831202Y-84200000D01*
X156818222Y-84218997D01*
X156794123Y-84338000D01*
X156794123Y-85838000D01*
X156815042Y-85949173D01*
X156880745Y-86051279D01*
X156958613Y-86104484D01*
X156886721Y-86150745D01*
X156818222Y-86250997D01*
X156794123Y-86370000D01*
X156794123Y-87870000D01*
X156815042Y-87981173D01*
X156880745Y-88083279D01*
X156980997Y-88151778D01*
X157100000Y-88175877D01*
X159450000Y-88175877D01*
X159450000Y-93295370D01*
X158793361Y-93432823D01*
X158658748Y-93490165D01*
X158658745Y-93490168D01*
X157853109Y-94040209D01*
X157750686Y-94144700D01*
X157216865Y-94961177D01*
X157165187Y-95089555D01*
X157162226Y-95096910D01*
X156990822Y-96006039D01*
X156982205Y-96026841D01*
X156982205Y-96051740D01*
X156981492Y-96055523D01*
X156982206Y-96126896D01*
X156982206Y-96173159D01*
X156982693Y-96175606D01*
X156982955Y-96201833D01*
X156992250Y-96223653D01*
X157172507Y-97129868D01*
X157228500Y-97265048D01*
X157770432Y-98076106D01*
X157873894Y-98179568D01*
X158684952Y-98721500D01*
X158820131Y-98777493D01*
X158820132Y-98777493D01*
X159475000Y-98907755D01*
X159475000Y-103991600D01*
X159404264Y-103885736D01*
X159209610Y-103755672D01*
X159202442Y-103754246D01*
X159189610Y-103745672D01*
X158960000Y-103700000D01*
X158730390Y-103745672D01*
X158535736Y-103875736D01*
X158465877Y-103980287D01*
X158465877Y-103040000D01*
X158444958Y-102928827D01*
X158379255Y-102826721D01*
X158279003Y-102758222D01*
X158160000Y-102734123D01*
X156860000Y-102734123D01*
X156748827Y-102755042D01*
X156646721Y-102820745D01*
X156578222Y-102920997D01*
X156554123Y-103040000D01*
X156554123Y-103230000D01*
X156485877Y-103230000D01*
X156485877Y-103060000D01*
X156464958Y-102948827D01*
X156399255Y-102846721D01*
X156299003Y-102778222D01*
X156180000Y-102754123D01*
X153180000Y-102754123D01*
X153068827Y-102775042D01*
X152966721Y-102840745D01*
X152898222Y-102940997D01*
X152874123Y-103060000D01*
X152874123Y-103230000D01*
X151768528Y-103230000D01*
X150304264Y-101765736D01*
X150109610Y-101635672D01*
X149880000Y-101590000D01*
X147038528Y-101590000D01*
X146210000Y-100761472D01*
X146210000Y-100340000D01*
X156554123Y-100340000D01*
X156554123Y-101840000D01*
X156575042Y-101951173D01*
X156640745Y-102053279D01*
X156740997Y-102121778D01*
X156860000Y-102145877D01*
X158160000Y-102145877D01*
X158271173Y-102124958D01*
X158373279Y-102059255D01*
X158441778Y-101959003D01*
X158465877Y-101840000D01*
X158465877Y-100340000D01*
X158444958Y-100228827D01*
X158379255Y-100126721D01*
X158279003Y-100058222D01*
X158160000Y-100034123D01*
X156860000Y-100034123D01*
X156748827Y-100055042D01*
X156646721Y-100120745D01*
X156578222Y-100220997D01*
X156554123Y-100340000D01*
X146210000Y-100340000D01*
X146210000Y-98756000D01*
X148272000Y-98756000D01*
X148272000Y-99420939D01*
X148364563Y-99644405D01*
X148535596Y-99815438D01*
X148759062Y-99908000D01*
X149424000Y-99908000D01*
X149576000Y-99756000D01*
X149576000Y-98604000D01*
X148424000Y-98604000D01*
X148272000Y-98756000D01*
X146210000Y-98756000D01*
X146210000Y-97479061D01*
X148272000Y-97479061D01*
X148272000Y-98144000D01*
X148424000Y-98296000D01*
X149576000Y-98296000D01*
X149576000Y-97144000D01*
X149884000Y-97144000D01*
X149884000Y-98296000D01*
X149904000Y-98296000D01*
X149904000Y-98604000D01*
X149884000Y-98604000D01*
X149884000Y-99756000D01*
X150036000Y-99908000D01*
X150700938Y-99908000D01*
X150924404Y-99815438D01*
X151095437Y-99644405D01*
X151188000Y-99420939D01*
X151188000Y-98814387D01*
X151207539Y-98912616D01*
X151456827Y-99285703D01*
X151829914Y-99534991D01*
X152270000Y-99622530D01*
X152710086Y-99534991D01*
X153083173Y-99285703D01*
X153332461Y-98912616D01*
X153420000Y-98472530D01*
X153420000Y-98427470D01*
X153332461Y-97987384D01*
X153083173Y-97614297D01*
X152710086Y-97365009D01*
X152270000Y-97277470D01*
X151829914Y-97365009D01*
X151456827Y-97614297D01*
X151207539Y-97987384D01*
X151188000Y-98085613D01*
X151188000Y-97479061D01*
X151095437Y-97255595D01*
X150924404Y-97084562D01*
X150700938Y-96992000D01*
X150036000Y-96992000D01*
X149884000Y-97144000D01*
X149576000Y-97144000D01*
X149424000Y-96992000D01*
X148759062Y-96992000D01*
X148535596Y-97084562D01*
X148364563Y-97255595D01*
X148272000Y-97479061D01*
X146210000Y-97479061D01*
X146210000Y-83300000D01*
X146164328Y-83070390D01*
X146034264Y-82875736D01*
X145931064Y-82772536D01*
X145736410Y-82642472D01*
X145506800Y-82596800D01*
X144955877Y-82596800D01*
X144955877Y-82356800D01*
X144934958Y-82245627D01*
X144869255Y-82143521D01*
X144853926Y-82133047D01*
X144913279Y-82094855D01*
X144981778Y-81994603D01*
X145005877Y-81875600D01*
X145005877Y-80375600D01*
X144984958Y-80264427D01*
X144919255Y-80162321D01*
X144819003Y-80093822D01*
X144816076Y-80093229D01*
X144863279Y-80062855D01*
X144931778Y-79962603D01*
X144955877Y-79843600D01*
X144955877Y-78343600D01*
X144934958Y-78232427D01*
X144869255Y-78130321D01*
X144829676Y-78103278D01*
X144863279Y-78081655D01*
X144931778Y-77981403D01*
X144955877Y-77862400D01*
X144955877Y-76362400D01*
X144934958Y-76251227D01*
X144915483Y-76220962D01*
X144930711Y-76210711D01*
X146230711Y-74910711D01*
X146252650Y-74877629D01*
X146260000Y-74840000D01*
X146260000Y-71918000D01*
X146664000Y-71918000D01*
X146816000Y-71766000D01*
X146816000Y-70714000D01*
X147124000Y-70714000D01*
X147124000Y-71766000D01*
X147276000Y-71918000D01*
X147715938Y-71918000D01*
X147939404Y-71825438D01*
X148110437Y-71654405D01*
X148203000Y-71430939D01*
X148203000Y-70866000D01*
X148051000Y-70714000D01*
X147124000Y-70714000D01*
X146816000Y-70714000D01*
X146796000Y-70714000D01*
X146796000Y-70406000D01*
X146816000Y-70406000D01*
X146816000Y-70386000D01*
X147124000Y-70386000D01*
X147124000Y-70406000D01*
X148035926Y-70406000D01*
X148062964Y-70433085D01*
X148320150Y-70539878D01*
X148449123Y-70539991D01*
X148449123Y-71585000D01*
X148470042Y-71696173D01*
X148535745Y-71798279D01*
X148635997Y-71866778D01*
X148755000Y-71890877D01*
X149355000Y-71890877D01*
X149466173Y-71869958D01*
X149568279Y-71804255D01*
X149636778Y-71704003D01*
X149660877Y-71585000D01*
X149660877Y-70035000D01*
X149639958Y-69923827D01*
X149574255Y-69821721D01*
X149474003Y-69753222D01*
X149355000Y-69729123D01*
X149160097Y-69729123D01*
X149160121Y-69701372D01*
X149151290Y-69680000D01*
X150790158Y-69680000D01*
X150779563Y-69690595D01*
G36*
X159475000Y-56580330D02*
X159475000Y-62742245D01*
X158820132Y-62872507D01*
X158820131Y-62872507D01*
X158684952Y-62928500D01*
X157873894Y-63470432D01*
X157770432Y-63573894D01*
X157228500Y-64384952D01*
X157172507Y-64520132D01*
X156982207Y-65476836D01*
X156982205Y-65476841D01*
X156982206Y-65550000D01*
X156982205Y-65623159D01*
X156982207Y-65623164D01*
X157172507Y-66579868D01*
X157228500Y-66715048D01*
X157515785Y-67145000D01*
X156513510Y-67145000D01*
X156608359Y-67050317D01*
X156699896Y-66829871D01*
X156700104Y-66591176D01*
X156608952Y-66370571D01*
X156525000Y-66286472D01*
X156525000Y-65470000D01*
X156492649Y-65307360D01*
X156433380Y-65218658D01*
X156400520Y-65169479D01*
X154300520Y-63069480D01*
X154162641Y-62977351D01*
X154135657Y-62971984D01*
X154000000Y-62945000D01*
X151840000Y-62945000D01*
X151677359Y-62977351D01*
X151539480Y-63069479D01*
X150279837Y-64329123D01*
X150025000Y-64329123D01*
X149913827Y-64350042D01*
X149811721Y-64415745D01*
X149743222Y-64515997D01*
X149719123Y-64635000D01*
X149719123Y-66185000D01*
X149740042Y-66296173D01*
X149748939Y-66310000D01*
X149677107Y-66310000D01*
X149642560Y-66275453D01*
X149660877Y-66185000D01*
X149660877Y-64635000D01*
X149639958Y-64523827D01*
X149574255Y-64421721D01*
X149474003Y-64353222D01*
X149355000Y-64329123D01*
X148755000Y-64329123D01*
X148643827Y-64350042D01*
X148541721Y-64415745D01*
X148473222Y-64515997D01*
X148449123Y-64635000D01*
X148449123Y-66185000D01*
X148470042Y-66296173D01*
X148535745Y-66398279D01*
X148558783Y-66414020D01*
X148591772Y-66579868D01*
X148593060Y-66586342D01*
X148701447Y-66748553D01*
X149116447Y-67163554D01*
X149213686Y-67228526D01*
X149278658Y-67271940D01*
X149470000Y-67310000D01*
X150210041Y-67310000D01*
X150302964Y-67403085D01*
X150560150Y-67509878D01*
X150838628Y-67510121D01*
X151096000Y-67403777D01*
X151293085Y-67207036D01*
X151399878Y-66949850D01*
X151400121Y-66671372D01*
X151325542Y-66490877D01*
X151895000Y-66490877D01*
X152006173Y-66469958D01*
X152108279Y-66404255D01*
X152176778Y-66304003D01*
X152200877Y-66185000D01*
X152200877Y-64635000D01*
X152179958Y-64523827D01*
X152114255Y-64421721D01*
X152087559Y-64403481D01*
X152206040Y-64285000D01*
X153643960Y-64285000D01*
X154929480Y-65570520D01*
X154979480Y-65620521D01*
X154979483Y-65620523D01*
X155035000Y-65676040D01*
X155035000Y-67370000D01*
X155059248Y-67491904D01*
X155067351Y-67532641D01*
X155159480Y-67670520D01*
X155359480Y-67870521D01*
X155497359Y-67962649D01*
X155560297Y-67975168D01*
X155500104Y-68120129D01*
X155499896Y-68358824D01*
X155591048Y-68579429D01*
X155675000Y-68663528D01*
X155675000Y-69056483D01*
X155619003Y-69018222D01*
X155500000Y-68994123D01*
X154636918Y-68994123D01*
X154710521Y-68920520D01*
X154802649Y-68782641D01*
X154835000Y-68620000D01*
X154835000Y-66110000D01*
X154802649Y-65947360D01*
X154727572Y-65835000D01*
X154710520Y-65809479D01*
X154010520Y-65109480D01*
X153872641Y-65017351D01*
X153845657Y-65011984D01*
X153710000Y-64985000D01*
X153470877Y-64985000D01*
X153470877Y-64635000D01*
X153449958Y-64523827D01*
X153384255Y-64421721D01*
X153284003Y-64353222D01*
X153165000Y-64329123D01*
X152565000Y-64329123D01*
X152453827Y-64350042D01*
X152351721Y-64415745D01*
X152283222Y-64515997D01*
X152259123Y-64635000D01*
X152259123Y-66185000D01*
X152280042Y-66296173D01*
X152345745Y-66398279D01*
X152445997Y-66466778D01*
X152565000Y-66490877D01*
X153165000Y-66490877D01*
X153276173Y-66469958D01*
X153378279Y-66404255D01*
X153446778Y-66304003D01*
X153470877Y-66185000D01*
X153470877Y-65835000D01*
X153533960Y-65835000D01*
X153985000Y-66286041D01*
X153985000Y-68443959D01*
X153768960Y-68660000D01*
X148203000Y-68660000D01*
X148203000Y-68366000D01*
X148051000Y-68214000D01*
X147124000Y-68214000D01*
X147124000Y-68234000D01*
X146816000Y-68234000D01*
X146816000Y-68214000D01*
X145889000Y-68214000D01*
X145737000Y-68366000D01*
X145737000Y-68701578D01*
X144909289Y-69529289D01*
X144887350Y-69562371D01*
X144880000Y-69600000D01*
X144880000Y-71618960D01*
X144839480Y-71659480D01*
X144835026Y-71666146D01*
X144770939Y-71639600D01*
X143706000Y-71639600D01*
X143554000Y-71791600D01*
X143554000Y-72843600D01*
X143574000Y-72843600D01*
X143574000Y-73151600D01*
X143554000Y-73151600D01*
X143554000Y-73171600D01*
X143246000Y-73171600D01*
X143246000Y-73151600D01*
X143226000Y-73151600D01*
X143226000Y-72843600D01*
X143246000Y-72843600D01*
X143246000Y-71791600D01*
X143094000Y-71639600D01*
X142525000Y-71639600D01*
X142525000Y-68357754D01*
X143179868Y-68227493D01*
X143315048Y-68171500D01*
X144126106Y-67629568D01*
X144229568Y-67526106D01*
X144454774Y-67189061D01*
X145737000Y-67189061D01*
X145737000Y-67754000D01*
X145889000Y-67906000D01*
X146816000Y-67906000D01*
X146816000Y-66854000D01*
X147124000Y-66854000D01*
X147124000Y-67906000D01*
X148051000Y-67906000D01*
X148203000Y-67754000D01*
X148203000Y-67189061D01*
X148110437Y-66965595D01*
X147939404Y-66794562D01*
X147715938Y-66702000D01*
X147276000Y-66702000D01*
X147124000Y-66854000D01*
X146816000Y-66854000D01*
X146664000Y-66702000D01*
X146224062Y-66702000D01*
X146000596Y-66794562D01*
X145829563Y-66965595D01*
X145737000Y-67189061D01*
X144454774Y-67189061D01*
X144771500Y-66715048D01*
X144827493Y-66579869D01*
X144827493Y-66579868D01*
X145017795Y-65623159D01*
X145017795Y-65476841D01*
X144827493Y-64520132D01*
X144825781Y-64515997D01*
X144771500Y-64384952D01*
X144229568Y-63573894D01*
X144126106Y-63470432D01*
X143315048Y-62928500D01*
X143179868Y-62872507D01*
X142525000Y-62742246D01*
X142525000Y-59608055D01*
X146249248Y-59608055D01*
X146408851Y-59994323D01*
X146704123Y-60290111D01*
X147090112Y-60450387D01*
X147508055Y-60450752D01*
X147894323Y-60291149D01*
X148190111Y-59995877D01*
X148350387Y-59609888D01*
X148350752Y-59191945D01*
X148201670Y-58831141D01*
X148398598Y-58898581D01*
X148883314Y-58868122D01*
X148749613Y-59190112D01*
X148749248Y-59608055D01*
X148908851Y-59994323D01*
X149204123Y-60290111D01*
X149590112Y-60450387D01*
X150008055Y-60450752D01*
X150394323Y-60291149D01*
X150690111Y-59995877D01*
X150800072Y-59731059D01*
X150908851Y-59994323D01*
X151204123Y-60290111D01*
X151590112Y-60450387D01*
X152008055Y-60450752D01*
X152193658Y-60374062D01*
X153543727Y-60374062D01*
X153615444Y-60604211D01*
X154128384Y-60774514D01*
X154667452Y-60735560D01*
X154984556Y-60604211D01*
X155056273Y-60374062D01*
X154300000Y-59617789D01*
X153543727Y-60374062D01*
X152193658Y-60374062D01*
X152394323Y-60291149D01*
X152690111Y-59995877D01*
X152850387Y-59609888D01*
X152850752Y-59191945D01*
X152718153Y-58871032D01*
X152798598Y-58898581D01*
X153040022Y-58883410D01*
X152925486Y-59228384D01*
X152964440Y-59767452D01*
X153095789Y-60084556D01*
X153325938Y-60156273D01*
X154082211Y-59400000D01*
X154068069Y-59385858D01*
X154285858Y-59168069D01*
X154300000Y-59182211D01*
X154314142Y-59168069D01*
X154531931Y-59385858D01*
X154517789Y-59400000D01*
X155274062Y-60156273D01*
X155504211Y-60084556D01*
X155674514Y-59571616D01*
X155647069Y-59191812D01*
X155664588Y-59224760D01*
X156449322Y-59520362D01*
X157287443Y-59493158D01*
X157935412Y-59224760D01*
X158099111Y-58916900D01*
X156800000Y-57617789D01*
X156785858Y-57631931D01*
X156568069Y-57414142D01*
X156582211Y-57400000D01*
X157017789Y-57400000D01*
X158316900Y-58699111D01*
X158624760Y-58535412D01*
X158920362Y-57750678D01*
X158893158Y-56912557D01*
X158624760Y-56264588D01*
X158316900Y-56100889D01*
X157017789Y-57400000D01*
X156582211Y-57400000D01*
X155283100Y-56100889D01*
X154975240Y-56264588D01*
X154679638Y-57049322D01*
X154706842Y-57887443D01*
X154810646Y-58138049D01*
X154471616Y-58025486D01*
X154350347Y-58034249D01*
X154498581Y-57601402D01*
X154461581Y-57012589D01*
X154307435Y-56640447D01*
X154064413Y-56553376D01*
X153217789Y-57400000D01*
X153231931Y-57414142D01*
X153014142Y-57631931D01*
X153000000Y-57617789D01*
X152985858Y-57631931D01*
X152768069Y-57414142D01*
X152782211Y-57400000D01*
X151935587Y-56553376D01*
X151692565Y-56640447D01*
X151501419Y-57198598D01*
X151538419Y-57787411D01*
X151692565Y-58159553D01*
X151935586Y-58246623D01*
X151832751Y-58349458D01*
X151591945Y-58349248D01*
X151205677Y-58508851D01*
X150909889Y-58804123D01*
X150799928Y-59068941D01*
X150691149Y-58805677D01*
X150395877Y-58509889D01*
X150009888Y-58349613D01*
X149767192Y-58349401D01*
X149664414Y-58246623D01*
X149907435Y-58159553D01*
X150098581Y-57601402D01*
X150061581Y-57012589D01*
X149907435Y-56640447D01*
X149664413Y-56553376D01*
X148817789Y-57400000D01*
X148831931Y-57414142D01*
X148614142Y-57631931D01*
X148600000Y-57617789D01*
X148585858Y-57631931D01*
X148368069Y-57414142D01*
X148382211Y-57400000D01*
X147535587Y-56553376D01*
X147292565Y-56640447D01*
X147101419Y-57198598D01*
X147138419Y-57787411D01*
X147292565Y-58159553D01*
X147535586Y-58246623D01*
X147432663Y-58349546D01*
X147091945Y-58349248D01*
X146705677Y-58508851D01*
X146409889Y-58804123D01*
X146249613Y-59190112D01*
X146249248Y-59608055D01*
X142525000Y-59608055D01*
X142525000Y-58916900D01*
X143500889Y-58916900D01*
X143664588Y-59224760D01*
X144449322Y-59520362D01*
X145287443Y-59493158D01*
X145935412Y-59224760D01*
X146099111Y-58916900D01*
X144800000Y-57617789D01*
X143500889Y-58916900D01*
X142525000Y-58916900D01*
X142525000Y-57049322D01*
X142679638Y-57049322D01*
X142706842Y-57887443D01*
X142975240Y-58535412D01*
X143283100Y-58699111D01*
X144582211Y-57400000D01*
X145017789Y-57400000D01*
X146316900Y-58699111D01*
X146624760Y-58535412D01*
X146920362Y-57750678D01*
X146893158Y-56912557D01*
X146654169Y-56335587D01*
X147753376Y-56335587D01*
X148600000Y-57182211D01*
X149446624Y-56335587D01*
X152153376Y-56335587D01*
X153000000Y-57182211D01*
X153846624Y-56335587D01*
X153759553Y-56092565D01*
X153201402Y-55901419D01*
X152612589Y-55938419D01*
X152240447Y-56092565D01*
X152153376Y-56335587D01*
X149446624Y-56335587D01*
X149359553Y-56092565D01*
X148801402Y-55901419D01*
X148212589Y-55938419D01*
X147840447Y-56092565D01*
X147753376Y-56335587D01*
X146654169Y-56335587D01*
X146624760Y-56264588D01*
X146316900Y-56100889D01*
X145017789Y-57400000D01*
X144582211Y-57400000D01*
X143283100Y-56100889D01*
X142975240Y-56264588D01*
X142679638Y-57049322D01*
X142525000Y-57049322D01*
X142525000Y-56580330D01*
X143222230Y-55883100D01*
X143500889Y-55883100D01*
X144800000Y-57182211D01*
X146099111Y-55883100D01*
X155500889Y-55883100D01*
X156800000Y-57182211D01*
X158099111Y-55883100D01*
X157935412Y-55575240D01*
X157150678Y-55279638D01*
X156312557Y-55306842D01*
X155664588Y-55575240D01*
X155500889Y-55883100D01*
X146099111Y-55883100D01*
X145935412Y-55575240D01*
X145150678Y-55279638D01*
X144312557Y-55306842D01*
X143664588Y-55575240D01*
X143500889Y-55883100D01*
X143222230Y-55883100D01*
X144130330Y-54975000D01*
X157869670Y-54975000D01*
X159475000Y-56580330D01*
X159475000Y-56580330D01*
G37*
X159475000Y-56580330D02*
X159475000Y-62742245D01*
X158820132Y-62872507D01*
X158820131Y-62872507D01*
X158684952Y-62928500D01*
X157873894Y-63470432D01*
X157770432Y-63573894D01*
X157228500Y-64384952D01*
X157172507Y-64520132D01*
X156982207Y-65476836D01*
X156982205Y-65476841D01*
X156982206Y-65550000D01*
X156982205Y-65623159D01*
X156982207Y-65623164D01*
X157172507Y-66579868D01*
X157228500Y-66715048D01*
X157515785Y-67145000D01*
X156513510Y-67145000D01*
X156608359Y-67050317D01*
X156699896Y-66829871D01*
X156700104Y-66591176D01*
X156608952Y-66370571D01*
X156525000Y-66286472D01*
X156525000Y-65470000D01*
X156492649Y-65307360D01*
X156433380Y-65218658D01*
X156400520Y-65169479D01*
X154300520Y-63069480D01*
X154162641Y-62977351D01*
X154135657Y-62971984D01*
X154000000Y-62945000D01*
X151840000Y-62945000D01*
X151677359Y-62977351D01*
X151539480Y-63069479D01*
X150279837Y-64329123D01*
X150025000Y-64329123D01*
X149913827Y-64350042D01*
X149811721Y-64415745D01*
X149743222Y-64515997D01*
X149719123Y-64635000D01*
X149719123Y-66185000D01*
X149740042Y-66296173D01*
X149748939Y-66310000D01*
X149677107Y-66310000D01*
X149642560Y-66275453D01*
X149660877Y-66185000D01*
X149660877Y-64635000D01*
X149639958Y-64523827D01*
X149574255Y-64421721D01*
X149474003Y-64353222D01*
X149355000Y-64329123D01*
X148755000Y-64329123D01*
X148643827Y-64350042D01*
X148541721Y-64415745D01*
X148473222Y-64515997D01*
X148449123Y-64635000D01*
X148449123Y-66185000D01*
X148470042Y-66296173D01*
X148535745Y-66398279D01*
X148558783Y-66414020D01*
X148591772Y-66579868D01*
X148593060Y-66586342D01*
X148701447Y-66748553D01*
X149116447Y-67163554D01*
X149213686Y-67228526D01*
X149278658Y-67271940D01*
X149470000Y-67310000D01*
X150210041Y-67310000D01*
X150302964Y-67403085D01*
X150560150Y-67509878D01*
X150838628Y-67510121D01*
X151096000Y-67403777D01*
X151293085Y-67207036D01*
X151399878Y-66949850D01*
X151400121Y-66671372D01*
X151325542Y-66490877D01*
X151895000Y-66490877D01*
X152006173Y-66469958D01*
X152108279Y-66404255D01*
X152176778Y-66304003D01*
X152200877Y-66185000D01*
X152200877Y-64635000D01*
X152179958Y-64523827D01*
X152114255Y-64421721D01*
X152087559Y-64403481D01*
X152206040Y-64285000D01*
X153643960Y-64285000D01*
X154929480Y-65570520D01*
X154979480Y-65620521D01*
X154979483Y-65620523D01*
X155035000Y-65676040D01*
X155035000Y-67370000D01*
X155059248Y-67491904D01*
X155067351Y-67532641D01*
X155159480Y-67670520D01*
X155359480Y-67870521D01*
X155497359Y-67962649D01*
X155560297Y-67975168D01*
X155500104Y-68120129D01*
X155499896Y-68358824D01*
X155591048Y-68579429D01*
X155675000Y-68663528D01*
X155675000Y-69056483D01*
X155619003Y-69018222D01*
X155500000Y-68994123D01*
X154636918Y-68994123D01*
X154710521Y-68920520D01*
X154802649Y-68782641D01*
X154835000Y-68620000D01*
X154835000Y-66110000D01*
X154802649Y-65947360D01*
X154727572Y-65835000D01*
X154710520Y-65809479D01*
X154010520Y-65109480D01*
X153872641Y-65017351D01*
X153845657Y-65011984D01*
X153710000Y-64985000D01*
X153470877Y-64985000D01*
X153470877Y-64635000D01*
X153449958Y-64523827D01*
X153384255Y-64421721D01*
X153284003Y-64353222D01*
X153165000Y-64329123D01*
X152565000Y-64329123D01*
X152453827Y-64350042D01*
X152351721Y-64415745D01*
X152283222Y-64515997D01*
X152259123Y-64635000D01*
X152259123Y-66185000D01*
X152280042Y-66296173D01*
X152345745Y-66398279D01*
X152445997Y-66466778D01*
X152565000Y-66490877D01*
X153165000Y-66490877D01*
X153276173Y-66469958D01*
X153378279Y-66404255D01*
X153446778Y-66304003D01*
X153470877Y-66185000D01*
X153470877Y-65835000D01*
X153533960Y-65835000D01*
X153985000Y-66286041D01*
X153985000Y-68443959D01*
X153768960Y-68660000D01*
X148203000Y-68660000D01*
X148203000Y-68366000D01*
X148051000Y-68214000D01*
X147124000Y-68214000D01*
X147124000Y-68234000D01*
X146816000Y-68234000D01*
X146816000Y-68214000D01*
X145889000Y-68214000D01*
X145737000Y-68366000D01*
X145737000Y-68701578D01*
X144909289Y-69529289D01*
X144887350Y-69562371D01*
X144880000Y-69600000D01*
X144880000Y-71618960D01*
X144839480Y-71659480D01*
X144835026Y-71666146D01*
X144770939Y-71639600D01*
X143706000Y-71639600D01*
X143554000Y-71791600D01*
X143554000Y-72843600D01*
X143574000Y-72843600D01*
X143574000Y-73151600D01*
X143554000Y-73151600D01*
X143554000Y-73171600D01*
X143246000Y-73171600D01*
X143246000Y-73151600D01*
X143226000Y-73151600D01*
X143226000Y-72843600D01*
X143246000Y-72843600D01*
X143246000Y-71791600D01*
X143094000Y-71639600D01*
X142525000Y-71639600D01*
X142525000Y-68357754D01*
X143179868Y-68227493D01*
X143315048Y-68171500D01*
X144126106Y-67629568D01*
X144229568Y-67526106D01*
X144454774Y-67189061D01*
X145737000Y-67189061D01*
X145737000Y-67754000D01*
X145889000Y-67906000D01*
X146816000Y-67906000D01*
X146816000Y-66854000D01*
X147124000Y-66854000D01*
X147124000Y-67906000D01*
X148051000Y-67906000D01*
X148203000Y-67754000D01*
X148203000Y-67189061D01*
X148110437Y-66965595D01*
X147939404Y-66794562D01*
X147715938Y-66702000D01*
X147276000Y-66702000D01*
X147124000Y-66854000D01*
X146816000Y-66854000D01*
X146664000Y-66702000D01*
X146224062Y-66702000D01*
X146000596Y-66794562D01*
X145829563Y-66965595D01*
X145737000Y-67189061D01*
X144454774Y-67189061D01*
X144771500Y-66715048D01*
X144827493Y-66579869D01*
X144827493Y-66579868D01*
X145017795Y-65623159D01*
X145017795Y-65476841D01*
X144827493Y-64520132D01*
X144825781Y-64515997D01*
X144771500Y-64384952D01*
X144229568Y-63573894D01*
X144126106Y-63470432D01*
X143315048Y-62928500D01*
X143179868Y-62872507D01*
X142525000Y-62742246D01*
X142525000Y-59608055D01*
X146249248Y-59608055D01*
X146408851Y-59994323D01*
X146704123Y-60290111D01*
X147090112Y-60450387D01*
X147508055Y-60450752D01*
X147894323Y-60291149D01*
X148190111Y-59995877D01*
X148350387Y-59609888D01*
X148350752Y-59191945D01*
X148201670Y-58831141D01*
X148398598Y-58898581D01*
X148883314Y-58868122D01*
X148749613Y-59190112D01*
X148749248Y-59608055D01*
X148908851Y-59994323D01*
X149204123Y-60290111D01*
X149590112Y-60450387D01*
X150008055Y-60450752D01*
X150394323Y-60291149D01*
X150690111Y-59995877D01*
X150800072Y-59731059D01*
X150908851Y-59994323D01*
X151204123Y-60290111D01*
X151590112Y-60450387D01*
X152008055Y-60450752D01*
X152193658Y-60374062D01*
X153543727Y-60374062D01*
X153615444Y-60604211D01*
X154128384Y-60774514D01*
X154667452Y-60735560D01*
X154984556Y-60604211D01*
X155056273Y-60374062D01*
X154300000Y-59617789D01*
X153543727Y-60374062D01*
X152193658Y-60374062D01*
X152394323Y-60291149D01*
X152690111Y-59995877D01*
X152850387Y-59609888D01*
X152850752Y-59191945D01*
X152718153Y-58871032D01*
X152798598Y-58898581D01*
X153040022Y-58883410D01*
X152925486Y-59228384D01*
X152964440Y-59767452D01*
X153095789Y-60084556D01*
X153325938Y-60156273D01*
X154082211Y-59400000D01*
X154068069Y-59385858D01*
X154285858Y-59168069D01*
X154300000Y-59182211D01*
X154314142Y-59168069D01*
X154531931Y-59385858D01*
X154517789Y-59400000D01*
X155274062Y-60156273D01*
X155504211Y-60084556D01*
X155674514Y-59571616D01*
X155647069Y-59191812D01*
X155664588Y-59224760D01*
X156449322Y-59520362D01*
X157287443Y-59493158D01*
X157935412Y-59224760D01*
X158099111Y-58916900D01*
X156800000Y-57617789D01*
X156785858Y-57631931D01*
X156568069Y-57414142D01*
X156582211Y-57400000D01*
X157017789Y-57400000D01*
X158316900Y-58699111D01*
X158624760Y-58535412D01*
X158920362Y-57750678D01*
X158893158Y-56912557D01*
X158624760Y-56264588D01*
X158316900Y-56100889D01*
X157017789Y-57400000D01*
X156582211Y-57400000D01*
X155283100Y-56100889D01*
X154975240Y-56264588D01*
X154679638Y-57049322D01*
X154706842Y-57887443D01*
X154810646Y-58138049D01*
X154471616Y-58025486D01*
X154350347Y-58034249D01*
X154498581Y-57601402D01*
X154461581Y-57012589D01*
X154307435Y-56640447D01*
X154064413Y-56553376D01*
X153217789Y-57400000D01*
X153231931Y-57414142D01*
X153014142Y-57631931D01*
X153000000Y-57617789D01*
X152985858Y-57631931D01*
X152768069Y-57414142D01*
X152782211Y-57400000D01*
X151935587Y-56553376D01*
X151692565Y-56640447D01*
X151501419Y-57198598D01*
X151538419Y-57787411D01*
X151692565Y-58159553D01*
X151935586Y-58246623D01*
X151832751Y-58349458D01*
X151591945Y-58349248D01*
X151205677Y-58508851D01*
X150909889Y-58804123D01*
X150799928Y-59068941D01*
X150691149Y-58805677D01*
X150395877Y-58509889D01*
X150009888Y-58349613D01*
X149767192Y-58349401D01*
X149664414Y-58246623D01*
X149907435Y-58159553D01*
X150098581Y-57601402D01*
X150061581Y-57012589D01*
X149907435Y-56640447D01*
X149664413Y-56553376D01*
X148817789Y-57400000D01*
X148831931Y-57414142D01*
X148614142Y-57631931D01*
X148600000Y-57617789D01*
X148585858Y-57631931D01*
X148368069Y-57414142D01*
X148382211Y-57400000D01*
X147535587Y-56553376D01*
X147292565Y-56640447D01*
X147101419Y-57198598D01*
X147138419Y-57787411D01*
X147292565Y-58159553D01*
X147535586Y-58246623D01*
X147432663Y-58349546D01*
X147091945Y-58349248D01*
X146705677Y-58508851D01*
X146409889Y-58804123D01*
X146249613Y-59190112D01*
X146249248Y-59608055D01*
X142525000Y-59608055D01*
X142525000Y-58916900D01*
X143500889Y-58916900D01*
X143664588Y-59224760D01*
X144449322Y-59520362D01*
X145287443Y-59493158D01*
X145935412Y-59224760D01*
X146099111Y-58916900D01*
X144800000Y-57617789D01*
X143500889Y-58916900D01*
X142525000Y-58916900D01*
X142525000Y-57049322D01*
X142679638Y-57049322D01*
X142706842Y-57887443D01*
X142975240Y-58535412D01*
X143283100Y-58699111D01*
X144582211Y-57400000D01*
X145017789Y-57400000D01*
X146316900Y-58699111D01*
X146624760Y-58535412D01*
X146920362Y-57750678D01*
X146893158Y-56912557D01*
X146654169Y-56335587D01*
X147753376Y-56335587D01*
X148600000Y-57182211D01*
X149446624Y-56335587D01*
X152153376Y-56335587D01*
X153000000Y-57182211D01*
X153846624Y-56335587D01*
X153759553Y-56092565D01*
X153201402Y-55901419D01*
X152612589Y-55938419D01*
X152240447Y-56092565D01*
X152153376Y-56335587D01*
X149446624Y-56335587D01*
X149359553Y-56092565D01*
X148801402Y-55901419D01*
X148212589Y-55938419D01*
X147840447Y-56092565D01*
X147753376Y-56335587D01*
X146654169Y-56335587D01*
X146624760Y-56264588D01*
X146316900Y-56100889D01*
X145017789Y-57400000D01*
X144582211Y-57400000D01*
X143283100Y-56100889D01*
X142975240Y-56264588D01*
X142679638Y-57049322D01*
X142525000Y-57049322D01*
X142525000Y-56580330D01*
X143222230Y-55883100D01*
X143500889Y-55883100D01*
X144800000Y-57182211D01*
X146099111Y-55883100D01*
X155500889Y-55883100D01*
X156800000Y-57182211D01*
X158099111Y-55883100D01*
X157935412Y-55575240D01*
X157150678Y-55279638D01*
X156312557Y-55306842D01*
X155664588Y-55575240D01*
X155500889Y-55883100D01*
X146099111Y-55883100D01*
X145935412Y-55575240D01*
X145150678Y-55279638D01*
X144312557Y-55306842D01*
X143664588Y-55575240D01*
X143500889Y-55883100D01*
X143222230Y-55883100D01*
X144130330Y-54975000D01*
X157869670Y-54975000D01*
X159475000Y-56580330D01*
G36*
X158150960Y-68692000D02*
X157756000Y-68692000D01*
X157604000Y-68844000D01*
X157604000Y-69796000D01*
X158656000Y-69796000D01*
X158808000Y-69644000D01*
X158808000Y-69349040D01*
X158975000Y-69516040D01*
X158975000Y-71203960D01*
X158853960Y-71325000D01*
X156740000Y-71325000D01*
X156577360Y-71357351D01*
X156550947Y-71375000D01*
X156439479Y-71449480D01*
X155555000Y-72333960D01*
X155555000Y-72096040D01*
X156400520Y-71250520D01*
X156461476Y-71159294D01*
X156579061Y-71208000D01*
X157144000Y-71208000D01*
X157296000Y-71056000D01*
X157296000Y-70104000D01*
X157604000Y-70104000D01*
X157604000Y-71056000D01*
X157756000Y-71208000D01*
X158320939Y-71208000D01*
X158544405Y-71115437D01*
X158715438Y-70944404D01*
X158808000Y-70720938D01*
X158808000Y-70256000D01*
X158656000Y-70104000D01*
X157604000Y-70104000D01*
X157296000Y-70104000D01*
X157276000Y-70104000D01*
X157276000Y-69796000D01*
X157296000Y-69796000D01*
X157296000Y-68844000D01*
X157144000Y-68692000D01*
X156579061Y-68692000D01*
X156525000Y-68714393D01*
X156525000Y-68663530D01*
X156608359Y-68580317D01*
X156699896Y-68359871D01*
X156700104Y-68121176D01*
X156647969Y-67995000D01*
X157453960Y-67995000D01*
X158150960Y-68692000D01*
X158150960Y-68692000D01*
G37*
X158150960Y-68692000D02*
X157756000Y-68692000D01*
X157604000Y-68844000D01*
X157604000Y-69796000D01*
X158656000Y-69796000D01*
X158808000Y-69644000D01*
X158808000Y-69349040D01*
X158975000Y-69516040D01*
X158975000Y-71203960D01*
X158853960Y-71325000D01*
X156740000Y-71325000D01*
X156577360Y-71357351D01*
X156550947Y-71375000D01*
X156439479Y-71449480D01*
X155555000Y-72333960D01*
X155555000Y-72096040D01*
X156400520Y-71250520D01*
X156461476Y-71159294D01*
X156579061Y-71208000D01*
X157144000Y-71208000D01*
X157296000Y-71056000D01*
X157296000Y-70104000D01*
X157604000Y-70104000D01*
X157604000Y-71056000D01*
X157756000Y-71208000D01*
X158320939Y-71208000D01*
X158544405Y-71115437D01*
X158715438Y-70944404D01*
X158808000Y-70720938D01*
X158808000Y-70256000D01*
X158656000Y-70104000D01*
X157604000Y-70104000D01*
X157296000Y-70104000D01*
X157276000Y-70104000D01*
X157276000Y-69796000D01*
X157296000Y-69796000D01*
X157296000Y-68844000D01*
X157144000Y-68692000D01*
X156579061Y-68692000D01*
X156525000Y-68714393D01*
X156525000Y-68663530D01*
X156608359Y-68580317D01*
X156699896Y-68359871D01*
X156700104Y-68121176D01*
X156647969Y-67995000D01*
X157453960Y-67995000D01*
X158150960Y-68692000D01*
M02*
