G04 #@! TF.FileFunction,Copper,L2,Bot,Signal*
%FSLAX46Y46*%
G04 Gerber Fmt 4.6, Leading zero omitted, Abs format (unit mm)*
G04 Created by KiCad (PCBNEW 4.0.4-stable) date 03/30/17 11:33:34*
%MOMM*%
%LPD*%
G01*
G04 APERTURE LIST*
%ADD10C,0.100000*%
%ADD11R,1.700000X1.700000*%
%ADD12O,1.700000X1.700000*%
%ADD13O,1.200000X2.000000*%
%ADD14O,1.100000X1.300000*%
%ADD15C,0.800000*%
%ADD16C,0.600000*%
%ADD17C,0.400000*%
%ADD18C,0.200000*%
G04 APERTURE END LIST*
D10*
D11*
X148330000Y-101940000D03*
D12*
X150870000Y-101940000D03*
X153410000Y-101940000D03*
D13*
X154265000Y-56610000D03*
X147115000Y-56610000D03*
D14*
X153115000Y-59360000D03*
X148265000Y-59360000D03*
D15*
X146580000Y-101590000D03*
X144600000Y-99620000D03*
X155770000Y-99140000D03*
X147120000Y-92800000D03*
X157230000Y-97850000D03*
X157990000Y-69080000D03*
X145900000Y-57900000D03*
X156850000Y-62020000D03*
X156380000Y-91620000D03*
X150420000Y-65760000D03*
X150020000Y-62010000D03*
X143970000Y-93240000D03*
X145190000Y-68500000D03*
D16*
X145530000Y-86900000D03*
X145510000Y-88190000D03*
D17*
X142670000Y-91940000D02*
X143970000Y-93240000D01*
X142670000Y-91940000D02*
X142670000Y-87840000D01*
X145190000Y-68500000D02*
X142880000Y-68500000D01*
X142880000Y-68500000D02*
X142660000Y-68720000D01*
X142660000Y-68720000D02*
X142660000Y-69360000D01*
X142670000Y-87840000D02*
X142670000Y-82180000D01*
X142670000Y-82180000D02*
X143320000Y-81530000D01*
X143320000Y-81530000D02*
X143320000Y-79400000D01*
X143320000Y-79400000D02*
X142660000Y-78740000D01*
X142660000Y-78740000D02*
X142660000Y-69360000D01*
X142670000Y-87880000D02*
X142670000Y-87840000D01*
D18*
X145530000Y-88170000D02*
X145530000Y-86900000D01*
X145510000Y-88190000D02*
X145530000Y-88170000D01*
G36*
X159475000Y-56580330D02*
X159475000Y-62742245D01*
X158820132Y-62872507D01*
X158820131Y-62872507D01*
X158684952Y-62928500D01*
X157873894Y-63470432D01*
X157770432Y-63573894D01*
X157228500Y-64384952D01*
X157172507Y-64520132D01*
X156982207Y-65476836D01*
X156982205Y-65476841D01*
X156982206Y-65550000D01*
X156982205Y-65623159D01*
X156982207Y-65623164D01*
X157172507Y-66579868D01*
X157228500Y-66715048D01*
X157770432Y-67526106D01*
X157873894Y-67629568D01*
X158684952Y-68171500D01*
X158820131Y-68227493D01*
X158820132Y-68227493D01*
X159475000Y-68357755D01*
X159475000Y-78849827D01*
X159045912Y-79503443D01*
X159045909Y-79503446D01*
X159016775Y-79575432D01*
X158993438Y-79633096D01*
X158991017Y-79639077D01*
X158832270Y-80472512D01*
X158833459Y-80618824D01*
X159005736Y-81449567D01*
X159005736Y-81449568D01*
X159062827Y-81584288D01*
X159450000Y-82153657D01*
X159450000Y-93295370D01*
X158793361Y-93432823D01*
X158658748Y-93490165D01*
X158658745Y-93490168D01*
X157853109Y-94040209D01*
X157750686Y-94144700D01*
X157216865Y-94961177D01*
X157165187Y-95089555D01*
X157162226Y-95096910D01*
X156990822Y-96006039D01*
X156982205Y-96026841D01*
X156982205Y-96051740D01*
X156981492Y-96055523D01*
X156982206Y-96126896D01*
X156982206Y-96173159D01*
X156982693Y-96175606D01*
X156982955Y-96201833D01*
X156992250Y-96223653D01*
X157172507Y-97129868D01*
X157228500Y-97265048D01*
X157770432Y-98076106D01*
X157873894Y-98179568D01*
X158684952Y-98721500D01*
X158820131Y-98777493D01*
X158820132Y-98777493D01*
X159475000Y-98907755D01*
X159475000Y-104344520D01*
X159474698Y-104344972D01*
X157769670Y-106050000D01*
X144180330Y-106050000D01*
X142525000Y-104394670D01*
X142525000Y-101090000D01*
X147174123Y-101090000D01*
X147174123Y-102790000D01*
X147195042Y-102901173D01*
X147260745Y-103003279D01*
X147360997Y-103071778D01*
X147480000Y-103095877D01*
X149180000Y-103095877D01*
X149291173Y-103074958D01*
X149393279Y-103009255D01*
X149461778Y-102909003D01*
X149485877Y-102790000D01*
X149485877Y-101917470D01*
X149720000Y-101917470D01*
X149720000Y-101962530D01*
X149807539Y-102402616D01*
X150056827Y-102775703D01*
X150429914Y-103024991D01*
X150870000Y-103112530D01*
X151310086Y-103024991D01*
X151683173Y-102775703D01*
X151932461Y-102402616D01*
X152020000Y-101962530D01*
X152020000Y-101917470D01*
X152260000Y-101917470D01*
X152260000Y-101962530D01*
X152347539Y-102402616D01*
X152596827Y-102775703D01*
X152969914Y-103024991D01*
X153410000Y-103112530D01*
X153850086Y-103024991D01*
X154223173Y-102775703D01*
X154472461Y-102402616D01*
X154560000Y-101962530D01*
X154560000Y-101917470D01*
X154472461Y-101477384D01*
X154223173Y-101104297D01*
X153850086Y-100855009D01*
X153410000Y-100767470D01*
X152969914Y-100855009D01*
X152596827Y-101104297D01*
X152347539Y-101477384D01*
X152260000Y-101917470D01*
X152020000Y-101917470D01*
X151932461Y-101477384D01*
X151683173Y-101104297D01*
X151310086Y-100855009D01*
X150870000Y-100767470D01*
X150429914Y-100855009D01*
X150056827Y-101104297D01*
X149807539Y-101477384D01*
X149720000Y-101917470D01*
X149485877Y-101917470D01*
X149485877Y-101090000D01*
X149464958Y-100978827D01*
X149399255Y-100876721D01*
X149299003Y-100808222D01*
X149180000Y-100784123D01*
X147480000Y-100784123D01*
X147368827Y-100805042D01*
X147266721Y-100870745D01*
X147198222Y-100970997D01*
X147174123Y-101090000D01*
X142525000Y-101090000D01*
X142525000Y-98907754D01*
X143179868Y-98777493D01*
X143315048Y-98721500D01*
X144126106Y-98179568D01*
X144229568Y-98076106D01*
X144771500Y-97265048D01*
X144827493Y-97129869D01*
X144827493Y-97129868D01*
X145017795Y-96173159D01*
X145017795Y-96026841D01*
X144827493Y-95070132D01*
X144771500Y-94934952D01*
X144229568Y-94123894D01*
X144126106Y-94020432D01*
X144005778Y-93940031D01*
X144108628Y-93940121D01*
X144366000Y-93833777D01*
X144563085Y-93637036D01*
X144669878Y-93379850D01*
X144670121Y-93101372D01*
X144563777Y-92844000D01*
X144367036Y-92646915D01*
X144109850Y-92540122D01*
X143977113Y-92540006D01*
X143170000Y-91732894D01*
X143170000Y-88288824D01*
X144819896Y-88288824D01*
X144911048Y-88509429D01*
X145079683Y-88678359D01*
X145300129Y-88769896D01*
X145538824Y-88770104D01*
X145759429Y-88678952D01*
X145928359Y-88510317D01*
X146019896Y-88289871D01*
X146020104Y-88051176D01*
X145928952Y-87830571D01*
X145840000Y-87741463D01*
X145840000Y-87328487D01*
X145948359Y-87220317D01*
X146039896Y-86999871D01*
X146040104Y-86761176D01*
X145948952Y-86540571D01*
X145780317Y-86371641D01*
X145559871Y-86280104D01*
X145321176Y-86279896D01*
X145100571Y-86371048D01*
X144931641Y-86539683D01*
X144840104Y-86760129D01*
X144839896Y-86998824D01*
X144931048Y-87219429D01*
X145040000Y-87328572D01*
X145040000Y-87701548D01*
X144911641Y-87829683D01*
X144820104Y-88050129D01*
X144819896Y-88288824D01*
X143170000Y-88288824D01*
X143170000Y-82387106D01*
X143673554Y-81883553D01*
X143781940Y-81721342D01*
X143820000Y-81530000D01*
X143820000Y-79400000D01*
X143781940Y-79208658D01*
X143673553Y-79046447D01*
X143160000Y-78532894D01*
X143160000Y-69000000D01*
X144700041Y-69000000D01*
X144792964Y-69093085D01*
X145050150Y-69199878D01*
X145328628Y-69200121D01*
X145586000Y-69093777D01*
X145783085Y-68897036D01*
X145889878Y-68639850D01*
X145890121Y-68361372D01*
X145783777Y-68104000D01*
X145587036Y-67906915D01*
X145329850Y-67800122D01*
X145051372Y-67799879D01*
X144794000Y-67906223D01*
X144700059Y-68000000D01*
X143571716Y-68000000D01*
X144126106Y-67629568D01*
X144229568Y-67526106D01*
X144771500Y-66715048D01*
X144827493Y-66579869D01*
X144827493Y-66579868D01*
X145017795Y-65623159D01*
X145017795Y-65476841D01*
X144827493Y-64520132D01*
X144771500Y-64384952D01*
X144229568Y-63573894D01*
X144126106Y-63470432D01*
X143315048Y-62928500D01*
X143179868Y-62872507D01*
X142525000Y-62742246D01*
X142525000Y-59241388D01*
X147415000Y-59241388D01*
X147415000Y-59478612D01*
X147479702Y-59803893D01*
X147663959Y-60079653D01*
X147939719Y-60263910D01*
X148265000Y-60328612D01*
X148590281Y-60263910D01*
X148866041Y-60079653D01*
X149050298Y-59803893D01*
X149115000Y-59478612D01*
X149115000Y-59241388D01*
X152265000Y-59241388D01*
X152265000Y-59478612D01*
X152329702Y-59803893D01*
X152513959Y-60079653D01*
X152789719Y-60263910D01*
X153115000Y-60328612D01*
X153440281Y-60263910D01*
X153716041Y-60079653D01*
X153900298Y-59803893D01*
X153965000Y-59478612D01*
X153965000Y-59241388D01*
X153900298Y-58916107D01*
X153716041Y-58640347D01*
X153440281Y-58456090D01*
X153115000Y-58391388D01*
X152789719Y-58456090D01*
X152513959Y-58640347D01*
X152329702Y-58916107D01*
X152265000Y-59241388D01*
X149115000Y-59241388D01*
X149050298Y-58916107D01*
X148866041Y-58640347D01*
X148590281Y-58456090D01*
X148265000Y-58391388D01*
X147939719Y-58456090D01*
X147663959Y-58640347D01*
X147479702Y-58916107D01*
X147415000Y-59241388D01*
X142525000Y-59241388D01*
X142525000Y-56580330D01*
X142920799Y-56184531D01*
X146215000Y-56184531D01*
X146215000Y-57035469D01*
X146283508Y-57379884D01*
X146478604Y-57671865D01*
X146770585Y-57866961D01*
X147115000Y-57935469D01*
X147459415Y-57866961D01*
X147751396Y-57671865D01*
X147946492Y-57379884D01*
X148015000Y-57035469D01*
X148015000Y-56184531D01*
X153365000Y-56184531D01*
X153365000Y-57035469D01*
X153433508Y-57379884D01*
X153628604Y-57671865D01*
X153920585Y-57866961D01*
X154265000Y-57935469D01*
X154609415Y-57866961D01*
X154901396Y-57671865D01*
X155096492Y-57379884D01*
X155165000Y-57035469D01*
X155165000Y-56184531D01*
X155096492Y-55840116D01*
X154901396Y-55548135D01*
X154609415Y-55353039D01*
X154265000Y-55284531D01*
X153920585Y-55353039D01*
X153628604Y-55548135D01*
X153433508Y-55840116D01*
X153365000Y-56184531D01*
X148015000Y-56184531D01*
X147946492Y-55840116D01*
X147751396Y-55548135D01*
X147459415Y-55353039D01*
X147115000Y-55284531D01*
X146770585Y-55353039D01*
X146478604Y-55548135D01*
X146283508Y-55840116D01*
X146215000Y-56184531D01*
X142920799Y-56184531D01*
X144130330Y-54975000D01*
X157869670Y-54975000D01*
X159475000Y-56580330D01*
X159475000Y-56580330D01*
G37*
X159475000Y-56580330D02*
X159475000Y-62742245D01*
X158820132Y-62872507D01*
X158820131Y-62872507D01*
X158684952Y-62928500D01*
X157873894Y-63470432D01*
X157770432Y-63573894D01*
X157228500Y-64384952D01*
X157172507Y-64520132D01*
X156982207Y-65476836D01*
X156982205Y-65476841D01*
X156982206Y-65550000D01*
X156982205Y-65623159D01*
X156982207Y-65623164D01*
X157172507Y-66579868D01*
X157228500Y-66715048D01*
X157770432Y-67526106D01*
X157873894Y-67629568D01*
X158684952Y-68171500D01*
X158820131Y-68227493D01*
X158820132Y-68227493D01*
X159475000Y-68357755D01*
X159475000Y-78849827D01*
X159045912Y-79503443D01*
X159045909Y-79503446D01*
X159016775Y-79575432D01*
X158993438Y-79633096D01*
X158991017Y-79639077D01*
X158832270Y-80472512D01*
X158833459Y-80618824D01*
X159005736Y-81449567D01*
X159005736Y-81449568D01*
X159062827Y-81584288D01*
X159450000Y-82153657D01*
X159450000Y-93295370D01*
X158793361Y-93432823D01*
X158658748Y-93490165D01*
X158658745Y-93490168D01*
X157853109Y-94040209D01*
X157750686Y-94144700D01*
X157216865Y-94961177D01*
X157165187Y-95089555D01*
X157162226Y-95096910D01*
X156990822Y-96006039D01*
X156982205Y-96026841D01*
X156982205Y-96051740D01*
X156981492Y-96055523D01*
X156982206Y-96126896D01*
X156982206Y-96173159D01*
X156982693Y-96175606D01*
X156982955Y-96201833D01*
X156992250Y-96223653D01*
X157172507Y-97129868D01*
X157228500Y-97265048D01*
X157770432Y-98076106D01*
X157873894Y-98179568D01*
X158684952Y-98721500D01*
X158820131Y-98777493D01*
X158820132Y-98777493D01*
X159475000Y-98907755D01*
X159475000Y-104344520D01*
X159474698Y-104344972D01*
X157769670Y-106050000D01*
X144180330Y-106050000D01*
X142525000Y-104394670D01*
X142525000Y-101090000D01*
X147174123Y-101090000D01*
X147174123Y-102790000D01*
X147195042Y-102901173D01*
X147260745Y-103003279D01*
X147360997Y-103071778D01*
X147480000Y-103095877D01*
X149180000Y-103095877D01*
X149291173Y-103074958D01*
X149393279Y-103009255D01*
X149461778Y-102909003D01*
X149485877Y-102790000D01*
X149485877Y-101917470D01*
X149720000Y-101917470D01*
X149720000Y-101962530D01*
X149807539Y-102402616D01*
X150056827Y-102775703D01*
X150429914Y-103024991D01*
X150870000Y-103112530D01*
X151310086Y-103024991D01*
X151683173Y-102775703D01*
X151932461Y-102402616D01*
X152020000Y-101962530D01*
X152020000Y-101917470D01*
X152260000Y-101917470D01*
X152260000Y-101962530D01*
X152347539Y-102402616D01*
X152596827Y-102775703D01*
X152969914Y-103024991D01*
X153410000Y-103112530D01*
X153850086Y-103024991D01*
X154223173Y-102775703D01*
X154472461Y-102402616D01*
X154560000Y-101962530D01*
X154560000Y-101917470D01*
X154472461Y-101477384D01*
X154223173Y-101104297D01*
X153850086Y-100855009D01*
X153410000Y-100767470D01*
X152969914Y-100855009D01*
X152596827Y-101104297D01*
X152347539Y-101477384D01*
X152260000Y-101917470D01*
X152020000Y-101917470D01*
X151932461Y-101477384D01*
X151683173Y-101104297D01*
X151310086Y-100855009D01*
X150870000Y-100767470D01*
X150429914Y-100855009D01*
X150056827Y-101104297D01*
X149807539Y-101477384D01*
X149720000Y-101917470D01*
X149485877Y-101917470D01*
X149485877Y-101090000D01*
X149464958Y-100978827D01*
X149399255Y-100876721D01*
X149299003Y-100808222D01*
X149180000Y-100784123D01*
X147480000Y-100784123D01*
X147368827Y-100805042D01*
X147266721Y-100870745D01*
X147198222Y-100970997D01*
X147174123Y-101090000D01*
X142525000Y-101090000D01*
X142525000Y-98907754D01*
X143179868Y-98777493D01*
X143315048Y-98721500D01*
X144126106Y-98179568D01*
X144229568Y-98076106D01*
X144771500Y-97265048D01*
X144827493Y-97129869D01*
X144827493Y-97129868D01*
X145017795Y-96173159D01*
X145017795Y-96026841D01*
X144827493Y-95070132D01*
X144771500Y-94934952D01*
X144229568Y-94123894D01*
X144126106Y-94020432D01*
X144005778Y-93940031D01*
X144108628Y-93940121D01*
X144366000Y-93833777D01*
X144563085Y-93637036D01*
X144669878Y-93379850D01*
X144670121Y-93101372D01*
X144563777Y-92844000D01*
X144367036Y-92646915D01*
X144109850Y-92540122D01*
X143977113Y-92540006D01*
X143170000Y-91732894D01*
X143170000Y-88288824D01*
X144819896Y-88288824D01*
X144911048Y-88509429D01*
X145079683Y-88678359D01*
X145300129Y-88769896D01*
X145538824Y-88770104D01*
X145759429Y-88678952D01*
X145928359Y-88510317D01*
X146019896Y-88289871D01*
X146020104Y-88051176D01*
X145928952Y-87830571D01*
X145840000Y-87741463D01*
X145840000Y-87328487D01*
X145948359Y-87220317D01*
X146039896Y-86999871D01*
X146040104Y-86761176D01*
X145948952Y-86540571D01*
X145780317Y-86371641D01*
X145559871Y-86280104D01*
X145321176Y-86279896D01*
X145100571Y-86371048D01*
X144931641Y-86539683D01*
X144840104Y-86760129D01*
X144839896Y-86998824D01*
X144931048Y-87219429D01*
X145040000Y-87328572D01*
X145040000Y-87701548D01*
X144911641Y-87829683D01*
X144820104Y-88050129D01*
X144819896Y-88288824D01*
X143170000Y-88288824D01*
X143170000Y-82387106D01*
X143673554Y-81883553D01*
X143781940Y-81721342D01*
X143820000Y-81530000D01*
X143820000Y-79400000D01*
X143781940Y-79208658D01*
X143673553Y-79046447D01*
X143160000Y-78532894D01*
X143160000Y-69000000D01*
X144700041Y-69000000D01*
X144792964Y-69093085D01*
X145050150Y-69199878D01*
X145328628Y-69200121D01*
X145586000Y-69093777D01*
X145783085Y-68897036D01*
X145889878Y-68639850D01*
X145890121Y-68361372D01*
X145783777Y-68104000D01*
X145587036Y-67906915D01*
X145329850Y-67800122D01*
X145051372Y-67799879D01*
X144794000Y-67906223D01*
X144700059Y-68000000D01*
X143571716Y-68000000D01*
X144126106Y-67629568D01*
X144229568Y-67526106D01*
X144771500Y-66715048D01*
X144827493Y-66579869D01*
X144827493Y-66579868D01*
X145017795Y-65623159D01*
X145017795Y-65476841D01*
X144827493Y-64520132D01*
X144771500Y-64384952D01*
X144229568Y-63573894D01*
X144126106Y-63470432D01*
X143315048Y-62928500D01*
X143179868Y-62872507D01*
X142525000Y-62742246D01*
X142525000Y-59241388D01*
X147415000Y-59241388D01*
X147415000Y-59478612D01*
X147479702Y-59803893D01*
X147663959Y-60079653D01*
X147939719Y-60263910D01*
X148265000Y-60328612D01*
X148590281Y-60263910D01*
X148866041Y-60079653D01*
X149050298Y-59803893D01*
X149115000Y-59478612D01*
X149115000Y-59241388D01*
X152265000Y-59241388D01*
X152265000Y-59478612D01*
X152329702Y-59803893D01*
X152513959Y-60079653D01*
X152789719Y-60263910D01*
X153115000Y-60328612D01*
X153440281Y-60263910D01*
X153716041Y-60079653D01*
X153900298Y-59803893D01*
X153965000Y-59478612D01*
X153965000Y-59241388D01*
X153900298Y-58916107D01*
X153716041Y-58640347D01*
X153440281Y-58456090D01*
X153115000Y-58391388D01*
X152789719Y-58456090D01*
X152513959Y-58640347D01*
X152329702Y-58916107D01*
X152265000Y-59241388D01*
X149115000Y-59241388D01*
X149050298Y-58916107D01*
X148866041Y-58640347D01*
X148590281Y-58456090D01*
X148265000Y-58391388D01*
X147939719Y-58456090D01*
X147663959Y-58640347D01*
X147479702Y-58916107D01*
X147415000Y-59241388D01*
X142525000Y-59241388D01*
X142525000Y-56580330D01*
X142920799Y-56184531D01*
X146215000Y-56184531D01*
X146215000Y-57035469D01*
X146283508Y-57379884D01*
X146478604Y-57671865D01*
X146770585Y-57866961D01*
X147115000Y-57935469D01*
X147459415Y-57866961D01*
X147751396Y-57671865D01*
X147946492Y-57379884D01*
X148015000Y-57035469D01*
X148015000Y-56184531D01*
X153365000Y-56184531D01*
X153365000Y-57035469D01*
X153433508Y-57379884D01*
X153628604Y-57671865D01*
X153920585Y-57866961D01*
X154265000Y-57935469D01*
X154609415Y-57866961D01*
X154901396Y-57671865D01*
X155096492Y-57379884D01*
X155165000Y-57035469D01*
X155165000Y-56184531D01*
X155096492Y-55840116D01*
X154901396Y-55548135D01*
X154609415Y-55353039D01*
X154265000Y-55284531D01*
X153920585Y-55353039D01*
X153628604Y-55548135D01*
X153433508Y-55840116D01*
X153365000Y-56184531D01*
X148015000Y-56184531D01*
X147946492Y-55840116D01*
X147751396Y-55548135D01*
X147459415Y-55353039D01*
X147115000Y-55284531D01*
X146770585Y-55353039D01*
X146478604Y-55548135D01*
X146283508Y-55840116D01*
X146215000Y-56184531D01*
X142920799Y-56184531D01*
X144130330Y-54975000D01*
X157869670Y-54975000D01*
X159475000Y-56580330D01*
M02*
