G04 #@! TF.FileFunction,Legend,Top*
%FSLAX46Y46*%
G04 Gerber Fmt 4.6, Leading zero omitted, Abs format (unit mm)*
G04 Created by KiCad (PCBNEW 4.0.4-stable) date 03/30/17 11:45:36*
%MOMM*%
%LPD*%
G01*
G04 APERTURE LIST*
%ADD10C,0.100000*%
%ADD11C,0.150000*%
%ADD12C,0.125000*%
%ADD13C,0.127000*%
%ADD14C,0.120000*%
%ADD15C,0.152400*%
G04 APERTURE END LIST*
D10*
D11*
X144552380Y-91091905D02*
X144285713Y-90710952D01*
X144095237Y-91091905D02*
X144095237Y-90291905D01*
X144399999Y-90291905D01*
X144476190Y-90330000D01*
X144514285Y-90368095D01*
X144552380Y-90444286D01*
X144552380Y-90558571D01*
X144514285Y-90634762D01*
X144476190Y-90672857D01*
X144399999Y-90710952D01*
X144095237Y-90710952D01*
X145199999Y-91053810D02*
X145123809Y-91091905D01*
X144971428Y-91091905D01*
X144895237Y-91053810D01*
X144857142Y-90977619D01*
X144857142Y-90672857D01*
X144895237Y-90596667D01*
X144971428Y-90558571D01*
X145123809Y-90558571D01*
X145199999Y-90596667D01*
X145238094Y-90672857D01*
X145238094Y-90749048D01*
X144857142Y-90825238D01*
X145504761Y-90558571D02*
X145695237Y-91091905D01*
X145885713Y-90558571D01*
X146723809Y-90291905D02*
X147219047Y-90291905D01*
X146952380Y-90596667D01*
X147066666Y-90596667D01*
X147142856Y-90634762D01*
X147180952Y-90672857D01*
X147219047Y-90749048D01*
X147219047Y-90939524D01*
X147180952Y-91015714D01*
X147142856Y-91053810D01*
X147066666Y-91091905D01*
X146838094Y-91091905D01*
X146761904Y-91053810D01*
X146723809Y-91015714D01*
X148400000Y-91396667D02*
X148361904Y-91358571D01*
X148285714Y-91244286D01*
X148247619Y-91168095D01*
X148209523Y-91053810D01*
X148171428Y-90863333D01*
X148171428Y-90710952D01*
X148209523Y-90520476D01*
X148247619Y-90406190D01*
X148285714Y-90330000D01*
X148361904Y-90215714D01*
X148400000Y-90177619D01*
X148704761Y-91091905D02*
X148704761Y-90291905D01*
X148895237Y-90291905D01*
X149009523Y-90330000D01*
X149085714Y-90406190D01*
X149123809Y-90482381D01*
X149161904Y-90634762D01*
X149161904Y-90749048D01*
X149123809Y-90901429D01*
X149085714Y-90977619D01*
X149009523Y-91053810D01*
X148895237Y-91091905D01*
X148704761Y-91091905D01*
X149847618Y-90558571D02*
X149847618Y-91091905D01*
X149504761Y-90558571D02*
X149504761Y-90977619D01*
X149542856Y-91053810D01*
X149619047Y-91091905D01*
X149733333Y-91091905D01*
X149809523Y-91053810D01*
X149847618Y-91015714D01*
X150571428Y-91091905D02*
X150571428Y-90672857D01*
X150533333Y-90596667D01*
X150457143Y-90558571D01*
X150304762Y-90558571D01*
X150228571Y-90596667D01*
X150571428Y-91053810D02*
X150495238Y-91091905D01*
X150304762Y-91091905D01*
X150228571Y-91053810D01*
X150190476Y-90977619D01*
X150190476Y-90901429D01*
X150228571Y-90825238D01*
X150304762Y-90787143D01*
X150495238Y-90787143D01*
X150571428Y-90749048D01*
X151066667Y-91091905D02*
X150990476Y-91053810D01*
X150952381Y-90977619D01*
X150952381Y-90291905D01*
X151295239Y-91396667D02*
X151333334Y-91358571D01*
X151409524Y-91244286D01*
X151447620Y-91168095D01*
X151485715Y-91053810D01*
X151523810Y-90863333D01*
X151523810Y-90710952D01*
X151485715Y-90520476D01*
X151447620Y-90406190D01*
X151409524Y-90330000D01*
X151333334Y-90215714D01*
X151295239Y-90177619D01*
X152514286Y-90787143D02*
X153123810Y-90787143D01*
X154076191Y-90368095D02*
X154114286Y-90330000D01*
X154190477Y-90291905D01*
X154380953Y-90291905D01*
X154457143Y-90330000D01*
X154495239Y-90368095D01*
X154533334Y-90444286D01*
X154533334Y-90520476D01*
X154495239Y-90634762D01*
X154038096Y-91091905D01*
X154533334Y-91091905D01*
X154990477Y-90634762D02*
X154914286Y-90596667D01*
X154876191Y-90558571D01*
X154838096Y-90482381D01*
X154838096Y-90444286D01*
X154876191Y-90368095D01*
X154914286Y-90330000D01*
X154990477Y-90291905D01*
X155142858Y-90291905D01*
X155219048Y-90330000D01*
X155257144Y-90368095D01*
X155295239Y-90444286D01*
X155295239Y-90482381D01*
X155257144Y-90558571D01*
X155219048Y-90596667D01*
X155142858Y-90634762D01*
X154990477Y-90634762D01*
X154914286Y-90672857D01*
X154876191Y-90710952D01*
X154838096Y-90787143D01*
X154838096Y-90939524D01*
X154876191Y-91015714D01*
X154914286Y-91053810D01*
X154990477Y-91091905D01*
X155142858Y-91091905D01*
X155219048Y-91053810D01*
X155257144Y-91015714D01*
X155295239Y-90939524D01*
X155295239Y-90787143D01*
X155257144Y-90710952D01*
X155219048Y-90672857D01*
X155142858Y-90634762D01*
X155638096Y-91015714D02*
X155676191Y-91053810D01*
X155638096Y-91091905D01*
X155600001Y-91053810D01*
X155638096Y-91015714D01*
X155638096Y-91091905D01*
X155942858Y-90291905D02*
X156438096Y-90291905D01*
X156171429Y-90596667D01*
X156285715Y-90596667D01*
X156361905Y-90634762D01*
X156400001Y-90672857D01*
X156438096Y-90749048D01*
X156438096Y-90939524D01*
X156400001Y-91015714D01*
X156361905Y-91053810D01*
X156285715Y-91091905D01*
X156057143Y-91091905D01*
X155980953Y-91053810D01*
X155942858Y-91015714D01*
X156780953Y-91015714D02*
X156819048Y-91053810D01*
X156780953Y-91091905D01*
X156742858Y-91053810D01*
X156780953Y-91015714D01*
X156780953Y-91091905D01*
X157580953Y-91091905D02*
X157123810Y-91091905D01*
X157352381Y-91091905D02*
X157352381Y-90291905D01*
X157276191Y-90406190D01*
X157200000Y-90482381D01*
X157123810Y-90520476D01*
X157847620Y-90291905D02*
X158380953Y-90291905D01*
X158038096Y-91091905D01*
D12*
X150607500Y-86432857D02*
X150607500Y-86004286D01*
X150864643Y-86518572D02*
X149964643Y-86218572D01*
X150864643Y-85918572D01*
X150864643Y-85490000D02*
X150821786Y-85575714D01*
X150736071Y-85618571D01*
X149964643Y-85618571D01*
X150864643Y-85018571D02*
X150821786Y-85104285D01*
X150736071Y-85147142D01*
X149964643Y-85147142D01*
X150864643Y-84675713D02*
X149964643Y-84675713D01*
X150393214Y-84675713D02*
X150393214Y-84161428D01*
X150864643Y-84161428D02*
X149964643Y-84161428D01*
X150821786Y-83389999D02*
X150864643Y-83475713D01*
X150864643Y-83647142D01*
X150821786Y-83732856D01*
X150736071Y-83775713D01*
X150393214Y-83775713D01*
X150307500Y-83732856D01*
X150264643Y-83647142D01*
X150264643Y-83475713D01*
X150307500Y-83389999D01*
X150393214Y-83347142D01*
X150478929Y-83347142D01*
X150564643Y-83775713D01*
X150864643Y-82575713D02*
X150393214Y-82575713D01*
X150307500Y-82618570D01*
X150264643Y-82704284D01*
X150264643Y-82875713D01*
X150307500Y-82961427D01*
X150821786Y-82575713D02*
X150864643Y-82661427D01*
X150864643Y-82875713D01*
X150821786Y-82961427D01*
X150736071Y-83004284D01*
X150650357Y-83004284D01*
X150564643Y-82961427D01*
X150521786Y-82875713D01*
X150521786Y-82661427D01*
X150478929Y-82575713D01*
X150864643Y-82147141D02*
X150264643Y-82147141D01*
X150436071Y-82147141D02*
X150350357Y-82104284D01*
X150307500Y-82061427D01*
X150264643Y-81975713D01*
X150264643Y-81889998D01*
X150864643Y-81589998D02*
X150264643Y-81589998D01*
X149964643Y-81589998D02*
X150007500Y-81632855D01*
X150050357Y-81589998D01*
X150007500Y-81547141D01*
X149964643Y-81589998D01*
X150050357Y-81589998D01*
X150264643Y-81161427D02*
X150864643Y-81161427D01*
X150350357Y-81161427D02*
X150307500Y-81118570D01*
X150264643Y-81032856D01*
X150264643Y-80904284D01*
X150307500Y-80818570D01*
X150393214Y-80775713D01*
X150864643Y-80775713D01*
X150264643Y-79961427D02*
X150993214Y-79961427D01*
X151078929Y-80004284D01*
X151121786Y-80047141D01*
X151164643Y-80132856D01*
X151164643Y-80261427D01*
X151121786Y-80347141D01*
X150821786Y-79961427D02*
X150864643Y-80047141D01*
X150864643Y-80218570D01*
X150821786Y-80304284D01*
X150778929Y-80347141D01*
X150693214Y-80389998D01*
X150436071Y-80389998D01*
X150350357Y-80347141D01*
X150307500Y-80304284D01*
X150264643Y-80218570D01*
X150264643Y-80047141D01*
X150307500Y-79961427D01*
X150393214Y-79532855D02*
X150393214Y-79232855D01*
X150864643Y-79104284D02*
X150864643Y-79532855D01*
X149964643Y-79532855D01*
X149964643Y-79104284D01*
X150864643Y-78332855D02*
X150393214Y-78332855D01*
X150307500Y-78375712D01*
X150264643Y-78461426D01*
X150264643Y-78632855D01*
X150307500Y-78718569D01*
X150821786Y-78332855D02*
X150864643Y-78418569D01*
X150864643Y-78632855D01*
X150821786Y-78718569D01*
X150736071Y-78761426D01*
X150650357Y-78761426D01*
X150564643Y-78718569D01*
X150521786Y-78632855D01*
X150521786Y-78418569D01*
X150478929Y-78332855D01*
X150864643Y-77904283D02*
X150264643Y-77904283D01*
X150436071Y-77904283D02*
X150350357Y-77861426D01*
X150307500Y-77818569D01*
X150264643Y-77732855D01*
X150264643Y-77647140D01*
X149964643Y-76747141D02*
X150864643Y-76532855D01*
X150221786Y-76361426D01*
X150864643Y-76189998D01*
X149964643Y-75975712D01*
X150864643Y-75632855D02*
X150264643Y-75632855D01*
X149964643Y-75632855D02*
X150007500Y-75675712D01*
X150050357Y-75632855D01*
X150007500Y-75589998D01*
X149964643Y-75632855D01*
X150050357Y-75632855D01*
X150264643Y-75332856D02*
X150264643Y-74989999D01*
X150864643Y-75204284D02*
X150093214Y-75204284D01*
X150007500Y-75161427D01*
X149964643Y-75075713D01*
X149964643Y-74989999D01*
X150864643Y-74689998D02*
X150264643Y-74689998D01*
X149964643Y-74689998D02*
X150007500Y-74732855D01*
X150050357Y-74689998D01*
X150007500Y-74647141D01*
X149964643Y-74689998D01*
X150050357Y-74689998D01*
X153214643Y-89261430D02*
X153814643Y-89090001D01*
X153386071Y-88918572D01*
X153814643Y-88747144D01*
X153214643Y-88575715D01*
X153214643Y-88318573D02*
X153814643Y-88147144D01*
X153386071Y-87975715D01*
X153814643Y-87804287D01*
X153214643Y-87632858D01*
X153214643Y-87375716D02*
X153814643Y-87204287D01*
X153386071Y-87032858D01*
X153814643Y-86861430D01*
X153214643Y-86690001D01*
X153728929Y-86347144D02*
X153771786Y-86304287D01*
X153814643Y-86347144D01*
X153771786Y-86390001D01*
X153728929Y-86347144D01*
X153814643Y-86347144D01*
X153814643Y-85532859D02*
X153343214Y-85532859D01*
X153257500Y-85575716D01*
X153214643Y-85661430D01*
X153214643Y-85832859D01*
X153257500Y-85918573D01*
X153771786Y-85532859D02*
X153814643Y-85618573D01*
X153814643Y-85832859D01*
X153771786Y-85918573D01*
X153686071Y-85961430D01*
X153600357Y-85961430D01*
X153514643Y-85918573D01*
X153471786Y-85832859D01*
X153471786Y-85618573D01*
X153428929Y-85532859D01*
X153814643Y-84975716D02*
X153771786Y-85061430D01*
X153686071Y-85104287D01*
X152914643Y-85104287D01*
X153814643Y-84504287D02*
X153771786Y-84590001D01*
X153686071Y-84632858D01*
X152914643Y-84632858D01*
X153814643Y-84161429D02*
X152914643Y-84161429D01*
X153814643Y-83775715D02*
X153343214Y-83775715D01*
X153257500Y-83818572D01*
X153214643Y-83904286D01*
X153214643Y-84032858D01*
X153257500Y-84118572D01*
X153300357Y-84161429D01*
X153771786Y-83004286D02*
X153814643Y-83090000D01*
X153814643Y-83261429D01*
X153771786Y-83347143D01*
X153686071Y-83390000D01*
X153343214Y-83390000D01*
X153257500Y-83347143D01*
X153214643Y-83261429D01*
X153214643Y-83090000D01*
X153257500Y-83004286D01*
X153343214Y-82961429D01*
X153428929Y-82961429D01*
X153514643Y-83390000D01*
X153814643Y-82190000D02*
X153343214Y-82190000D01*
X153257500Y-82232857D01*
X153214643Y-82318571D01*
X153214643Y-82490000D01*
X153257500Y-82575714D01*
X153771786Y-82190000D02*
X153814643Y-82275714D01*
X153814643Y-82490000D01*
X153771786Y-82575714D01*
X153686071Y-82618571D01*
X153600357Y-82618571D01*
X153514643Y-82575714D01*
X153471786Y-82490000D01*
X153471786Y-82275714D01*
X153428929Y-82190000D01*
X153814643Y-81761428D02*
X153214643Y-81761428D01*
X153386071Y-81761428D02*
X153300357Y-81718571D01*
X153257500Y-81675714D01*
X153214643Y-81590000D01*
X153214643Y-81504285D01*
X153814643Y-81204285D02*
X153214643Y-81204285D01*
X152914643Y-81204285D02*
X152957500Y-81247142D01*
X153000357Y-81204285D01*
X152957500Y-81161428D01*
X152914643Y-81204285D01*
X153000357Y-81204285D01*
X153214643Y-80775714D02*
X153814643Y-80775714D01*
X153300357Y-80775714D02*
X153257500Y-80732857D01*
X153214643Y-80647143D01*
X153214643Y-80518571D01*
X153257500Y-80432857D01*
X153343214Y-80390000D01*
X153814643Y-80390000D01*
X153214643Y-79575714D02*
X153943214Y-79575714D01*
X154028929Y-79618571D01*
X154071786Y-79661428D01*
X154114643Y-79747143D01*
X154114643Y-79875714D01*
X154071786Y-79961428D01*
X153771786Y-79575714D02*
X153814643Y-79661428D01*
X153814643Y-79832857D01*
X153771786Y-79918571D01*
X153728929Y-79961428D01*
X153643214Y-80004285D01*
X153386071Y-80004285D01*
X153300357Y-79961428D01*
X153257500Y-79918571D01*
X153214643Y-79832857D01*
X153214643Y-79661428D01*
X153257500Y-79575714D01*
X153771786Y-78804285D02*
X153814643Y-78889999D01*
X153814643Y-79061428D01*
X153771786Y-79147142D01*
X153686071Y-79189999D01*
X153343214Y-79189999D01*
X153257500Y-79147142D01*
X153214643Y-79061428D01*
X153214643Y-78889999D01*
X153257500Y-78804285D01*
X153343214Y-78761428D01*
X153428929Y-78761428D01*
X153514643Y-79189999D01*
X153814643Y-77989999D02*
X153343214Y-77989999D01*
X153257500Y-78032856D01*
X153214643Y-78118570D01*
X153214643Y-78289999D01*
X153257500Y-78375713D01*
X153771786Y-77989999D02*
X153814643Y-78075713D01*
X153814643Y-78289999D01*
X153771786Y-78375713D01*
X153686071Y-78418570D01*
X153600357Y-78418570D01*
X153514643Y-78375713D01*
X153471786Y-78289999D01*
X153471786Y-78075713D01*
X153428929Y-77989999D01*
X153814643Y-77561427D02*
X153214643Y-77561427D01*
X153386071Y-77561427D02*
X153300357Y-77518570D01*
X153257500Y-77475713D01*
X153214643Y-77389999D01*
X153214643Y-77304284D01*
X153214643Y-77089999D02*
X153814643Y-76918570D01*
X153386071Y-76747141D01*
X153814643Y-76575713D01*
X153214643Y-76404284D01*
X153814643Y-76061427D02*
X153214643Y-76061427D01*
X152914643Y-76061427D02*
X152957500Y-76104284D01*
X153000357Y-76061427D01*
X152957500Y-76018570D01*
X152914643Y-76061427D01*
X153000357Y-76061427D01*
X153214643Y-75761428D02*
X153214643Y-75418571D01*
X153814643Y-75632856D02*
X153043214Y-75632856D01*
X152957500Y-75589999D01*
X152914643Y-75504285D01*
X152914643Y-75418571D01*
X153814643Y-75118570D02*
X153214643Y-75118570D01*
X152914643Y-75118570D02*
X152957500Y-75161427D01*
X153000357Y-75118570D01*
X152957500Y-75075713D01*
X152914643Y-75118570D01*
X153000357Y-75118570D01*
X153728929Y-74689999D02*
X153771786Y-74647142D01*
X153814643Y-74689999D01*
X153771786Y-74732856D01*
X153728929Y-74689999D01*
X153814643Y-74689999D01*
X153771786Y-73875714D02*
X153814643Y-73961428D01*
X153814643Y-74132857D01*
X153771786Y-74218571D01*
X153728929Y-74261428D01*
X153643214Y-74304285D01*
X153386071Y-74304285D01*
X153300357Y-74261428D01*
X153257500Y-74218571D01*
X153214643Y-74132857D01*
X153214643Y-73961428D01*
X153257500Y-73875714D01*
X153814643Y-73361428D02*
X153771786Y-73447142D01*
X153728929Y-73489999D01*
X153643214Y-73532856D01*
X153386071Y-73532856D01*
X153300357Y-73489999D01*
X153257500Y-73447142D01*
X153214643Y-73361428D01*
X153214643Y-73232856D01*
X153257500Y-73147142D01*
X153300357Y-73104285D01*
X153386071Y-73061428D01*
X153643214Y-73061428D01*
X153728929Y-73104285D01*
X153771786Y-73147142D01*
X153814643Y-73232856D01*
X153814643Y-73361428D01*
X153814643Y-72675713D02*
X153214643Y-72675713D01*
X153300357Y-72675713D02*
X153257500Y-72632856D01*
X153214643Y-72547142D01*
X153214643Y-72418570D01*
X153257500Y-72332856D01*
X153343214Y-72289999D01*
X153814643Y-72289999D01*
X153343214Y-72289999D02*
X153257500Y-72247142D01*
X153214643Y-72161428D01*
X153214643Y-72032856D01*
X153257500Y-71947142D01*
X153343214Y-71904285D01*
X153814643Y-71904285D01*
X155289643Y-86347143D02*
X154389643Y-86347143D01*
X154732500Y-86347143D02*
X154689643Y-86261429D01*
X154689643Y-86090000D01*
X154732500Y-86004286D01*
X154775357Y-85961429D01*
X154861071Y-85918572D01*
X155118214Y-85918572D01*
X155203929Y-85961429D01*
X155246786Y-86004286D01*
X155289643Y-86090000D01*
X155289643Y-86261429D01*
X155246786Y-86347143D01*
X154689643Y-85618572D02*
X155289643Y-85404286D01*
X154689643Y-85190000D02*
X155289643Y-85404286D01*
X155503929Y-85490000D01*
X155546786Y-85532857D01*
X155589643Y-85618572D01*
X155032500Y-84204286D02*
X155032500Y-83775715D01*
X155289643Y-84290001D02*
X154389643Y-83990001D01*
X155289643Y-83690001D01*
X154946786Y-83390000D02*
X154946786Y-82704286D01*
X155289643Y-83047143D02*
X154603929Y-83047143D01*
X155289643Y-82275714D02*
X154389643Y-82275714D01*
X155032500Y-81975714D01*
X154389643Y-81675714D01*
X155289643Y-81675714D01*
X155246786Y-80604286D02*
X155289643Y-80475715D01*
X155289643Y-80261429D01*
X155246786Y-80175715D01*
X155203929Y-80132858D01*
X155118214Y-80090001D01*
X155032500Y-80090001D01*
X154946786Y-80132858D01*
X154903929Y-80175715D01*
X154861071Y-80261429D01*
X154818214Y-80432858D01*
X154775357Y-80518572D01*
X154732500Y-80561429D01*
X154646786Y-80604286D01*
X154561071Y-80604286D01*
X154475357Y-80561429D01*
X154432500Y-80518572D01*
X154389643Y-80432858D01*
X154389643Y-80218572D01*
X154432500Y-80090001D01*
X154689643Y-79318572D02*
X155289643Y-79318572D01*
X154689643Y-79704286D02*
X155161071Y-79704286D01*
X155246786Y-79661429D01*
X155289643Y-79575715D01*
X155289643Y-79447143D01*
X155246786Y-79361429D01*
X155203929Y-79318572D01*
X154689643Y-78890000D02*
X155289643Y-78890000D01*
X154775357Y-78890000D02*
X154732500Y-78847143D01*
X154689643Y-78761429D01*
X154689643Y-78632857D01*
X154732500Y-78547143D01*
X154818214Y-78504286D01*
X155289643Y-78504286D01*
X155289643Y-77690000D02*
X154389643Y-77690000D01*
X155246786Y-77690000D02*
X155289643Y-77775714D01*
X155289643Y-77947143D01*
X155246786Y-78032857D01*
X155203929Y-78075714D01*
X155118214Y-78118571D01*
X154861071Y-78118571D01*
X154775357Y-78075714D01*
X154732500Y-78032857D01*
X154689643Y-77947143D01*
X154689643Y-77775714D01*
X154732500Y-77690000D01*
X155289643Y-77261428D02*
X154389643Y-77261428D01*
X154732500Y-77261428D02*
X154689643Y-77175714D01*
X154689643Y-77004285D01*
X154732500Y-76918571D01*
X154775357Y-76875714D01*
X154861071Y-76832857D01*
X155118214Y-76832857D01*
X155203929Y-76875714D01*
X155246786Y-76918571D01*
X155289643Y-77004285D01*
X155289643Y-77175714D01*
X155246786Y-77261428D01*
X155246786Y-76104285D02*
X155289643Y-76189999D01*
X155289643Y-76361428D01*
X155246786Y-76447142D01*
X155161071Y-76489999D01*
X154818214Y-76489999D01*
X154732500Y-76447142D01*
X154689643Y-76361428D01*
X154689643Y-76189999D01*
X154732500Y-76104285D01*
X154818214Y-76061428D01*
X154903929Y-76061428D01*
X154989643Y-76489999D01*
X155289643Y-75675713D02*
X154689643Y-75675713D01*
X154861071Y-75675713D02*
X154775357Y-75632856D01*
X154732500Y-75589999D01*
X154689643Y-75504285D01*
X154689643Y-75418570D01*
X154689643Y-74732856D02*
X155418214Y-74732856D01*
X155503929Y-74775713D01*
X155546786Y-74818570D01*
X155589643Y-74904285D01*
X155589643Y-75032856D01*
X155546786Y-75118570D01*
X155246786Y-74732856D02*
X155289643Y-74818570D01*
X155289643Y-74989999D01*
X155246786Y-75075713D01*
X155203929Y-75118570D01*
X155118214Y-75161427D01*
X154861071Y-75161427D01*
X154775357Y-75118570D01*
X154732500Y-75075713D01*
X154689643Y-74989999D01*
X154689643Y-74818570D01*
X154732500Y-74732856D01*
D13*
X158910000Y-100660000D02*
X159785000Y-100660000D01*
X159760000Y-99810000D02*
X158910000Y-100660000D01*
X159785000Y-100660000D02*
X158910000Y-99785000D01*
X159785000Y-99785000D02*
X158910000Y-99785000D01*
X158910000Y-100660000D02*
X158910000Y-99785000D01*
X159785000Y-100660000D02*
X159785000Y-99785000D01*
X143105000Y-100640000D02*
X143105000Y-99765000D01*
X142230000Y-100640000D02*
X143105000Y-100640000D01*
X142230000Y-100640000D02*
X142230000Y-99765000D01*
X143080000Y-99790000D02*
X142230000Y-100640000D01*
X143105000Y-99765000D02*
X142230000Y-99765000D01*
X143105000Y-100640000D02*
X142230000Y-99765000D01*
X143115000Y-62480000D02*
X142240000Y-61605000D01*
X143115000Y-61605000D02*
X142240000Y-61605000D01*
X143090000Y-61630000D02*
X142240000Y-62480000D01*
X142240000Y-62480000D02*
X142240000Y-61605000D01*
X142240000Y-62480000D02*
X143115000Y-62480000D01*
X143115000Y-62480000D02*
X143115000Y-61605000D01*
X159750000Y-62500000D02*
X159750000Y-61625000D01*
X158875000Y-62500000D02*
X159750000Y-62500000D01*
X158875000Y-62500000D02*
X158875000Y-61625000D01*
X159725000Y-61650000D02*
X158875000Y-62500000D01*
X159750000Y-61625000D02*
X158875000Y-61625000D01*
X159750000Y-62500000D02*
X158875000Y-61625000D01*
D11*
X148385000Y-70185000D02*
X148435000Y-70185000D01*
X148385000Y-66035000D02*
X148530000Y-66035000D01*
X153535000Y-66035000D02*
X153390000Y-66035000D01*
X153535000Y-70185000D02*
X153390000Y-70185000D01*
X148385000Y-70185000D02*
X148385000Y-66035000D01*
X153535000Y-70185000D02*
X153535000Y-66035000D01*
X148435000Y-70185000D02*
X148435000Y-71585000D01*
D14*
X147820000Y-69810000D02*
X147820000Y-68810000D01*
X146120000Y-68810000D02*
X146120000Y-69810000D01*
X156630000Y-103040000D02*
X156630000Y-101840000D01*
X158390000Y-101840000D02*
X158390000Y-103040000D01*
X155500000Y-69070000D02*
X156700000Y-69070000D01*
X156700000Y-70830000D02*
X155500000Y-70830000D01*
D11*
X152580000Y-104560000D02*
X149780000Y-104560000D01*
X149780000Y-104560000D02*
X149780000Y-103160000D01*
X149780000Y-103160000D02*
X152580000Y-103160000D01*
X152580000Y-103160000D02*
X152580000Y-104560000D01*
X148180000Y-105610000D02*
X148180000Y-104960000D01*
X148180000Y-102110000D02*
X148180000Y-102760000D01*
X154180000Y-102760000D02*
X154180000Y-102110000D01*
X154180000Y-105610000D02*
X154180000Y-104960000D01*
X148180000Y-105610000D02*
X154180000Y-105610000D01*
X154180000Y-102110000D02*
X148180000Y-102110000D01*
D14*
X151000000Y-99780000D02*
X153600000Y-99780000D01*
X153600000Y-99780000D02*
X153600000Y-97120000D01*
X153600000Y-97120000D02*
X151000000Y-97120000D01*
X151000000Y-97120000D02*
X151000000Y-99780000D01*
X149730000Y-99780000D02*
X148400000Y-99780000D01*
X148400000Y-99780000D02*
X148400000Y-98450000D01*
D15*
X158940000Y-93520000D02*
X142940000Y-93520000D01*
X142940000Y-93520000D02*
X142940000Y-88120000D01*
X158940000Y-93520000D02*
X158940000Y-88120000D01*
X158940000Y-72320000D02*
X158940000Y-71520000D01*
X158940000Y-71520000D02*
X142940000Y-71520000D01*
X142940000Y-71520000D02*
X142940000Y-72320000D01*
X158948000Y-89720000D02*
X142948000Y-89720000D01*
D11*
X150268095Y-67562381D02*
X150268095Y-68371905D01*
X150315714Y-68467143D01*
X150363333Y-68514762D01*
X150458571Y-68562381D01*
X150649048Y-68562381D01*
X150744286Y-68514762D01*
X150791905Y-68467143D01*
X150839524Y-68371905D01*
X150839524Y-67562381D01*
X151744286Y-67895714D02*
X151744286Y-68562381D01*
X151506190Y-67514762D02*
X151268095Y-68229048D01*
X151887143Y-68229048D01*
X145502857Y-69936666D02*
X145502857Y-70203333D01*
X145921905Y-70203333D02*
X145121905Y-70203333D01*
X145121905Y-69822380D01*
X145502857Y-69250952D02*
X145540952Y-69136666D01*
X145579048Y-69098571D01*
X145655238Y-69060476D01*
X145769524Y-69060476D01*
X145845714Y-69098571D01*
X145883810Y-69136666D01*
X145921905Y-69212857D01*
X145921905Y-69517619D01*
X145121905Y-69517619D01*
X145121905Y-69250952D01*
X145160000Y-69174762D01*
X145198095Y-69136666D01*
X145274286Y-69098571D01*
X145350476Y-69098571D01*
X145426667Y-69136666D01*
X145464762Y-69174762D01*
X145502857Y-69250952D01*
X145502857Y-69517619D01*
X145921905Y-68298571D02*
X145921905Y-68755714D01*
X145921905Y-68527143D02*
X145121905Y-68527143D01*
X145236190Y-68603333D01*
X145312381Y-68679524D01*
X145350476Y-68755714D01*
X159662381Y-102606666D02*
X159186190Y-102940000D01*
X159662381Y-103178095D02*
X158662381Y-103178095D01*
X158662381Y-102797142D01*
X158710000Y-102701904D01*
X158757619Y-102654285D01*
X158852857Y-102606666D01*
X158995714Y-102606666D01*
X159090952Y-102654285D01*
X159138571Y-102701904D01*
X159186190Y-102797142D01*
X159186190Y-103178095D01*
X159662381Y-101654285D02*
X159662381Y-102225714D01*
X159662381Y-101940000D02*
X158662381Y-101940000D01*
X158805238Y-102035238D01*
X158900476Y-102130476D01*
X158948095Y-102225714D01*
X159622381Y-70176666D02*
X159146190Y-70510000D01*
X159622381Y-70748095D02*
X158622381Y-70748095D01*
X158622381Y-70367142D01*
X158670000Y-70271904D01*
X158717619Y-70224285D01*
X158812857Y-70176666D01*
X158955714Y-70176666D01*
X159050952Y-70224285D01*
X159098571Y-70271904D01*
X159146190Y-70367142D01*
X159146190Y-70748095D01*
X158622381Y-69843333D02*
X158622381Y-69224285D01*
X159003333Y-69557619D01*
X159003333Y-69414761D01*
X159050952Y-69319523D01*
X159098571Y-69271904D01*
X159193810Y-69224285D01*
X159431905Y-69224285D01*
X159527143Y-69271904D01*
X159574762Y-69319523D01*
X159622381Y-69414761D01*
X159622381Y-69700476D01*
X159574762Y-69795714D01*
X159527143Y-69843333D01*
X149930000Y-103449286D02*
X150108571Y-104199286D01*
X150251428Y-103663571D01*
X150394286Y-104199286D01*
X150572857Y-103449286D01*
X150858571Y-104199286D02*
X150858571Y-103699286D01*
X150858571Y-103449286D02*
X150822857Y-103485000D01*
X150858571Y-103520714D01*
X150894286Y-103485000D01*
X150858571Y-103449286D01*
X150858571Y-103520714D01*
X151108572Y-103699286D02*
X151394286Y-103699286D01*
X151215714Y-104199286D02*
X151215714Y-103556429D01*
X151251429Y-103485000D01*
X151322857Y-103449286D01*
X151394286Y-103449286D01*
X151644285Y-104199286D02*
X151644285Y-103699286D01*
X151644285Y-103449286D02*
X151608571Y-103485000D01*
X151644285Y-103520714D01*
X151680000Y-103485000D01*
X151644285Y-103449286D01*
X151644285Y-103520714D01*
X152394286Y-104199286D02*
X151965714Y-104199286D01*
X152180000Y-104199286D02*
X152180000Y-103449286D01*
X152108571Y-103556429D01*
X152037143Y-103627857D01*
X151965714Y-103663571D01*
X147852381Y-99188095D02*
X146852381Y-99188095D01*
X146852381Y-98807142D01*
X146900000Y-98711904D01*
X146947619Y-98664285D01*
X147042857Y-98616666D01*
X147185714Y-98616666D01*
X147280952Y-98664285D01*
X147328571Y-98711904D01*
X147376190Y-98807142D01*
X147376190Y-99188095D01*
X146947619Y-98235714D02*
X146900000Y-98188095D01*
X146852381Y-98092857D01*
X146852381Y-97854761D01*
X146900000Y-97759523D01*
X146947619Y-97711904D01*
X147042857Y-97664285D01*
X147138095Y-97664285D01*
X147280952Y-97711904D01*
X147852381Y-98283333D01*
X147852381Y-97664285D01*
X157153095Y-88272381D02*
X157153095Y-89081905D01*
X157200714Y-89177143D01*
X157248333Y-89224762D01*
X157343571Y-89272381D01*
X157534048Y-89272381D01*
X157629286Y-89224762D01*
X157676905Y-89177143D01*
X157724524Y-89081905D01*
X157724524Y-88272381D01*
X158153095Y-88367619D02*
X158200714Y-88320000D01*
X158295952Y-88272381D01*
X158534048Y-88272381D01*
X158629286Y-88320000D01*
X158676905Y-88367619D01*
X158724524Y-88462857D01*
X158724524Y-88558095D01*
X158676905Y-88700952D01*
X158105476Y-89272381D01*
X158724524Y-89272381D01*
X146214666Y-92686667D02*
X146690857Y-92686667D01*
X146119428Y-92972381D02*
X146452761Y-91972381D01*
X146786095Y-92972381D01*
X147262285Y-92972381D02*
X147167047Y-92924762D01*
X147119428Y-92829524D01*
X147119428Y-91972381D01*
X147786095Y-92972381D02*
X147690857Y-92924762D01*
X147643238Y-92829524D01*
X147643238Y-91972381D01*
X148167048Y-92972381D02*
X148167048Y-91972381D01*
X148167048Y-92448571D02*
X148738477Y-92448571D01*
X148738477Y-92972381D02*
X148738477Y-91972381D01*
X149595620Y-92924762D02*
X149500382Y-92972381D01*
X149309905Y-92972381D01*
X149214667Y-92924762D01*
X149167048Y-92829524D01*
X149167048Y-92448571D01*
X149214667Y-92353333D01*
X149309905Y-92305714D01*
X149500382Y-92305714D01*
X149595620Y-92353333D01*
X149643239Y-92448571D01*
X149643239Y-92543810D01*
X149167048Y-92639048D01*
X150500382Y-92972381D02*
X150500382Y-92448571D01*
X150452763Y-92353333D01*
X150357525Y-92305714D01*
X150167048Y-92305714D01*
X150071810Y-92353333D01*
X150500382Y-92924762D02*
X150405144Y-92972381D01*
X150167048Y-92972381D01*
X150071810Y-92924762D01*
X150024191Y-92829524D01*
X150024191Y-92734286D01*
X150071810Y-92639048D01*
X150167048Y-92591429D01*
X150405144Y-92591429D01*
X150500382Y-92543810D01*
X150976572Y-92972381D02*
X150976572Y-92305714D01*
X150976572Y-92496190D02*
X151024191Y-92400952D01*
X151071810Y-92353333D01*
X151167048Y-92305714D01*
X151262287Y-92305714D01*
X151595620Y-92972381D02*
X151595620Y-92305714D01*
X151595620Y-91972381D02*
X151548001Y-92020000D01*
X151595620Y-92067619D01*
X151643239Y-92020000D01*
X151595620Y-91972381D01*
X151595620Y-92067619D01*
X152071810Y-92305714D02*
X152071810Y-92972381D01*
X152071810Y-92400952D02*
X152119429Y-92353333D01*
X152214667Y-92305714D01*
X152357525Y-92305714D01*
X152452763Y-92353333D01*
X152500382Y-92448571D01*
X152500382Y-92972381D01*
X153405144Y-92305714D02*
X153405144Y-93115238D01*
X153357525Y-93210476D01*
X153309906Y-93258095D01*
X153214667Y-93305714D01*
X153071810Y-93305714D01*
X152976572Y-93258095D01*
X153405144Y-92924762D02*
X153309906Y-92972381D01*
X153119429Y-92972381D01*
X153024191Y-92924762D01*
X152976572Y-92877143D01*
X152928953Y-92781905D01*
X152928953Y-92496190D01*
X152976572Y-92400952D01*
X153024191Y-92353333D01*
X153119429Y-92305714D01*
X153309906Y-92305714D01*
X153405144Y-92353333D01*
X153881334Y-92448571D02*
X154214668Y-92448571D01*
X154357525Y-92972381D02*
X153881334Y-92972381D01*
X153881334Y-91972381D01*
X154357525Y-91972381D01*
X155214668Y-92972381D02*
X155214668Y-92448571D01*
X155167049Y-92353333D01*
X155071811Y-92305714D01*
X154881334Y-92305714D01*
X154786096Y-92353333D01*
X155214668Y-92924762D02*
X155119430Y-92972381D01*
X154881334Y-92972381D01*
X154786096Y-92924762D01*
X154738477Y-92829524D01*
X154738477Y-92734286D01*
X154786096Y-92639048D01*
X154881334Y-92591429D01*
X155119430Y-92591429D01*
X155214668Y-92543810D01*
X155690858Y-92972381D02*
X155690858Y-92305714D01*
X155690858Y-92496190D02*
X155738477Y-92400952D01*
X155786096Y-92353333D01*
X155881334Y-92305714D01*
X155976573Y-92305714D01*
M02*
