G04 #@! TF.FileFunction,Legend,Top*
%FSLAX46Y46*%
G04 Gerber Fmt 4.6, Leading zero omitted, Abs format (unit mm)*
G04 Created by KiCad (PCBNEW 4.0.4-stable) date 03/30/17 11:33:34*
%MOMM*%
%LPD*%
G01*
G04 APERTURE LIST*
%ADD10C,0.100000*%
%ADD11C,0.127000*%
%ADD12C,0.125000*%
%ADD13C,0.120000*%
%ADD14C,0.150000*%
%ADD15C,0.152400*%
G04 APERTURE END LIST*
D10*
D11*
X145290000Y-95500000D02*
X145020000Y-95500000D01*
X145290000Y-95500000D02*
X145290000Y-95220000D01*
X144840000Y-95050000D02*
X145290000Y-95500000D01*
X149160000Y-98580000D02*
X149160000Y-98280000D01*
X149160000Y-98660000D02*
X149440000Y-98660000D01*
X149730000Y-98400000D02*
X149700000Y-98400000D01*
X149730000Y-98060000D02*
X149730000Y-98400000D01*
X149660000Y-98040000D02*
X149370000Y-98040000D01*
X149090000Y-98690000D02*
X149750000Y-98030000D01*
D12*
X144196666Y-74211905D02*
X143929999Y-73830952D01*
X143739523Y-74211905D02*
X143739523Y-73411905D01*
X144044285Y-73411905D01*
X144120476Y-73450000D01*
X144158571Y-73488095D01*
X144196666Y-73564286D01*
X144196666Y-73678571D01*
X144158571Y-73754762D01*
X144120476Y-73792857D01*
X144044285Y-73830952D01*
X143739523Y-73830952D01*
X144844285Y-74173810D02*
X144768095Y-74211905D01*
X144615714Y-74211905D01*
X144539523Y-74173810D01*
X144501428Y-74097619D01*
X144501428Y-73792857D01*
X144539523Y-73716667D01*
X144615714Y-73678571D01*
X144768095Y-73678571D01*
X144844285Y-73716667D01*
X144882380Y-73792857D01*
X144882380Y-73869048D01*
X144501428Y-73945238D01*
X145149047Y-73678571D02*
X145339523Y-74211905D01*
X145529999Y-73678571D01*
X146368095Y-73411905D02*
X146863333Y-73411905D01*
X146596666Y-73716667D01*
X146710952Y-73716667D01*
X146787142Y-73754762D01*
X146825238Y-73792857D01*
X146863333Y-73869048D01*
X146863333Y-74059524D01*
X146825238Y-74135714D01*
X146787142Y-74173810D01*
X146710952Y-74211905D01*
X146482380Y-74211905D01*
X146406190Y-74173810D01*
X146368095Y-74135714D01*
X148044286Y-74516667D02*
X148006190Y-74478571D01*
X147930000Y-74364286D01*
X147891905Y-74288095D01*
X147853809Y-74173810D01*
X147815714Y-73983333D01*
X147815714Y-73830952D01*
X147853809Y-73640476D01*
X147891905Y-73526190D01*
X147930000Y-73450000D01*
X148006190Y-73335714D01*
X148044286Y-73297619D01*
X148310952Y-74173810D02*
X148425238Y-74211905D01*
X148615714Y-74211905D01*
X148691904Y-74173810D01*
X148730000Y-74135714D01*
X148768095Y-74059524D01*
X148768095Y-73983333D01*
X148730000Y-73907143D01*
X148691904Y-73869048D01*
X148615714Y-73830952D01*
X148463333Y-73792857D01*
X148387142Y-73754762D01*
X148349047Y-73716667D01*
X148310952Y-73640476D01*
X148310952Y-73564286D01*
X148349047Y-73488095D01*
X148387142Y-73450000D01*
X148463333Y-73411905D01*
X148653809Y-73411905D01*
X148768095Y-73450000D01*
X149110952Y-74211905D02*
X149110952Y-73678571D01*
X149110952Y-73411905D02*
X149072857Y-73450000D01*
X149110952Y-73488095D01*
X149149047Y-73450000D01*
X149110952Y-73411905D01*
X149110952Y-73488095D01*
X149491904Y-73678571D02*
X149491904Y-74211905D01*
X149491904Y-73754762D02*
X149529999Y-73716667D01*
X149606190Y-73678571D01*
X149720476Y-73678571D01*
X149796666Y-73716667D01*
X149834761Y-73792857D01*
X149834761Y-74211905D01*
X150558571Y-73678571D02*
X150558571Y-74326190D01*
X150520476Y-74402381D01*
X150482381Y-74440476D01*
X150406190Y-74478571D01*
X150291905Y-74478571D01*
X150215714Y-74440476D01*
X150558571Y-74173810D02*
X150482381Y-74211905D01*
X150330000Y-74211905D01*
X150253809Y-74173810D01*
X150215714Y-74135714D01*
X150177619Y-74059524D01*
X150177619Y-73830952D01*
X150215714Y-73754762D01*
X150253809Y-73716667D01*
X150330000Y-73678571D01*
X150482381Y-73678571D01*
X150558571Y-73716667D01*
X151053810Y-74211905D02*
X150977619Y-74173810D01*
X150939524Y-74097619D01*
X150939524Y-73411905D01*
X151663334Y-74173810D02*
X151587144Y-74211905D01*
X151434763Y-74211905D01*
X151358572Y-74173810D01*
X151320477Y-74097619D01*
X151320477Y-73792857D01*
X151358572Y-73716667D01*
X151434763Y-73678571D01*
X151587144Y-73678571D01*
X151663334Y-73716667D01*
X151701429Y-73792857D01*
X151701429Y-73869048D01*
X151320477Y-73945238D01*
X151968096Y-74516667D02*
X152006191Y-74478571D01*
X152082381Y-74364286D01*
X152120477Y-74288095D01*
X152158572Y-74173810D01*
X152196667Y-73983333D01*
X152196667Y-73830952D01*
X152158572Y-73640476D01*
X152120477Y-73526190D01*
X152082381Y-73450000D01*
X152006191Y-73335714D01*
X151968096Y-73297619D01*
X152577619Y-73907143D02*
X153187143Y-73907143D01*
X153987143Y-74211905D02*
X153530000Y-74211905D01*
X153758571Y-74211905D02*
X153758571Y-73411905D01*
X153682381Y-73526190D01*
X153606190Y-73602381D01*
X153530000Y-73640476D01*
X154253810Y-73411905D02*
X154787143Y-73411905D01*
X154444286Y-74211905D01*
X155091905Y-74135714D02*
X155130000Y-74173810D01*
X155091905Y-74211905D01*
X155053810Y-74173810D01*
X155091905Y-74135714D01*
X155091905Y-74211905D01*
X155625238Y-73411905D02*
X155701429Y-73411905D01*
X155777619Y-73450000D01*
X155815714Y-73488095D01*
X155853810Y-73564286D01*
X155891905Y-73716667D01*
X155891905Y-73907143D01*
X155853810Y-74059524D01*
X155815714Y-74135714D01*
X155777619Y-74173810D01*
X155701429Y-74211905D01*
X155625238Y-74211905D01*
X155549048Y-74173810D01*
X155510952Y-74135714D01*
X155472857Y-74059524D01*
X155434762Y-73907143D01*
X155434762Y-73716667D01*
X155472857Y-73564286D01*
X155510952Y-73488095D01*
X155549048Y-73450000D01*
X155625238Y-73411905D01*
X156272857Y-74211905D02*
X156425238Y-74211905D01*
X156501429Y-74173810D01*
X156539524Y-74135714D01*
X156615715Y-74021429D01*
X156653810Y-73869048D01*
X156653810Y-73564286D01*
X156615715Y-73488095D01*
X156577619Y-73450000D01*
X156501429Y-73411905D01*
X156349048Y-73411905D01*
X156272857Y-73450000D01*
X156234762Y-73488095D01*
X156196667Y-73564286D01*
X156196667Y-73754762D01*
X156234762Y-73830952D01*
X156272857Y-73869048D01*
X156349048Y-73907143D01*
X156501429Y-73907143D01*
X156577619Y-73869048D01*
X156615715Y-73830952D01*
X156653810Y-73754762D01*
X156996667Y-74135714D02*
X157034762Y-74173810D01*
X156996667Y-74211905D01*
X156958572Y-74173810D01*
X156996667Y-74135714D01*
X156996667Y-74211905D01*
X157530000Y-73411905D02*
X157606191Y-73411905D01*
X157682381Y-73450000D01*
X157720476Y-73488095D01*
X157758572Y-73564286D01*
X157796667Y-73716667D01*
X157796667Y-73907143D01*
X157758572Y-74059524D01*
X157720476Y-74135714D01*
X157682381Y-74173810D01*
X157606191Y-74211905D01*
X157530000Y-74211905D01*
X157453810Y-74173810D01*
X157415714Y-74135714D01*
X157377619Y-74059524D01*
X157339524Y-73907143D01*
X157339524Y-73716667D01*
X157377619Y-73564286D01*
X157415714Y-73488095D01*
X157453810Y-73450000D01*
X157530000Y-73411905D01*
X158063334Y-73411905D02*
X158558572Y-73411905D01*
X158291905Y-73716667D01*
X158406191Y-73716667D01*
X158482381Y-73754762D01*
X158520477Y-73792857D01*
X158558572Y-73869048D01*
X158558572Y-74059524D01*
X158520477Y-74135714D01*
X158482381Y-74173810D01*
X158406191Y-74211905D01*
X158177619Y-74211905D01*
X158101429Y-74173810D01*
X158063334Y-74135714D01*
X149395000Y-89792857D02*
X149395000Y-89364286D01*
X149652143Y-89878572D02*
X148752143Y-89578572D01*
X149652143Y-89278572D01*
X149652143Y-88850000D02*
X149609286Y-88935714D01*
X149523571Y-88978571D01*
X148752143Y-88978571D01*
X149652143Y-88378571D02*
X149609286Y-88464285D01*
X149523571Y-88507142D01*
X148752143Y-88507142D01*
X149652143Y-88035713D02*
X148752143Y-88035713D01*
X149180714Y-88035713D02*
X149180714Y-87521428D01*
X149652143Y-87521428D02*
X148752143Y-87521428D01*
X149609286Y-86749999D02*
X149652143Y-86835713D01*
X149652143Y-87007142D01*
X149609286Y-87092856D01*
X149523571Y-87135713D01*
X149180714Y-87135713D01*
X149095000Y-87092856D01*
X149052143Y-87007142D01*
X149052143Y-86835713D01*
X149095000Y-86749999D01*
X149180714Y-86707142D01*
X149266429Y-86707142D01*
X149352143Y-87135713D01*
X149652143Y-85935713D02*
X149180714Y-85935713D01*
X149095000Y-85978570D01*
X149052143Y-86064284D01*
X149052143Y-86235713D01*
X149095000Y-86321427D01*
X149609286Y-85935713D02*
X149652143Y-86021427D01*
X149652143Y-86235713D01*
X149609286Y-86321427D01*
X149523571Y-86364284D01*
X149437857Y-86364284D01*
X149352143Y-86321427D01*
X149309286Y-86235713D01*
X149309286Y-86021427D01*
X149266429Y-85935713D01*
X149652143Y-85507141D02*
X149052143Y-85507141D01*
X149223571Y-85507141D02*
X149137857Y-85464284D01*
X149095000Y-85421427D01*
X149052143Y-85335713D01*
X149052143Y-85249998D01*
X149652143Y-84949998D02*
X149052143Y-84949998D01*
X148752143Y-84949998D02*
X148795000Y-84992855D01*
X148837857Y-84949998D01*
X148795000Y-84907141D01*
X148752143Y-84949998D01*
X148837857Y-84949998D01*
X149052143Y-84521427D02*
X149652143Y-84521427D01*
X149137857Y-84521427D02*
X149095000Y-84478570D01*
X149052143Y-84392856D01*
X149052143Y-84264284D01*
X149095000Y-84178570D01*
X149180714Y-84135713D01*
X149652143Y-84135713D01*
X149052143Y-83321427D02*
X149780714Y-83321427D01*
X149866429Y-83364284D01*
X149909286Y-83407141D01*
X149952143Y-83492856D01*
X149952143Y-83621427D01*
X149909286Y-83707141D01*
X149609286Y-83321427D02*
X149652143Y-83407141D01*
X149652143Y-83578570D01*
X149609286Y-83664284D01*
X149566429Y-83707141D01*
X149480714Y-83749998D01*
X149223571Y-83749998D01*
X149137857Y-83707141D01*
X149095000Y-83664284D01*
X149052143Y-83578570D01*
X149052143Y-83407141D01*
X149095000Y-83321427D01*
X149180714Y-82892855D02*
X149180714Y-82592855D01*
X149652143Y-82464284D02*
X149652143Y-82892855D01*
X148752143Y-82892855D01*
X148752143Y-82464284D01*
X149652143Y-81692855D02*
X149180714Y-81692855D01*
X149095000Y-81735712D01*
X149052143Y-81821426D01*
X149052143Y-81992855D01*
X149095000Y-82078569D01*
X149609286Y-81692855D02*
X149652143Y-81778569D01*
X149652143Y-81992855D01*
X149609286Y-82078569D01*
X149523571Y-82121426D01*
X149437857Y-82121426D01*
X149352143Y-82078569D01*
X149309286Y-81992855D01*
X149309286Y-81778569D01*
X149266429Y-81692855D01*
X149652143Y-81264283D02*
X149052143Y-81264283D01*
X149223571Y-81264283D02*
X149137857Y-81221426D01*
X149095000Y-81178569D01*
X149052143Y-81092855D01*
X149052143Y-81007140D01*
X148752143Y-80107141D02*
X149652143Y-79892855D01*
X149009286Y-79721426D01*
X149652143Y-79549998D01*
X148752143Y-79335712D01*
X149652143Y-78992855D02*
X149052143Y-78992855D01*
X148752143Y-78992855D02*
X148795000Y-79035712D01*
X148837857Y-78992855D01*
X148795000Y-78949998D01*
X148752143Y-78992855D01*
X148837857Y-78992855D01*
X149052143Y-78692856D02*
X149052143Y-78349999D01*
X149652143Y-78564284D02*
X148880714Y-78564284D01*
X148795000Y-78521427D01*
X148752143Y-78435713D01*
X148752143Y-78349999D01*
X149652143Y-78049998D02*
X149052143Y-78049998D01*
X148752143Y-78049998D02*
X148795000Y-78092855D01*
X148837857Y-78049998D01*
X148795000Y-78007141D01*
X148752143Y-78049998D01*
X148837857Y-78049998D01*
X150527143Y-92621430D02*
X151127143Y-92450001D01*
X150698571Y-92278572D01*
X151127143Y-92107144D01*
X150527143Y-91935715D01*
X150527143Y-91678573D02*
X151127143Y-91507144D01*
X150698571Y-91335715D01*
X151127143Y-91164287D01*
X150527143Y-90992858D01*
X150527143Y-90735716D02*
X151127143Y-90564287D01*
X150698571Y-90392858D01*
X151127143Y-90221430D01*
X150527143Y-90050001D01*
X151041429Y-89707144D02*
X151084286Y-89664287D01*
X151127143Y-89707144D01*
X151084286Y-89750001D01*
X151041429Y-89707144D01*
X151127143Y-89707144D01*
X151127143Y-88892859D02*
X150655714Y-88892859D01*
X150570000Y-88935716D01*
X150527143Y-89021430D01*
X150527143Y-89192859D01*
X150570000Y-89278573D01*
X151084286Y-88892859D02*
X151127143Y-88978573D01*
X151127143Y-89192859D01*
X151084286Y-89278573D01*
X150998571Y-89321430D01*
X150912857Y-89321430D01*
X150827143Y-89278573D01*
X150784286Y-89192859D01*
X150784286Y-88978573D01*
X150741429Y-88892859D01*
X151127143Y-88335716D02*
X151084286Y-88421430D01*
X150998571Y-88464287D01*
X150227143Y-88464287D01*
X151127143Y-87864287D02*
X151084286Y-87950001D01*
X150998571Y-87992858D01*
X150227143Y-87992858D01*
X151127143Y-87521429D02*
X150227143Y-87521429D01*
X151127143Y-87135715D02*
X150655714Y-87135715D01*
X150570000Y-87178572D01*
X150527143Y-87264286D01*
X150527143Y-87392858D01*
X150570000Y-87478572D01*
X150612857Y-87521429D01*
X151084286Y-86364286D02*
X151127143Y-86450000D01*
X151127143Y-86621429D01*
X151084286Y-86707143D01*
X150998571Y-86750000D01*
X150655714Y-86750000D01*
X150570000Y-86707143D01*
X150527143Y-86621429D01*
X150527143Y-86450000D01*
X150570000Y-86364286D01*
X150655714Y-86321429D01*
X150741429Y-86321429D01*
X150827143Y-86750000D01*
X151127143Y-85550000D02*
X150655714Y-85550000D01*
X150570000Y-85592857D01*
X150527143Y-85678571D01*
X150527143Y-85850000D01*
X150570000Y-85935714D01*
X151084286Y-85550000D02*
X151127143Y-85635714D01*
X151127143Y-85850000D01*
X151084286Y-85935714D01*
X150998571Y-85978571D01*
X150912857Y-85978571D01*
X150827143Y-85935714D01*
X150784286Y-85850000D01*
X150784286Y-85635714D01*
X150741429Y-85550000D01*
X151127143Y-85121428D02*
X150527143Y-85121428D01*
X150698571Y-85121428D02*
X150612857Y-85078571D01*
X150570000Y-85035714D01*
X150527143Y-84950000D01*
X150527143Y-84864285D01*
X151127143Y-84564285D02*
X150527143Y-84564285D01*
X150227143Y-84564285D02*
X150270000Y-84607142D01*
X150312857Y-84564285D01*
X150270000Y-84521428D01*
X150227143Y-84564285D01*
X150312857Y-84564285D01*
X150527143Y-84135714D02*
X151127143Y-84135714D01*
X150612857Y-84135714D02*
X150570000Y-84092857D01*
X150527143Y-84007143D01*
X150527143Y-83878571D01*
X150570000Y-83792857D01*
X150655714Y-83750000D01*
X151127143Y-83750000D01*
X150527143Y-82935714D02*
X151255714Y-82935714D01*
X151341429Y-82978571D01*
X151384286Y-83021428D01*
X151427143Y-83107143D01*
X151427143Y-83235714D01*
X151384286Y-83321428D01*
X151084286Y-82935714D02*
X151127143Y-83021428D01*
X151127143Y-83192857D01*
X151084286Y-83278571D01*
X151041429Y-83321428D01*
X150955714Y-83364285D01*
X150698571Y-83364285D01*
X150612857Y-83321428D01*
X150570000Y-83278571D01*
X150527143Y-83192857D01*
X150527143Y-83021428D01*
X150570000Y-82935714D01*
X151084286Y-82164285D02*
X151127143Y-82249999D01*
X151127143Y-82421428D01*
X151084286Y-82507142D01*
X150998571Y-82549999D01*
X150655714Y-82549999D01*
X150570000Y-82507142D01*
X150527143Y-82421428D01*
X150527143Y-82249999D01*
X150570000Y-82164285D01*
X150655714Y-82121428D01*
X150741429Y-82121428D01*
X150827143Y-82549999D01*
X151127143Y-81349999D02*
X150655714Y-81349999D01*
X150570000Y-81392856D01*
X150527143Y-81478570D01*
X150527143Y-81649999D01*
X150570000Y-81735713D01*
X151084286Y-81349999D02*
X151127143Y-81435713D01*
X151127143Y-81649999D01*
X151084286Y-81735713D01*
X150998571Y-81778570D01*
X150912857Y-81778570D01*
X150827143Y-81735713D01*
X150784286Y-81649999D01*
X150784286Y-81435713D01*
X150741429Y-81349999D01*
X151127143Y-80921427D02*
X150527143Y-80921427D01*
X150698571Y-80921427D02*
X150612857Y-80878570D01*
X150570000Y-80835713D01*
X150527143Y-80749999D01*
X150527143Y-80664284D01*
X150527143Y-80449999D02*
X151127143Y-80278570D01*
X150698571Y-80107141D01*
X151127143Y-79935713D01*
X150527143Y-79764284D01*
X151127143Y-79421427D02*
X150527143Y-79421427D01*
X150227143Y-79421427D02*
X150270000Y-79464284D01*
X150312857Y-79421427D01*
X150270000Y-79378570D01*
X150227143Y-79421427D01*
X150312857Y-79421427D01*
X150527143Y-79121428D02*
X150527143Y-78778571D01*
X151127143Y-78992856D02*
X150355714Y-78992856D01*
X150270000Y-78949999D01*
X150227143Y-78864285D01*
X150227143Y-78778571D01*
X151127143Y-78478570D02*
X150527143Y-78478570D01*
X150227143Y-78478570D02*
X150270000Y-78521427D01*
X150312857Y-78478570D01*
X150270000Y-78435713D01*
X150227143Y-78478570D01*
X150312857Y-78478570D01*
X151041429Y-78049999D02*
X151084286Y-78007142D01*
X151127143Y-78049999D01*
X151084286Y-78092856D01*
X151041429Y-78049999D01*
X151127143Y-78049999D01*
X151084286Y-77235714D02*
X151127143Y-77321428D01*
X151127143Y-77492857D01*
X151084286Y-77578571D01*
X151041429Y-77621428D01*
X150955714Y-77664285D01*
X150698571Y-77664285D01*
X150612857Y-77621428D01*
X150570000Y-77578571D01*
X150527143Y-77492857D01*
X150527143Y-77321428D01*
X150570000Y-77235714D01*
X151127143Y-76721428D02*
X151084286Y-76807142D01*
X151041429Y-76849999D01*
X150955714Y-76892856D01*
X150698571Y-76892856D01*
X150612857Y-76849999D01*
X150570000Y-76807142D01*
X150527143Y-76721428D01*
X150527143Y-76592856D01*
X150570000Y-76507142D01*
X150612857Y-76464285D01*
X150698571Y-76421428D01*
X150955714Y-76421428D01*
X151041429Y-76464285D01*
X151084286Y-76507142D01*
X151127143Y-76592856D01*
X151127143Y-76721428D01*
X151127143Y-76035713D02*
X150527143Y-76035713D01*
X150612857Y-76035713D02*
X150570000Y-75992856D01*
X150527143Y-75907142D01*
X150527143Y-75778570D01*
X150570000Y-75692856D01*
X150655714Y-75649999D01*
X151127143Y-75649999D01*
X150655714Y-75649999D02*
X150570000Y-75607142D01*
X150527143Y-75521428D01*
X150527143Y-75392856D01*
X150570000Y-75307142D01*
X150655714Y-75264285D01*
X151127143Y-75264285D01*
X152602143Y-89707143D02*
X151702143Y-89707143D01*
X152045000Y-89707143D02*
X152002143Y-89621429D01*
X152002143Y-89450000D01*
X152045000Y-89364286D01*
X152087857Y-89321429D01*
X152173571Y-89278572D01*
X152430714Y-89278572D01*
X152516429Y-89321429D01*
X152559286Y-89364286D01*
X152602143Y-89450000D01*
X152602143Y-89621429D01*
X152559286Y-89707143D01*
X152002143Y-88978572D02*
X152602143Y-88764286D01*
X152002143Y-88550000D02*
X152602143Y-88764286D01*
X152816429Y-88850000D01*
X152859286Y-88892857D01*
X152902143Y-88978572D01*
X152345000Y-87564286D02*
X152345000Y-87135715D01*
X152602143Y-87650001D02*
X151702143Y-87350001D01*
X152602143Y-87050001D01*
X152259286Y-86750000D02*
X152259286Y-86064286D01*
X152602143Y-86407143D02*
X151916429Y-86407143D01*
X152602143Y-85635714D02*
X151702143Y-85635714D01*
X152345000Y-85335714D01*
X151702143Y-85035714D01*
X152602143Y-85035714D01*
X152559286Y-83964286D02*
X152602143Y-83835715D01*
X152602143Y-83621429D01*
X152559286Y-83535715D01*
X152516429Y-83492858D01*
X152430714Y-83450001D01*
X152345000Y-83450001D01*
X152259286Y-83492858D01*
X152216429Y-83535715D01*
X152173571Y-83621429D01*
X152130714Y-83792858D01*
X152087857Y-83878572D01*
X152045000Y-83921429D01*
X151959286Y-83964286D01*
X151873571Y-83964286D01*
X151787857Y-83921429D01*
X151745000Y-83878572D01*
X151702143Y-83792858D01*
X151702143Y-83578572D01*
X151745000Y-83450001D01*
X152002143Y-82678572D02*
X152602143Y-82678572D01*
X152002143Y-83064286D02*
X152473571Y-83064286D01*
X152559286Y-83021429D01*
X152602143Y-82935715D01*
X152602143Y-82807143D01*
X152559286Y-82721429D01*
X152516429Y-82678572D01*
X152002143Y-82250000D02*
X152602143Y-82250000D01*
X152087857Y-82250000D02*
X152045000Y-82207143D01*
X152002143Y-82121429D01*
X152002143Y-81992857D01*
X152045000Y-81907143D01*
X152130714Y-81864286D01*
X152602143Y-81864286D01*
X152602143Y-81050000D02*
X151702143Y-81050000D01*
X152559286Y-81050000D02*
X152602143Y-81135714D01*
X152602143Y-81307143D01*
X152559286Y-81392857D01*
X152516429Y-81435714D01*
X152430714Y-81478571D01*
X152173571Y-81478571D01*
X152087857Y-81435714D01*
X152045000Y-81392857D01*
X152002143Y-81307143D01*
X152002143Y-81135714D01*
X152045000Y-81050000D01*
X152602143Y-80621428D02*
X151702143Y-80621428D01*
X152045000Y-80621428D02*
X152002143Y-80535714D01*
X152002143Y-80364285D01*
X152045000Y-80278571D01*
X152087857Y-80235714D01*
X152173571Y-80192857D01*
X152430714Y-80192857D01*
X152516429Y-80235714D01*
X152559286Y-80278571D01*
X152602143Y-80364285D01*
X152602143Y-80535714D01*
X152559286Y-80621428D01*
X152559286Y-79464285D02*
X152602143Y-79549999D01*
X152602143Y-79721428D01*
X152559286Y-79807142D01*
X152473571Y-79849999D01*
X152130714Y-79849999D01*
X152045000Y-79807142D01*
X152002143Y-79721428D01*
X152002143Y-79549999D01*
X152045000Y-79464285D01*
X152130714Y-79421428D01*
X152216429Y-79421428D01*
X152302143Y-79849999D01*
X152602143Y-79035713D02*
X152002143Y-79035713D01*
X152173571Y-79035713D02*
X152087857Y-78992856D01*
X152045000Y-78949999D01*
X152002143Y-78864285D01*
X152002143Y-78778570D01*
X152002143Y-78092856D02*
X152730714Y-78092856D01*
X152816429Y-78135713D01*
X152859286Y-78178570D01*
X152902143Y-78264285D01*
X152902143Y-78392856D01*
X152859286Y-78478570D01*
X152559286Y-78092856D02*
X152602143Y-78178570D01*
X152602143Y-78349999D01*
X152559286Y-78435713D01*
X152516429Y-78478570D01*
X152430714Y-78521427D01*
X152173571Y-78521427D01*
X152087857Y-78478570D01*
X152045000Y-78435713D01*
X152002143Y-78349999D01*
X152002143Y-78178570D01*
X152045000Y-78092856D01*
D11*
X158910000Y-100660000D02*
X159785000Y-100660000D01*
X159760000Y-99810000D02*
X158910000Y-100660000D01*
X159785000Y-100660000D02*
X158910000Y-99785000D01*
X159785000Y-99785000D02*
X158910000Y-99785000D01*
X158910000Y-100660000D02*
X158910000Y-99785000D01*
X159785000Y-100660000D02*
X159785000Y-99785000D01*
X143105000Y-100640000D02*
X143105000Y-99765000D01*
X142230000Y-100640000D02*
X143105000Y-100640000D01*
X142230000Y-100640000D02*
X142230000Y-99765000D01*
X143080000Y-99790000D02*
X142230000Y-100640000D01*
X143105000Y-99765000D02*
X142230000Y-99765000D01*
X143105000Y-100640000D02*
X142230000Y-99765000D01*
X143115000Y-62480000D02*
X142240000Y-61605000D01*
X143115000Y-61605000D02*
X142240000Y-61605000D01*
X143090000Y-61630000D02*
X142240000Y-62480000D01*
X142240000Y-62480000D02*
X142240000Y-61605000D01*
X142240000Y-62480000D02*
X143115000Y-62480000D01*
X143115000Y-62480000D02*
X143115000Y-61605000D01*
X159750000Y-62500000D02*
X159750000Y-61625000D01*
X158875000Y-62500000D02*
X159750000Y-62500000D01*
X158875000Y-62500000D02*
X158875000Y-61625000D01*
X159725000Y-61650000D02*
X158875000Y-62500000D01*
X159750000Y-61625000D02*
X158875000Y-61625000D01*
X159750000Y-62500000D02*
X158875000Y-61625000D01*
D13*
X149600000Y-103330000D02*
X154800000Y-103330000D01*
X154800000Y-103330000D02*
X154800000Y-100550000D01*
X154800000Y-100550000D02*
X149600000Y-100550000D01*
X149600000Y-100550000D02*
X149600000Y-103330000D01*
X148330000Y-103330000D02*
X146940000Y-103330000D01*
X146940000Y-103330000D02*
X146940000Y-101940000D01*
X147380000Y-98190000D02*
X147380000Y-99190000D01*
X149080000Y-99190000D02*
X149080000Y-98190000D01*
X143490000Y-59830000D02*
X143490000Y-58630000D01*
X145250000Y-58630000D02*
X145250000Y-59830000D01*
D14*
X149715000Y-98975000D02*
X149765000Y-98975000D01*
X149715000Y-94825000D02*
X149860000Y-94825000D01*
X154865000Y-94825000D02*
X154720000Y-94825000D01*
X154865000Y-98975000D02*
X154720000Y-98975000D01*
X149715000Y-98975000D02*
X149715000Y-94825000D01*
X154865000Y-98975000D02*
X154865000Y-94825000D01*
X149765000Y-98975000D02*
X149765000Y-100375000D01*
D13*
X157240000Y-69400000D02*
X156240000Y-69400000D01*
X156240000Y-71100000D02*
X157240000Y-71100000D01*
X147930000Y-94830000D02*
X146930000Y-94830000D01*
X146930000Y-96530000D02*
X147930000Y-96530000D01*
X147920000Y-93180000D02*
X146920000Y-93180000D01*
X146920000Y-94880000D02*
X147920000Y-94880000D01*
X156860000Y-94920000D02*
X156860000Y-96120000D01*
X155100000Y-96120000D02*
X155100000Y-94920000D01*
X145210000Y-98190000D02*
X145210000Y-99190000D01*
X146910000Y-99190000D02*
X146910000Y-98190000D01*
X145210000Y-71110000D02*
X144010000Y-71110000D01*
X144010000Y-69350000D02*
X145210000Y-69350000D01*
D15*
X143060000Y-71110000D02*
X159060000Y-71110000D01*
X159060000Y-71110000D02*
X159060000Y-76510000D01*
X143060000Y-71110000D02*
X143060000Y-76510000D01*
X143060000Y-92310000D02*
X143060000Y-93110000D01*
X143060000Y-93110000D02*
X159060000Y-93110000D01*
X159060000Y-93110000D02*
X159060000Y-92310000D01*
X143052000Y-74910000D02*
X159052000Y-74910000D01*
D14*
X148730000Y-64940000D02*
X148730000Y-67740000D01*
X148730000Y-67740000D02*
X147330000Y-67740000D01*
X147330000Y-67740000D02*
X147330000Y-64940000D01*
X147330000Y-64940000D02*
X148730000Y-64940000D01*
X149780000Y-69340000D02*
X149130000Y-69340000D01*
X146280000Y-69340000D02*
X146930000Y-69340000D01*
X146930000Y-63340000D02*
X146280000Y-63340000D01*
X149780000Y-63340000D02*
X149130000Y-63340000D01*
X149780000Y-69340000D02*
X149780000Y-63340000D01*
X146280000Y-63340000D02*
X146280000Y-69340000D01*
D13*
X158080000Y-58340000D02*
X157080000Y-58340000D01*
X157080000Y-60040000D02*
X158080000Y-60040000D01*
X158080000Y-56600000D02*
X157080000Y-56600000D01*
X157080000Y-58300000D02*
X158080000Y-58300000D01*
X156610000Y-63160000D02*
X155350000Y-63160000D01*
X149790000Y-63160000D02*
X151050000Y-63160000D01*
X156610000Y-66920000D02*
X156610000Y-63160000D01*
X149790000Y-69170000D02*
X149790000Y-63160000D01*
D14*
X151690000Y-60110000D02*
X152390000Y-60110000D01*
X152390000Y-60110000D02*
X152390000Y-59610000D01*
X146890000Y-57810000D02*
X146890000Y-59610000D01*
X146890000Y-59610000D02*
X147490000Y-59610000D01*
X154490000Y-58010000D02*
X154490000Y-59610000D01*
X154490000Y-59610000D02*
X153890000Y-59610000D01*
D13*
X150580000Y-103330000D02*
X149580000Y-103330000D01*
X149580000Y-105030000D02*
X150580000Y-105030000D01*
D14*
X156052381Y-102798095D02*
X155052381Y-102798095D01*
X155052381Y-102417142D01*
X155100000Y-102321904D01*
X155147619Y-102274285D01*
X155242857Y-102226666D01*
X155385714Y-102226666D01*
X155480952Y-102274285D01*
X155528571Y-102321904D01*
X155576190Y-102417142D01*
X155576190Y-102798095D01*
X155147619Y-101845714D02*
X155100000Y-101798095D01*
X155052381Y-101702857D01*
X155052381Y-101464761D01*
X155100000Y-101369523D01*
X155147619Y-101321904D01*
X155242857Y-101274285D01*
X155338095Y-101274285D01*
X155480952Y-101321904D01*
X156052381Y-101893333D01*
X156052381Y-101274285D01*
X150837143Y-97612857D02*
X150884762Y-97660476D01*
X150932381Y-97803333D01*
X150932381Y-97898571D01*
X150884762Y-98041429D01*
X150789524Y-98136667D01*
X150694286Y-98184286D01*
X150503810Y-98231905D01*
X150360952Y-98231905D01*
X150170476Y-98184286D01*
X150075238Y-98136667D01*
X149980000Y-98041429D01*
X149932381Y-97898571D01*
X149932381Y-97803333D01*
X149980000Y-97660476D01*
X150027619Y-97612857D01*
X150932381Y-96660476D02*
X150932381Y-97231905D01*
X150932381Y-96946191D02*
X149932381Y-96946191D01*
X150075238Y-97041429D01*
X150170476Y-97136667D01*
X150218095Y-97231905D01*
X149932381Y-96041429D02*
X149932381Y-95946190D01*
X149980000Y-95850952D01*
X150027619Y-95803333D01*
X150122857Y-95755714D01*
X150313333Y-95708095D01*
X150551429Y-95708095D01*
X150741905Y-95755714D01*
X150837143Y-95803333D01*
X150884762Y-95850952D01*
X150932381Y-95946190D01*
X150932381Y-96041429D01*
X150884762Y-96136667D01*
X150837143Y-96184286D01*
X150741905Y-96231905D01*
X150551429Y-96279524D01*
X150313333Y-96279524D01*
X150122857Y-96231905D01*
X150027619Y-96184286D01*
X149980000Y-96136667D01*
X149932381Y-96041429D01*
X146522381Y-59396666D02*
X146046190Y-59730000D01*
X146522381Y-59968095D02*
X145522381Y-59968095D01*
X145522381Y-59587142D01*
X145570000Y-59491904D01*
X145617619Y-59444285D01*
X145712857Y-59396666D01*
X145855714Y-59396666D01*
X145950952Y-59444285D01*
X145998571Y-59491904D01*
X146046190Y-59587142D01*
X146046190Y-59968095D01*
X146522381Y-58444285D02*
X146522381Y-59015714D01*
X146522381Y-58730000D02*
X145522381Y-58730000D01*
X145665238Y-58825238D01*
X145760476Y-58920476D01*
X145808095Y-59015714D01*
X151598095Y-96352381D02*
X151598095Y-97161905D01*
X151645714Y-97257143D01*
X151693333Y-97304762D01*
X151788571Y-97352381D01*
X151979048Y-97352381D01*
X152074286Y-97304762D01*
X152121905Y-97257143D01*
X152169524Y-97161905D01*
X152169524Y-96352381D01*
X153074286Y-96685714D02*
X153074286Y-97352381D01*
X152836190Y-96304762D02*
X152598095Y-97019048D01*
X153217143Y-97019048D01*
X157263334Y-68447143D02*
X157215715Y-68494762D01*
X157072858Y-68542381D01*
X156977620Y-68542381D01*
X156834762Y-68494762D01*
X156739524Y-68399524D01*
X156691905Y-68304286D01*
X156644286Y-68113810D01*
X156644286Y-67970952D01*
X156691905Y-67780476D01*
X156739524Y-67685238D01*
X156834762Y-67590000D01*
X156977620Y-67542381D01*
X157072858Y-67542381D01*
X157215715Y-67590000D01*
X157263334Y-67637619D01*
X158215715Y-68542381D02*
X157644286Y-68542381D01*
X157930000Y-68542381D02*
X157930000Y-67542381D01*
X157834762Y-67685238D01*
X157739524Y-67780476D01*
X157644286Y-67828095D01*
X145117143Y-94276666D02*
X145164762Y-94324285D01*
X145212381Y-94467142D01*
X145212381Y-94562380D01*
X145164762Y-94705238D01*
X145069524Y-94800476D01*
X144974286Y-94848095D01*
X144783810Y-94895714D01*
X144640952Y-94895714D01*
X144450476Y-94848095D01*
X144355238Y-94800476D01*
X144260000Y-94705238D01*
X144212381Y-94562380D01*
X144212381Y-94467142D01*
X144260000Y-94324285D01*
X144307619Y-94276666D01*
X144212381Y-93371904D02*
X144212381Y-93848095D01*
X144688571Y-93895714D01*
X144640952Y-93848095D01*
X144593333Y-93752857D01*
X144593333Y-93514761D01*
X144640952Y-93419523D01*
X144688571Y-93371904D01*
X144783810Y-93324285D01*
X145021905Y-93324285D01*
X145117143Y-93371904D01*
X145164762Y-93419523D01*
X145212381Y-93514761D01*
X145212381Y-93752857D01*
X145164762Y-93848095D01*
X145117143Y-93895714D01*
X147603334Y-92907143D02*
X147555715Y-92954762D01*
X147412858Y-93002381D01*
X147317620Y-93002381D01*
X147174762Y-92954762D01*
X147079524Y-92859524D01*
X147031905Y-92764286D01*
X146984286Y-92573810D01*
X146984286Y-92430952D01*
X147031905Y-92240476D01*
X147079524Y-92145238D01*
X147174762Y-92050000D01*
X147317620Y-92002381D01*
X147412858Y-92002381D01*
X147555715Y-92050000D01*
X147603334Y-92097619D01*
X148460477Y-92002381D02*
X148270000Y-92002381D01*
X148174762Y-92050000D01*
X148127143Y-92097619D01*
X148031905Y-92240476D01*
X147984286Y-92430952D01*
X147984286Y-92811905D01*
X148031905Y-92907143D01*
X148079524Y-92954762D01*
X148174762Y-93002381D01*
X148365239Y-93002381D01*
X148460477Y-92954762D01*
X148508096Y-92907143D01*
X148555715Y-92811905D01*
X148555715Y-92573810D01*
X148508096Y-92478571D01*
X148460477Y-92430952D01*
X148365239Y-92383333D01*
X148174762Y-92383333D01*
X148079524Y-92430952D01*
X148031905Y-92478571D01*
X147984286Y-92573810D01*
X155813334Y-98992381D02*
X155480000Y-98516190D01*
X155241905Y-98992381D02*
X155241905Y-97992381D01*
X155622858Y-97992381D01*
X155718096Y-98040000D01*
X155765715Y-98087619D01*
X155813334Y-98182857D01*
X155813334Y-98325714D01*
X155765715Y-98420952D01*
X155718096Y-98468571D01*
X155622858Y-98516190D01*
X155241905Y-98516190D01*
X156146667Y-97992381D02*
X156765715Y-97992381D01*
X156432381Y-98373333D01*
X156575239Y-98373333D01*
X156670477Y-98420952D01*
X156718096Y-98468571D01*
X156765715Y-98563810D01*
X156765715Y-98801905D01*
X156718096Y-98897143D01*
X156670477Y-98944762D01*
X156575239Y-98992381D01*
X156289524Y-98992381D01*
X156194286Y-98944762D01*
X156146667Y-98897143D01*
X146317143Y-102942857D02*
X146364762Y-102990476D01*
X146412381Y-103133333D01*
X146412381Y-103228571D01*
X146364762Y-103371429D01*
X146269524Y-103466667D01*
X146174286Y-103514286D01*
X145983810Y-103561905D01*
X145840952Y-103561905D01*
X145650476Y-103514286D01*
X145555238Y-103466667D01*
X145460000Y-103371429D01*
X145412381Y-103228571D01*
X145412381Y-103133333D01*
X145460000Y-102990476D01*
X145507619Y-102942857D01*
X146412381Y-101990476D02*
X146412381Y-102561905D01*
X146412381Y-102276191D02*
X145412381Y-102276191D01*
X145555238Y-102371429D01*
X145650476Y-102466667D01*
X145698095Y-102561905D01*
X145507619Y-101609524D02*
X145460000Y-101561905D01*
X145412381Y-101466667D01*
X145412381Y-101228571D01*
X145460000Y-101133333D01*
X145507619Y-101085714D01*
X145602857Y-101038095D01*
X145698095Y-101038095D01*
X145840952Y-101085714D01*
X146412381Y-101657143D01*
X146412381Y-101038095D01*
X143643334Y-69152381D02*
X143310000Y-68676190D01*
X143071905Y-69152381D02*
X143071905Y-68152381D01*
X143452858Y-68152381D01*
X143548096Y-68200000D01*
X143595715Y-68247619D01*
X143643334Y-68342857D01*
X143643334Y-68485714D01*
X143595715Y-68580952D01*
X143548096Y-68628571D01*
X143452858Y-68676190D01*
X143071905Y-68676190D01*
X144024286Y-68247619D02*
X144071905Y-68200000D01*
X144167143Y-68152381D01*
X144405239Y-68152381D01*
X144500477Y-68200000D01*
X144548096Y-68247619D01*
X144595715Y-68342857D01*
X144595715Y-68438095D01*
X144548096Y-68580952D01*
X143976667Y-69152381D01*
X144595715Y-69152381D01*
X143323095Y-75262381D02*
X143323095Y-76071905D01*
X143370714Y-76167143D01*
X143418333Y-76214762D01*
X143513571Y-76262381D01*
X143704048Y-76262381D01*
X143799286Y-76214762D01*
X143846905Y-76167143D01*
X143894524Y-76071905D01*
X143894524Y-75262381D01*
X144323095Y-75357619D02*
X144370714Y-75310000D01*
X144465952Y-75262381D01*
X144704048Y-75262381D01*
X144799286Y-75310000D01*
X144846905Y-75357619D01*
X144894524Y-75452857D01*
X144894524Y-75548095D01*
X144846905Y-75690952D01*
X144275476Y-76262381D01*
X144894524Y-76262381D01*
X146118666Y-72276667D02*
X146594857Y-72276667D01*
X146023428Y-72562381D02*
X146356761Y-71562381D01*
X146690095Y-72562381D01*
X147166285Y-72562381D02*
X147071047Y-72514762D01*
X147023428Y-72419524D01*
X147023428Y-71562381D01*
X147690095Y-72562381D02*
X147594857Y-72514762D01*
X147547238Y-72419524D01*
X147547238Y-71562381D01*
X148071048Y-72562381D02*
X148071048Y-71562381D01*
X148071048Y-72038571D02*
X148642477Y-72038571D01*
X148642477Y-72562381D02*
X148642477Y-71562381D01*
X149499620Y-72514762D02*
X149404382Y-72562381D01*
X149213905Y-72562381D01*
X149118667Y-72514762D01*
X149071048Y-72419524D01*
X149071048Y-72038571D01*
X149118667Y-71943333D01*
X149213905Y-71895714D01*
X149404382Y-71895714D01*
X149499620Y-71943333D01*
X149547239Y-72038571D01*
X149547239Y-72133810D01*
X149071048Y-72229048D01*
X150404382Y-72562381D02*
X150404382Y-72038571D01*
X150356763Y-71943333D01*
X150261525Y-71895714D01*
X150071048Y-71895714D01*
X149975810Y-71943333D01*
X150404382Y-72514762D02*
X150309144Y-72562381D01*
X150071048Y-72562381D01*
X149975810Y-72514762D01*
X149928191Y-72419524D01*
X149928191Y-72324286D01*
X149975810Y-72229048D01*
X150071048Y-72181429D01*
X150309144Y-72181429D01*
X150404382Y-72133810D01*
X150880572Y-72562381D02*
X150880572Y-71895714D01*
X150880572Y-72086190D02*
X150928191Y-71990952D01*
X150975810Y-71943333D01*
X151071048Y-71895714D01*
X151166287Y-71895714D01*
X151499620Y-72562381D02*
X151499620Y-71895714D01*
X151499620Y-71562381D02*
X151452001Y-71610000D01*
X151499620Y-71657619D01*
X151547239Y-71610000D01*
X151499620Y-71562381D01*
X151499620Y-71657619D01*
X151975810Y-71895714D02*
X151975810Y-72562381D01*
X151975810Y-71990952D02*
X152023429Y-71943333D01*
X152118667Y-71895714D01*
X152261525Y-71895714D01*
X152356763Y-71943333D01*
X152404382Y-72038571D01*
X152404382Y-72562381D01*
X153309144Y-71895714D02*
X153309144Y-72705238D01*
X153261525Y-72800476D01*
X153213906Y-72848095D01*
X153118667Y-72895714D01*
X152975810Y-72895714D01*
X152880572Y-72848095D01*
X153309144Y-72514762D02*
X153213906Y-72562381D01*
X153023429Y-72562381D01*
X152928191Y-72514762D01*
X152880572Y-72467143D01*
X152832953Y-72371905D01*
X152832953Y-72086190D01*
X152880572Y-71990952D01*
X152928191Y-71943333D01*
X153023429Y-71895714D01*
X153213906Y-71895714D01*
X153309144Y-71943333D01*
X153785334Y-72038571D02*
X154118668Y-72038571D01*
X154261525Y-72562381D02*
X153785334Y-72562381D01*
X153785334Y-71562381D01*
X154261525Y-71562381D01*
X155118668Y-72562381D02*
X155118668Y-72038571D01*
X155071049Y-71943333D01*
X154975811Y-71895714D01*
X154785334Y-71895714D01*
X154690096Y-71943333D01*
X155118668Y-72514762D02*
X155023430Y-72562381D01*
X154785334Y-72562381D01*
X154690096Y-72514762D01*
X154642477Y-72419524D01*
X154642477Y-72324286D01*
X154690096Y-72229048D01*
X154785334Y-72181429D01*
X155023430Y-72181429D01*
X155118668Y-72133810D01*
X155594858Y-72562381D02*
X155594858Y-71895714D01*
X155594858Y-72086190D02*
X155642477Y-71990952D01*
X155690096Y-71943333D01*
X155785334Y-71895714D01*
X155880573Y-71895714D01*
X147619286Y-67232857D02*
X148369286Y-67054286D01*
X147833571Y-66911429D01*
X148369286Y-66768571D01*
X147619286Y-66590000D01*
X148369286Y-66304286D02*
X147869286Y-66304286D01*
X147619286Y-66304286D02*
X147655000Y-66340000D01*
X147690714Y-66304286D01*
X147655000Y-66268571D01*
X147619286Y-66304286D01*
X147690714Y-66304286D01*
X147869286Y-66054285D02*
X147869286Y-65768571D01*
X148369286Y-65947143D02*
X147726429Y-65947143D01*
X147655000Y-65911428D01*
X147619286Y-65840000D01*
X147619286Y-65768571D01*
X148369286Y-65518572D02*
X147869286Y-65518572D01*
X147619286Y-65518572D02*
X147655000Y-65554286D01*
X147690714Y-65518572D01*
X147655000Y-65482857D01*
X147619286Y-65518572D01*
X147690714Y-65518572D01*
X157403334Y-61107143D02*
X157355715Y-61154762D01*
X157212858Y-61202381D01*
X157117620Y-61202381D01*
X156974762Y-61154762D01*
X156879524Y-61059524D01*
X156831905Y-60964286D01*
X156784286Y-60773810D01*
X156784286Y-60630952D01*
X156831905Y-60440476D01*
X156879524Y-60345238D01*
X156974762Y-60250000D01*
X157117620Y-60202381D01*
X157212858Y-60202381D01*
X157355715Y-60250000D01*
X157403334Y-60297619D01*
X157784286Y-60297619D02*
X157831905Y-60250000D01*
X157927143Y-60202381D01*
X158165239Y-60202381D01*
X158260477Y-60250000D01*
X158308096Y-60297619D01*
X158355715Y-60392857D01*
X158355715Y-60488095D01*
X158308096Y-60630952D01*
X157736667Y-61202381D01*
X158355715Y-61202381D01*
X156897143Y-56277143D02*
X156849524Y-56324762D01*
X156706667Y-56372381D01*
X156611429Y-56372381D01*
X156468571Y-56324762D01*
X156373333Y-56229524D01*
X156325714Y-56134286D01*
X156278095Y-55943810D01*
X156278095Y-55800952D01*
X156325714Y-55610476D01*
X156373333Y-55515238D01*
X156468571Y-55420000D01*
X156611429Y-55372381D01*
X156706667Y-55372381D01*
X156849524Y-55420000D01*
X156897143Y-55467619D01*
X157849524Y-56372381D02*
X157278095Y-56372381D01*
X157563809Y-56372381D02*
X157563809Y-55372381D01*
X157468571Y-55515238D01*
X157373333Y-55610476D01*
X157278095Y-55658095D01*
X158801905Y-56372381D02*
X158230476Y-56372381D01*
X158516190Y-56372381D02*
X158516190Y-55372381D01*
X158420952Y-55515238D01*
X158325714Y-55610476D01*
X158230476Y-55658095D01*
X150088095Y-63382381D02*
X150088095Y-64191905D01*
X150135714Y-64287143D01*
X150183333Y-64334762D01*
X150278571Y-64382381D01*
X150469048Y-64382381D01*
X150564286Y-64334762D01*
X150611905Y-64287143D01*
X150659524Y-64191905D01*
X150659524Y-63382381D01*
X151659524Y-64382381D02*
X151088095Y-64382381D01*
X151373809Y-64382381D02*
X151373809Y-63382381D01*
X151278571Y-63525238D01*
X151183333Y-63620476D01*
X151088095Y-63668095D01*
X149883334Y-106127143D02*
X149835715Y-106174762D01*
X149692858Y-106222381D01*
X149597620Y-106222381D01*
X149454762Y-106174762D01*
X149359524Y-106079524D01*
X149311905Y-105984286D01*
X149264286Y-105793810D01*
X149264286Y-105650952D01*
X149311905Y-105460476D01*
X149359524Y-105365238D01*
X149454762Y-105270000D01*
X149597620Y-105222381D01*
X149692858Y-105222381D01*
X149835715Y-105270000D01*
X149883334Y-105317619D01*
X150216667Y-105222381D02*
X150835715Y-105222381D01*
X150502381Y-105603333D01*
X150645239Y-105603333D01*
X150740477Y-105650952D01*
X150788096Y-105698571D01*
X150835715Y-105793810D01*
X150835715Y-106031905D01*
X150788096Y-106127143D01*
X150740477Y-106174762D01*
X150645239Y-106222381D01*
X150359524Y-106222381D01*
X150264286Y-106174762D01*
X150216667Y-106127143D01*
M02*
