G04 #@! TF.FileFunction,Soldermask,Bot*
%FSLAX46Y46*%
G04 Gerber Fmt 4.6, Leading zero omitted, Abs format (unit mm)*
G04 Created by KiCad (PCBNEW 4.0.4-stable) date 03/30/17 11:45:36*
%MOMM*%
%LPD*%
G01*
G04 APERTURE LIST*
%ADD10C,0.100000*%
%ADD11R,1.900000X1.650000*%
%ADD12R,2.400000X4.200000*%
%ADD13R,2.400000X1.900000*%
%ADD14R,1.900000X1.700000*%
%ADD15C,2.150000*%
%ADD16C,1.901140*%
%ADD17C,3.399740*%
%ADD18R,1.650000X1.900000*%
%ADD19R,1.700000X1.900000*%
%ADD20R,1.000000X1.950000*%
%ADD21R,2.100000X2.100000*%
%ADD22O,2.100000X2.100000*%
G04 APERTURE END LIST*
D10*
D11*
X148620000Y-75130000D03*
X146120000Y-75130000D03*
D12*
X155140000Y-64230000D03*
D13*
X148840000Y-64230000D03*
X148840000Y-61930000D03*
X148840000Y-66530000D03*
D14*
X155910000Y-74450000D03*
X153210000Y-74450000D03*
D15*
X148600000Y-57400000D03*
X153000000Y-57400000D03*
D16*
X154300000Y-59400000D03*
X151800000Y-59400000D03*
X149800000Y-59400000D03*
X147300000Y-59400000D03*
D17*
X156800000Y-57400000D03*
X144800000Y-57400000D03*
D11*
X154990000Y-71730000D03*
X157490000Y-71730000D03*
X153310000Y-77080000D03*
X155810000Y-77080000D03*
D18*
X151200000Y-76010000D03*
X151200000Y-73510000D03*
D11*
X153500000Y-68500000D03*
X151000000Y-68500000D03*
X153500000Y-70200000D03*
X151000000Y-70200000D03*
X145000000Y-89710000D03*
X147500000Y-89710000D03*
X143550000Y-70900000D03*
X146050000Y-70900000D03*
D14*
X151860000Y-89680000D03*
X154560000Y-89680000D03*
X154570000Y-86980000D03*
X151870000Y-86980000D03*
X151870000Y-84990000D03*
X154570000Y-84990000D03*
X151840000Y-80970000D03*
X154540000Y-80970000D03*
X154540000Y-78910000D03*
X151840000Y-78910000D03*
X154030000Y-83010000D03*
X151330000Y-83010000D03*
X147680000Y-85000000D03*
X144980000Y-85000000D03*
X147720000Y-87760000D03*
X145020000Y-87760000D03*
D18*
X144770000Y-60400000D03*
X144770000Y-62900000D03*
X149840000Y-87070000D03*
X149840000Y-89570000D03*
X146530000Y-62100000D03*
X146530000Y-64600000D03*
D19*
X157810000Y-84310000D03*
X157810000Y-87010000D03*
D11*
X143550000Y-68990000D03*
X146050000Y-68990000D03*
D20*
X149295000Y-82890000D03*
X148025000Y-82890000D03*
X146755000Y-82890000D03*
X145485000Y-82890000D03*
X145485000Y-77490000D03*
X146755000Y-77490000D03*
X148025000Y-77490000D03*
X149295000Y-77490000D03*
D21*
X149730000Y-98450000D03*
D22*
X152270000Y-98450000D03*
M02*
