G04 #@! TF.FileFunction,Copper,L2,Bot,Signal*
%FSLAX46Y46*%
G04 Gerber Fmt 4.6, Leading zero omitted, Abs format (unit mm)*
G04 Created by KiCad (PCBNEW 4.0.4-stable) date 03/30/17 11:45:36*
%MOMM*%
%LPD*%
G01*
G04 APERTURE LIST*
%ADD10C,0.100000*%
%ADD11R,1.500000X1.250000*%
%ADD12R,2.000000X3.800000*%
%ADD13R,2.000000X1.500000*%
%ADD14R,1.500000X1.300000*%
%ADD15C,1.750000*%
%ADD16C,1.501140*%
%ADD17C,2.999740*%
%ADD18R,1.250000X1.500000*%
%ADD19R,1.300000X1.500000*%
%ADD20R,0.600000X1.550000*%
%ADD21R,1.700000X1.700000*%
%ADD22O,1.700000X1.700000*%
%ADD23C,0.800000*%
%ADD24C,0.600000*%
%ADD25C,0.400000*%
%ADD26C,0.600000*%
%ADD27C,0.250000*%
%ADD28C,0.200000*%
G04 APERTURE END LIST*
D10*
D11*
X148620000Y-75130000D03*
X146120000Y-75130000D03*
D12*
X155140000Y-64230000D03*
D13*
X148840000Y-64230000D03*
X148840000Y-61930000D03*
X148840000Y-66530000D03*
D14*
X155910000Y-74450000D03*
X153210000Y-74450000D03*
D15*
X148600000Y-57400000D03*
X153000000Y-57400000D03*
D16*
X154300000Y-59400000D03*
X151800000Y-59400000D03*
X149800000Y-59400000D03*
X147300000Y-59400000D03*
D17*
X156800000Y-57400000D03*
X144800000Y-57400000D03*
D11*
X154990000Y-71730000D03*
X157490000Y-71730000D03*
X153310000Y-77080000D03*
X155810000Y-77080000D03*
D18*
X151200000Y-76010000D03*
X151200000Y-73510000D03*
D11*
X153500000Y-68500000D03*
X151000000Y-68500000D03*
X153500000Y-70200000D03*
X151000000Y-70200000D03*
X145000000Y-89710000D03*
X147500000Y-89710000D03*
X143550000Y-70900000D03*
X146050000Y-70900000D03*
D14*
X151860000Y-89680000D03*
X154560000Y-89680000D03*
X154570000Y-86980000D03*
X151870000Y-86980000D03*
X151870000Y-84990000D03*
X154570000Y-84990000D03*
X151840000Y-80970000D03*
X154540000Y-80970000D03*
X154540000Y-78910000D03*
X151840000Y-78910000D03*
X154030000Y-83010000D03*
X151330000Y-83010000D03*
X147680000Y-85000000D03*
X144980000Y-85000000D03*
X147720000Y-87760000D03*
X145020000Y-87760000D03*
D18*
X144770000Y-60400000D03*
X144770000Y-62900000D03*
X149840000Y-87070000D03*
X149840000Y-89570000D03*
X146530000Y-62100000D03*
X146530000Y-64600000D03*
D19*
X157810000Y-84310000D03*
X157810000Y-87010000D03*
D11*
X143550000Y-68990000D03*
X146050000Y-68990000D03*
D20*
X149295000Y-82890000D03*
X148025000Y-82890000D03*
X146755000Y-82890000D03*
X145485000Y-82890000D03*
X145485000Y-77490000D03*
X146755000Y-77490000D03*
X148025000Y-77490000D03*
X149295000Y-77490000D03*
D21*
X149730000Y-98450000D03*
D22*
X152270000Y-98450000D03*
D23*
X142810000Y-101720000D03*
D24*
X144350000Y-105800000D03*
D23*
X146890000Y-105800000D03*
X157640000Y-105800000D03*
X154970000Y-105800000D03*
X142810000Y-104260000D03*
X142810000Y-99140000D03*
X157180000Y-68380000D03*
X146750000Y-66390000D03*
X145150000Y-64590000D03*
X153200000Y-66940000D03*
X151980000Y-66940000D03*
X145200000Y-103670000D03*
X156430000Y-73150000D03*
X150700000Y-66810000D03*
X148460000Y-69840000D03*
D24*
X156100000Y-66710000D03*
X156100000Y-68240000D03*
D23*
X156520000Y-83280000D03*
D24*
X149900000Y-72820000D03*
D23*
X149760000Y-73710000D03*
X151750000Y-77460000D03*
X148440000Y-91270000D03*
X145720000Y-79020000D03*
X147390000Y-80010000D03*
X147390000Y-81140000D03*
X145740000Y-81120000D03*
X149150000Y-81150000D03*
X149150000Y-80020000D03*
X145690000Y-80010000D03*
X147370000Y-79030000D03*
X146050000Y-72180000D03*
D25*
X146750000Y-66390000D02*
X145610000Y-66390000D01*
X146890000Y-66530000D02*
X146750000Y-66390000D01*
X148840000Y-66530000D02*
X146890000Y-66530000D01*
X145130000Y-65910000D02*
X145150000Y-64590000D01*
X145610000Y-66390000D02*
X145130000Y-65910000D01*
X153200000Y-66940000D02*
X151990000Y-66950000D01*
X153500000Y-67240000D02*
X153200000Y-66940000D01*
X153500000Y-68500000D02*
X153500000Y-67240000D01*
X151990000Y-66950000D02*
X151980000Y-66940000D01*
X157500000Y-68400000D02*
X157490000Y-68400000D01*
D26*
X146530000Y-64600000D02*
X146440000Y-64510000D01*
X144770000Y-62900000D02*
X144220000Y-62900000D01*
X157250000Y-73150000D02*
X156430000Y-73150000D01*
X157600000Y-73500000D02*
X157250000Y-73150000D01*
X157600000Y-78040000D02*
X157600000Y-73500000D01*
X154570000Y-84990000D02*
X154930000Y-84990000D01*
X154930000Y-84990000D02*
X155530000Y-84390000D01*
X156260000Y-79380000D02*
X157600000Y-78040000D01*
X156260000Y-81950000D02*
X156260000Y-79380000D01*
X155530000Y-82680000D02*
X156260000Y-81950000D01*
X155530000Y-84390000D02*
X155530000Y-82680000D01*
X142715000Y-91805000D02*
X142715000Y-97145000D01*
X145180000Y-103670000D02*
X145200000Y-103670000D01*
X144250000Y-102740000D02*
X145180000Y-103670000D01*
X144250000Y-98680000D02*
X144250000Y-102740000D01*
X142715000Y-97145000D02*
X144250000Y-98680000D01*
X154340000Y-75770000D02*
X154330000Y-75780000D01*
X154340000Y-75770000D02*
X154550000Y-75560000D01*
X154550000Y-72170000D02*
X154550000Y-75560000D01*
X154330000Y-75780000D02*
X151430000Y-75780000D01*
X151430000Y-75780000D02*
X151200000Y-76010000D01*
X149295000Y-77490000D02*
X150775000Y-76010000D01*
X150775000Y-76010000D02*
X151200000Y-76010000D01*
X154550000Y-72170000D02*
X154990000Y-71730000D01*
X142710000Y-83620000D02*
X142710000Y-82330000D01*
X147210000Y-73130000D02*
X148425000Y-71915000D01*
X142710000Y-91800000D02*
X142715000Y-91805000D01*
X142710000Y-83620000D02*
X142710000Y-91800000D01*
X142890000Y-78990000D02*
X143390000Y-79490000D01*
X142890000Y-74050000D02*
X142890000Y-78990000D01*
X143810000Y-73130000D02*
X142890000Y-74050000D01*
X147210000Y-73130000D02*
X143810000Y-73130000D01*
X143390000Y-81650000D02*
X143390000Y-79490000D01*
X142710000Y-82330000D02*
X143390000Y-81650000D01*
X149295000Y-77490000D02*
X149295000Y-77425000D01*
X154570000Y-86980000D02*
X157780000Y-86980000D01*
X157780000Y-86980000D02*
X157810000Y-87010000D01*
X154570000Y-84990000D02*
X154570000Y-86980000D01*
X154560000Y-89680000D02*
X154560000Y-86990000D01*
X154560000Y-86990000D02*
X154570000Y-86980000D01*
X154990000Y-72480000D02*
X155660000Y-73150000D01*
X154990000Y-71730000D02*
X154990000Y-72480000D01*
X155660000Y-73150000D02*
X156430000Y-73150000D01*
X149290000Y-71510000D02*
X148830000Y-71510000D01*
X148830000Y-71510000D02*
X148425000Y-71915000D01*
X150620000Y-71510000D02*
X149290000Y-71510000D01*
X151840000Y-71510000D02*
X150620000Y-71510000D01*
D25*
X151000000Y-68500000D02*
X151000000Y-67110000D01*
X151000000Y-67110000D02*
X150700000Y-66810000D01*
X148460000Y-69840000D02*
X147610000Y-68990000D01*
X146050000Y-68990000D02*
X147280000Y-68990000D01*
X147610000Y-68990000D02*
X147280000Y-68990000D01*
X151000000Y-70200000D02*
X151000000Y-68500000D01*
X151000000Y-70200000D02*
X151000000Y-70670000D01*
X151000000Y-70670000D02*
X151840000Y-71510000D01*
D26*
X154990000Y-71730000D02*
X154770000Y-71510000D01*
X154770000Y-71510000D02*
X151840000Y-71510000D01*
X155140000Y-66980000D02*
X154990000Y-67130000D01*
X154990000Y-67130000D02*
X154990000Y-70360000D01*
X155140000Y-66980000D02*
X155140000Y-64230000D01*
X154990000Y-71730000D02*
X154990000Y-70360000D01*
X148425000Y-71915000D02*
X147065000Y-71915000D01*
X146680000Y-71530000D02*
X146050000Y-70900000D01*
X147065000Y-71915000D02*
X146680000Y-71530000D01*
X148510000Y-71830000D02*
X148425000Y-71915000D01*
D27*
X155610000Y-65800000D02*
X155270000Y-65460000D01*
D26*
X146050000Y-70900000D02*
X146050000Y-68990000D01*
X146050000Y-70920000D02*
X146050000Y-70900000D01*
D25*
X151000000Y-64190000D02*
X151000000Y-64230000D01*
X151000000Y-64230000D02*
X151000000Y-64190000D01*
X151000000Y-64190000D02*
X151000000Y-64230000D01*
D26*
X148840000Y-64230000D02*
X151000000Y-64230000D01*
X151000000Y-64230000D02*
X155140000Y-64230000D01*
D27*
X156100000Y-68240000D02*
X156100000Y-66710000D01*
D26*
X146470000Y-62100000D02*
X146530000Y-62100000D01*
X146530000Y-62100000D02*
X146700000Y-61930000D01*
X146700000Y-61930000D02*
X148840000Y-61930000D01*
X146530000Y-60170000D02*
X146530000Y-62100000D01*
X144770000Y-60400000D02*
X146470000Y-62100000D01*
X147300000Y-59400000D02*
X146530000Y-60170000D01*
X156990000Y-84310000D02*
X157810000Y-84310000D01*
X156520000Y-83840000D02*
X156990000Y-84310000D01*
X156520000Y-83280000D02*
X156520000Y-83840000D01*
D27*
X155810000Y-77080000D02*
X155910000Y-76980000D01*
X155910000Y-76980000D02*
X155910000Y-74450000D01*
X154540000Y-78910000D02*
X154540000Y-78850000D01*
X154540000Y-78850000D02*
X155820000Y-77570000D01*
X155820000Y-77570000D02*
X155820000Y-76890000D01*
X154540000Y-78910000D02*
X154530000Y-78900000D01*
X154540000Y-80970000D02*
X154540000Y-78910000D01*
X149430000Y-72820000D02*
X148620000Y-73630000D01*
X148620000Y-75130000D02*
X148620000Y-73630000D01*
X149900000Y-72820000D02*
X149430000Y-72820000D01*
X148620000Y-75130000D02*
X148620000Y-76895000D01*
X148620000Y-76895000D02*
X148025000Y-77490000D01*
X148025000Y-77490000D02*
X148025000Y-78345000D01*
X148480000Y-78800000D02*
X151730000Y-78800000D01*
X148025000Y-78345000D02*
X148480000Y-78800000D01*
X151730000Y-78800000D02*
X151840000Y-78910000D01*
X151840000Y-78910000D02*
X151180000Y-78910000D01*
X149114998Y-72135002D02*
X152235002Y-72135002D01*
X153210000Y-73110000D02*
X153210000Y-74450000D01*
X152235002Y-72135002D02*
X153210000Y-73110000D01*
X146120000Y-75130000D02*
X149114998Y-72135002D01*
X149114998Y-72135002D02*
X149170000Y-72135002D01*
X146755000Y-77490000D02*
X146755000Y-75765000D01*
X146755000Y-75765000D02*
X146120000Y-75130000D01*
X153210000Y-74450000D02*
X153020000Y-74260000D01*
D26*
X151200000Y-73510000D02*
X151000000Y-73710000D01*
X151000000Y-73710000D02*
X149760000Y-73710000D01*
X153310000Y-77080000D02*
X152930000Y-77460000D01*
X152930000Y-77460000D02*
X151750000Y-77460000D01*
X145000000Y-89710000D02*
X145000000Y-90580000D01*
X145690000Y-91270000D02*
X148440000Y-91270000D01*
X145000000Y-90580000D02*
X145690000Y-91270000D01*
X145720000Y-79020000D02*
X145730000Y-79030000D01*
X145720000Y-79980000D02*
X145720000Y-79020000D01*
X145690000Y-80010000D02*
X147390000Y-80010000D01*
X149140000Y-80010000D02*
X147390000Y-80010000D01*
X149150000Y-80020000D02*
X149150000Y-81150000D01*
X147390000Y-81140000D02*
X149140000Y-81140000D01*
X147370000Y-81120000D02*
X147390000Y-81140000D01*
X145485000Y-82890000D02*
X145485000Y-81375000D01*
X145485000Y-81375000D02*
X145740000Y-81120000D01*
X145740000Y-81120000D02*
X147370000Y-81120000D01*
X149140000Y-81140000D02*
X149150000Y-81150000D01*
X149150000Y-80020000D02*
X149140000Y-80010000D01*
X145690000Y-80010000D02*
X145720000Y-79980000D01*
X145730000Y-79030000D02*
X147370000Y-79030000D01*
X144980000Y-85000000D02*
X145485000Y-84495000D01*
X145485000Y-84495000D02*
X145485000Y-82890000D01*
X145020000Y-87760000D02*
X145020000Y-89690000D01*
X145020000Y-89690000D02*
X145000000Y-89710000D01*
D25*
X144810000Y-72160000D02*
X146030000Y-72160000D01*
X143550000Y-70900000D02*
X144810000Y-72160000D01*
X146030000Y-72160000D02*
X146050000Y-72180000D01*
D26*
X143550000Y-68990000D02*
X143550000Y-70900000D01*
D27*
X143350000Y-84140000D02*
X143350000Y-82573886D01*
X143350000Y-84140000D02*
X143350000Y-85990000D01*
X143350000Y-85990000D02*
X143780000Y-86420000D01*
X143780000Y-86420000D02*
X146410000Y-86420000D01*
X146330000Y-86340000D02*
X146410000Y-86420000D01*
X143350000Y-82573886D02*
X144120000Y-81803886D01*
X145455000Y-77250000D02*
X144550000Y-77250000D01*
X144550000Y-77250000D02*
X144120000Y-77680000D01*
X144120000Y-77680000D02*
X144120000Y-81803886D01*
X147720000Y-87760000D02*
X147720000Y-87730000D01*
X147720000Y-87730000D02*
X146330000Y-86340000D01*
X146725000Y-83495000D02*
X146725000Y-82650000D01*
X146330000Y-83890000D02*
X146725000Y-83495000D01*
X146330000Y-86340000D02*
X146330000Y-83890000D01*
X147720000Y-87760000D02*
X148410000Y-87070000D01*
X148410000Y-87070000D02*
X149840000Y-87070000D01*
X147500000Y-89710000D02*
X147500000Y-87980000D01*
X147500000Y-87980000D02*
X147720000Y-87760000D01*
X151870000Y-86980000D02*
X149930000Y-86980000D01*
X149930000Y-86980000D02*
X149840000Y-87070000D01*
X151860000Y-89680000D02*
X151860000Y-98040000D01*
X151860000Y-98040000D02*
X152270000Y-98450000D01*
X149840000Y-89570000D02*
X149950000Y-89680000D01*
X149950000Y-89680000D02*
X151860000Y-89680000D01*
X149265000Y-82650000D02*
X149615000Y-83000000D01*
X149615000Y-83000000D02*
X151850000Y-83000000D01*
X151850000Y-83000000D02*
X151840000Y-82990000D01*
X151840000Y-82990000D02*
X151840000Y-80970000D01*
X151870000Y-84990000D02*
X152120000Y-84990000D01*
X152120000Y-84990000D02*
X154110000Y-83000000D01*
X154110000Y-83000000D02*
X154550000Y-83000000D01*
X147680000Y-85000000D02*
X151860000Y-85000000D01*
X151860000Y-85000000D02*
X151870000Y-84990000D01*
X147995000Y-82650000D02*
X147995000Y-84685000D01*
X147995000Y-84685000D02*
X147680000Y-85000000D01*
D28*
G36*
X159475000Y-56580330D02*
X159475000Y-62742245D01*
X158820132Y-62872507D01*
X158820131Y-62872507D01*
X158684952Y-62928500D01*
X157873894Y-63470432D01*
X157770432Y-63573894D01*
X157228500Y-64384952D01*
X157172507Y-64520132D01*
X156982207Y-65476836D01*
X156982205Y-65476841D01*
X156982206Y-65550000D01*
X156982205Y-65623159D01*
X156982207Y-65623164D01*
X157172507Y-66579868D01*
X157228500Y-66715048D01*
X157770432Y-67526106D01*
X157873894Y-67629568D01*
X158684952Y-68171500D01*
X158820131Y-68227493D01*
X158820132Y-68227493D01*
X159475000Y-68357755D01*
X159475000Y-72530000D01*
X158825607Y-72530000D01*
X158848000Y-72475938D01*
X158848000Y-72036000D01*
X158696000Y-71884000D01*
X157644000Y-71884000D01*
X157644000Y-71904000D01*
X157336000Y-71904000D01*
X157336000Y-71884000D01*
X157316000Y-71884000D01*
X157316000Y-71576000D01*
X157336000Y-71576000D01*
X157336000Y-70649000D01*
X157644000Y-70649000D01*
X157644000Y-71576000D01*
X158696000Y-71576000D01*
X158848000Y-71424000D01*
X158848000Y-70984062D01*
X158755438Y-70760596D01*
X158584405Y-70589563D01*
X158360939Y-70497000D01*
X157796000Y-70497000D01*
X157644000Y-70649000D01*
X157336000Y-70649000D01*
X157184000Y-70497000D01*
X156619061Y-70497000D01*
X156395595Y-70589563D01*
X156224562Y-70760596D01*
X156204098Y-70810000D01*
X155793712Y-70810000D01*
X155740000Y-70799123D01*
X155590000Y-70799123D01*
X155590000Y-68576893D01*
X155591048Y-68579429D01*
X155759683Y-68748359D01*
X155980129Y-68839896D01*
X156218824Y-68840104D01*
X156439429Y-68748952D01*
X156608359Y-68580317D01*
X156699896Y-68359871D01*
X156700104Y-68121176D01*
X156608952Y-67900571D01*
X156525000Y-67816472D01*
X156525000Y-67133530D01*
X156608359Y-67050317D01*
X156699896Y-66829871D01*
X156700104Y-66591176D01*
X156608952Y-66370571D01*
X156440317Y-66201641D01*
X156432063Y-66198214D01*
X156445877Y-66130000D01*
X156445877Y-62330000D01*
X156424958Y-62218827D01*
X156359255Y-62116721D01*
X156259003Y-62048222D01*
X156140000Y-62024123D01*
X154140000Y-62024123D01*
X154028827Y-62045042D01*
X153926721Y-62110745D01*
X153858222Y-62210997D01*
X153834123Y-62330000D01*
X153834123Y-63630000D01*
X150145877Y-63630000D01*
X150145877Y-63480000D01*
X150124958Y-63368827D01*
X150059255Y-63266721D01*
X149959003Y-63198222D01*
X149840000Y-63174123D01*
X147840000Y-63174123D01*
X147728827Y-63195042D01*
X147626721Y-63260745D01*
X147558222Y-63360997D01*
X147552769Y-63387927D01*
X147499404Y-63334562D01*
X147275938Y-63242000D01*
X146836000Y-63242000D01*
X146684000Y-63394000D01*
X146684000Y-64446000D01*
X146704000Y-64446000D01*
X146704000Y-64754000D01*
X146684000Y-64754000D01*
X146684000Y-65806000D01*
X146836000Y-65958000D01*
X147232000Y-65958000D01*
X147232000Y-66224000D01*
X147384000Y-66376000D01*
X148686000Y-66376000D01*
X148686000Y-66356000D01*
X148994000Y-66356000D01*
X148994000Y-66376000D01*
X149014000Y-66376000D01*
X149014000Y-66684000D01*
X148994000Y-66684000D01*
X148994000Y-67736000D01*
X149146000Y-67888000D01*
X149944123Y-67888000D01*
X149944123Y-69040000D01*
X148367107Y-69040000D01*
X147963553Y-68636447D01*
X147801342Y-68528060D01*
X147610000Y-68490000D01*
X147105877Y-68490000D01*
X147105877Y-68365000D01*
X147084958Y-68253827D01*
X147019255Y-68151721D01*
X146919003Y-68083222D01*
X146800000Y-68059123D01*
X146300000Y-68059123D01*
X146300000Y-66836000D01*
X147232000Y-66836000D01*
X147232000Y-67400938D01*
X147324562Y-67624404D01*
X147495595Y-67795437D01*
X147719061Y-67888000D01*
X148534000Y-67888000D01*
X148686000Y-67736000D01*
X148686000Y-66684000D01*
X147384000Y-66684000D01*
X147232000Y-66836000D01*
X146300000Y-66836000D01*
X146300000Y-66430000D01*
X146292121Y-66391094D01*
X146269727Y-66358319D01*
X146236346Y-66336839D01*
X146200000Y-66330000D01*
X144877195Y-66330000D01*
X145017795Y-65623159D01*
X145017795Y-65476841D01*
X144904248Y-64906000D01*
X145297000Y-64906000D01*
X145297000Y-65470939D01*
X145389563Y-65694405D01*
X145560596Y-65865438D01*
X145784062Y-65958000D01*
X146224000Y-65958000D01*
X146376000Y-65806000D01*
X146376000Y-64754000D01*
X145449000Y-64754000D01*
X145297000Y-64906000D01*
X144904248Y-64906000D01*
X144827493Y-64520132D01*
X144771500Y-64384952D01*
X144597483Y-64124517D01*
X144616000Y-64106000D01*
X144616000Y-63054000D01*
X143689000Y-63054000D01*
X143614448Y-63128552D01*
X143315048Y-62928500D01*
X143179868Y-62872507D01*
X142525000Y-62742246D01*
X142525000Y-62029061D01*
X143537000Y-62029061D01*
X143537000Y-62594000D01*
X143689000Y-62746000D01*
X144616000Y-62746000D01*
X144616000Y-61694000D01*
X144464000Y-61542000D01*
X144024062Y-61542000D01*
X143800596Y-61634562D01*
X143629563Y-61805595D01*
X143537000Y-62029061D01*
X142525000Y-62029061D01*
X142525000Y-58916900D01*
X143500889Y-58916900D01*
X143664588Y-59224760D01*
X144035939Y-59364645D01*
X144033827Y-59365042D01*
X143931721Y-59430745D01*
X143863222Y-59530997D01*
X143839123Y-59650000D01*
X143839123Y-61150000D01*
X143860042Y-61261173D01*
X143925745Y-61363279D01*
X144025997Y-61431778D01*
X144145000Y-61455877D01*
X144977349Y-61455877D01*
X145069736Y-61548264D01*
X144924000Y-61694000D01*
X144924000Y-62746000D01*
X144944000Y-62746000D01*
X144944000Y-63054000D01*
X144924000Y-63054000D01*
X144924000Y-64106000D01*
X145076000Y-64258000D01*
X145297000Y-64258000D01*
X145297000Y-64294000D01*
X145449000Y-64446000D01*
X146376000Y-64446000D01*
X146376000Y-63394000D01*
X146224000Y-63242000D01*
X146003000Y-63242000D01*
X146003000Y-63206000D01*
X145952877Y-63155877D01*
X147155000Y-63155877D01*
X147266173Y-63134958D01*
X147368279Y-63069255D01*
X147436778Y-62969003D01*
X147460877Y-62850000D01*
X147460877Y-62530000D01*
X147534123Y-62530000D01*
X147534123Y-62680000D01*
X147555042Y-62791173D01*
X147620745Y-62893279D01*
X147720997Y-62961778D01*
X147840000Y-62985877D01*
X149840000Y-62985877D01*
X149951173Y-62964958D01*
X150053279Y-62899255D01*
X150121778Y-62799003D01*
X150145877Y-62680000D01*
X150145877Y-61180000D01*
X150124958Y-61068827D01*
X150059255Y-60966721D01*
X149959003Y-60898222D01*
X149840000Y-60874123D01*
X147840000Y-60874123D01*
X147728827Y-60895042D01*
X147626721Y-60960745D01*
X147558222Y-61060997D01*
X147534123Y-61180000D01*
X147534123Y-61330000D01*
X147457114Y-61330000D01*
X147439958Y-61238827D01*
X147374255Y-61136721D01*
X147274003Y-61068222D01*
X147155000Y-61044123D01*
X147130000Y-61044123D01*
X147130000Y-60450422D01*
X147508055Y-60450752D01*
X147894323Y-60291149D01*
X148190111Y-59995877D01*
X148350387Y-59609888D01*
X148350752Y-59191945D01*
X148201670Y-58831141D01*
X148398598Y-58898581D01*
X148883314Y-58868122D01*
X148749613Y-59190112D01*
X148749248Y-59608055D01*
X148908851Y-59994323D01*
X149204123Y-60290111D01*
X149590112Y-60450387D01*
X150008055Y-60450752D01*
X150394323Y-60291149D01*
X150690111Y-59995877D01*
X150800072Y-59731059D01*
X150908851Y-59994323D01*
X151204123Y-60290111D01*
X151590112Y-60450387D01*
X152008055Y-60450752D01*
X152193658Y-60374062D01*
X153543727Y-60374062D01*
X153615444Y-60604211D01*
X154128384Y-60774514D01*
X154667452Y-60735560D01*
X154984556Y-60604211D01*
X155056273Y-60374062D01*
X154300000Y-59617789D01*
X153543727Y-60374062D01*
X152193658Y-60374062D01*
X152394323Y-60291149D01*
X152690111Y-59995877D01*
X152850387Y-59609888D01*
X152850752Y-59191945D01*
X152718153Y-58871032D01*
X152798598Y-58898581D01*
X153040022Y-58883410D01*
X152925486Y-59228384D01*
X152964440Y-59767452D01*
X153095789Y-60084556D01*
X153325938Y-60156273D01*
X154082211Y-59400000D01*
X154068069Y-59385858D01*
X154285858Y-59168069D01*
X154300000Y-59182211D01*
X154314142Y-59168069D01*
X154531931Y-59385858D01*
X154517789Y-59400000D01*
X155274062Y-60156273D01*
X155504211Y-60084556D01*
X155674514Y-59571616D01*
X155647069Y-59191812D01*
X155664588Y-59224760D01*
X156449322Y-59520362D01*
X157287443Y-59493158D01*
X157935412Y-59224760D01*
X158099111Y-58916900D01*
X156800000Y-57617789D01*
X156785858Y-57631931D01*
X156568069Y-57414142D01*
X156582211Y-57400000D01*
X157017789Y-57400000D01*
X158316900Y-58699111D01*
X158624760Y-58535412D01*
X158920362Y-57750678D01*
X158893158Y-56912557D01*
X158624760Y-56264588D01*
X158316900Y-56100889D01*
X157017789Y-57400000D01*
X156582211Y-57400000D01*
X155283100Y-56100889D01*
X154975240Y-56264588D01*
X154679638Y-57049322D01*
X154706842Y-57887443D01*
X154810646Y-58138049D01*
X154471616Y-58025486D01*
X154350347Y-58034249D01*
X154498581Y-57601402D01*
X154461581Y-57012589D01*
X154307435Y-56640447D01*
X154064413Y-56553376D01*
X153217789Y-57400000D01*
X153231931Y-57414142D01*
X153014142Y-57631931D01*
X153000000Y-57617789D01*
X152985858Y-57631931D01*
X152768069Y-57414142D01*
X152782211Y-57400000D01*
X151935587Y-56553376D01*
X151692565Y-56640447D01*
X151501419Y-57198598D01*
X151538419Y-57787411D01*
X151692565Y-58159553D01*
X151935586Y-58246623D01*
X151832751Y-58349458D01*
X151591945Y-58349248D01*
X151205677Y-58508851D01*
X150909889Y-58804123D01*
X150799928Y-59068941D01*
X150691149Y-58805677D01*
X150395877Y-58509889D01*
X150009888Y-58349613D01*
X149767192Y-58349401D01*
X149664414Y-58246623D01*
X149907435Y-58159553D01*
X150098581Y-57601402D01*
X150061581Y-57012589D01*
X149907435Y-56640447D01*
X149664413Y-56553376D01*
X148817789Y-57400000D01*
X148831931Y-57414142D01*
X148614142Y-57631931D01*
X148600000Y-57617789D01*
X148585858Y-57631931D01*
X148368069Y-57414142D01*
X148382211Y-57400000D01*
X147535587Y-56553376D01*
X147292565Y-56640447D01*
X147101419Y-57198598D01*
X147138419Y-57787411D01*
X147292565Y-58159553D01*
X147535586Y-58246623D01*
X147432663Y-58349546D01*
X147091945Y-58349248D01*
X146705677Y-58508851D01*
X146409889Y-58804123D01*
X146249613Y-59190112D01*
X146249253Y-59602219D01*
X146105736Y-59745736D01*
X145975672Y-59940390D01*
X145930000Y-60170000D01*
X145930000Y-60711472D01*
X145700877Y-60482349D01*
X145700877Y-59650000D01*
X145679958Y-59538827D01*
X145614255Y-59436721D01*
X145542333Y-59387579D01*
X145935412Y-59224760D01*
X146099111Y-58916900D01*
X144800000Y-57617789D01*
X143500889Y-58916900D01*
X142525000Y-58916900D01*
X142525000Y-57049322D01*
X142679638Y-57049322D01*
X142706842Y-57887443D01*
X142975240Y-58535412D01*
X143283100Y-58699111D01*
X144582211Y-57400000D01*
X145017789Y-57400000D01*
X146316900Y-58699111D01*
X146624760Y-58535412D01*
X146920362Y-57750678D01*
X146893158Y-56912557D01*
X146654169Y-56335587D01*
X147753376Y-56335587D01*
X148600000Y-57182211D01*
X149446624Y-56335587D01*
X152153376Y-56335587D01*
X153000000Y-57182211D01*
X153846624Y-56335587D01*
X153759553Y-56092565D01*
X153201402Y-55901419D01*
X152612589Y-55938419D01*
X152240447Y-56092565D01*
X152153376Y-56335587D01*
X149446624Y-56335587D01*
X149359553Y-56092565D01*
X148801402Y-55901419D01*
X148212589Y-55938419D01*
X147840447Y-56092565D01*
X147753376Y-56335587D01*
X146654169Y-56335587D01*
X146624760Y-56264588D01*
X146316900Y-56100889D01*
X145017789Y-57400000D01*
X144582211Y-57400000D01*
X143283100Y-56100889D01*
X142975240Y-56264588D01*
X142679638Y-57049322D01*
X142525000Y-57049322D01*
X142525000Y-56580330D01*
X143222230Y-55883100D01*
X143500889Y-55883100D01*
X144800000Y-57182211D01*
X146099111Y-55883100D01*
X155500889Y-55883100D01*
X156800000Y-57182211D01*
X158099111Y-55883100D01*
X157935412Y-55575240D01*
X157150678Y-55279638D01*
X156312557Y-55306842D01*
X155664588Y-55575240D01*
X155500889Y-55883100D01*
X146099111Y-55883100D01*
X145935412Y-55575240D01*
X145150678Y-55279638D01*
X144312557Y-55306842D01*
X143664588Y-55575240D01*
X143500889Y-55883100D01*
X143222230Y-55883100D01*
X144130330Y-54975000D01*
X157869670Y-54975000D01*
X159475000Y-56580330D01*
X159475000Y-56580330D01*
G37*
X159475000Y-56580330D02*
X159475000Y-62742245D01*
X158820132Y-62872507D01*
X158820131Y-62872507D01*
X158684952Y-62928500D01*
X157873894Y-63470432D01*
X157770432Y-63573894D01*
X157228500Y-64384952D01*
X157172507Y-64520132D01*
X156982207Y-65476836D01*
X156982205Y-65476841D01*
X156982206Y-65550000D01*
X156982205Y-65623159D01*
X156982207Y-65623164D01*
X157172507Y-66579868D01*
X157228500Y-66715048D01*
X157770432Y-67526106D01*
X157873894Y-67629568D01*
X158684952Y-68171500D01*
X158820131Y-68227493D01*
X158820132Y-68227493D01*
X159475000Y-68357755D01*
X159475000Y-72530000D01*
X158825607Y-72530000D01*
X158848000Y-72475938D01*
X158848000Y-72036000D01*
X158696000Y-71884000D01*
X157644000Y-71884000D01*
X157644000Y-71904000D01*
X157336000Y-71904000D01*
X157336000Y-71884000D01*
X157316000Y-71884000D01*
X157316000Y-71576000D01*
X157336000Y-71576000D01*
X157336000Y-70649000D01*
X157644000Y-70649000D01*
X157644000Y-71576000D01*
X158696000Y-71576000D01*
X158848000Y-71424000D01*
X158848000Y-70984062D01*
X158755438Y-70760596D01*
X158584405Y-70589563D01*
X158360939Y-70497000D01*
X157796000Y-70497000D01*
X157644000Y-70649000D01*
X157336000Y-70649000D01*
X157184000Y-70497000D01*
X156619061Y-70497000D01*
X156395595Y-70589563D01*
X156224562Y-70760596D01*
X156204098Y-70810000D01*
X155793712Y-70810000D01*
X155740000Y-70799123D01*
X155590000Y-70799123D01*
X155590000Y-68576893D01*
X155591048Y-68579429D01*
X155759683Y-68748359D01*
X155980129Y-68839896D01*
X156218824Y-68840104D01*
X156439429Y-68748952D01*
X156608359Y-68580317D01*
X156699896Y-68359871D01*
X156700104Y-68121176D01*
X156608952Y-67900571D01*
X156525000Y-67816472D01*
X156525000Y-67133530D01*
X156608359Y-67050317D01*
X156699896Y-66829871D01*
X156700104Y-66591176D01*
X156608952Y-66370571D01*
X156440317Y-66201641D01*
X156432063Y-66198214D01*
X156445877Y-66130000D01*
X156445877Y-62330000D01*
X156424958Y-62218827D01*
X156359255Y-62116721D01*
X156259003Y-62048222D01*
X156140000Y-62024123D01*
X154140000Y-62024123D01*
X154028827Y-62045042D01*
X153926721Y-62110745D01*
X153858222Y-62210997D01*
X153834123Y-62330000D01*
X153834123Y-63630000D01*
X150145877Y-63630000D01*
X150145877Y-63480000D01*
X150124958Y-63368827D01*
X150059255Y-63266721D01*
X149959003Y-63198222D01*
X149840000Y-63174123D01*
X147840000Y-63174123D01*
X147728827Y-63195042D01*
X147626721Y-63260745D01*
X147558222Y-63360997D01*
X147552769Y-63387927D01*
X147499404Y-63334562D01*
X147275938Y-63242000D01*
X146836000Y-63242000D01*
X146684000Y-63394000D01*
X146684000Y-64446000D01*
X146704000Y-64446000D01*
X146704000Y-64754000D01*
X146684000Y-64754000D01*
X146684000Y-65806000D01*
X146836000Y-65958000D01*
X147232000Y-65958000D01*
X147232000Y-66224000D01*
X147384000Y-66376000D01*
X148686000Y-66376000D01*
X148686000Y-66356000D01*
X148994000Y-66356000D01*
X148994000Y-66376000D01*
X149014000Y-66376000D01*
X149014000Y-66684000D01*
X148994000Y-66684000D01*
X148994000Y-67736000D01*
X149146000Y-67888000D01*
X149944123Y-67888000D01*
X149944123Y-69040000D01*
X148367107Y-69040000D01*
X147963553Y-68636447D01*
X147801342Y-68528060D01*
X147610000Y-68490000D01*
X147105877Y-68490000D01*
X147105877Y-68365000D01*
X147084958Y-68253827D01*
X147019255Y-68151721D01*
X146919003Y-68083222D01*
X146800000Y-68059123D01*
X146300000Y-68059123D01*
X146300000Y-66836000D01*
X147232000Y-66836000D01*
X147232000Y-67400938D01*
X147324562Y-67624404D01*
X147495595Y-67795437D01*
X147719061Y-67888000D01*
X148534000Y-67888000D01*
X148686000Y-67736000D01*
X148686000Y-66684000D01*
X147384000Y-66684000D01*
X147232000Y-66836000D01*
X146300000Y-66836000D01*
X146300000Y-66430000D01*
X146292121Y-66391094D01*
X146269727Y-66358319D01*
X146236346Y-66336839D01*
X146200000Y-66330000D01*
X144877195Y-66330000D01*
X145017795Y-65623159D01*
X145017795Y-65476841D01*
X144904248Y-64906000D01*
X145297000Y-64906000D01*
X145297000Y-65470939D01*
X145389563Y-65694405D01*
X145560596Y-65865438D01*
X145784062Y-65958000D01*
X146224000Y-65958000D01*
X146376000Y-65806000D01*
X146376000Y-64754000D01*
X145449000Y-64754000D01*
X145297000Y-64906000D01*
X144904248Y-64906000D01*
X144827493Y-64520132D01*
X144771500Y-64384952D01*
X144597483Y-64124517D01*
X144616000Y-64106000D01*
X144616000Y-63054000D01*
X143689000Y-63054000D01*
X143614448Y-63128552D01*
X143315048Y-62928500D01*
X143179868Y-62872507D01*
X142525000Y-62742246D01*
X142525000Y-62029061D01*
X143537000Y-62029061D01*
X143537000Y-62594000D01*
X143689000Y-62746000D01*
X144616000Y-62746000D01*
X144616000Y-61694000D01*
X144464000Y-61542000D01*
X144024062Y-61542000D01*
X143800596Y-61634562D01*
X143629563Y-61805595D01*
X143537000Y-62029061D01*
X142525000Y-62029061D01*
X142525000Y-58916900D01*
X143500889Y-58916900D01*
X143664588Y-59224760D01*
X144035939Y-59364645D01*
X144033827Y-59365042D01*
X143931721Y-59430745D01*
X143863222Y-59530997D01*
X143839123Y-59650000D01*
X143839123Y-61150000D01*
X143860042Y-61261173D01*
X143925745Y-61363279D01*
X144025997Y-61431778D01*
X144145000Y-61455877D01*
X144977349Y-61455877D01*
X145069736Y-61548264D01*
X144924000Y-61694000D01*
X144924000Y-62746000D01*
X144944000Y-62746000D01*
X144944000Y-63054000D01*
X144924000Y-63054000D01*
X144924000Y-64106000D01*
X145076000Y-64258000D01*
X145297000Y-64258000D01*
X145297000Y-64294000D01*
X145449000Y-64446000D01*
X146376000Y-64446000D01*
X146376000Y-63394000D01*
X146224000Y-63242000D01*
X146003000Y-63242000D01*
X146003000Y-63206000D01*
X145952877Y-63155877D01*
X147155000Y-63155877D01*
X147266173Y-63134958D01*
X147368279Y-63069255D01*
X147436778Y-62969003D01*
X147460877Y-62850000D01*
X147460877Y-62530000D01*
X147534123Y-62530000D01*
X147534123Y-62680000D01*
X147555042Y-62791173D01*
X147620745Y-62893279D01*
X147720997Y-62961778D01*
X147840000Y-62985877D01*
X149840000Y-62985877D01*
X149951173Y-62964958D01*
X150053279Y-62899255D01*
X150121778Y-62799003D01*
X150145877Y-62680000D01*
X150145877Y-61180000D01*
X150124958Y-61068827D01*
X150059255Y-60966721D01*
X149959003Y-60898222D01*
X149840000Y-60874123D01*
X147840000Y-60874123D01*
X147728827Y-60895042D01*
X147626721Y-60960745D01*
X147558222Y-61060997D01*
X147534123Y-61180000D01*
X147534123Y-61330000D01*
X147457114Y-61330000D01*
X147439958Y-61238827D01*
X147374255Y-61136721D01*
X147274003Y-61068222D01*
X147155000Y-61044123D01*
X147130000Y-61044123D01*
X147130000Y-60450422D01*
X147508055Y-60450752D01*
X147894323Y-60291149D01*
X148190111Y-59995877D01*
X148350387Y-59609888D01*
X148350752Y-59191945D01*
X148201670Y-58831141D01*
X148398598Y-58898581D01*
X148883314Y-58868122D01*
X148749613Y-59190112D01*
X148749248Y-59608055D01*
X148908851Y-59994323D01*
X149204123Y-60290111D01*
X149590112Y-60450387D01*
X150008055Y-60450752D01*
X150394323Y-60291149D01*
X150690111Y-59995877D01*
X150800072Y-59731059D01*
X150908851Y-59994323D01*
X151204123Y-60290111D01*
X151590112Y-60450387D01*
X152008055Y-60450752D01*
X152193658Y-60374062D01*
X153543727Y-60374062D01*
X153615444Y-60604211D01*
X154128384Y-60774514D01*
X154667452Y-60735560D01*
X154984556Y-60604211D01*
X155056273Y-60374062D01*
X154300000Y-59617789D01*
X153543727Y-60374062D01*
X152193658Y-60374062D01*
X152394323Y-60291149D01*
X152690111Y-59995877D01*
X152850387Y-59609888D01*
X152850752Y-59191945D01*
X152718153Y-58871032D01*
X152798598Y-58898581D01*
X153040022Y-58883410D01*
X152925486Y-59228384D01*
X152964440Y-59767452D01*
X153095789Y-60084556D01*
X153325938Y-60156273D01*
X154082211Y-59400000D01*
X154068069Y-59385858D01*
X154285858Y-59168069D01*
X154300000Y-59182211D01*
X154314142Y-59168069D01*
X154531931Y-59385858D01*
X154517789Y-59400000D01*
X155274062Y-60156273D01*
X155504211Y-60084556D01*
X155674514Y-59571616D01*
X155647069Y-59191812D01*
X155664588Y-59224760D01*
X156449322Y-59520362D01*
X157287443Y-59493158D01*
X157935412Y-59224760D01*
X158099111Y-58916900D01*
X156800000Y-57617789D01*
X156785858Y-57631931D01*
X156568069Y-57414142D01*
X156582211Y-57400000D01*
X157017789Y-57400000D01*
X158316900Y-58699111D01*
X158624760Y-58535412D01*
X158920362Y-57750678D01*
X158893158Y-56912557D01*
X158624760Y-56264588D01*
X158316900Y-56100889D01*
X157017789Y-57400000D01*
X156582211Y-57400000D01*
X155283100Y-56100889D01*
X154975240Y-56264588D01*
X154679638Y-57049322D01*
X154706842Y-57887443D01*
X154810646Y-58138049D01*
X154471616Y-58025486D01*
X154350347Y-58034249D01*
X154498581Y-57601402D01*
X154461581Y-57012589D01*
X154307435Y-56640447D01*
X154064413Y-56553376D01*
X153217789Y-57400000D01*
X153231931Y-57414142D01*
X153014142Y-57631931D01*
X153000000Y-57617789D01*
X152985858Y-57631931D01*
X152768069Y-57414142D01*
X152782211Y-57400000D01*
X151935587Y-56553376D01*
X151692565Y-56640447D01*
X151501419Y-57198598D01*
X151538419Y-57787411D01*
X151692565Y-58159553D01*
X151935586Y-58246623D01*
X151832751Y-58349458D01*
X151591945Y-58349248D01*
X151205677Y-58508851D01*
X150909889Y-58804123D01*
X150799928Y-59068941D01*
X150691149Y-58805677D01*
X150395877Y-58509889D01*
X150009888Y-58349613D01*
X149767192Y-58349401D01*
X149664414Y-58246623D01*
X149907435Y-58159553D01*
X150098581Y-57601402D01*
X150061581Y-57012589D01*
X149907435Y-56640447D01*
X149664413Y-56553376D01*
X148817789Y-57400000D01*
X148831931Y-57414142D01*
X148614142Y-57631931D01*
X148600000Y-57617789D01*
X148585858Y-57631931D01*
X148368069Y-57414142D01*
X148382211Y-57400000D01*
X147535587Y-56553376D01*
X147292565Y-56640447D01*
X147101419Y-57198598D01*
X147138419Y-57787411D01*
X147292565Y-58159553D01*
X147535586Y-58246623D01*
X147432663Y-58349546D01*
X147091945Y-58349248D01*
X146705677Y-58508851D01*
X146409889Y-58804123D01*
X146249613Y-59190112D01*
X146249253Y-59602219D01*
X146105736Y-59745736D01*
X145975672Y-59940390D01*
X145930000Y-60170000D01*
X145930000Y-60711472D01*
X145700877Y-60482349D01*
X145700877Y-59650000D01*
X145679958Y-59538827D01*
X145614255Y-59436721D01*
X145542333Y-59387579D01*
X145935412Y-59224760D01*
X146099111Y-58916900D01*
X144800000Y-57617789D01*
X143500889Y-58916900D01*
X142525000Y-58916900D01*
X142525000Y-57049322D01*
X142679638Y-57049322D01*
X142706842Y-57887443D01*
X142975240Y-58535412D01*
X143283100Y-58699111D01*
X144582211Y-57400000D01*
X145017789Y-57400000D01*
X146316900Y-58699111D01*
X146624760Y-58535412D01*
X146920362Y-57750678D01*
X146893158Y-56912557D01*
X146654169Y-56335587D01*
X147753376Y-56335587D01*
X148600000Y-57182211D01*
X149446624Y-56335587D01*
X152153376Y-56335587D01*
X153000000Y-57182211D01*
X153846624Y-56335587D01*
X153759553Y-56092565D01*
X153201402Y-55901419D01*
X152612589Y-55938419D01*
X152240447Y-56092565D01*
X152153376Y-56335587D01*
X149446624Y-56335587D01*
X149359553Y-56092565D01*
X148801402Y-55901419D01*
X148212589Y-55938419D01*
X147840447Y-56092565D01*
X147753376Y-56335587D01*
X146654169Y-56335587D01*
X146624760Y-56264588D01*
X146316900Y-56100889D01*
X145017789Y-57400000D01*
X144582211Y-57400000D01*
X143283100Y-56100889D01*
X142975240Y-56264588D01*
X142679638Y-57049322D01*
X142525000Y-57049322D01*
X142525000Y-56580330D01*
X143222230Y-55883100D01*
X143500889Y-55883100D01*
X144800000Y-57182211D01*
X146099111Y-55883100D01*
X155500889Y-55883100D01*
X156800000Y-57182211D01*
X158099111Y-55883100D01*
X157935412Y-55575240D01*
X157150678Y-55279638D01*
X156312557Y-55306842D01*
X155664588Y-55575240D01*
X155500889Y-55883100D01*
X146099111Y-55883100D01*
X145935412Y-55575240D01*
X145150678Y-55279638D01*
X144312557Y-55306842D01*
X143664588Y-55575240D01*
X143500889Y-55883100D01*
X143222230Y-55883100D01*
X144130330Y-54975000D01*
X157869670Y-54975000D01*
X159475000Y-56580330D01*
G36*
X153834123Y-66130000D02*
X153855042Y-66241173D01*
X153920745Y-66343279D01*
X154020997Y-66411778D01*
X154140000Y-66435877D01*
X154540000Y-66435877D01*
X154540000Y-66744253D01*
X154435672Y-66900390D01*
X154390000Y-67130000D01*
X154390000Y-67274895D01*
X154370939Y-67267000D01*
X153806000Y-67267000D01*
X153654000Y-67419000D01*
X153654000Y-68346000D01*
X153674000Y-68346000D01*
X153674000Y-68654000D01*
X153654000Y-68654000D01*
X153654000Y-70046000D01*
X153674000Y-70046000D01*
X153674000Y-70354000D01*
X153654000Y-70354000D01*
X153654000Y-70374000D01*
X153410000Y-70374000D01*
X153410000Y-69140000D01*
X153402121Y-69101094D01*
X153379727Y-69068319D01*
X153346346Y-69046839D01*
X153346000Y-69046774D01*
X153346000Y-68654000D01*
X152294000Y-68654000D01*
X152142000Y-68806000D01*
X152142000Y-69040000D01*
X152055877Y-69040000D01*
X152055877Y-67875000D01*
X152034958Y-67763827D01*
X152028675Y-67754062D01*
X152142000Y-67754062D01*
X152142000Y-68194000D01*
X152294000Y-68346000D01*
X153346000Y-68346000D01*
X153346000Y-67419000D01*
X153194000Y-67267000D01*
X152629061Y-67267000D01*
X152405595Y-67359563D01*
X152234562Y-67530596D01*
X152142000Y-67754062D01*
X152028675Y-67754062D01*
X151969255Y-67661721D01*
X151869003Y-67593222D01*
X151750000Y-67569123D01*
X151500000Y-67569123D01*
X151500000Y-67110000D01*
X151461940Y-66918658D01*
X151399986Y-66825938D01*
X151400121Y-66671372D01*
X151293777Y-66414000D01*
X151097036Y-66216915D01*
X150839850Y-66110122D01*
X150561372Y-66109879D01*
X150448000Y-66156723D01*
X150448000Y-65659062D01*
X150355438Y-65435596D01*
X150184405Y-65264563D01*
X150042885Y-65205943D01*
X150053279Y-65199255D01*
X150121778Y-65099003D01*
X150145877Y-64980000D01*
X150145877Y-64830000D01*
X153834123Y-64830000D01*
X153834123Y-66130000D01*
X153834123Y-66130000D01*
G37*
X153834123Y-66130000D02*
X153855042Y-66241173D01*
X153920745Y-66343279D01*
X154020997Y-66411778D01*
X154140000Y-66435877D01*
X154540000Y-66435877D01*
X154540000Y-66744253D01*
X154435672Y-66900390D01*
X154390000Y-67130000D01*
X154390000Y-67274895D01*
X154370939Y-67267000D01*
X153806000Y-67267000D01*
X153654000Y-67419000D01*
X153654000Y-68346000D01*
X153674000Y-68346000D01*
X153674000Y-68654000D01*
X153654000Y-68654000D01*
X153654000Y-70046000D01*
X153674000Y-70046000D01*
X153674000Y-70354000D01*
X153654000Y-70354000D01*
X153654000Y-70374000D01*
X153410000Y-70374000D01*
X153410000Y-69140000D01*
X153402121Y-69101094D01*
X153379727Y-69068319D01*
X153346346Y-69046839D01*
X153346000Y-69046774D01*
X153346000Y-68654000D01*
X152294000Y-68654000D01*
X152142000Y-68806000D01*
X152142000Y-69040000D01*
X152055877Y-69040000D01*
X152055877Y-67875000D01*
X152034958Y-67763827D01*
X152028675Y-67754062D01*
X152142000Y-67754062D01*
X152142000Y-68194000D01*
X152294000Y-68346000D01*
X153346000Y-68346000D01*
X153346000Y-67419000D01*
X153194000Y-67267000D01*
X152629061Y-67267000D01*
X152405595Y-67359563D01*
X152234562Y-67530596D01*
X152142000Y-67754062D01*
X152028675Y-67754062D01*
X151969255Y-67661721D01*
X151869003Y-67593222D01*
X151750000Y-67569123D01*
X151500000Y-67569123D01*
X151500000Y-67110000D01*
X151461940Y-66918658D01*
X151399986Y-66825938D01*
X151400121Y-66671372D01*
X151293777Y-66414000D01*
X151097036Y-66216915D01*
X150839850Y-66110122D01*
X150561372Y-66109879D01*
X150448000Y-66156723D01*
X150448000Y-65659062D01*
X150355438Y-65435596D01*
X150184405Y-65264563D01*
X150042885Y-65205943D01*
X150053279Y-65199255D01*
X150121778Y-65099003D01*
X150145877Y-64980000D01*
X150145877Y-64830000D01*
X153834123Y-64830000D01*
X153834123Y-66130000D01*
G36*
X144879123Y-78265000D02*
X144900042Y-78376173D01*
X144965745Y-78478279D01*
X145065997Y-78546778D01*
X145185000Y-78570877D01*
X145785000Y-78570877D01*
X145896173Y-78549958D01*
X145998279Y-78484255D01*
X146066778Y-78384003D01*
X146090877Y-78265000D01*
X146090877Y-77950000D01*
X146149123Y-77950000D01*
X146149123Y-78265000D01*
X146170042Y-78376173D01*
X146235745Y-78478279D01*
X146335997Y-78546778D01*
X146455000Y-78570877D01*
X147055000Y-78570877D01*
X147166173Y-78549958D01*
X147268279Y-78484255D01*
X147336778Y-78384003D01*
X147360877Y-78265000D01*
X147360877Y-77950000D01*
X147419123Y-77950000D01*
X147419123Y-78265000D01*
X147440042Y-78376173D01*
X147505745Y-78478279D01*
X147605997Y-78546778D01*
X147666718Y-78559075D01*
X147724480Y-78645520D01*
X148179479Y-79100520D01*
X148269795Y-79160867D01*
X148317360Y-79192649D01*
X148480000Y-79225000D01*
X150090000Y-79225000D01*
X150090000Y-82540000D01*
X149900877Y-82540000D01*
X149900877Y-82115000D01*
X149879958Y-82003827D01*
X149814255Y-81901721D01*
X149714003Y-81833222D01*
X149595000Y-81809123D01*
X148995000Y-81809123D01*
X148883827Y-81830042D01*
X148781721Y-81895745D01*
X148713222Y-81995997D01*
X148689123Y-82115000D01*
X148689123Y-82540000D01*
X148630877Y-82540000D01*
X148630877Y-82115000D01*
X148609958Y-82003827D01*
X148544255Y-81901721D01*
X148444003Y-81833222D01*
X148325000Y-81809123D01*
X147725000Y-81809123D01*
X147613827Y-81830042D01*
X147511721Y-81895745D01*
X147443222Y-81995997D01*
X147419123Y-82115000D01*
X147419123Y-82540000D01*
X147360877Y-82540000D01*
X147360877Y-82115000D01*
X147339958Y-82003827D01*
X147274255Y-81901721D01*
X147174003Y-81833222D01*
X147055000Y-81809123D01*
X146455000Y-81809123D01*
X146343827Y-81830042D01*
X146329010Y-81839576D01*
X146300437Y-81770595D01*
X146129404Y-81599562D01*
X145905938Y-81507000D01*
X145787000Y-81507000D01*
X145635000Y-81659000D01*
X145635000Y-82540000D01*
X145335000Y-82540000D01*
X145335000Y-81659000D01*
X145183000Y-81507000D01*
X145064062Y-81507000D01*
X144840596Y-81599562D01*
X144763613Y-81676545D01*
X144779573Y-77950000D01*
X144879123Y-77950000D01*
X144879123Y-78265000D01*
X144879123Y-78265000D01*
G37*
X144879123Y-78265000D02*
X144900042Y-78376173D01*
X144965745Y-78478279D01*
X145065997Y-78546778D01*
X145185000Y-78570877D01*
X145785000Y-78570877D01*
X145896173Y-78549958D01*
X145998279Y-78484255D01*
X146066778Y-78384003D01*
X146090877Y-78265000D01*
X146090877Y-77950000D01*
X146149123Y-77950000D01*
X146149123Y-78265000D01*
X146170042Y-78376173D01*
X146235745Y-78478279D01*
X146335997Y-78546778D01*
X146455000Y-78570877D01*
X147055000Y-78570877D01*
X147166173Y-78549958D01*
X147268279Y-78484255D01*
X147336778Y-78384003D01*
X147360877Y-78265000D01*
X147360877Y-77950000D01*
X147419123Y-77950000D01*
X147419123Y-78265000D01*
X147440042Y-78376173D01*
X147505745Y-78478279D01*
X147605997Y-78546778D01*
X147666718Y-78559075D01*
X147724480Y-78645520D01*
X148179479Y-79100520D01*
X148269795Y-79160867D01*
X148317360Y-79192649D01*
X148480000Y-79225000D01*
X150090000Y-79225000D01*
X150090000Y-82540000D01*
X149900877Y-82540000D01*
X149900877Y-82115000D01*
X149879958Y-82003827D01*
X149814255Y-81901721D01*
X149714003Y-81833222D01*
X149595000Y-81809123D01*
X148995000Y-81809123D01*
X148883827Y-81830042D01*
X148781721Y-81895745D01*
X148713222Y-81995997D01*
X148689123Y-82115000D01*
X148689123Y-82540000D01*
X148630877Y-82540000D01*
X148630877Y-82115000D01*
X148609958Y-82003827D01*
X148544255Y-81901721D01*
X148444003Y-81833222D01*
X148325000Y-81809123D01*
X147725000Y-81809123D01*
X147613827Y-81830042D01*
X147511721Y-81895745D01*
X147443222Y-81995997D01*
X147419123Y-82115000D01*
X147419123Y-82540000D01*
X147360877Y-82540000D01*
X147360877Y-82115000D01*
X147339958Y-82003827D01*
X147274255Y-81901721D01*
X147174003Y-81833222D01*
X147055000Y-81809123D01*
X146455000Y-81809123D01*
X146343827Y-81830042D01*
X146329010Y-81839576D01*
X146300437Y-81770595D01*
X146129404Y-81599562D01*
X145905938Y-81507000D01*
X145787000Y-81507000D01*
X145635000Y-81659000D01*
X145635000Y-82540000D01*
X145335000Y-82540000D01*
X145335000Y-81659000D01*
X145183000Y-81507000D01*
X145064062Y-81507000D01*
X144840596Y-81599562D01*
X144763613Y-81676545D01*
X144779573Y-77950000D01*
X144879123Y-77950000D01*
X144879123Y-78265000D01*
M02*
