G04 #@! TF.FileFunction,Copper,L1,Top,Signal*
%FSLAX46Y46*%
G04 Gerber Fmt 4.6, Leading zero omitted, Abs format (unit mm)*
G04 Created by KiCad (PCBNEW 4.0.4-stable) date 03/30/17 11:33:34*
%MOMM*%
%LPD*%
G01*
G04 APERTURE LIST*
%ADD10C,0.100000*%
%ADD11R,1.700000X1.700000*%
%ADD12O,1.700000X1.700000*%
%ADD13R,1.250000X1.500000*%
%ADD14R,1.300000X1.500000*%
%ADD15R,0.600000X1.550000*%
%ADD16R,1.500000X1.250000*%
%ADD17R,1.500000X1.300000*%
%ADD18R,2.500000X1.500000*%
%ADD19R,1.900000X1.500000*%
%ADD20R,2.700000X1.500000*%
%ADD21R,1.600000X3.000000*%
%ADD22R,3.800000X2.000000*%
%ADD23R,1.500000X2.000000*%
%ADD24O,1.200000X2.000000*%
%ADD25R,2.000000X2.000000*%
%ADD26R,0.400000X1.350000*%
%ADD27O,1.100000X1.300000*%
%ADD28O,1.000000X1.500000*%
%ADD29O,1.000000X1.400000*%
%ADD30R,0.400000X0.700000*%
%ADD31R,0.700000X0.400000*%
%ADD32C,0.800000*%
%ADD33C,0.600000*%
%ADD34C,0.400000*%
%ADD35C,0.200000*%
G04 APERTURE END LIST*
D10*
G36*
X158881795Y-81446890D02*
X159228205Y-81246890D01*
X159578205Y-81853108D01*
X159231795Y-82053108D01*
X158881795Y-81446890D01*
X158881795Y-81446890D01*
G37*
G36*
X159234138Y-79772801D02*
X158894919Y-79560833D01*
X159265862Y-78967199D01*
X159605081Y-79179167D01*
X159234138Y-79772801D01*
X159234138Y-79772801D01*
G37*
G36*
X143114582Y-79551989D02*
X142786921Y-79781420D01*
X142385418Y-79208013D01*
X142713079Y-78978582D01*
X143114582Y-79551989D01*
X143114582Y-79551989D01*
G37*
G36*
X142745862Y-81257199D02*
X143085081Y-81469167D01*
X142714138Y-82062801D01*
X142374919Y-81850833D01*
X142745862Y-81257199D01*
X142745862Y-81257199D01*
G37*
D11*
X148330000Y-101940000D03*
D12*
X150870000Y-101940000D03*
X153410000Y-101940000D03*
D13*
X148230000Y-99940000D03*
X148230000Y-97440000D03*
D14*
X144370000Y-57880000D03*
X144370000Y-60580000D03*
D15*
X150385000Y-99600000D03*
X151655000Y-99600000D03*
X152925000Y-99600000D03*
X154195000Y-99600000D03*
X154195000Y-94200000D03*
X152925000Y-94200000D03*
X151655000Y-94200000D03*
X150385000Y-94200000D03*
D16*
X155490000Y-70250000D03*
X157990000Y-70250000D03*
X146180000Y-95680000D03*
X148680000Y-95680000D03*
X146170000Y-94030000D03*
X148670000Y-94030000D03*
D14*
X155980000Y-96870000D03*
X155980000Y-94170000D03*
D13*
X146060000Y-99940000D03*
X146060000Y-97440000D03*
D17*
X143260000Y-70230000D03*
X145960000Y-70230000D03*
D18*
X158600000Y-91632400D03*
X158600000Y-89600400D03*
X158600000Y-87517600D03*
X158600000Y-85536400D03*
X158600000Y-83504400D03*
D19*
X158300000Y-81523200D03*
X158300000Y-79516600D03*
D20*
X143550000Y-91594300D03*
X143550000Y-89511500D03*
X143550000Y-87530300D03*
X143650000Y-85511000D03*
X143550000Y-83479000D03*
D19*
X143970000Y-81574000D03*
X143970000Y-79542000D03*
D20*
X143550000Y-77510000D03*
D18*
X158600000Y-77510000D03*
D21*
X148030000Y-69840000D03*
X148030000Y-62840000D03*
D16*
X156330000Y-59190000D03*
X158830000Y-59190000D03*
X156330000Y-57450000D03*
X158830000Y-57450000D03*
D22*
X153200000Y-61920000D03*
D23*
X153200000Y-68220000D03*
X155500000Y-68220000D03*
X150900000Y-68220000D03*
D24*
X154265000Y-56610000D03*
D25*
X150690000Y-56610000D03*
D24*
X147115000Y-56610000D03*
D26*
X151990000Y-59285000D03*
X151340000Y-59285000D03*
X150690000Y-59285000D03*
X150040000Y-59285000D03*
X149390000Y-59285000D03*
D27*
X153115000Y-59360000D03*
X148265000Y-59360000D03*
D16*
X148830000Y-104180000D03*
X151330000Y-104180000D03*
D28*
X143210000Y-81590000D03*
D29*
X143210000Y-79470000D03*
D30*
X143020000Y-81170000D03*
X143020000Y-79950000D03*
D31*
X159260000Y-82070000D03*
X159260000Y-78960000D03*
D30*
X142800000Y-81980000D03*
X142800000Y-79160000D03*
D32*
X146580000Y-101590000D03*
X144600000Y-99620000D03*
X155770000Y-99140000D03*
X147120000Y-92800000D03*
X157230000Y-97850000D03*
X157990000Y-69080000D03*
X145900000Y-57900000D03*
X156850000Y-62020000D03*
X156380000Y-91620000D03*
X150420000Y-65760000D03*
X150020000Y-62010000D03*
X143970000Y-93240000D03*
X145190000Y-68500000D03*
D33*
X145530000Y-86900000D03*
X145510000Y-88190000D03*
D34*
X148830000Y-104180000D02*
X148330000Y-103680000D01*
X148330000Y-103680000D02*
X148330000Y-101940000D01*
X148330000Y-101940000D02*
X146930000Y-101940000D01*
X146930000Y-101940000D02*
X146580000Y-101590000D01*
X146060000Y-99940000D02*
X144920000Y-99940000D01*
X144920000Y-99940000D02*
X144600000Y-99620000D01*
X154195000Y-99600000D02*
X155310000Y-99600000D01*
X155310000Y-99600000D02*
X155770000Y-99140000D01*
X152925000Y-99600000D02*
X154195000Y-99600000D01*
X146170000Y-94030000D02*
X146170000Y-93750000D01*
X146170000Y-93750000D02*
X147120000Y-92800000D01*
X146180000Y-95680000D02*
X146180000Y-94040000D01*
X146180000Y-94040000D02*
X146170000Y-94030000D01*
X155980000Y-96870000D02*
X156960000Y-97850000D01*
X156960000Y-97850000D02*
X157230000Y-97850000D01*
X157990000Y-70250000D02*
X157990000Y-69080000D01*
X144370000Y-57880000D02*
X145880000Y-57880000D01*
X145880000Y-57880000D02*
X145900000Y-57900000D01*
X158690000Y-59180000D02*
X158690000Y-60200000D01*
X158690000Y-60200000D02*
X156850000Y-62020000D01*
X158690000Y-57470000D02*
X158690000Y-59180000D01*
X158187000Y-91632400D02*
X156392400Y-91632400D01*
X156392400Y-91632400D02*
X156380000Y-91620000D01*
X150900000Y-68380000D02*
X150900000Y-66240000D01*
X150900000Y-66240000D02*
X150420000Y-65760000D01*
X150040000Y-61530000D02*
X150040000Y-61990000D01*
X150040000Y-61990000D02*
X150020000Y-62010000D01*
X149390000Y-59285000D02*
X149390000Y-60880000D01*
X149390000Y-60880000D02*
X150040000Y-61530000D01*
X150040000Y-59285000D02*
X150040000Y-61530000D01*
X146300000Y-99930000D02*
X148550000Y-99930000D01*
X148550000Y-99930000D02*
X148560000Y-99940000D01*
X145885000Y-92215000D02*
X145264300Y-91594300D01*
X145264300Y-91594300D02*
X144148900Y-91594300D01*
X143970000Y-93240000D02*
X144860000Y-93240000D01*
X146390000Y-91710000D02*
X147170000Y-91710000D01*
X144860000Y-93240000D02*
X145885000Y-92215000D01*
X145885000Y-92215000D02*
X146390000Y-91710000D01*
X144940000Y-96870000D02*
X144940000Y-94210000D01*
X145500000Y-97430000D02*
X145040000Y-96970000D01*
X145040000Y-96970000D02*
X144940000Y-96870000D01*
X144940000Y-94210000D02*
X143970000Y-93240000D01*
X145960000Y-70230000D02*
X147640000Y-70230000D01*
X147640000Y-70230000D02*
X148030000Y-69840000D01*
X145190000Y-68500000D02*
X146690000Y-68500000D01*
X146690000Y-68500000D02*
X148030000Y-69840000D01*
X148680000Y-95680000D02*
X148680000Y-94040000D01*
X148680000Y-94040000D02*
X148670000Y-94030000D01*
X148670000Y-94030000D02*
X150215000Y-94030000D01*
X150215000Y-94030000D02*
X150385000Y-94200000D01*
X146300000Y-97430000D02*
X145500000Y-97430000D01*
X148560000Y-97440000D02*
X146310000Y-97440000D01*
X146310000Y-97440000D02*
X146300000Y-97430000D01*
X148560000Y-97440000D02*
X150000000Y-97440000D01*
X150385000Y-97825000D02*
X150385000Y-99600000D01*
X150000000Y-97440000D02*
X150385000Y-97825000D01*
X150385000Y-99600000D02*
X150385000Y-101455000D01*
X150385000Y-101455000D02*
X150870000Y-101940000D01*
X150870000Y-101940000D02*
X150870000Y-103720000D01*
X150870000Y-103720000D02*
X151330000Y-104180000D01*
X155490000Y-70250000D02*
X153530000Y-70250000D01*
X153530000Y-70250000D02*
X153200000Y-69920000D01*
X150235000Y-94590000D02*
X150395000Y-94750000D01*
X153200000Y-68380000D02*
X153200000Y-69920000D01*
X152850000Y-70270000D02*
X148460000Y-70270000D01*
X153200000Y-69920000D02*
X152850000Y-70270000D01*
X148460000Y-70270000D02*
X148030000Y-69840000D01*
X148700000Y-94590000D02*
X148700000Y-93240000D01*
X148700000Y-93240000D02*
X147170000Y-91710000D01*
X147170000Y-91710000D02*
X147140000Y-91680000D01*
X148430000Y-98010000D02*
X148440000Y-98020000D01*
X153200000Y-68380000D02*
X153200000Y-62080000D01*
D35*
X154195000Y-94200000D02*
X155950000Y-94200000D01*
X155950000Y-94200000D02*
X155980000Y-94170000D01*
X155980000Y-94760000D02*
X155980000Y-92650000D01*
X156629600Y-89600400D02*
X158136200Y-89600400D01*
X155520000Y-90710000D02*
X156629600Y-89600400D01*
X155520000Y-92190000D02*
X155520000Y-90710000D01*
X155980000Y-92650000D02*
X155520000Y-92190000D01*
X155970000Y-94750000D02*
X155980000Y-94760000D01*
X145740300Y-87530300D02*
X146140000Y-87930000D01*
X144072700Y-87530300D02*
X145740300Y-87530300D01*
X146140000Y-87930000D02*
X146140000Y-89170000D01*
X147500000Y-90530000D02*
X146140000Y-89170000D01*
X147500000Y-90530000D02*
X149340000Y-92370000D01*
X152925000Y-94200000D02*
X152925000Y-92865000D01*
X152430000Y-92370000D02*
X152925000Y-92865000D01*
X149340000Y-92370000D02*
X152430000Y-92370000D01*
X144143000Y-87460000D02*
X144072700Y-87530300D01*
X145530000Y-86900000D02*
X145530000Y-85930000D01*
X147330000Y-90980000D02*
X145510000Y-89160000D01*
X145510000Y-88190000D02*
X145510000Y-89160000D01*
X145111000Y-85511000D02*
X144350000Y-85511000D01*
X145530000Y-85930000D02*
X145111000Y-85511000D01*
X147330000Y-90980000D02*
X149160000Y-92810000D01*
X149160000Y-92810000D02*
X151400000Y-92810000D01*
X151400000Y-92810000D02*
X151655000Y-93065000D01*
X151655000Y-93065000D02*
X151655000Y-94200000D01*
X151665000Y-94750000D02*
X151665000Y-93775000D01*
X147340000Y-90980000D02*
X147330000Y-90980000D01*
X144841000Y-85511000D02*
X144060000Y-85511000D01*
X144659000Y-86110000D02*
X144060000Y-85511000D01*
D34*
X156190000Y-59180000D02*
X156190000Y-57470000D01*
X156190000Y-59180000D02*
X156190000Y-60180000D01*
X156190000Y-60180000D02*
X155695000Y-60675000D01*
X151990000Y-59285000D02*
X151990000Y-60080000D01*
X155920000Y-60900000D02*
X155920000Y-67960000D01*
X155530000Y-60510000D02*
X155695000Y-60675000D01*
X155695000Y-60675000D02*
X155920000Y-60900000D01*
X152420000Y-60510000D02*
X155530000Y-60510000D01*
X151990000Y-60080000D02*
X152420000Y-60510000D01*
X155920000Y-67960000D02*
X155500000Y-68380000D01*
X148030000Y-62840000D02*
X148030000Y-64250000D01*
X148030000Y-64250000D02*
X144200000Y-68080000D01*
X156723200Y-81523200D02*
X158085400Y-81523200D01*
X156480000Y-81280000D02*
X156723200Y-81523200D01*
X156480000Y-75740000D02*
X156480000Y-81280000D01*
X155890000Y-75150000D02*
X156480000Y-75740000D01*
X144070000Y-75150000D02*
X155890000Y-75150000D01*
X143860002Y-74940002D02*
X144070000Y-75150000D01*
X143860002Y-71660000D02*
X143860002Y-74940002D01*
X144610000Y-70910002D02*
X143860002Y-71660000D01*
X144610000Y-69250000D02*
X144610000Y-70910002D01*
X144200000Y-68840000D02*
X144610000Y-69250000D01*
X144200000Y-68080000D02*
X144200000Y-68840000D01*
X144370000Y-60580000D02*
X145770000Y-60580000D01*
X145770000Y-60580000D02*
X148030000Y-62840000D01*
X143260000Y-70230000D02*
X143260000Y-75340000D01*
X145336000Y-81574000D02*
X144060000Y-81574000D01*
X145820000Y-81090000D02*
X145336000Y-81574000D01*
X145820000Y-76120000D02*
X145820000Y-81090000D01*
X145460000Y-75760000D02*
X145820000Y-76120000D01*
X143680000Y-75760000D02*
X145460000Y-75760000D01*
X143260000Y-75340000D02*
X143680000Y-75760000D01*
D35*
X151655000Y-99600000D02*
X151655000Y-100505000D01*
X151655000Y-100505000D02*
X153090000Y-101940000D01*
X153090000Y-101940000D02*
X153410000Y-101940000D01*
M02*
