M48
INCH,TZ
T1C0.016
T2C0.020
T3C0.024
T4C0.039
%
G90
G05
T1
X57287Y-34720
X57295Y-34213
T3
X56681Y-36709
X56929Y-39220
X57161Y-26969
X57441Y-22795
X57709Y-39996
X57921Y-36535
X59063Y-24413
X59220Y-25890
X61327Y-39031
X61567Y-36071
X61752Y-24417
X61902Y-38524
X62201Y-27197
T4
X58398Y-40134
X59398Y-40134
X60398Y-40134
T2
X57919Y-22425G85X57919Y-22150
G05
X60734Y-22425G85X60734Y-22150
G05
T3
X58372Y-23409G85X58372Y-23331
G05
X60281Y-23409G85X60281Y-23331
G05
T0
M30
