M48
INCH,TZ
T1C0.016
T2C0.024
T3C0.039
T4C0.039
T5C0.059
T6C0.091
%
G90
G05
T1
X56831Y-41654
X59016Y-28669
X61457Y-26264
X61457Y-26866
T2
X56224Y-39031
X56224Y-40047
X56224Y-41047
X57146Y-25429
X57165Y-40815
X57358Y-31500
X57370Y-31110
X57378Y-31937
X57500Y-28417
X57776Y-26138
X57831Y-41654
X58020Y-31114
X58028Y-31500
X58028Y-31945
X58441Y-35933
X58449Y-27496
X58720Y-31504
X58720Y-31949
X58961Y-29020
X59331Y-26303
X59744Y-30496
X59835Y-26354
X60315Y-26354
X61012Y-41654
X61587Y-28799
X61622Y-32787
X61882Y-26921
X62063Y-41654
T3
X58949Y-38760
X59949Y-38760
T4
X57992Y-23386
X58976Y-23386
X59764Y-23386
X60748Y-23386
T5
X58504Y-22598
X60236Y-22598
T6
X57008Y-22598
X61732Y-22598
T0
M30
