G04 #@! TF.FileFunction,Soldermask,Top*
%FSLAX46Y46*%
G04 Gerber Fmt 4.6, Leading zero omitted, Abs format (unit mm)*
G04 Created by KiCad (PCBNEW 4.0.4-stable) date 03/30/17 11:33:34*
%MOMM*%
%LPD*%
G01*
G04 APERTURE LIST*
%ADD10C,0.100000*%
%ADD11R,2.100000X2.100000*%
%ADD12O,2.100000X2.100000*%
%ADD13R,1.650000X1.900000*%
%ADD14R,1.700000X1.900000*%
%ADD15R,1.000000X1.950000*%
%ADD16R,1.900000X1.650000*%
%ADD17R,1.900000X1.700000*%
%ADD18R,2.900000X1.900000*%
%ADD19R,2.300000X1.900000*%
%ADD20R,3.100000X1.900000*%
%ADD21R,2.000000X3.400000*%
%ADD22R,4.200000X2.400000*%
%ADD23R,1.900000X2.400000*%
%ADD24O,1.300000X2.100000*%
%ADD25R,0.500000X1.450000*%
%ADD26O,1.200000X1.400000*%
%ADD27O,1.400000X1.900000*%
%ADD28O,1.400000X1.800000*%
%ADD29R,0.800000X1.100000*%
%ADD30R,1.100000X0.800000*%
G04 APERTURE END LIST*
D10*
G36*
X158608590Y-81373685D02*
X159301410Y-80973685D01*
X159851410Y-81926313D01*
X159158590Y-82326313D01*
X158608590Y-81373685D01*
X158608590Y-81373685D01*
G37*
G36*
X159297764Y-80048394D02*
X158619325Y-79624459D01*
X159202236Y-78691606D01*
X159880675Y-79115541D01*
X159297764Y-80048394D01*
X159297764Y-80048394D01*
G37*
G36*
X143393128Y-79601104D02*
X142737806Y-80059965D01*
X142106872Y-79158898D01*
X142762194Y-78700037D01*
X143393128Y-79601104D01*
X143393128Y-79601104D01*
G37*
G36*
X142682236Y-80981606D02*
X143360675Y-81405541D01*
X142777764Y-82338394D01*
X142099325Y-81914459D01*
X142682236Y-80981606D01*
X142682236Y-80981606D01*
G37*
D11*
X148330000Y-101940000D03*
D12*
X150870000Y-101940000D03*
X153410000Y-101940000D03*
D13*
X148230000Y-99940000D03*
X148230000Y-97440000D03*
D14*
X144370000Y-57880000D03*
X144370000Y-60580000D03*
D15*
X150385000Y-99600000D03*
X151655000Y-99600000D03*
X152925000Y-99600000D03*
X154195000Y-99600000D03*
X154195000Y-94200000D03*
X152925000Y-94200000D03*
X151655000Y-94200000D03*
X150385000Y-94200000D03*
D16*
X155490000Y-70250000D03*
X157990000Y-70250000D03*
X146180000Y-95680000D03*
X148680000Y-95680000D03*
X146170000Y-94030000D03*
X148670000Y-94030000D03*
D14*
X155980000Y-96870000D03*
X155980000Y-94170000D03*
D13*
X146060000Y-99940000D03*
X146060000Y-97440000D03*
D17*
X143260000Y-70230000D03*
X145960000Y-70230000D03*
D18*
X158600000Y-91632400D03*
X158600000Y-89600400D03*
X158600000Y-87517600D03*
X158600000Y-85536400D03*
X158600000Y-83504400D03*
D19*
X158300000Y-81523200D03*
X158300000Y-79516600D03*
D20*
X143550000Y-91594300D03*
X143550000Y-89511500D03*
X143550000Y-87530300D03*
X143650000Y-85511000D03*
X143550000Y-83479000D03*
D19*
X143970000Y-81574000D03*
X143970000Y-79542000D03*
D20*
X143550000Y-77510000D03*
D18*
X158600000Y-77510000D03*
D21*
X148030000Y-69840000D03*
X148030000Y-62840000D03*
D16*
X156330000Y-59190000D03*
X158830000Y-59190000D03*
X156330000Y-57450000D03*
X158830000Y-57450000D03*
D22*
X153200000Y-61920000D03*
D23*
X153200000Y-68220000D03*
X155500000Y-68220000D03*
X150900000Y-68220000D03*
D24*
X154265000Y-56610000D03*
D11*
X150690000Y-56610000D03*
D24*
X147115000Y-56610000D03*
D25*
X151990000Y-59285000D03*
X151340000Y-59285000D03*
X150690000Y-59285000D03*
X150040000Y-59285000D03*
X149390000Y-59285000D03*
D26*
X153115000Y-59360000D03*
X148265000Y-59360000D03*
D16*
X148830000Y-104180000D03*
X151330000Y-104180000D03*
D27*
X143210000Y-81590000D03*
D28*
X143210000Y-79470000D03*
D29*
X143020000Y-81170000D03*
X143020000Y-79950000D03*
D30*
X159260000Y-82070000D03*
X159260000Y-78960000D03*
D29*
X142800000Y-81980000D03*
X142800000Y-79160000D03*
M02*
