G04 #@! TF.FileFunction,Soldermask,Top*
%FSLAX46Y46*%
G04 Gerber Fmt 4.6, Leading zero omitted, Abs format (unit mm)*
G04 Created by KiCad (PCBNEW 4.0.4-stable) date 10/15/16 21:45:22*
%MOMM*%
%LPD*%
G01*
G04 APERTURE LIST*
%ADD10C,0.100000*%
%ADD11R,2.701240X0.900380*%
%ADD12R,2.899360X2.398980*%
%ADD13C,1.299160*%
%ADD14R,2.432000X2.127200*%
%ADD15O,2.432000X2.127200*%
%ADD16R,0.850000X2.150000*%
%ADD17R,1.650000X3.500000*%
%ADD18R,1.650000X1.400000*%
%ADD19R,1.100000X1.700000*%
%ADD20R,1.700000X1.100000*%
%ADD21R,3.150000X1.400000*%
%ADD22R,4.057600X2.432000*%
%ADD23R,1.416000X2.432000*%
%ADD24R,2.127200X2.432000*%
%ADD25O,2.127200X2.432000*%
%ADD26R,2.432000X1.924000*%
%ADD27R,1.598880X1.598880*%
%ADD28R,1.000000X1.950000*%
%ADD29R,1.900000X3.432000*%
%ADD30R,1.900000X3.400000*%
%ADD31R,3.432000X1.900000*%
%ADD32R,3.400000X1.900000*%
%ADD33C,2.600000*%
G04 APERTURE END LIST*
D10*
D11*
X158704280Y-117119400D03*
X158704280Y-116319300D03*
X158704280Y-115519200D03*
X158704280Y-114719100D03*
X158704280Y-113919000D03*
D12*
X158803340Y-119969280D03*
X164302440Y-119969280D03*
X158803340Y-111069120D03*
X164302440Y-111069120D03*
D13*
X161302700Y-117718840D03*
X161302700Y-113319560D03*
D14*
X135686800Y-122021600D03*
D15*
X135686800Y-119481600D03*
X135686800Y-116941600D03*
D16*
X154694600Y-112427200D03*
X154044600Y-112427200D03*
X153394600Y-112427200D03*
X152744600Y-112427200D03*
X152094600Y-112427200D03*
X151444600Y-112427200D03*
X150794600Y-112427200D03*
X150144600Y-112427200D03*
X149494600Y-112427200D03*
X148844600Y-112427200D03*
X148194600Y-112427200D03*
X147544600Y-112427200D03*
X146894600Y-112427200D03*
X146244600Y-112427200D03*
X146244600Y-119627200D03*
X146894600Y-119627200D03*
X147544600Y-119627200D03*
X148194600Y-119627200D03*
X148844600Y-119627200D03*
X149494600Y-119627200D03*
X150144600Y-119627200D03*
X150794600Y-119627200D03*
X151444600Y-119627200D03*
X152094600Y-119627200D03*
X152744600Y-119627200D03*
X153394600Y-119627200D03*
X154044600Y-119627200D03*
X154694600Y-119627200D03*
D14*
X143052800Y-119786400D03*
D15*
X143052800Y-117246400D03*
X143052800Y-114706400D03*
X143052800Y-112166400D03*
D17*
X137312400Y-85503000D03*
X135280400Y-85553800D03*
X133197600Y-85630000D03*
X131216400Y-85604600D03*
X129184400Y-85630000D03*
X127203200Y-85604600D03*
X125196600Y-85630000D03*
X137274300Y-100941100D03*
X135191500Y-101017300D03*
X133210300Y-101017300D03*
X131191000Y-101030000D03*
X129159000Y-101030000D03*
X127254000Y-101030000D03*
X125222000Y-101030000D03*
X123190000Y-101030000D03*
X123190000Y-85630000D03*
D11*
X158856680Y-97612200D03*
X158856680Y-96812100D03*
X158856680Y-96012000D03*
X158856680Y-95211900D03*
X158856680Y-94411800D03*
D12*
X158955740Y-100462080D03*
X164454840Y-100462080D03*
X158955740Y-91561920D03*
X164454840Y-91561920D03*
D13*
X161455100Y-98211640D03*
X161455100Y-93812360D03*
D18*
X154279600Y-104664000D03*
X154279600Y-106664000D03*
X148437600Y-106664000D03*
X148437600Y-104664000D03*
X138277600Y-106206800D03*
X138277600Y-104206800D03*
D19*
X136484400Y-103835200D03*
X134584400Y-103835200D03*
D20*
X140462000Y-87564000D03*
X140462000Y-85664000D03*
X140462000Y-91252000D03*
X140462000Y-93152000D03*
D21*
X148305800Y-102228400D03*
X154055800Y-102228400D03*
X154055800Y-98228400D03*
X148305800Y-98228400D03*
D22*
X143129000Y-98298000D03*
D23*
X143129000Y-104902000D03*
X145415000Y-104902000D03*
X140843000Y-104902000D03*
D24*
X124256800Y-105257600D03*
D25*
X126796800Y-105257600D03*
X129336800Y-105257600D03*
X131876800Y-105257600D03*
D18*
X163830000Y-125002800D03*
X163830000Y-123002800D03*
X156819600Y-125002800D03*
X156819600Y-123002800D03*
D26*
X160274000Y-126009400D03*
X160274000Y-122707400D03*
D20*
X142189200Y-125410000D03*
X142189200Y-123510000D03*
X151739600Y-125308400D03*
X151739600Y-123408400D03*
D27*
X145288000Y-125458220D03*
X145288000Y-123360180D03*
X147929600Y-125458220D03*
X147929600Y-123360180D03*
D28*
X128498600Y-122029200D03*
X129768600Y-122029200D03*
X131038600Y-122029200D03*
X132308600Y-122029200D03*
X132308600Y-116629200D03*
X131038600Y-116629200D03*
X129768600Y-116629200D03*
X128498600Y-116629200D03*
D29*
X144170400Y-93624400D03*
D30*
X146710400Y-93700600D03*
X149250400Y-93624400D03*
X151790400Y-93624400D03*
X154330400Y-93624400D03*
D31*
X125374400Y-123952000D03*
D32*
X125450600Y-121412000D03*
X125374400Y-118872000D03*
X125374400Y-116332000D03*
X125374400Y-113792000D03*
D33*
X138480800Y-109220000D03*
X135382000Y-109626400D03*
X132588000Y-109677200D03*
X129794000Y-109728000D03*
X126949200Y-109829600D03*
X123748800Y-109829600D03*
X120853200Y-109880400D03*
X141478000Y-108966000D03*
X164388800Y-107645200D03*
X161493200Y-107950000D03*
X151333200Y-108559600D03*
M02*
