G04 #@! TF.FileFunction,Copper,L1,Top,Signal*
%FSLAX46Y46*%
G04 Gerber Fmt 4.6, Leading zero omitted, Abs format (unit mm)*
G04 Created by KiCad (PCBNEW 4.0.4-stable) date 10/04/16 21:15:39*
%MOMM*%
%LPD*%
G01*
G04 APERTURE LIST*
%ADD10C,0.100000*%
%ADD11R,1.250000X3.100000*%
%ADD12R,2.301240X0.500380*%
%ADD13R,2.499360X1.998980*%
%ADD14R,1.250000X1.000000*%
%ADD15R,1.524000X2.032000*%
%ADD16R,1.000000X3.500000*%
%ADD17R,1.600000X3.400000*%
%ADD18R,0.700000X1.300000*%
%ADD19R,1.300000X0.700000*%
%ADD20R,2.750000X1.000000*%
%ADD21R,3.657600X2.032000*%
%ADD22R,1.016000X2.032000*%
%ADD23R,1.727200X2.032000*%
%ADD24O,1.727200X2.032000*%
%ADD25C,5.000000*%
%ADD26C,3.500000*%
%ADD27C,0.600000*%
%ADD28C,0.500000*%
%ADD29C,0.250000*%
G04 APERTURE END LIST*
D10*
D11*
X137312400Y-85503000D03*
X135280400Y-85553800D03*
X133197600Y-85630000D03*
X131216400Y-85604600D03*
X129184400Y-85630000D03*
X127203200Y-85604600D03*
X125196600Y-85630000D03*
X137274300Y-100941100D03*
X135191500Y-101017300D03*
X133210300Y-101017300D03*
X131191000Y-101030000D03*
X129159000Y-101030000D03*
X127254000Y-101030000D03*
X125222000Y-101030000D03*
X123190000Y-101030000D03*
X123190000Y-85630000D03*
D12*
X158856680Y-97612200D03*
X158856680Y-96812100D03*
X158856680Y-96012000D03*
X158856680Y-95211900D03*
X158856680Y-94411800D03*
D13*
X158955740Y-100462080D03*
X164454840Y-100462080D03*
X158955740Y-91561920D03*
X164454840Y-91561920D03*
D14*
X157861000Y-104664000D03*
X157861000Y-106664000D03*
X154279600Y-104664000D03*
X154279600Y-106664000D03*
X148437600Y-106664000D03*
X148437600Y-104664000D03*
X138277600Y-106206800D03*
X138277600Y-104206800D03*
D15*
X160401000Y-104648000D03*
X163703000Y-104648000D03*
D16*
X153479000Y-92945000D03*
X151479000Y-92945000D03*
X149479000Y-92945000D03*
X147479000Y-92945000D03*
X145479000Y-92945000D03*
D17*
X155879000Y-87395000D03*
X143079000Y-87395000D03*
D18*
X136484400Y-103835200D03*
X134584400Y-103835200D03*
D19*
X140462000Y-87564000D03*
X140462000Y-85664000D03*
X140462000Y-91252000D03*
X140462000Y-93152000D03*
D20*
X149017000Y-102076000D03*
X154767000Y-102076000D03*
X154767000Y-98076000D03*
X149017000Y-98076000D03*
D21*
X143129000Y-98298000D03*
D22*
X143129000Y-104902000D03*
X145415000Y-104902000D03*
X140843000Y-104902000D03*
D23*
X124256800Y-105257600D03*
D24*
X126796800Y-105257600D03*
X129336800Y-105257600D03*
X131876800Y-105257600D03*
D25*
X162560000Y-86766400D03*
D26*
X119430800Y-105257600D03*
D27*
X150114000Y-88900000D03*
X136144000Y-88900000D03*
X125222000Y-88442800D03*
X123190000Y-88392000D03*
X140462000Y-94742000D03*
X145542000Y-101219000D03*
X131165600Y-90068400D03*
D28*
X140843000Y-104902000D02*
X140843000Y-106095800D01*
X140843000Y-106095800D02*
X141782800Y-107035600D01*
X138277600Y-106206800D02*
X138277600Y-106222800D01*
X138277600Y-106222800D02*
X139090400Y-107035600D01*
X139090400Y-107035600D02*
X141782800Y-107035600D01*
X141782800Y-107035600D02*
X148066000Y-107035600D01*
X148066000Y-107035600D02*
X148437600Y-106664000D01*
X154279600Y-106664000D02*
X148437600Y-106664000D01*
X124256800Y-105257600D02*
X124256800Y-105714800D01*
X124256800Y-105714800D02*
X125933200Y-107391200D01*
X125933200Y-107391200D02*
X137093200Y-107391200D01*
X137093200Y-107391200D02*
X138277600Y-106206800D01*
X145479000Y-92945000D02*
X145479000Y-89725000D01*
X145479000Y-89725000D02*
X145542000Y-89662000D01*
X158955740Y-91561920D02*
X158955740Y-89994740D01*
X157224284Y-84580284D02*
X150496763Y-84580284D01*
X157988000Y-85344000D02*
X157224284Y-84580284D01*
X157988000Y-89027000D02*
X157988000Y-85344000D01*
X158955740Y-89994740D02*
X157988000Y-89027000D01*
X158856680Y-94411800D02*
X158856680Y-91660980D01*
X158856680Y-91660980D02*
X158955740Y-91561920D01*
X164454840Y-91561920D02*
X158955740Y-91561920D01*
X164454840Y-100462080D02*
X164454840Y-91561920D01*
X158955740Y-100462080D02*
X164454840Y-100462080D01*
X154686000Y-106664000D02*
X157861000Y-106664000D01*
X145272000Y-93152000D02*
X145479000Y-92945000D01*
X137190000Y-86330000D02*
X139664000Y-86330000D01*
X140462000Y-85532000D02*
X141290000Y-85532000D01*
X141351000Y-84455000D02*
X150496763Y-84580284D01*
X141290000Y-85532000D02*
X141351000Y-84455000D01*
X139664000Y-86330000D02*
X140462000Y-85532000D01*
X150496763Y-84580284D02*
X150622000Y-84582000D01*
X145860000Y-89344000D02*
X150622000Y-84582000D01*
X143952000Y-91252000D02*
X145542000Y-89662000D01*
X140462000Y-91252000D02*
X143952000Y-91252000D01*
X145542000Y-89662000D02*
X145860000Y-89344000D01*
X145415000Y-104902000D02*
X146507200Y-104902000D01*
X146745200Y-104664000D02*
X148437600Y-104664000D01*
X146507200Y-104902000D02*
X146745200Y-104664000D01*
X154279600Y-104664000D02*
X148437600Y-104664000D01*
X160782000Y-104648000D02*
X157877000Y-104648000D01*
X157877000Y-104648000D02*
X157861000Y-104664000D01*
X154686000Y-104664000D02*
X155321000Y-104664000D01*
X155321000Y-104664000D02*
X156099000Y-104664000D01*
X156099000Y-104664000D02*
X157861000Y-104664000D01*
X137274300Y-100241100D02*
X137833100Y-100241100D01*
X137833100Y-100241100D02*
X139827000Y-102235000D01*
X136484400Y-103835200D02*
X137906000Y-103835200D01*
X137906000Y-103835200D02*
X138277600Y-104206800D01*
X138277600Y-104206800D02*
X138277600Y-103632000D01*
X139674600Y-102235000D02*
X139827000Y-102235000D01*
X139827000Y-102235000D02*
X142621000Y-102235000D01*
X138277600Y-103632000D02*
X139674600Y-102235000D01*
X137906000Y-103835200D02*
X138277600Y-104206800D01*
X142621000Y-102235000D02*
X142621000Y-102362000D01*
X142621000Y-102362000D02*
X143129000Y-102870000D01*
X142621000Y-102235000D02*
X142621000Y-102108000D01*
X142621000Y-102108000D02*
X143129000Y-101600000D01*
X142621000Y-102235000D02*
X143129000Y-102235000D01*
X143129000Y-98298000D02*
X143129000Y-101600000D01*
X143129000Y-101600000D02*
X143129000Y-102235000D01*
X143129000Y-102235000D02*
X143129000Y-102870000D01*
X143129000Y-102870000D02*
X143129000Y-104902000D01*
X149017000Y-98076000D02*
X154767000Y-98076000D01*
X143129000Y-98298000D02*
X148795000Y-98298000D01*
X148795000Y-98298000D02*
X149017000Y-98076000D01*
X154767000Y-98076000D02*
X154767000Y-94233000D01*
X154767000Y-94233000D02*
X153479000Y-92945000D01*
X163703000Y-104648000D02*
X163703000Y-103047800D01*
X157353000Y-97612200D02*
X158856680Y-97612200D01*
X156972000Y-97993200D02*
X157353000Y-97612200D01*
X156972000Y-102057200D02*
X156972000Y-97993200D01*
X157429200Y-102514400D02*
X156972000Y-102057200D01*
X163169600Y-102514400D02*
X157429200Y-102514400D01*
X163703000Y-103047800D02*
X163169600Y-102514400D01*
X158856680Y-97612200D02*
X158038800Y-97612200D01*
X158856680Y-97612200D02*
X158673800Y-97612200D01*
D29*
X135190000Y-86330000D02*
X135190000Y-87946000D01*
X151479000Y-90265000D02*
X151479000Y-92945000D01*
X150114000Y-88900000D02*
X151479000Y-90265000D01*
X135190000Y-87946000D02*
X136144000Y-88900000D01*
X133190000Y-100330000D02*
X133190000Y-97061000D01*
X149479000Y-95631000D02*
X149479000Y-92945000D01*
X148590000Y-96520000D02*
X149479000Y-95631000D01*
X133731000Y-96520000D02*
X148590000Y-96520000D01*
X133190000Y-97061000D02*
X133731000Y-96520000D01*
X147479000Y-92945000D02*
X147479000Y-95345000D01*
X131190000Y-96648000D02*
X131190000Y-100330000D01*
X132080000Y-95758000D02*
X131190000Y-96648000D01*
X147066000Y-95758000D02*
X132080000Y-95758000D01*
X147479000Y-95345000D02*
X147066000Y-95758000D01*
X125222000Y-100330000D02*
X125222000Y-102920800D01*
X134076400Y-103327200D02*
X134584400Y-103835200D01*
X125628400Y-103327200D02*
X134076400Y-103327200D01*
X125222000Y-102920800D02*
X125628400Y-103327200D01*
X140462000Y-87564000D02*
X140462000Y-88138000D01*
X133190000Y-88740000D02*
X133190000Y-86330000D01*
X135128000Y-90678000D02*
X133190000Y-88740000D01*
X137922000Y-90678000D02*
X135128000Y-90678000D01*
X140462000Y-88138000D02*
X137922000Y-90678000D01*
X125190000Y-86330000D02*
X125190000Y-88410800D01*
X125190000Y-88410800D02*
X125222000Y-88442800D01*
X123190000Y-88392000D02*
X123190000Y-86330000D01*
X127190000Y-86330000D02*
X127190000Y-88709000D01*
X131633000Y-93152000D02*
X140462000Y-93152000D01*
X127190000Y-88709000D02*
X131633000Y-93152000D01*
X149017000Y-102076000D02*
X146399000Y-102076000D01*
X140462000Y-94742000D02*
X140462000Y-93152000D01*
X146399000Y-102076000D02*
X145542000Y-101219000D01*
X154767000Y-102076000D02*
X149017000Y-102076000D01*
X131165600Y-90068400D02*
X131190000Y-90044000D01*
X131190000Y-90044000D02*
X131190000Y-86330000D01*
M02*
