G04 #@! TF.FileFunction,Copper,L2,Bot,Signal*
%FSLAX46Y46*%
G04 Gerber Fmt 4.6, Leading zero omitted, Abs format (unit mm)*
G04 Created by KiCad (PCBNEW 4.0.4-stable) date 10/15/16 21:45:22*
%MOMM*%
%LPD*%
G01*
G04 APERTURE LIST*
%ADD10C,0.100000*%
%ADD11R,2.032000X1.727200*%
%ADD12O,2.032000X1.727200*%
%ADD13R,1.727200X2.032000*%
%ADD14O,1.727200X2.032000*%
%ADD15C,0.600000*%
%ADD16C,0.500000*%
%ADD17C,0.250000*%
G04 APERTURE END LIST*
D10*
D11*
X135686800Y-122021600D03*
D12*
X135686800Y-119481600D03*
X135686800Y-116941600D03*
D11*
X143052800Y-119786400D03*
D12*
X143052800Y-117246400D03*
X143052800Y-114706400D03*
X143052800Y-112166400D03*
D13*
X124256800Y-105257600D03*
D14*
X126796800Y-105257600D03*
X129336800Y-105257600D03*
X131876800Y-105257600D03*
D15*
X156108400Y-87528400D03*
X160274000Y-102971600D03*
X135585200Y-88646000D03*
X151790400Y-90830400D03*
X125222000Y-88442800D03*
X123190000Y-88392000D03*
X140462000Y-94742000D03*
X145542000Y-101219000D03*
X131165600Y-90068400D03*
X154838400Y-124053600D03*
X148183600Y-117754400D03*
X150266400Y-114350800D03*
X153670000Y-122275600D03*
X122580400Y-121412000D03*
X152196800Y-121920000D03*
X154279600Y-114655600D03*
D16*
X156108400Y-101854000D02*
X156108400Y-87528400D01*
X159004000Y-104749600D02*
X156108400Y-101854000D01*
X159512000Y-104749600D02*
X159004000Y-104749600D01*
X160223200Y-104038400D02*
X159512000Y-104749600D01*
X160223200Y-103022400D02*
X160223200Y-104038400D01*
X160274000Y-102971600D02*
X160223200Y-103022400D01*
D17*
X135686800Y-88747600D02*
X135585200Y-88646000D01*
X149707600Y-88747600D02*
X135686800Y-88747600D01*
X151790400Y-90830400D02*
X149707600Y-88747600D01*
X128219200Y-104140000D02*
X129336800Y-105257600D01*
X128219200Y-91440000D02*
X128219200Y-104140000D01*
X125222000Y-88442800D02*
X128219200Y-91440000D01*
X126796800Y-105257600D02*
X126796800Y-103124000D01*
X126187200Y-91389200D02*
X123190000Y-88392000D01*
X126187200Y-102514400D02*
X126187200Y-91389200D01*
X126796800Y-103124000D02*
X126187200Y-102514400D01*
X140462000Y-96139000D02*
X140462000Y-94742000D01*
X145542000Y-101219000D02*
X140462000Y-96139000D01*
X131876800Y-105257600D02*
X131876800Y-104292400D01*
X131876800Y-104292400D02*
X130200400Y-102616000D01*
X130200400Y-102616000D02*
X130200400Y-91033600D01*
X130200400Y-91033600D02*
X131165600Y-90068400D01*
X154076400Y-123291600D02*
X152654000Y-123291600D01*
X154838400Y-124053600D02*
X154076400Y-123291600D01*
X148183600Y-117754400D02*
X150012400Y-115773200D01*
X150266400Y-114350800D02*
X150012400Y-114604800D01*
X150012400Y-114604800D02*
X150012400Y-115773200D01*
X153670000Y-122275600D02*
X152654000Y-123291600D01*
X146558000Y-123291600D02*
X143052800Y-119786400D01*
X152654000Y-123291600D02*
X146558000Y-123291600D01*
X124510800Y-119481600D02*
X135686800Y-119481600D01*
X122580400Y-121412000D02*
X124510800Y-119481600D01*
X155092400Y-119024400D02*
X152196800Y-121920000D01*
X155092400Y-115468400D02*
X155092400Y-119024400D01*
X154279600Y-114655600D02*
X155092400Y-115468400D01*
M02*
