M48
;DRILL file {KiCad 4.0.4-stable} date 10/15/16 21:45:25
;FORMAT={-:-/ absolute / inch / decimal}
FMAT,2
INCH,TZ
T1C0.016
T2C0.040
%
G90
G05
M72
T1
X4.826Y-4.78
X4.85Y-3.48
X4.93Y-3.482
X5.164Y-3.546
X5.338Y-3.49
X5.53Y-3.73
X5.73Y-3.985
X5.834Y-4.636
X5.916Y-4.502
X5.976Y-3.576
X5.992Y-4.8
X6.05Y-4.814
X6.074Y-4.514
X6.096Y-4.884
X6.146Y-3.446
X6.31Y-4.054
T2
X4.892Y-4.144
X4.992Y-4.144
X5.092Y-4.144
X5.192Y-4.144
X5.342Y-4.604
X5.342Y-4.704
X5.342Y-4.804
X5.632Y-4.416
X5.632Y-4.516
X5.632Y-4.616
X5.632Y-4.716
T0
M30
