G04 #@! TF.FileFunction,Copper,L2,Bot,Signal*
%FSLAX46Y46*%
G04 Gerber Fmt 4.6, Leading zero omitted, Abs format (unit mm)*
G04 Created by KiCad (PCBNEW 4.0.4-stable) date 10/04/16 21:15:39*
%MOMM*%
%LPD*%
G01*
G04 APERTURE LIST*
%ADD10C,0.100000*%
%ADD11R,1.727200X2.032000*%
%ADD12O,1.727200X2.032000*%
%ADD13C,5.000000*%
%ADD14C,3.500000*%
%ADD15C,0.600000*%
%ADD16C,0.250000*%
G04 APERTURE END LIST*
D10*
D11*
X124256800Y-105257600D03*
D12*
X126796800Y-105257600D03*
X129336800Y-105257600D03*
X131876800Y-105257600D03*
D13*
X162560000Y-86766400D03*
D14*
X119430800Y-105257600D03*
D15*
X150114000Y-88900000D03*
X136144000Y-88900000D03*
X125222000Y-88442800D03*
X123190000Y-88392000D03*
X140462000Y-94742000D03*
X145542000Y-101219000D03*
X131165600Y-90068400D03*
D16*
X136144000Y-88900000D02*
X150114000Y-88900000D01*
X128219200Y-104140000D02*
X129336800Y-105257600D01*
X128219200Y-91440000D02*
X128219200Y-104140000D01*
X125222000Y-88442800D02*
X128219200Y-91440000D01*
X126796800Y-105257600D02*
X126796800Y-103124000D01*
X126187200Y-91389200D02*
X123190000Y-88392000D01*
X126187200Y-102514400D02*
X126187200Y-91389200D01*
X126796800Y-103124000D02*
X126187200Y-102514400D01*
X140462000Y-96139000D02*
X140462000Y-94742000D01*
X145542000Y-101219000D02*
X140462000Y-96139000D01*
X131876800Y-105257600D02*
X131876800Y-104292400D01*
X131876800Y-104292400D02*
X130200400Y-102616000D01*
X130200400Y-102616000D02*
X130200400Y-91033600D01*
X130200400Y-91033600D02*
X131165600Y-90068400D01*
M02*
