G04 #@! TF.FileFunction,Legend,Top*
%FSLAX46Y46*%
G04 Gerber Fmt 4.6, Leading zero omitted, Abs format (unit mm)*
G04 Created by KiCad (PCBNEW 4.0.4-stable) date 10/15/16 21:45:22*
%MOMM*%
%LPD*%
G01*
G04 APERTURE LIST*
%ADD10C,0.100000*%
%ADD11C,0.150000*%
%ADD12C,0.152400*%
G04 APERTURE END LIST*
D10*
D11*
X165752780Y-119369840D02*
X165752780Y-111668560D01*
X166753540Y-119369840D02*
X166753540Y-111668560D01*
X166753540Y-111668560D02*
X157553660Y-111668560D01*
X157553660Y-111668560D02*
X157553660Y-119369840D01*
X157553660Y-119369840D02*
X166753540Y-119369840D01*
X136956800Y-120751600D02*
X136956800Y-115671600D01*
X136956800Y-115671600D02*
X134416800Y-115671600D01*
X134416800Y-115671600D02*
X134416800Y-120751600D01*
X134136800Y-123571600D02*
X134136800Y-122021600D01*
X134416800Y-120751600D02*
X136956800Y-120751600D01*
X137236800Y-122021600D02*
X137236800Y-123571600D01*
X137236800Y-123571600D02*
X134136800Y-123571600D01*
X155794600Y-113152200D02*
X155219600Y-113152200D01*
X155794600Y-118902200D02*
X155144600Y-118902200D01*
X145144600Y-118902200D02*
X145794600Y-118902200D01*
X145144600Y-113152200D02*
X145794600Y-113152200D01*
X155794600Y-113152200D02*
X155794600Y-118902200D01*
X145144600Y-113152200D02*
X145144600Y-118902200D01*
X155219600Y-113152200D02*
X155219600Y-111552200D01*
X144322800Y-118516400D02*
X144322800Y-110896400D01*
X141782800Y-118516400D02*
X141782800Y-110896400D01*
X141502800Y-121336400D02*
X141502800Y-119786400D01*
X144322800Y-110896400D02*
X141782800Y-110896400D01*
X141782800Y-118516400D02*
X144322800Y-118516400D01*
X144602800Y-119786400D02*
X144602800Y-121336400D01*
X144602800Y-121336400D02*
X141502800Y-121336400D01*
D12*
X116790000Y-101330000D02*
X116790000Y-85330000D01*
X116790000Y-85330000D02*
X122190000Y-85330000D01*
X116790000Y-101330000D02*
X122190000Y-101330000D01*
X137990000Y-101330000D02*
X138790000Y-101330000D01*
X138790000Y-101330000D02*
X138790000Y-85330000D01*
X138790000Y-85330000D02*
X137990000Y-85330000D01*
X116790000Y-85330000D02*
X120590000Y-101330000D01*
X116790000Y-101330000D02*
X120590000Y-85330000D01*
X120590000Y-101338000D02*
X120590000Y-85338000D01*
D11*
X165905180Y-99862640D02*
X165905180Y-92161360D01*
X166905940Y-99862640D02*
X166905940Y-92161360D01*
X166905940Y-92161360D02*
X157706060Y-92161360D01*
X157706060Y-92161360D02*
X157706060Y-99862640D01*
X157706060Y-99862640D02*
X166905940Y-99862640D01*
X155129600Y-106164000D02*
X155129600Y-105164000D01*
X153429600Y-105164000D02*
X153429600Y-106164000D01*
X147587600Y-105164000D02*
X147587600Y-106164000D01*
X149287600Y-106164000D02*
X149287600Y-105164000D01*
X137427600Y-104706800D02*
X137427600Y-105706800D01*
X139127600Y-105706800D02*
X139127600Y-104706800D01*
X134934400Y-102960200D02*
X136134400Y-102960200D01*
X136134400Y-104710200D02*
X134934400Y-104710200D01*
X141337000Y-86014000D02*
X141337000Y-87214000D01*
X139587000Y-87214000D02*
X139587000Y-86014000D01*
X139587000Y-92802000D02*
X139587000Y-91602000D01*
X141337000Y-91602000D02*
X141337000Y-92802000D01*
X148180800Y-103228400D02*
X148180800Y-103028400D01*
X148180800Y-97228400D02*
X148180800Y-97428400D01*
X154180800Y-97228400D02*
X154180800Y-97428400D01*
X154180800Y-103228400D02*
X154180800Y-103028400D01*
X154180800Y-101428400D02*
X154180800Y-99028400D01*
X148180800Y-101428400D02*
X148180800Y-99028400D01*
X148180800Y-103228400D02*
X154180800Y-103228400D01*
X154180800Y-97228400D02*
X148180800Y-97228400D01*
X152880800Y-100228400D02*
G75*
G03X152880800Y-100228400I-1700000J0D01*
G01*
X139573000Y-103124000D02*
X139573000Y-106172000D01*
X139573000Y-106172000D02*
X146685000Y-106172000D01*
X146685000Y-106172000D02*
X146685000Y-103124000D01*
X139573000Y-100076000D02*
X139573000Y-99314000D01*
X139573000Y-99314000D02*
X141097000Y-97028000D01*
X141097000Y-97028000D02*
X145161000Y-97028000D01*
X145161000Y-97028000D02*
X146685000Y-99314000D01*
X146685000Y-99314000D02*
X146685000Y-100076000D01*
X125526800Y-106527600D02*
X133146800Y-106527600D01*
X125526800Y-103987600D02*
X133146800Y-103987600D01*
X122706800Y-103707600D02*
X124256800Y-103707600D01*
X133146800Y-106527600D02*
X133146800Y-103987600D01*
X125526800Y-103987600D02*
X125526800Y-106527600D01*
X124256800Y-106807600D02*
X122706800Y-106807600D01*
X122706800Y-106807600D02*
X122706800Y-103707600D01*
X162980000Y-123502800D02*
X162980000Y-124502800D01*
X164680000Y-124502800D02*
X164680000Y-123502800D01*
X155969600Y-123502800D02*
X155969600Y-124502800D01*
X157669600Y-124502800D02*
X157669600Y-123502800D01*
X159131000Y-126898400D02*
X159131000Y-127152400D01*
X159131000Y-127152400D02*
X161417000Y-127152400D01*
X161417000Y-127152400D02*
X161417000Y-126898400D01*
X159131000Y-126898400D02*
X161417000Y-126898400D01*
X161417000Y-126898400D02*
X161417000Y-125247400D01*
X159131000Y-123469400D02*
X159131000Y-121818400D01*
X159131000Y-121818400D02*
X161417000Y-121818400D01*
X161417000Y-121818400D02*
X161417000Y-123469400D01*
X159131000Y-125247400D02*
X159131000Y-126898400D01*
X143064200Y-123860000D02*
X143064200Y-125060000D01*
X141314200Y-125060000D02*
X141314200Y-123860000D01*
X152614600Y-123758400D02*
X152614600Y-124958400D01*
X150864600Y-124958400D02*
X150864600Y-123758400D01*
X144538000Y-122809200D02*
X144538000Y-125509200D01*
X146038000Y-122809200D02*
X146038000Y-125509200D01*
X145138000Y-124309200D02*
X145388000Y-124309200D01*
X145388000Y-124309200D02*
X145238000Y-124159200D01*
X145638000Y-124059200D02*
X144938000Y-124059200D01*
X145288000Y-124409200D02*
X145288000Y-124759200D01*
X145288000Y-124059200D02*
X145638000Y-124409200D01*
X145638000Y-124409200D02*
X144938000Y-124409200D01*
X144938000Y-124409200D02*
X145288000Y-124059200D01*
X147179600Y-122809200D02*
X147179600Y-125509200D01*
X148679600Y-122809200D02*
X148679600Y-125509200D01*
X147779600Y-124309200D02*
X148029600Y-124309200D01*
X148029600Y-124309200D02*
X147879600Y-124159200D01*
X148279600Y-124059200D02*
X147579600Y-124059200D01*
X147929600Y-124409200D02*
X147929600Y-124759200D01*
X147929600Y-124059200D02*
X148279600Y-124409200D01*
X148279600Y-124409200D02*
X147579600Y-124409200D01*
X147579600Y-124409200D02*
X147929600Y-124059200D01*
X127828600Y-121404200D02*
X127878600Y-121404200D01*
X127828600Y-117254200D02*
X127973600Y-117254200D01*
X132978600Y-117254200D02*
X132833600Y-117254200D01*
X132978600Y-121404200D02*
X132833600Y-121404200D01*
X127828600Y-121404200D02*
X127828600Y-117254200D01*
X132978600Y-121404200D02*
X132978600Y-117254200D01*
X127878600Y-121404200D02*
X127878600Y-122804200D01*
X142620400Y-94924400D02*
X144170400Y-94924400D01*
X142620400Y-93624400D02*
X142620400Y-94924400D01*
X144043400Y-89433400D02*
X144043400Y-83591400D01*
X144043400Y-83591400D02*
X144297400Y-83591400D01*
X144297400Y-83591400D02*
X144297400Y-89433400D01*
X144297400Y-89433400D02*
X144170400Y-89433400D01*
X144170400Y-89433400D02*
X144170400Y-83591400D01*
X143916400Y-92100400D02*
X143916400Y-92481400D01*
X144424400Y-92100400D02*
X144424400Y-92481400D01*
X146456400Y-92100400D02*
X146456400Y-92481400D01*
X146964400Y-92100400D02*
X146964400Y-92481400D01*
X148996400Y-92100400D02*
X148996400Y-92481400D01*
X149504400Y-92100400D02*
X149504400Y-92481400D01*
X151536400Y-92100400D02*
X151536400Y-92481400D01*
X152044400Y-92100400D02*
X152044400Y-92481400D01*
X154584400Y-92100400D02*
X154584400Y-92481400D01*
X154076400Y-92100400D02*
X154076400Y-92481400D01*
X145440400Y-89560400D02*
X142900400Y-89560400D01*
X144424400Y-83464400D02*
X144424400Y-89560400D01*
X143916400Y-83464400D02*
X144424400Y-83464400D01*
X143916400Y-89560400D02*
X143916400Y-83464400D01*
X145440400Y-92100400D02*
X145440400Y-89560400D01*
X142900400Y-92100400D02*
X145440400Y-92100400D01*
X142900400Y-92100400D02*
X142900400Y-89560400D01*
X147980400Y-92100400D02*
X147980400Y-89560400D01*
X147980400Y-92100400D02*
X150520400Y-92100400D01*
X150520400Y-92100400D02*
X150520400Y-89560400D01*
X148996400Y-89560400D02*
X148996400Y-83464400D01*
X148996400Y-83464400D02*
X149504400Y-83464400D01*
X149504400Y-83464400D02*
X149504400Y-89560400D01*
X150520400Y-89560400D02*
X147980400Y-89560400D01*
X147980400Y-89560400D02*
X145440400Y-89560400D01*
X146964400Y-83464400D02*
X146964400Y-89560400D01*
X146456400Y-83464400D02*
X146964400Y-83464400D01*
X146456400Y-89560400D02*
X146456400Y-83464400D01*
X147980400Y-92100400D02*
X147980400Y-89560400D01*
X145440400Y-92100400D02*
X147980400Y-92100400D01*
X145440400Y-92100400D02*
X145440400Y-89560400D01*
X153060400Y-92100400D02*
X153060400Y-89560400D01*
X153060400Y-92100400D02*
X155600400Y-92100400D01*
X155600400Y-92100400D02*
X155600400Y-89560400D01*
X154076400Y-89560400D02*
X154076400Y-83464400D01*
X154076400Y-83464400D02*
X154584400Y-83464400D01*
X154584400Y-83464400D02*
X154584400Y-89560400D01*
X155600400Y-89560400D02*
X153060400Y-89560400D01*
X153060400Y-89560400D02*
X150520400Y-89560400D01*
X152044400Y-83464400D02*
X152044400Y-89560400D01*
X151536400Y-83464400D02*
X152044400Y-83464400D01*
X151536400Y-89560400D02*
X151536400Y-83464400D01*
X153060400Y-92100400D02*
X153060400Y-89560400D01*
X150520400Y-92100400D02*
X153060400Y-92100400D01*
X150520400Y-92100400D02*
X150520400Y-89560400D01*
X126674400Y-125502000D02*
X126674400Y-123952000D01*
X125374400Y-125502000D02*
X126674400Y-125502000D01*
X121183400Y-124079000D02*
X115341400Y-124079000D01*
X115341400Y-124079000D02*
X115341400Y-123825000D01*
X115341400Y-123825000D02*
X121183400Y-123825000D01*
X121183400Y-123825000D02*
X121183400Y-123952000D01*
X121183400Y-123952000D02*
X115341400Y-123952000D01*
X123850400Y-124206000D02*
X124231400Y-124206000D01*
X123850400Y-123698000D02*
X124231400Y-123698000D01*
X123850400Y-121666000D02*
X124231400Y-121666000D01*
X123850400Y-121158000D02*
X124231400Y-121158000D01*
X123850400Y-119126000D02*
X124231400Y-119126000D01*
X123850400Y-118618000D02*
X124231400Y-118618000D01*
X123850400Y-116586000D02*
X124231400Y-116586000D01*
X123850400Y-116078000D02*
X124231400Y-116078000D01*
X123850400Y-113538000D02*
X124231400Y-113538000D01*
X123850400Y-114046000D02*
X124231400Y-114046000D01*
X121310400Y-122682000D02*
X121310400Y-125222000D01*
X115214400Y-123698000D02*
X121310400Y-123698000D01*
X115214400Y-124206000D02*
X115214400Y-123698000D01*
X121310400Y-124206000D02*
X115214400Y-124206000D01*
X123850400Y-122682000D02*
X121310400Y-122682000D01*
X123850400Y-125222000D02*
X123850400Y-122682000D01*
X123850400Y-125222000D02*
X121310400Y-125222000D01*
X123850400Y-120142000D02*
X121310400Y-120142000D01*
X123850400Y-120142000D02*
X123850400Y-117602000D01*
X123850400Y-117602000D02*
X121310400Y-117602000D01*
X121310400Y-119126000D02*
X115214400Y-119126000D01*
X115214400Y-119126000D02*
X115214400Y-118618000D01*
X115214400Y-118618000D02*
X121310400Y-118618000D01*
X121310400Y-117602000D02*
X121310400Y-120142000D01*
X121310400Y-120142000D02*
X121310400Y-122682000D01*
X115214400Y-121158000D02*
X121310400Y-121158000D01*
X115214400Y-121666000D02*
X115214400Y-121158000D01*
X121310400Y-121666000D02*
X115214400Y-121666000D01*
X123850400Y-120142000D02*
X121310400Y-120142000D01*
X123850400Y-122682000D02*
X123850400Y-120142000D01*
X123850400Y-122682000D02*
X121310400Y-122682000D01*
X123850400Y-115062000D02*
X121310400Y-115062000D01*
X123850400Y-115062000D02*
X123850400Y-112522000D01*
X123850400Y-112522000D02*
X121310400Y-112522000D01*
X121310400Y-114046000D02*
X115214400Y-114046000D01*
X115214400Y-114046000D02*
X115214400Y-113538000D01*
X115214400Y-113538000D02*
X121310400Y-113538000D01*
X121310400Y-112522000D02*
X121310400Y-115062000D01*
X121310400Y-115062000D02*
X121310400Y-117602000D01*
X115214400Y-116078000D02*
X121310400Y-116078000D01*
X115214400Y-116586000D02*
X115214400Y-116078000D01*
X121310400Y-116586000D02*
X115214400Y-116586000D01*
X123850400Y-115062000D02*
X121310400Y-115062000D01*
X123850400Y-117602000D02*
X123850400Y-115062000D01*
X123850400Y-117602000D02*
X121310400Y-117602000D01*
X126299981Y-94284705D02*
X127109505Y-94284705D01*
X127204743Y-94237086D01*
X127252362Y-94189467D01*
X127299981Y-94094229D01*
X127299981Y-93903752D01*
X127252362Y-93808514D01*
X127204743Y-93760895D01*
X127109505Y-93713276D01*
X126299981Y-93713276D01*
X127299981Y-92713276D02*
X127299981Y-93284705D01*
X127299981Y-92998991D02*
X126299981Y-92998991D01*
X126442838Y-93094229D01*
X126538076Y-93189467D01*
X126585695Y-93284705D01*
X118242381Y-97152286D02*
X117242381Y-97152286D01*
X118242381Y-96580857D01*
X117242381Y-96580857D01*
X118242381Y-95961810D02*
X118194762Y-96057048D01*
X118147143Y-96104667D01*
X118051905Y-96152286D01*
X117766190Y-96152286D01*
X117670952Y-96104667D01*
X117623333Y-96057048D01*
X117575714Y-95961810D01*
X117575714Y-95818952D01*
X117623333Y-95723714D01*
X117670952Y-95676095D01*
X117766190Y-95628476D01*
X118051905Y-95628476D01*
X118147143Y-95676095D01*
X118194762Y-95723714D01*
X118242381Y-95818952D01*
X118242381Y-95961810D01*
X118147143Y-93866571D02*
X118194762Y-93914190D01*
X118242381Y-94057047D01*
X118242381Y-94152285D01*
X118194762Y-94295143D01*
X118099524Y-94390381D01*
X118004286Y-94438000D01*
X117813810Y-94485619D01*
X117670952Y-94485619D01*
X117480476Y-94438000D01*
X117385238Y-94390381D01*
X117290000Y-94295143D01*
X117242381Y-94152285D01*
X117242381Y-94057047D01*
X117290000Y-93914190D01*
X117337619Y-93866571D01*
X118242381Y-93295143D02*
X118194762Y-93390381D01*
X118147143Y-93438000D01*
X118051905Y-93485619D01*
X117766190Y-93485619D01*
X117670952Y-93438000D01*
X117623333Y-93390381D01*
X117575714Y-93295143D01*
X117575714Y-93152285D01*
X117623333Y-93057047D01*
X117670952Y-93009428D01*
X117766190Y-92961809D01*
X118051905Y-92961809D01*
X118147143Y-93009428D01*
X118194762Y-93057047D01*
X118242381Y-93152285D01*
X118242381Y-93295143D01*
X117575714Y-92533238D02*
X118575714Y-92533238D01*
X117623333Y-92533238D02*
X117575714Y-92438000D01*
X117575714Y-92247523D01*
X117623333Y-92152285D01*
X117670952Y-92104666D01*
X117766190Y-92057047D01*
X118051905Y-92057047D01*
X118147143Y-92104666D01*
X118194762Y-92152285D01*
X118242381Y-92247523D01*
X118242381Y-92438000D01*
X118194762Y-92533238D01*
X117575714Y-91628476D02*
X118575714Y-91628476D01*
X117623333Y-91628476D02*
X117575714Y-91533238D01*
X117575714Y-91342761D01*
X117623333Y-91247523D01*
X117670952Y-91199904D01*
X117766190Y-91152285D01*
X118051905Y-91152285D01*
X118147143Y-91199904D01*
X118194762Y-91247523D01*
X118242381Y-91342761D01*
X118242381Y-91533238D01*
X118194762Y-91628476D01*
X118194762Y-90342761D02*
X118242381Y-90437999D01*
X118242381Y-90628476D01*
X118194762Y-90723714D01*
X118099524Y-90771333D01*
X117718571Y-90771333D01*
X117623333Y-90723714D01*
X117575714Y-90628476D01*
X117575714Y-90437999D01*
X117623333Y-90342761D01*
X117718571Y-90295142D01*
X117813810Y-90295142D01*
X117909048Y-90771333D01*
X118242381Y-89866571D02*
X117575714Y-89866571D01*
X117766190Y-89866571D02*
X117670952Y-89818952D01*
X117623333Y-89771333D01*
X117575714Y-89676095D01*
X117575714Y-89580856D01*
X161059905Y-96565981D02*
X161059905Y-95565981D01*
X161440858Y-95565981D01*
X161536096Y-95613600D01*
X161583715Y-95661219D01*
X161631334Y-95756457D01*
X161631334Y-95899314D01*
X161583715Y-95994552D01*
X161536096Y-96042171D01*
X161440858Y-96089790D01*
X161059905Y-96089790D01*
X162583715Y-96565981D02*
X162012286Y-96565981D01*
X162298000Y-96565981D02*
X162298000Y-95565981D01*
X162202762Y-95708838D01*
X162107524Y-95804076D01*
X162012286Y-95851695D01*
X156414743Y-105830666D02*
X156462362Y-105878285D01*
X156509981Y-106021142D01*
X156509981Y-106116380D01*
X156462362Y-106259238D01*
X156367124Y-106354476D01*
X156271886Y-106402095D01*
X156081410Y-106449714D01*
X155938552Y-106449714D01*
X155748076Y-106402095D01*
X155652838Y-106354476D01*
X155557600Y-106259238D01*
X155509981Y-106116380D01*
X155509981Y-106021142D01*
X155557600Y-105878285D01*
X155605219Y-105830666D01*
X155605219Y-105449714D02*
X155557600Y-105402095D01*
X155509981Y-105306857D01*
X155509981Y-105068761D01*
X155557600Y-104973523D01*
X155605219Y-104925904D01*
X155700457Y-104878285D01*
X155795695Y-104878285D01*
X155938552Y-104925904D01*
X156509981Y-105497333D01*
X156509981Y-104878285D01*
X150572743Y-105881466D02*
X150620362Y-105929085D01*
X150667981Y-106071942D01*
X150667981Y-106167180D01*
X150620362Y-106310038D01*
X150525124Y-106405276D01*
X150429886Y-106452895D01*
X150239410Y-106500514D01*
X150096552Y-106500514D01*
X149906076Y-106452895D01*
X149810838Y-106405276D01*
X149715600Y-106310038D01*
X149667981Y-106167180D01*
X149667981Y-106071942D01*
X149715600Y-105929085D01*
X149763219Y-105881466D01*
X149667981Y-105548133D02*
X149667981Y-104929085D01*
X150048933Y-105262419D01*
X150048933Y-105119561D01*
X150096552Y-105024323D01*
X150144171Y-104976704D01*
X150239410Y-104929085D01*
X150477505Y-104929085D01*
X150572743Y-104976704D01*
X150620362Y-105024323D01*
X150667981Y-105119561D01*
X150667981Y-105405276D01*
X150620362Y-105500514D01*
X150572743Y-105548133D01*
X140041334Y-107392743D02*
X139993715Y-107440362D01*
X139850858Y-107487981D01*
X139755620Y-107487981D01*
X139612762Y-107440362D01*
X139517524Y-107345124D01*
X139469905Y-107249886D01*
X139422286Y-107059410D01*
X139422286Y-106916552D01*
X139469905Y-106726076D01*
X139517524Y-106630838D01*
X139612762Y-106535600D01*
X139755620Y-106487981D01*
X139850858Y-106487981D01*
X139993715Y-106535600D01*
X140041334Y-106583219D01*
X140898477Y-106821314D02*
X140898477Y-107487981D01*
X140660381Y-106440362D02*
X140422286Y-107154648D01*
X141041334Y-107154648D01*
X135367734Y-106065581D02*
X135034400Y-105589390D01*
X134796305Y-106065581D02*
X134796305Y-105065581D01*
X135177258Y-105065581D01*
X135272496Y-105113200D01*
X135320115Y-105160819D01*
X135367734Y-105256057D01*
X135367734Y-105398914D01*
X135320115Y-105494152D01*
X135272496Y-105541771D01*
X135177258Y-105589390D01*
X134796305Y-105589390D01*
X136320115Y-106065581D02*
X135748686Y-106065581D01*
X136034400Y-106065581D02*
X136034400Y-105065581D01*
X135939162Y-105208438D01*
X135843924Y-105303676D01*
X135748686Y-105351295D01*
X140295334Y-84831181D02*
X139962000Y-84354990D01*
X139723905Y-84831181D02*
X139723905Y-83831181D01*
X140104858Y-83831181D01*
X140200096Y-83878800D01*
X140247715Y-83926419D01*
X140295334Y-84021657D01*
X140295334Y-84164514D01*
X140247715Y-84259752D01*
X140200096Y-84307371D01*
X140104858Y-84354990D01*
X139723905Y-84354990D01*
X140676286Y-83926419D02*
X140723905Y-83878800D01*
X140819143Y-83831181D01*
X141057239Y-83831181D01*
X141152477Y-83878800D01*
X141200096Y-83926419D01*
X141247715Y-84021657D01*
X141247715Y-84116895D01*
X141200096Y-84259752D01*
X140628667Y-84831181D01*
X141247715Y-84831181D01*
X140295334Y-90368381D02*
X139962000Y-89892190D01*
X139723905Y-90368381D02*
X139723905Y-89368381D01*
X140104858Y-89368381D01*
X140200096Y-89416000D01*
X140247715Y-89463619D01*
X140295334Y-89558857D01*
X140295334Y-89701714D01*
X140247715Y-89796952D01*
X140200096Y-89844571D01*
X140104858Y-89892190D01*
X139723905Y-89892190D01*
X140628667Y-89368381D02*
X141247715Y-89368381D01*
X140914381Y-89749333D01*
X141057239Y-89749333D01*
X141152477Y-89796952D01*
X141200096Y-89844571D01*
X141247715Y-89939810D01*
X141247715Y-90177905D01*
X141200096Y-90273143D01*
X141152477Y-90320762D01*
X141057239Y-90368381D01*
X140771524Y-90368381D01*
X140676286Y-90320762D01*
X140628667Y-90273143D01*
X149847467Y-100760162D02*
X149990324Y-100807781D01*
X150228420Y-100807781D01*
X150323658Y-100760162D01*
X150371277Y-100712543D01*
X150418896Y-100617305D01*
X150418896Y-100522067D01*
X150371277Y-100426829D01*
X150323658Y-100379210D01*
X150228420Y-100331590D01*
X150037943Y-100283971D01*
X149942705Y-100236352D01*
X149895086Y-100188733D01*
X149847467Y-100093495D01*
X149847467Y-99998257D01*
X149895086Y-99903019D01*
X149942705Y-99855400D01*
X150037943Y-99807781D01*
X150276039Y-99807781D01*
X150418896Y-99855400D01*
X150752229Y-99807781D02*
X150990324Y-100807781D01*
X151180801Y-100093495D01*
X151371277Y-100807781D01*
X151609372Y-99807781D01*
X152514134Y-100807781D02*
X151942705Y-100807781D01*
X152228419Y-100807781D02*
X152228419Y-99807781D01*
X152133181Y-99950638D01*
X152037943Y-100045876D01*
X151942705Y-100093495D01*
X142367095Y-100290381D02*
X142367095Y-101099905D01*
X142414714Y-101195143D01*
X142462333Y-101242762D01*
X142557571Y-101290381D01*
X142748048Y-101290381D01*
X142843286Y-101242762D01*
X142890905Y-101195143D01*
X142938524Y-101099905D01*
X142938524Y-100290381D01*
X143367095Y-100385619D02*
X143414714Y-100338000D01*
X143509952Y-100290381D01*
X143748048Y-100290381D01*
X143843286Y-100338000D01*
X143890905Y-100385619D01*
X143938524Y-100480857D01*
X143938524Y-100576095D01*
X143890905Y-100718952D01*
X143319476Y-101290381D01*
X143938524Y-101290381D01*
X122629705Y-103296981D02*
X122629705Y-102296981D01*
X123010658Y-102296981D01*
X123105896Y-102344600D01*
X123153515Y-102392219D01*
X123201134Y-102487457D01*
X123201134Y-102630314D01*
X123153515Y-102725552D01*
X123105896Y-102773171D01*
X123010658Y-102820790D01*
X122629705Y-102820790D01*
X123534467Y-102296981D02*
X124153515Y-102296981D01*
X123820181Y-102677933D01*
X123963039Y-102677933D01*
X124058277Y-102725552D01*
X124105896Y-102773171D01*
X124153515Y-102868410D01*
X124153515Y-103106505D01*
X124105896Y-103201743D01*
X124058277Y-103249362D01*
X123963039Y-103296981D01*
X123677324Y-103296981D01*
X123582086Y-103249362D01*
X123534467Y-103201743D01*
X163612534Y-121921543D02*
X163564915Y-121969162D01*
X163422058Y-122016781D01*
X163326820Y-122016781D01*
X163183962Y-121969162D01*
X163088724Y-121873924D01*
X163041105Y-121778686D01*
X162993486Y-121588210D01*
X162993486Y-121445352D01*
X163041105Y-121254876D01*
X163088724Y-121159638D01*
X163183962Y-121064400D01*
X163326820Y-121016781D01*
X163422058Y-121016781D01*
X163564915Y-121064400D01*
X163612534Y-121112019D01*
X164517296Y-121016781D02*
X164041105Y-121016781D01*
X163993486Y-121492971D01*
X164041105Y-121445352D01*
X164136343Y-121397733D01*
X164374439Y-121397733D01*
X164469677Y-121445352D01*
X164517296Y-121492971D01*
X164564915Y-121588210D01*
X164564915Y-121826305D01*
X164517296Y-121921543D01*
X164469677Y-121969162D01*
X164374439Y-122016781D01*
X164136343Y-122016781D01*
X164041105Y-121969162D01*
X163993486Y-121921543D01*
X156602134Y-121921543D02*
X156554515Y-121969162D01*
X156411658Y-122016781D01*
X156316420Y-122016781D01*
X156173562Y-121969162D01*
X156078324Y-121873924D01*
X156030705Y-121778686D01*
X155983086Y-121588210D01*
X155983086Y-121445352D01*
X156030705Y-121254876D01*
X156078324Y-121159638D01*
X156173562Y-121064400D01*
X156316420Y-121016781D01*
X156411658Y-121016781D01*
X156554515Y-121064400D01*
X156602134Y-121112019D01*
X157459277Y-121016781D02*
X157268800Y-121016781D01*
X157173562Y-121064400D01*
X157125943Y-121112019D01*
X157030705Y-121254876D01*
X156983086Y-121445352D01*
X156983086Y-121826305D01*
X157030705Y-121921543D01*
X157078324Y-121969162D01*
X157173562Y-122016781D01*
X157364039Y-122016781D01*
X157459277Y-121969162D01*
X157506896Y-121921543D01*
X157554515Y-121826305D01*
X157554515Y-121588210D01*
X157506896Y-121492971D01*
X157459277Y-121445352D01*
X157364039Y-121397733D01*
X157173562Y-121397733D01*
X157078324Y-121445352D01*
X157030705Y-121492971D01*
X156983086Y-121588210D01*
X159991467Y-124337771D02*
X159658133Y-124337771D01*
X159658133Y-124861581D02*
X159658133Y-123861581D01*
X160134324Y-123861581D01*
X161039086Y-124861581D02*
X160467657Y-124861581D01*
X160753371Y-124861581D02*
X160753371Y-123861581D01*
X160658133Y-124004438D01*
X160562895Y-124099676D01*
X160467657Y-124147295D01*
X142073334Y-122727981D02*
X141740000Y-122251790D01*
X141501905Y-122727981D02*
X141501905Y-121727981D01*
X141882858Y-121727981D01*
X141978096Y-121775600D01*
X142025715Y-121823219D01*
X142073334Y-121918457D01*
X142073334Y-122061314D01*
X142025715Y-122156552D01*
X141978096Y-122204171D01*
X141882858Y-122251790D01*
X141501905Y-122251790D01*
X142930477Y-122061314D02*
X142930477Y-122727981D01*
X142692381Y-121680362D02*
X142454286Y-122394648D01*
X143073334Y-122394648D01*
X153868381Y-124525066D02*
X153392190Y-124858400D01*
X153868381Y-125096495D02*
X152868381Y-125096495D01*
X152868381Y-124715542D01*
X152916000Y-124620304D01*
X152963619Y-124572685D01*
X153058857Y-124525066D01*
X153201714Y-124525066D01*
X153296952Y-124572685D01*
X153344571Y-124620304D01*
X153392190Y-124715542D01*
X153392190Y-125096495D01*
X152868381Y-123620304D02*
X152868381Y-124096495D01*
X153344571Y-124144114D01*
X153296952Y-124096495D01*
X153249333Y-124001257D01*
X153249333Y-123763161D01*
X153296952Y-123667923D01*
X153344571Y-123620304D01*
X153439810Y-123572685D01*
X153677905Y-123572685D01*
X153773143Y-123620304D01*
X153820762Y-123667923D01*
X153868381Y-123763161D01*
X153868381Y-124001257D01*
X153820762Y-124096495D01*
X153773143Y-124144114D01*
X144549905Y-122423181D02*
X144549905Y-121423181D01*
X144788000Y-121423181D01*
X144930858Y-121470800D01*
X145026096Y-121566038D01*
X145073715Y-121661276D01*
X145121334Y-121851752D01*
X145121334Y-121994610D01*
X145073715Y-122185086D01*
X145026096Y-122280324D01*
X144930858Y-122375562D01*
X144788000Y-122423181D01*
X144549905Y-122423181D01*
X146073715Y-122423181D02*
X145502286Y-122423181D01*
X145788000Y-122423181D02*
X145788000Y-121423181D01*
X145692762Y-121566038D01*
X145597524Y-121661276D01*
X145502286Y-121708895D01*
X147140705Y-122372381D02*
X147140705Y-121372381D01*
X147378800Y-121372381D01*
X147521658Y-121420000D01*
X147616896Y-121515238D01*
X147664515Y-121610476D01*
X147712134Y-121800952D01*
X147712134Y-121943810D01*
X147664515Y-122134286D01*
X147616896Y-122229524D01*
X147521658Y-122324762D01*
X147378800Y-122372381D01*
X147140705Y-122372381D01*
X148093086Y-121467619D02*
X148140705Y-121420000D01*
X148235943Y-121372381D01*
X148474039Y-121372381D01*
X148569277Y-121420000D01*
X148616896Y-121467619D01*
X148664515Y-121562857D01*
X148664515Y-121658095D01*
X148616896Y-121800952D01*
X148045467Y-122372381D01*
X148664515Y-122372381D01*
X129716305Y-119273581D02*
X129716305Y-118273581D01*
X130097258Y-118273581D01*
X130192496Y-118321200D01*
X130240115Y-118368819D01*
X130287734Y-118464057D01*
X130287734Y-118606914D01*
X130240115Y-118702152D01*
X130192496Y-118749771D01*
X130097258Y-118797390D01*
X129716305Y-118797390D01*
X131192496Y-118273581D02*
X130716305Y-118273581D01*
X130668686Y-118749771D01*
X130716305Y-118702152D01*
X130811543Y-118654533D01*
X131049639Y-118654533D01*
X131144877Y-118702152D01*
X131192496Y-118749771D01*
X131240115Y-118845010D01*
X131240115Y-119083105D01*
X131192496Y-119178343D01*
X131144877Y-119225962D01*
X131049639Y-119273581D01*
X130811543Y-119273581D01*
X130716305Y-119225962D01*
X130668686Y-119178343D01*
X139522781Y-94362495D02*
X138522781Y-94362495D01*
X138522781Y-93981542D01*
X138570400Y-93886304D01*
X138618019Y-93838685D01*
X138713257Y-93791066D01*
X138856114Y-93791066D01*
X138951352Y-93838685D01*
X138998971Y-93886304D01*
X139046590Y-93981542D01*
X139046590Y-94362495D01*
X138618019Y-93410114D02*
X138570400Y-93362495D01*
X138522781Y-93267257D01*
X138522781Y-93029161D01*
X138570400Y-92933923D01*
X138618019Y-92886304D01*
X138713257Y-92838685D01*
X138808495Y-92838685D01*
X138951352Y-92886304D01*
X139522781Y-93457733D01*
X139522781Y-92838685D01*
X121842305Y-119425981D02*
X121842305Y-118425981D01*
X122223258Y-118425981D01*
X122318496Y-118473600D01*
X122366115Y-118521219D01*
X122413734Y-118616457D01*
X122413734Y-118759314D01*
X122366115Y-118854552D01*
X122318496Y-118902171D01*
X122223258Y-118949790D01*
X121842305Y-118949790D01*
X123270877Y-118425981D02*
X123080400Y-118425981D01*
X122985162Y-118473600D01*
X122937543Y-118521219D01*
X122842305Y-118664076D01*
X122794686Y-118854552D01*
X122794686Y-119235505D01*
X122842305Y-119330743D01*
X122889924Y-119378362D01*
X122985162Y-119425981D01*
X123175639Y-119425981D01*
X123270877Y-119378362D01*
X123318496Y-119330743D01*
X123366115Y-119235505D01*
X123366115Y-118997410D01*
X123318496Y-118902171D01*
X123270877Y-118854552D01*
X123175639Y-118806933D01*
X122985162Y-118806933D01*
X122889924Y-118854552D01*
X122842305Y-118902171D01*
X122794686Y-118997410D01*
X137147467Y-106472381D02*
X136814133Y-105996190D01*
X136576038Y-106472381D02*
X136576038Y-105472381D01*
X136956991Y-105472381D01*
X137052229Y-105520000D01*
X137099848Y-105567619D01*
X137147467Y-105662857D01*
X137147467Y-105805714D01*
X137099848Y-105900952D01*
X137052229Y-105948571D01*
X136956991Y-105996190D01*
X136576038Y-105996190D01*
X137576038Y-105948571D02*
X137909372Y-105948571D01*
X138052229Y-106472381D02*
X137576038Y-106472381D01*
X137576038Y-105472381D01*
X138052229Y-105472381D01*
X138814134Y-105948571D02*
X138480800Y-105948571D01*
X138480800Y-106472381D02*
X138480800Y-105472381D01*
X138956991Y-105472381D01*
X139480800Y-105472381D02*
X139480800Y-105710476D01*
X139242705Y-105615238D02*
X139480800Y-105710476D01*
X139718896Y-105615238D01*
X139337943Y-105900952D02*
X139480800Y-105710476D01*
X139623658Y-105900952D01*
X140242705Y-105472381D02*
X140242705Y-105710476D01*
X140004610Y-105615238D02*
X140242705Y-105710476D01*
X140480801Y-105615238D01*
X140099848Y-105900952D02*
X140242705Y-105710476D01*
X140385563Y-105900952D01*
X134048667Y-106878781D02*
X133715333Y-106402590D01*
X133477238Y-106878781D02*
X133477238Y-105878781D01*
X133858191Y-105878781D01*
X133953429Y-105926400D01*
X134001048Y-105974019D01*
X134048667Y-106069257D01*
X134048667Y-106212114D01*
X134001048Y-106307352D01*
X133953429Y-106354971D01*
X133858191Y-106402590D01*
X133477238Y-106402590D01*
X134477238Y-106354971D02*
X134810572Y-106354971D01*
X134953429Y-106878781D02*
X134477238Y-106878781D01*
X134477238Y-105878781D01*
X134953429Y-105878781D01*
X135715334Y-106354971D02*
X135382000Y-106354971D01*
X135382000Y-106878781D02*
X135382000Y-105878781D01*
X135858191Y-105878781D01*
X136382000Y-105878781D02*
X136382000Y-106116876D01*
X136143905Y-106021638D02*
X136382000Y-106116876D01*
X136620096Y-106021638D01*
X136239143Y-106307352D02*
X136382000Y-106116876D01*
X136524858Y-106307352D01*
X137143905Y-105878781D02*
X137143905Y-106116876D01*
X136905810Y-106021638D02*
X137143905Y-106116876D01*
X137382001Y-106021638D01*
X137001048Y-106307352D02*
X137143905Y-106116876D01*
X137286763Y-106307352D01*
X131254667Y-106929581D02*
X130921333Y-106453390D01*
X130683238Y-106929581D02*
X130683238Y-105929581D01*
X131064191Y-105929581D01*
X131159429Y-105977200D01*
X131207048Y-106024819D01*
X131254667Y-106120057D01*
X131254667Y-106262914D01*
X131207048Y-106358152D01*
X131159429Y-106405771D01*
X131064191Y-106453390D01*
X130683238Y-106453390D01*
X131683238Y-106405771D02*
X132016572Y-106405771D01*
X132159429Y-106929581D02*
X131683238Y-106929581D01*
X131683238Y-105929581D01*
X132159429Y-105929581D01*
X132921334Y-106405771D02*
X132588000Y-106405771D01*
X132588000Y-106929581D02*
X132588000Y-105929581D01*
X133064191Y-105929581D01*
X133588000Y-105929581D02*
X133588000Y-106167676D01*
X133349905Y-106072438D02*
X133588000Y-106167676D01*
X133826096Y-106072438D01*
X133445143Y-106358152D02*
X133588000Y-106167676D01*
X133730858Y-106358152D01*
X134349905Y-105929581D02*
X134349905Y-106167676D01*
X134111810Y-106072438D02*
X134349905Y-106167676D01*
X134588001Y-106072438D01*
X134207048Y-106358152D02*
X134349905Y-106167676D01*
X134492763Y-106358152D01*
X128460667Y-106980381D02*
X128127333Y-106504190D01*
X127889238Y-106980381D02*
X127889238Y-105980381D01*
X128270191Y-105980381D01*
X128365429Y-106028000D01*
X128413048Y-106075619D01*
X128460667Y-106170857D01*
X128460667Y-106313714D01*
X128413048Y-106408952D01*
X128365429Y-106456571D01*
X128270191Y-106504190D01*
X127889238Y-106504190D01*
X128889238Y-106456571D02*
X129222572Y-106456571D01*
X129365429Y-106980381D02*
X128889238Y-106980381D01*
X128889238Y-105980381D01*
X129365429Y-105980381D01*
X130127334Y-106456571D02*
X129794000Y-106456571D01*
X129794000Y-106980381D02*
X129794000Y-105980381D01*
X130270191Y-105980381D01*
X130794000Y-105980381D02*
X130794000Y-106218476D01*
X130555905Y-106123238D02*
X130794000Y-106218476D01*
X131032096Y-106123238D01*
X130651143Y-106408952D02*
X130794000Y-106218476D01*
X130936858Y-106408952D01*
X131555905Y-105980381D02*
X131555905Y-106218476D01*
X131317810Y-106123238D02*
X131555905Y-106218476D01*
X131794001Y-106123238D01*
X131413048Y-106408952D02*
X131555905Y-106218476D01*
X131698763Y-106408952D01*
X125615867Y-107081981D02*
X125282533Y-106605790D01*
X125044438Y-107081981D02*
X125044438Y-106081981D01*
X125425391Y-106081981D01*
X125520629Y-106129600D01*
X125568248Y-106177219D01*
X125615867Y-106272457D01*
X125615867Y-106415314D01*
X125568248Y-106510552D01*
X125520629Y-106558171D01*
X125425391Y-106605790D01*
X125044438Y-106605790D01*
X126044438Y-106558171D02*
X126377772Y-106558171D01*
X126520629Y-107081981D02*
X126044438Y-107081981D01*
X126044438Y-106081981D01*
X126520629Y-106081981D01*
X127282534Y-106558171D02*
X126949200Y-106558171D01*
X126949200Y-107081981D02*
X126949200Y-106081981D01*
X127425391Y-106081981D01*
X127949200Y-106081981D02*
X127949200Y-106320076D01*
X127711105Y-106224838D02*
X127949200Y-106320076D01*
X128187296Y-106224838D01*
X127806343Y-106510552D02*
X127949200Y-106320076D01*
X128092058Y-106510552D01*
X128711105Y-106081981D02*
X128711105Y-106320076D01*
X128473010Y-106224838D02*
X128711105Y-106320076D01*
X128949201Y-106224838D01*
X128568248Y-106510552D02*
X128711105Y-106320076D01*
X128853963Y-106510552D01*
X122415467Y-107081981D02*
X122082133Y-106605790D01*
X121844038Y-107081981D02*
X121844038Y-106081981D01*
X122224991Y-106081981D01*
X122320229Y-106129600D01*
X122367848Y-106177219D01*
X122415467Y-106272457D01*
X122415467Y-106415314D01*
X122367848Y-106510552D01*
X122320229Y-106558171D01*
X122224991Y-106605790D01*
X121844038Y-106605790D01*
X122844038Y-106558171D02*
X123177372Y-106558171D01*
X123320229Y-107081981D02*
X122844038Y-107081981D01*
X122844038Y-106081981D01*
X123320229Y-106081981D01*
X124082134Y-106558171D02*
X123748800Y-106558171D01*
X123748800Y-107081981D02*
X123748800Y-106081981D01*
X124224991Y-106081981D01*
X124748800Y-106081981D02*
X124748800Y-106320076D01*
X124510705Y-106224838D02*
X124748800Y-106320076D01*
X124986896Y-106224838D01*
X124605943Y-106510552D02*
X124748800Y-106320076D01*
X124891658Y-106510552D01*
X125510705Y-106081981D02*
X125510705Y-106320076D01*
X125272610Y-106224838D02*
X125510705Y-106320076D01*
X125748801Y-106224838D01*
X125367848Y-106510552D02*
X125510705Y-106320076D01*
X125653563Y-106510552D01*
X119519867Y-107132781D02*
X119186533Y-106656590D01*
X118948438Y-107132781D02*
X118948438Y-106132781D01*
X119329391Y-106132781D01*
X119424629Y-106180400D01*
X119472248Y-106228019D01*
X119519867Y-106323257D01*
X119519867Y-106466114D01*
X119472248Y-106561352D01*
X119424629Y-106608971D01*
X119329391Y-106656590D01*
X118948438Y-106656590D01*
X119948438Y-106608971D02*
X120281772Y-106608971D01*
X120424629Y-107132781D02*
X119948438Y-107132781D01*
X119948438Y-106132781D01*
X120424629Y-106132781D01*
X121186534Y-106608971D02*
X120853200Y-106608971D01*
X120853200Y-107132781D02*
X120853200Y-106132781D01*
X121329391Y-106132781D01*
X121853200Y-106132781D02*
X121853200Y-106370876D01*
X121615105Y-106275638D02*
X121853200Y-106370876D01*
X122091296Y-106275638D01*
X121710343Y-106561352D02*
X121853200Y-106370876D01*
X121996058Y-106561352D01*
X122615105Y-106132781D02*
X122615105Y-106370876D01*
X122377010Y-106275638D02*
X122615105Y-106370876D01*
X122853201Y-106275638D01*
X122472248Y-106561352D02*
X122615105Y-106370876D01*
X122757963Y-106561352D01*
X140144667Y-106218381D02*
X139811333Y-105742190D01*
X139573238Y-106218381D02*
X139573238Y-105218381D01*
X139954191Y-105218381D01*
X140049429Y-105266000D01*
X140097048Y-105313619D01*
X140144667Y-105408857D01*
X140144667Y-105551714D01*
X140097048Y-105646952D01*
X140049429Y-105694571D01*
X139954191Y-105742190D01*
X139573238Y-105742190D01*
X140573238Y-105694571D02*
X140906572Y-105694571D01*
X141049429Y-106218381D02*
X140573238Y-106218381D01*
X140573238Y-105218381D01*
X141049429Y-105218381D01*
X141811334Y-105694571D02*
X141478000Y-105694571D01*
X141478000Y-106218381D02*
X141478000Y-105218381D01*
X141954191Y-105218381D01*
X142478000Y-105218381D02*
X142478000Y-105456476D01*
X142239905Y-105361238D02*
X142478000Y-105456476D01*
X142716096Y-105361238D01*
X142335143Y-105646952D02*
X142478000Y-105456476D01*
X142620858Y-105646952D01*
X143239905Y-105218381D02*
X143239905Y-105456476D01*
X143001810Y-105361238D02*
X143239905Y-105456476D01*
X143478001Y-105361238D01*
X143097048Y-105646952D02*
X143239905Y-105456476D01*
X143382763Y-105646952D01*
X163055467Y-104897581D02*
X162722133Y-104421390D01*
X162484038Y-104897581D02*
X162484038Y-103897581D01*
X162864991Y-103897581D01*
X162960229Y-103945200D01*
X163007848Y-103992819D01*
X163055467Y-104088057D01*
X163055467Y-104230914D01*
X163007848Y-104326152D01*
X162960229Y-104373771D01*
X162864991Y-104421390D01*
X162484038Y-104421390D01*
X163484038Y-104373771D02*
X163817372Y-104373771D01*
X163960229Y-104897581D02*
X163484038Y-104897581D01*
X163484038Y-103897581D01*
X163960229Y-103897581D01*
X164722134Y-104373771D02*
X164388800Y-104373771D01*
X164388800Y-104897581D02*
X164388800Y-103897581D01*
X164864991Y-103897581D01*
X165388800Y-103897581D02*
X165388800Y-104135676D01*
X165150705Y-104040438D02*
X165388800Y-104135676D01*
X165626896Y-104040438D01*
X165245943Y-104326152D02*
X165388800Y-104135676D01*
X165531658Y-104326152D01*
X166150705Y-103897581D02*
X166150705Y-104135676D01*
X165912610Y-104040438D02*
X166150705Y-104135676D01*
X166388801Y-104040438D01*
X166007848Y-104326152D02*
X166150705Y-104135676D01*
X166293563Y-104326152D01*
X160159867Y-105202381D02*
X159826533Y-104726190D01*
X159588438Y-105202381D02*
X159588438Y-104202381D01*
X159969391Y-104202381D01*
X160064629Y-104250000D01*
X160112248Y-104297619D01*
X160159867Y-104392857D01*
X160159867Y-104535714D01*
X160112248Y-104630952D01*
X160064629Y-104678571D01*
X159969391Y-104726190D01*
X159588438Y-104726190D01*
X160588438Y-104678571D02*
X160921772Y-104678571D01*
X161064629Y-105202381D02*
X160588438Y-105202381D01*
X160588438Y-104202381D01*
X161064629Y-104202381D01*
X161826534Y-104678571D02*
X161493200Y-104678571D01*
X161493200Y-105202381D02*
X161493200Y-104202381D01*
X161969391Y-104202381D01*
X162493200Y-104202381D02*
X162493200Y-104440476D01*
X162255105Y-104345238D02*
X162493200Y-104440476D01*
X162731296Y-104345238D01*
X162350343Y-104630952D02*
X162493200Y-104440476D01*
X162636058Y-104630952D01*
X163255105Y-104202381D02*
X163255105Y-104440476D01*
X163017010Y-104345238D02*
X163255105Y-104440476D01*
X163493201Y-104345238D01*
X163112248Y-104630952D02*
X163255105Y-104440476D01*
X163397963Y-104630952D01*
X149999867Y-105811981D02*
X149666533Y-105335790D01*
X149428438Y-105811981D02*
X149428438Y-104811981D01*
X149809391Y-104811981D01*
X149904629Y-104859600D01*
X149952248Y-104907219D01*
X149999867Y-105002457D01*
X149999867Y-105145314D01*
X149952248Y-105240552D01*
X149904629Y-105288171D01*
X149809391Y-105335790D01*
X149428438Y-105335790D01*
X150428438Y-105288171D02*
X150761772Y-105288171D01*
X150904629Y-105811981D02*
X150428438Y-105811981D01*
X150428438Y-104811981D01*
X150904629Y-104811981D01*
X151666534Y-105288171D02*
X151333200Y-105288171D01*
X151333200Y-105811981D02*
X151333200Y-104811981D01*
X151809391Y-104811981D01*
X152333200Y-104811981D02*
X152333200Y-105050076D01*
X152095105Y-104954838D02*
X152333200Y-105050076D01*
X152571296Y-104954838D01*
X152190343Y-105240552D02*
X152333200Y-105050076D01*
X152476058Y-105240552D01*
X153095105Y-104811981D02*
X153095105Y-105050076D01*
X152857010Y-104954838D02*
X153095105Y-105050076D01*
X153333201Y-104954838D01*
X152952248Y-105240552D02*
X153095105Y-105050076D01*
X153237963Y-105240552D01*
M02*
