G04 #@! TF.FileFunction,Legend,Top*
%FSLAX46Y46*%
G04 Gerber Fmt 4.6, Leading zero omitted, Abs format (unit mm)*
G04 Created by KiCad (PCBNEW 4.0.4-stable) date 10/04/16 21:15:39*
%MOMM*%
%LPD*%
G01*
G04 APERTURE LIST*
%ADD10C,0.100000*%
%ADD11C,0.152400*%
%ADD12C,0.150000*%
G04 APERTURE END LIST*
D10*
D11*
X116790000Y-101330000D02*
X116790000Y-85330000D01*
X116790000Y-85330000D02*
X122190000Y-85330000D01*
X116790000Y-101330000D02*
X122190000Y-101330000D01*
X137990000Y-101330000D02*
X138790000Y-101330000D01*
X138790000Y-101330000D02*
X138790000Y-85330000D01*
X138790000Y-85330000D02*
X137990000Y-85330000D01*
X116790000Y-85330000D02*
X120590000Y-101330000D01*
X116790000Y-101330000D02*
X120590000Y-85330000D01*
X120590000Y-101338000D02*
X120590000Y-85338000D01*
D12*
X165905180Y-99862640D02*
X165905180Y-92161360D01*
X166905940Y-99862640D02*
X166905940Y-92161360D01*
X166905940Y-92161360D02*
X157706060Y-92161360D01*
X157706060Y-92161360D02*
X157706060Y-99862640D01*
X157706060Y-99862640D02*
X166905940Y-99862640D01*
X158711000Y-106164000D02*
X158711000Y-105164000D01*
X157011000Y-105164000D02*
X157011000Y-106164000D01*
X155129600Y-106164000D02*
X155129600Y-105164000D01*
X153429600Y-105164000D02*
X153429600Y-106164000D01*
X147587600Y-105164000D02*
X147587600Y-106164000D01*
X149287600Y-106164000D02*
X149287600Y-105164000D01*
X137427600Y-104706800D02*
X137427600Y-105706800D01*
X139127600Y-105706800D02*
X139127600Y-104706800D01*
X159512000Y-103505000D02*
X159258000Y-103505000D01*
X159258000Y-103505000D02*
X159258000Y-105791000D01*
X159258000Y-105791000D02*
X159512000Y-105791000D01*
X159512000Y-103505000D02*
X159512000Y-105791000D01*
X159512000Y-105791000D02*
X161163000Y-105791000D01*
X162941000Y-103505000D02*
X164592000Y-103505000D01*
X164592000Y-103505000D02*
X164592000Y-105791000D01*
X164592000Y-105791000D02*
X162941000Y-105791000D01*
X161163000Y-103505000D02*
X159512000Y-103505000D01*
X155129000Y-92695000D02*
G75*
G03X155129000Y-92695000I-250000J0D01*
G01*
X152979000Y-85945000D02*
X152979000Y-86945000D01*
X152979000Y-86945000D02*
X145979000Y-86945000D01*
X145979000Y-86945000D02*
X145979000Y-85945000D01*
X154379000Y-91945000D02*
X155629000Y-91945000D01*
X155629000Y-91945000D02*
X155629000Y-93545000D01*
X155629000Y-93545000D02*
X156429000Y-93545000D01*
X156429000Y-93545000D02*
X156429000Y-89445000D01*
X155629000Y-91945000D02*
X156429000Y-91945000D01*
X144579000Y-91945000D02*
X143329000Y-91945000D01*
X143329000Y-91945000D02*
X143329000Y-93545000D01*
X143329000Y-93545000D02*
X142529000Y-93545000D01*
X142529000Y-93545000D02*
X142529000Y-89445000D01*
X143329000Y-91945000D02*
X142529000Y-91945000D01*
X154679000Y-85945000D02*
X144279000Y-85945000D01*
X154679000Y-90845000D02*
X154679000Y-87445000D01*
X154679000Y-87445000D02*
X153679000Y-87445000D01*
X153679000Y-87445000D02*
X153679000Y-90845000D01*
X153679000Y-90845000D02*
X154679000Y-90845000D01*
X144279000Y-90845000D02*
X144279000Y-87445000D01*
X144279000Y-87445000D02*
X145279000Y-87445000D01*
X145279000Y-87445000D02*
X145279000Y-90845000D01*
X145279000Y-90845000D02*
X144279000Y-90845000D01*
X152579000Y-91945000D02*
X152379000Y-91945000D01*
X150579000Y-91945000D02*
X150379000Y-91945000D01*
X148579000Y-91945000D02*
X148379000Y-91945000D01*
X146579000Y-91945000D02*
X146379000Y-91945000D01*
X134934400Y-102960200D02*
X136134400Y-102960200D01*
X136134400Y-104710200D02*
X134934400Y-104710200D01*
X141337000Y-86014000D02*
X141337000Y-87214000D01*
X139587000Y-87214000D02*
X139587000Y-86014000D01*
X139587000Y-92802000D02*
X139587000Y-91602000D01*
X141337000Y-91602000D02*
X141337000Y-92802000D01*
X148892000Y-103076000D02*
X148892000Y-102876000D01*
X148892000Y-97076000D02*
X148892000Y-97276000D01*
X154892000Y-97076000D02*
X154892000Y-97276000D01*
X154892000Y-103076000D02*
X154892000Y-102876000D01*
X154892000Y-101276000D02*
X154892000Y-98876000D01*
X148892000Y-101276000D02*
X148892000Y-98876000D01*
X148892000Y-103076000D02*
X154892000Y-103076000D01*
X154892000Y-97076000D02*
X148892000Y-97076000D01*
X153592000Y-100076000D02*
G75*
G03X153592000Y-100076000I-1700000J0D01*
G01*
X139573000Y-103124000D02*
X139573000Y-106172000D01*
X139573000Y-106172000D02*
X146685000Y-106172000D01*
X146685000Y-106172000D02*
X146685000Y-103124000D01*
X139573000Y-100076000D02*
X139573000Y-99314000D01*
X139573000Y-99314000D02*
X141097000Y-97028000D01*
X141097000Y-97028000D02*
X145161000Y-97028000D01*
X145161000Y-97028000D02*
X146685000Y-99314000D01*
X146685000Y-99314000D02*
X146685000Y-100076000D01*
X125526800Y-106527600D02*
X133146800Y-106527600D01*
X125526800Y-103987600D02*
X133146800Y-103987600D01*
X122706800Y-103707600D02*
X124256800Y-103707600D01*
X133146800Y-106527600D02*
X133146800Y-103987600D01*
X125526800Y-103987600D02*
X125526800Y-106527600D01*
X124256800Y-106807600D02*
X122706800Y-106807600D01*
X122706800Y-106807600D02*
X122706800Y-103707600D01*
X164846000Y-86766400D02*
G75*
G03X164846000Y-86766400I-2286000J0D01*
G01*
X121716800Y-105257600D02*
G75*
G03X121716800Y-105257600I-2286000J0D01*
G01*
X126299981Y-94284705D02*
X127109505Y-94284705D01*
X127204743Y-94237086D01*
X127252362Y-94189467D01*
X127299981Y-94094229D01*
X127299981Y-93903752D01*
X127252362Y-93808514D01*
X127204743Y-93760895D01*
X127109505Y-93713276D01*
X126299981Y-93713276D01*
X127299981Y-92713276D02*
X127299981Y-93284705D01*
X127299981Y-92998991D02*
X126299981Y-92998991D01*
X126442838Y-93094229D01*
X126538076Y-93189467D01*
X126585695Y-93284705D01*
X118242381Y-97152286D02*
X117242381Y-97152286D01*
X118242381Y-96580857D01*
X117242381Y-96580857D01*
X118242381Y-95961810D02*
X118194762Y-96057048D01*
X118147143Y-96104667D01*
X118051905Y-96152286D01*
X117766190Y-96152286D01*
X117670952Y-96104667D01*
X117623333Y-96057048D01*
X117575714Y-95961810D01*
X117575714Y-95818952D01*
X117623333Y-95723714D01*
X117670952Y-95676095D01*
X117766190Y-95628476D01*
X118051905Y-95628476D01*
X118147143Y-95676095D01*
X118194762Y-95723714D01*
X118242381Y-95818952D01*
X118242381Y-95961810D01*
X118147143Y-93866571D02*
X118194762Y-93914190D01*
X118242381Y-94057047D01*
X118242381Y-94152285D01*
X118194762Y-94295143D01*
X118099524Y-94390381D01*
X118004286Y-94438000D01*
X117813810Y-94485619D01*
X117670952Y-94485619D01*
X117480476Y-94438000D01*
X117385238Y-94390381D01*
X117290000Y-94295143D01*
X117242381Y-94152285D01*
X117242381Y-94057047D01*
X117290000Y-93914190D01*
X117337619Y-93866571D01*
X118242381Y-93295143D02*
X118194762Y-93390381D01*
X118147143Y-93438000D01*
X118051905Y-93485619D01*
X117766190Y-93485619D01*
X117670952Y-93438000D01*
X117623333Y-93390381D01*
X117575714Y-93295143D01*
X117575714Y-93152285D01*
X117623333Y-93057047D01*
X117670952Y-93009428D01*
X117766190Y-92961809D01*
X118051905Y-92961809D01*
X118147143Y-93009428D01*
X118194762Y-93057047D01*
X118242381Y-93152285D01*
X118242381Y-93295143D01*
X117575714Y-92533238D02*
X118575714Y-92533238D01*
X117623333Y-92533238D02*
X117575714Y-92438000D01*
X117575714Y-92247523D01*
X117623333Y-92152285D01*
X117670952Y-92104666D01*
X117766190Y-92057047D01*
X118051905Y-92057047D01*
X118147143Y-92104666D01*
X118194762Y-92152285D01*
X118242381Y-92247523D01*
X118242381Y-92438000D01*
X118194762Y-92533238D01*
X117575714Y-91628476D02*
X118575714Y-91628476D01*
X117623333Y-91628476D02*
X117575714Y-91533238D01*
X117575714Y-91342761D01*
X117623333Y-91247523D01*
X117670952Y-91199904D01*
X117766190Y-91152285D01*
X118051905Y-91152285D01*
X118147143Y-91199904D01*
X118194762Y-91247523D01*
X118242381Y-91342761D01*
X118242381Y-91533238D01*
X118194762Y-91628476D01*
X118194762Y-90342761D02*
X118242381Y-90437999D01*
X118242381Y-90628476D01*
X118194762Y-90723714D01*
X118099524Y-90771333D01*
X117718571Y-90771333D01*
X117623333Y-90723714D01*
X117575714Y-90628476D01*
X117575714Y-90437999D01*
X117623333Y-90342761D01*
X117718571Y-90295142D01*
X117813810Y-90295142D01*
X117909048Y-90771333D01*
X118242381Y-89866571D02*
X117575714Y-89866571D01*
X117766190Y-89866571D02*
X117670952Y-89818952D01*
X117623333Y-89771333D01*
X117575714Y-89676095D01*
X117575714Y-89580856D01*
X161059905Y-96565981D02*
X161059905Y-95565981D01*
X161440858Y-95565981D01*
X161536096Y-95613600D01*
X161583715Y-95661219D01*
X161631334Y-95756457D01*
X161631334Y-95899314D01*
X161583715Y-95994552D01*
X161536096Y-96042171D01*
X161440858Y-96089790D01*
X161059905Y-96089790D01*
X162583715Y-96565981D02*
X162012286Y-96565981D01*
X162298000Y-96565981D02*
X162298000Y-95565981D01*
X162202762Y-95708838D01*
X162107524Y-95804076D01*
X162012286Y-95851695D01*
X156617943Y-105830666D02*
X156665562Y-105878285D01*
X156713181Y-106021142D01*
X156713181Y-106116380D01*
X156665562Y-106259238D01*
X156570324Y-106354476D01*
X156475086Y-106402095D01*
X156284610Y-106449714D01*
X156141752Y-106449714D01*
X155951276Y-106402095D01*
X155856038Y-106354476D01*
X155760800Y-106259238D01*
X155713181Y-106116380D01*
X155713181Y-106021142D01*
X155760800Y-105878285D01*
X155808419Y-105830666D01*
X156713181Y-104878285D02*
X156713181Y-105449714D01*
X156713181Y-105164000D02*
X155713181Y-105164000D01*
X155856038Y-105259238D01*
X155951276Y-105354476D01*
X155998895Y-105449714D01*
X152960343Y-105932266D02*
X153007962Y-105979885D01*
X153055581Y-106122742D01*
X153055581Y-106217980D01*
X153007962Y-106360838D01*
X152912724Y-106456076D01*
X152817486Y-106503695D01*
X152627010Y-106551314D01*
X152484152Y-106551314D01*
X152293676Y-106503695D01*
X152198438Y-106456076D01*
X152103200Y-106360838D01*
X152055581Y-106217980D01*
X152055581Y-106122742D01*
X152103200Y-105979885D01*
X152150819Y-105932266D01*
X152150819Y-105551314D02*
X152103200Y-105503695D01*
X152055581Y-105408457D01*
X152055581Y-105170361D01*
X152103200Y-105075123D01*
X152150819Y-105027504D01*
X152246057Y-104979885D01*
X152341295Y-104979885D01*
X152484152Y-105027504D01*
X153055581Y-105598933D01*
X153055581Y-104979885D01*
X150572743Y-105881466D02*
X150620362Y-105929085D01*
X150667981Y-106071942D01*
X150667981Y-106167180D01*
X150620362Y-106310038D01*
X150525124Y-106405276D01*
X150429886Y-106452895D01*
X150239410Y-106500514D01*
X150096552Y-106500514D01*
X149906076Y-106452895D01*
X149810838Y-106405276D01*
X149715600Y-106310038D01*
X149667981Y-106167180D01*
X149667981Y-106071942D01*
X149715600Y-105929085D01*
X149763219Y-105881466D01*
X149667981Y-105548133D02*
X149667981Y-104929085D01*
X150048933Y-105262419D01*
X150048933Y-105119561D01*
X150096552Y-105024323D01*
X150144171Y-104976704D01*
X150239410Y-104929085D01*
X150477505Y-104929085D01*
X150572743Y-104976704D01*
X150620362Y-105024323D01*
X150667981Y-105119561D01*
X150667981Y-105405276D01*
X150620362Y-105500514D01*
X150572743Y-105548133D01*
X139990534Y-107443543D02*
X139942915Y-107491162D01*
X139800058Y-107538781D01*
X139704820Y-107538781D01*
X139561962Y-107491162D01*
X139466724Y-107395924D01*
X139419105Y-107300686D01*
X139371486Y-107110210D01*
X139371486Y-106967352D01*
X139419105Y-106776876D01*
X139466724Y-106681638D01*
X139561962Y-106586400D01*
X139704820Y-106538781D01*
X139800058Y-106538781D01*
X139942915Y-106586400D01*
X139990534Y-106634019D01*
X140847677Y-106872114D02*
X140847677Y-107538781D01*
X140609581Y-106491162D02*
X140371486Y-107205448D01*
X140990534Y-107205448D01*
X165249267Y-104678171D02*
X164915933Y-104678171D01*
X164915933Y-105201981D02*
X164915933Y-104201981D01*
X165392124Y-104201981D01*
X166296886Y-105201981D02*
X165725457Y-105201981D01*
X166011171Y-105201981D02*
X166011171Y-104201981D01*
X165915933Y-104344838D01*
X165820695Y-104440076D01*
X165725457Y-104487695D01*
X148740905Y-90622381D02*
X148740905Y-89622381D01*
X149121858Y-89622381D01*
X149217096Y-89670000D01*
X149264715Y-89717619D01*
X149312334Y-89812857D01*
X149312334Y-89955714D01*
X149264715Y-90050952D01*
X149217096Y-90098571D01*
X149121858Y-90146190D01*
X148740905Y-90146190D01*
X149693286Y-89717619D02*
X149740905Y-89670000D01*
X149836143Y-89622381D01*
X150074239Y-89622381D01*
X150169477Y-89670000D01*
X150217096Y-89717619D01*
X150264715Y-89812857D01*
X150264715Y-89908095D01*
X150217096Y-90050952D01*
X149645667Y-90622381D01*
X150264715Y-90622381D01*
X135367734Y-106065581D02*
X135034400Y-105589390D01*
X134796305Y-106065581D02*
X134796305Y-105065581D01*
X135177258Y-105065581D01*
X135272496Y-105113200D01*
X135320115Y-105160819D01*
X135367734Y-105256057D01*
X135367734Y-105398914D01*
X135320115Y-105494152D01*
X135272496Y-105541771D01*
X135177258Y-105589390D01*
X134796305Y-105589390D01*
X136320115Y-106065581D02*
X135748686Y-106065581D01*
X136034400Y-106065581D02*
X136034400Y-105065581D01*
X135939162Y-105208438D01*
X135843924Y-105303676D01*
X135748686Y-105351295D01*
X140295334Y-84831181D02*
X139962000Y-84354990D01*
X139723905Y-84831181D02*
X139723905Y-83831181D01*
X140104858Y-83831181D01*
X140200096Y-83878800D01*
X140247715Y-83926419D01*
X140295334Y-84021657D01*
X140295334Y-84164514D01*
X140247715Y-84259752D01*
X140200096Y-84307371D01*
X140104858Y-84354990D01*
X139723905Y-84354990D01*
X140676286Y-83926419D02*
X140723905Y-83878800D01*
X140819143Y-83831181D01*
X141057239Y-83831181D01*
X141152477Y-83878800D01*
X141200096Y-83926419D01*
X141247715Y-84021657D01*
X141247715Y-84116895D01*
X141200096Y-84259752D01*
X140628667Y-84831181D01*
X141247715Y-84831181D01*
X140295334Y-90368381D02*
X139962000Y-89892190D01*
X139723905Y-90368381D02*
X139723905Y-89368381D01*
X140104858Y-89368381D01*
X140200096Y-89416000D01*
X140247715Y-89463619D01*
X140295334Y-89558857D01*
X140295334Y-89701714D01*
X140247715Y-89796952D01*
X140200096Y-89844571D01*
X140104858Y-89892190D01*
X139723905Y-89892190D01*
X140628667Y-89368381D02*
X141247715Y-89368381D01*
X140914381Y-89749333D01*
X141057239Y-89749333D01*
X141152477Y-89796952D01*
X141200096Y-89844571D01*
X141247715Y-89939810D01*
X141247715Y-90177905D01*
X141200096Y-90273143D01*
X141152477Y-90320762D01*
X141057239Y-90368381D01*
X140771524Y-90368381D01*
X140676286Y-90320762D01*
X140628667Y-90273143D01*
X150558667Y-100607762D02*
X150701524Y-100655381D01*
X150939620Y-100655381D01*
X151034858Y-100607762D01*
X151082477Y-100560143D01*
X151130096Y-100464905D01*
X151130096Y-100369667D01*
X151082477Y-100274429D01*
X151034858Y-100226810D01*
X150939620Y-100179190D01*
X150749143Y-100131571D01*
X150653905Y-100083952D01*
X150606286Y-100036333D01*
X150558667Y-99941095D01*
X150558667Y-99845857D01*
X150606286Y-99750619D01*
X150653905Y-99703000D01*
X150749143Y-99655381D01*
X150987239Y-99655381D01*
X151130096Y-99703000D01*
X151463429Y-99655381D02*
X151701524Y-100655381D01*
X151892001Y-99941095D01*
X152082477Y-100655381D01*
X152320572Y-99655381D01*
X153225334Y-100655381D02*
X152653905Y-100655381D01*
X152939619Y-100655381D02*
X152939619Y-99655381D01*
X152844381Y-99798238D01*
X152749143Y-99893476D01*
X152653905Y-99941095D01*
X142367095Y-100290381D02*
X142367095Y-101099905D01*
X142414714Y-101195143D01*
X142462333Y-101242762D01*
X142557571Y-101290381D01*
X142748048Y-101290381D01*
X142843286Y-101242762D01*
X142890905Y-101195143D01*
X142938524Y-101099905D01*
X142938524Y-100290381D01*
X143367095Y-100385619D02*
X143414714Y-100338000D01*
X143509952Y-100290381D01*
X143748048Y-100290381D01*
X143843286Y-100338000D01*
X143890905Y-100385619D01*
X143938524Y-100480857D01*
X143938524Y-100576095D01*
X143890905Y-100718952D01*
X143319476Y-101290381D01*
X143938524Y-101290381D01*
X122629705Y-103296981D02*
X122629705Y-102296981D01*
X123010658Y-102296981D01*
X123105896Y-102344600D01*
X123153515Y-102392219D01*
X123201134Y-102487457D01*
X123201134Y-102630314D01*
X123153515Y-102725552D01*
X123105896Y-102773171D01*
X123010658Y-102820790D01*
X122629705Y-102820790D01*
X123534467Y-102296981D02*
X124153515Y-102296981D01*
X123820181Y-102677933D01*
X123963039Y-102677933D01*
X124058277Y-102725552D01*
X124105896Y-102773171D01*
X124153515Y-102868410D01*
X124153515Y-103106505D01*
X124105896Y-103201743D01*
X124058277Y-103249362D01*
X123963039Y-103296981D01*
X123677324Y-103296981D01*
X123582086Y-103249362D01*
X123534467Y-103201743D01*
M02*
