G04 #@! TF.FileFunction,Soldermask,Top*
%FSLAX46Y46*%
G04 Gerber Fmt 4.6, Leading zero omitted, Abs format (unit mm)*
G04 Created by KiCad (PCBNEW 4.0.4-stable) date 11/08/16 09:08:38*
%MOMM*%
%LPD*%
G01*
G04 APERTURE LIST*
%ADD10C,0.100000*%
%ADD11R,2.432000X2.127200*%
%ADD12O,2.432000X2.127200*%
%ADD13R,1.000000X1.950000*%
%ADD14C,2.305000*%
G04 APERTURE END LIST*
D10*
D11*
X122770900Y-70408800D03*
D12*
X122770900Y-72948800D03*
X122770900Y-75488800D03*
X122770900Y-78028800D03*
X122770900Y-80568800D03*
D11*
X139420600Y-78511400D03*
D12*
X139420600Y-75971400D03*
X139420600Y-73431400D03*
D11*
X147574000Y-70675500D03*
D12*
X147574000Y-73215500D03*
X147574000Y-75755500D03*
X147574000Y-78295500D03*
X147574000Y-80835500D03*
D11*
X165074600Y-78955900D03*
D12*
X165074600Y-76415900D03*
X165074600Y-73875900D03*
D11*
X122682000Y-95504000D03*
D12*
X122682000Y-98044000D03*
X122682000Y-100584000D03*
X122682000Y-103124000D03*
X122682000Y-105664000D03*
D11*
X140627100Y-103276400D03*
D12*
X140627100Y-100736400D03*
X140627100Y-98196400D03*
D11*
X148221700Y-96354900D03*
D12*
X148221700Y-98894900D03*
X148221700Y-101434900D03*
X148221700Y-103974900D03*
X148221700Y-106514900D03*
D11*
X165506400Y-103644700D03*
D12*
X165506400Y-101104700D03*
X165506400Y-98564700D03*
D13*
X129501900Y-78557100D03*
X130771900Y-78557100D03*
X132041900Y-78557100D03*
X133311900Y-78557100D03*
X133311900Y-73157100D03*
X132041900Y-73157100D03*
X130771900Y-73157100D03*
X129501900Y-73157100D03*
X154673300Y-78861900D03*
X155943300Y-78861900D03*
X157213300Y-78861900D03*
X158483300Y-78861900D03*
X158483300Y-73461900D03*
X157213300Y-73461900D03*
X155943300Y-73461900D03*
X154673300Y-73461900D03*
D14*
X128143000Y-104902000D03*
X130683000Y-104902000D03*
X133223000Y-104902000D03*
X135763000Y-104902000D03*
X135763000Y-97282000D03*
X133223000Y-97282000D03*
X130683000Y-97282000D03*
X128143000Y-97282000D03*
X153289000Y-104775000D03*
X155829000Y-104775000D03*
X158369000Y-104775000D03*
X160909000Y-104775000D03*
X160909000Y-97155000D03*
X158369000Y-97155000D03*
X155829000Y-97155000D03*
X153289000Y-97155000D03*
M02*
