G04 #@! TF.FileFunction,Copper,L1,Top,Signal*
%FSLAX46Y46*%
G04 Gerber Fmt 4.6, Leading zero omitted, Abs format (unit mm)*
G04 Created by KiCad (PCBNEW 4.0.4-stable) date 11/08/16 09:08:38*
%MOMM*%
%LPD*%
G01*
G04 APERTURE LIST*
%ADD10C,0.100000*%
%ADD11R,2.032000X1.727200*%
%ADD12O,2.032000X1.727200*%
%ADD13R,0.600000X1.550000*%
%ADD14C,1.905000*%
%ADD15C,0.600000*%
%ADD16C,0.250000*%
G04 APERTURE END LIST*
D10*
D11*
X122770900Y-70408800D03*
D12*
X122770900Y-72948800D03*
X122770900Y-75488800D03*
X122770900Y-78028800D03*
X122770900Y-80568800D03*
D11*
X139420600Y-78511400D03*
D12*
X139420600Y-75971400D03*
X139420600Y-73431400D03*
D11*
X147574000Y-70675500D03*
D12*
X147574000Y-73215500D03*
X147574000Y-75755500D03*
X147574000Y-78295500D03*
X147574000Y-80835500D03*
D11*
X165074600Y-78955900D03*
D12*
X165074600Y-76415900D03*
X165074600Y-73875900D03*
D11*
X122682000Y-95504000D03*
D12*
X122682000Y-98044000D03*
X122682000Y-100584000D03*
X122682000Y-103124000D03*
X122682000Y-105664000D03*
D11*
X140627100Y-103276400D03*
D12*
X140627100Y-100736400D03*
X140627100Y-98196400D03*
D11*
X148221700Y-96354900D03*
D12*
X148221700Y-98894900D03*
X148221700Y-101434900D03*
X148221700Y-103974900D03*
X148221700Y-106514900D03*
D11*
X165506400Y-103644700D03*
D12*
X165506400Y-101104700D03*
X165506400Y-98564700D03*
D13*
X129501900Y-78557100D03*
X130771900Y-78557100D03*
X132041900Y-78557100D03*
X133311900Y-78557100D03*
X133311900Y-73157100D03*
X132041900Y-73157100D03*
X130771900Y-73157100D03*
X129501900Y-73157100D03*
X154673300Y-78861900D03*
X155943300Y-78861900D03*
X157213300Y-78861900D03*
X158483300Y-78861900D03*
X158483300Y-73461900D03*
X157213300Y-73461900D03*
X155943300Y-73461900D03*
X154673300Y-73461900D03*
D14*
X128143000Y-104902000D03*
X130683000Y-104902000D03*
X133223000Y-104902000D03*
X135763000Y-104902000D03*
X135763000Y-97282000D03*
X133223000Y-97282000D03*
X130683000Y-97282000D03*
X128143000Y-97282000D03*
X153289000Y-104775000D03*
X155829000Y-104775000D03*
X158369000Y-104775000D03*
X160909000Y-104775000D03*
X160909000Y-97155000D03*
X158369000Y-97155000D03*
X155829000Y-97155000D03*
X153289000Y-97155000D03*
D15*
X127431800Y-73177400D03*
X152323800Y-73494900D03*
D16*
X133311900Y-78557100D02*
X135260100Y-78557100D01*
X137845800Y-75971400D02*
X139420600Y-75971400D01*
X135260100Y-78557100D02*
X137845800Y-75971400D01*
X132041900Y-78557100D02*
X133311900Y-78557100D01*
X130771900Y-73157100D02*
X130771900Y-71691500D01*
X124447300Y-72948800D02*
X122770900Y-72948800D01*
X126111000Y-71285100D02*
X124447300Y-72948800D01*
X130365500Y-71285100D02*
X126111000Y-71285100D01*
X130771900Y-71691500D02*
X130365500Y-71285100D01*
X122770900Y-75488800D02*
X129006600Y-75488800D01*
X132041900Y-74637900D02*
X132041900Y-73157100D01*
X131572000Y-75107800D02*
X132041900Y-74637900D01*
X129387600Y-75107800D02*
X131572000Y-75107800D01*
X129006600Y-75488800D02*
X129387600Y-75107800D01*
X122770900Y-78028800D02*
X126733300Y-78028800D01*
X133311900Y-75006200D02*
X133311900Y-73157100D01*
X132295900Y-76022200D02*
X133311900Y-75006200D01*
X130568700Y-76022200D02*
X132295900Y-76022200D01*
X129819400Y-76771500D02*
X130568700Y-76022200D01*
X127990600Y-76771500D02*
X129819400Y-76771500D01*
X126733300Y-78028800D02*
X127990600Y-76771500D01*
X139420600Y-78511400D02*
X137337800Y-80594200D01*
X137337800Y-80594200D02*
X128524000Y-80594200D01*
X129501900Y-79273400D02*
X128181100Y-80594200D01*
X128524000Y-80594200D02*
X122796300Y-80594200D01*
X128181100Y-80594200D02*
X128524000Y-80594200D01*
X129501900Y-78557100D02*
X129501900Y-79273400D01*
X127452100Y-73157100D02*
X129501900Y-73157100D01*
X127431800Y-73177400D02*
X127452100Y-73157100D01*
X122796300Y-80594200D02*
X122770900Y-80568800D01*
X139420600Y-73431400D02*
X138506200Y-73431400D01*
X138506200Y-73431400D02*
X135229600Y-76708000D01*
X135229600Y-76708000D02*
X131457700Y-76708000D01*
X131457700Y-76708000D02*
X130771900Y-77393800D01*
X130771900Y-77393800D02*
X130771900Y-78557100D01*
X165074600Y-76415900D02*
X162750500Y-76415900D01*
X160304500Y-78861900D02*
X158483300Y-78861900D01*
X162750500Y-76415900D02*
X160304500Y-78861900D01*
X157213300Y-78861900D02*
X158483300Y-78861900D01*
X147574000Y-73215500D02*
X150456900Y-73215500D01*
X155943300Y-71920100D02*
X155943300Y-73461900D01*
X155587700Y-71564500D02*
X155943300Y-71920100D01*
X152107900Y-71564500D02*
X155587700Y-71564500D01*
X150456900Y-73215500D02*
X152107900Y-71564500D01*
X147574000Y-75755500D02*
X154495500Y-75755500D01*
X157213300Y-74803000D02*
X157213300Y-73461900D01*
X156768800Y-75247500D02*
X157213300Y-74803000D01*
X155003500Y-75247500D02*
X156768800Y-75247500D01*
X154495500Y-75755500D02*
X155003500Y-75247500D01*
X147574000Y-78295500D02*
X151879300Y-78295500D01*
X158483300Y-75298300D02*
X158483300Y-73461900D01*
X157645100Y-76136500D02*
X158483300Y-75298300D01*
X156184600Y-76136500D02*
X157645100Y-76136500D01*
X155511500Y-76809600D02*
X156184600Y-76136500D01*
X153365200Y-76809600D02*
X155511500Y-76809600D01*
X151879300Y-78295500D02*
X153365200Y-76809600D01*
X154673300Y-78861900D02*
X154673300Y-79705200D01*
X154673300Y-79705200D02*
X153543000Y-80835500D01*
X152356800Y-73461900D02*
X154673300Y-73461900D01*
X152323800Y-73494900D02*
X152356800Y-73461900D01*
X147574000Y-80835500D02*
X153543000Y-80835500D01*
X153543000Y-80835500D02*
X163195000Y-80835500D01*
X163195000Y-80835500D02*
X165074600Y-78955900D01*
X155943300Y-78861900D02*
X155943300Y-77965300D01*
X162521900Y-73875900D02*
X165074600Y-73875900D01*
X161798000Y-74599800D02*
X162521900Y-73875900D01*
X161798000Y-75971400D02*
X161798000Y-74599800D01*
X160540700Y-77228700D02*
X161798000Y-75971400D01*
X156679900Y-77228700D02*
X160540700Y-77228700D01*
X155943300Y-77965300D02*
X156679900Y-77228700D01*
X135763000Y-104902000D02*
X135763000Y-104000300D01*
X135763000Y-104000300D02*
X139026900Y-100736400D01*
X139026900Y-100736400D02*
X140627100Y-100736400D01*
X133223000Y-104902000D02*
X135763000Y-104902000D01*
X122682000Y-98044000D02*
X125323600Y-98044000D01*
X130683000Y-98717100D02*
X130683000Y-97282000D01*
X130225800Y-99174300D02*
X130683000Y-98717100D01*
X126453900Y-99174300D02*
X130225800Y-99174300D01*
X125323600Y-98044000D02*
X126453900Y-99174300D01*
X122682000Y-100584000D02*
X126492000Y-100584000D01*
X133223000Y-99263200D02*
X133223000Y-97282000D01*
X132283200Y-100203000D02*
X133223000Y-99263200D01*
X126873000Y-100203000D02*
X132283200Y-100203000D01*
X126492000Y-100584000D02*
X126873000Y-100203000D01*
X122682000Y-103124000D02*
X126238000Y-103124000D01*
X135763000Y-99199700D02*
X135763000Y-97282000D01*
X133426200Y-101536500D02*
X135763000Y-99199700D01*
X127825500Y-101536500D02*
X133426200Y-101536500D01*
X126238000Y-103124000D02*
X127825500Y-101536500D01*
X128143000Y-104902000D02*
X128143000Y-105257600D01*
X128143000Y-105257600D02*
X125831600Y-107569000D01*
X122682000Y-105664000D02*
X122682000Y-105803700D01*
X122682000Y-105803700D02*
X124447300Y-107569000D01*
X124447300Y-107569000D02*
X125831600Y-107569000D01*
X125831600Y-107569000D02*
X139306300Y-107569000D01*
X139306300Y-107569000D02*
X140627100Y-106248200D01*
X140627100Y-106248200D02*
X140627100Y-103276400D01*
X130683000Y-104902000D02*
X130683000Y-103898700D01*
X138938000Y-98196400D02*
X140627100Y-98196400D01*
X138226800Y-98907600D02*
X138938000Y-98196400D01*
X138226800Y-99479100D02*
X138226800Y-98907600D01*
X134988300Y-102717600D02*
X138226800Y-99479100D01*
X131864100Y-102717600D02*
X134988300Y-102717600D01*
X130683000Y-103898700D02*
X131864100Y-102717600D01*
X160909000Y-104775000D02*
X158369000Y-104775000D01*
X160909000Y-104775000D02*
X160909000Y-104305100D01*
X160909000Y-104305100D02*
X164109400Y-101104700D01*
X164109400Y-101104700D02*
X165506400Y-101104700D01*
X148221700Y-98894900D02*
X151015700Y-98894900D01*
X155829000Y-98602800D02*
X155829000Y-97155000D01*
X155028900Y-99402900D02*
X155829000Y-98602800D01*
X151523700Y-99402900D02*
X155028900Y-99402900D01*
X151015700Y-98894900D02*
X151523700Y-99402900D01*
X148221700Y-101434900D02*
X150787100Y-101434900D01*
X158369000Y-99187000D02*
X158369000Y-97155000D01*
X157772100Y-99783900D02*
X158369000Y-99187000D01*
X156019500Y-99783900D02*
X157772100Y-99783900D01*
X155067000Y-100736400D02*
X156019500Y-99783900D01*
X151485600Y-100736400D02*
X155067000Y-100736400D01*
X150787100Y-101434900D02*
X151485600Y-100736400D01*
X148221700Y-103974900D02*
X150342600Y-103974900D01*
X160909000Y-99656900D02*
X160909000Y-97155000D01*
X159524700Y-101041200D02*
X160909000Y-99656900D01*
X156400500Y-101041200D02*
X159524700Y-101041200D01*
X155219400Y-102222300D02*
X156400500Y-101041200D01*
X152095200Y-102222300D02*
X155219400Y-102222300D01*
X150342600Y-103974900D02*
X152095200Y-102222300D01*
X153289000Y-104775000D02*
X153289000Y-106502200D01*
X153289000Y-106502200D02*
X152107900Y-107683300D01*
X148221700Y-106514900D02*
X148221700Y-107086400D01*
X148221700Y-107086400D02*
X148818600Y-107683300D01*
X148818600Y-107683300D02*
X152107900Y-107683300D01*
X152107900Y-107683300D02*
X163436300Y-107683300D01*
X163436300Y-107683300D02*
X165506400Y-105613200D01*
X165506400Y-105613200D02*
X165506400Y-103644700D01*
X155829000Y-104775000D02*
X155829000Y-103670100D01*
X163753800Y-98564700D02*
X165506400Y-98564700D01*
X162991800Y-99326700D02*
X163753800Y-98564700D01*
X162991800Y-100164900D02*
X162991800Y-99326700D01*
X160743900Y-102412800D02*
X162991800Y-100164900D01*
X157086300Y-102412800D02*
X160743900Y-102412800D01*
X155829000Y-103670100D02*
X157086300Y-102412800D01*
M02*
