G04 #@! TF.FileFunction,Copper,L1,Top,Signal*
%FSLAX46Y46*%
G04 Gerber Fmt 4.6, Leading zero omitted, Abs format (unit mm)*
G04 Created by KiCad (PCBNEW 4.0.4-stable) date 10/17/16 21:55:59*
%MOMM*%
%LPD*%
G01*
G04 APERTURE LIST*
%ADD10C,0.100000*%
%ADD11R,2.032000X1.727200*%
%ADD12O,2.032000X1.727200*%
%ADD13R,0.450000X1.750000*%
%ADD14R,2.301240X0.500380*%
%ADD15R,2.499360X1.998980*%
%ADD16R,1.250000X1.000000*%
%ADD17R,0.700000X1.300000*%
%ADD18R,1.300000X0.700000*%
%ADD19R,2.750000X1.000000*%
%ADD20R,3.657600X2.032000*%
%ADD21R,1.016000X2.032000*%
%ADD22R,1.727200X2.032000*%
%ADD23O,1.727200X2.032000*%
%ADD24R,2.032000X1.524000*%
%ADD25R,1.198880X1.198880*%
%ADD26R,0.600000X1.550000*%
%ADD27R,1.250000X3.100000*%
%ADD28C,0.600000*%
%ADD29C,0.250000*%
%ADD30C,0.500000*%
%ADD31C,0.300000*%
G04 APERTURE END LIST*
D10*
D11*
X143052800Y-119786400D03*
D12*
X143052800Y-117246400D03*
X143052800Y-114706400D03*
X143052800Y-112166400D03*
D11*
X130048000Y-121970800D03*
D12*
X130048000Y-119430800D03*
X130048000Y-116890800D03*
D13*
X154694600Y-112427200D03*
X154044600Y-112427200D03*
X153394600Y-112427200D03*
X152744600Y-112427200D03*
X152094600Y-112427200D03*
X151444600Y-112427200D03*
X150794600Y-112427200D03*
X150144600Y-112427200D03*
X149494600Y-112427200D03*
X148844600Y-112427200D03*
X148194600Y-112427200D03*
X147544600Y-112427200D03*
X146894600Y-112427200D03*
X146244600Y-112427200D03*
X146244600Y-119627200D03*
X146894600Y-119627200D03*
X147544600Y-119627200D03*
X148194600Y-119627200D03*
X148844600Y-119627200D03*
X149494600Y-119627200D03*
X150144600Y-119627200D03*
X150794600Y-119627200D03*
X151444600Y-119627200D03*
X152094600Y-119627200D03*
X152744600Y-119627200D03*
X153394600Y-119627200D03*
X154044600Y-119627200D03*
X154694600Y-119627200D03*
D14*
X158856680Y-97612200D03*
X158856680Y-96812100D03*
X158856680Y-96012000D03*
X158856680Y-95211900D03*
X158856680Y-94411800D03*
D15*
X158955740Y-100462080D03*
X164454840Y-100462080D03*
X158955740Y-91561920D03*
X164454840Y-91561920D03*
D16*
X154279600Y-104664000D03*
X154279600Y-106664000D03*
X148437600Y-106664000D03*
X148437600Y-104664000D03*
X138277600Y-106206800D03*
X138277600Y-104206800D03*
D17*
X136484400Y-103835200D03*
X134584400Y-103835200D03*
D18*
X140462000Y-87564000D03*
X140462000Y-85664000D03*
X140462000Y-91252000D03*
X140462000Y-93152000D03*
D19*
X148305800Y-102228400D03*
X154055800Y-102228400D03*
X154055800Y-98228400D03*
X148305800Y-98228400D03*
D20*
X143129000Y-98298000D03*
D21*
X143129000Y-104902000D03*
X145415000Y-104902000D03*
X140843000Y-104902000D03*
D22*
X124256800Y-105257600D03*
D23*
X126796800Y-105257600D03*
X129336800Y-105257600D03*
X131876800Y-105257600D03*
D16*
X163830000Y-125002800D03*
X163830000Y-123002800D03*
X156819600Y-125002800D03*
X156819600Y-123002800D03*
D24*
X160274000Y-126009400D03*
X160274000Y-122707400D03*
D18*
X142189200Y-125410000D03*
X142189200Y-123510000D03*
X151739600Y-125308400D03*
X151739600Y-123408400D03*
D25*
X145288000Y-125458220D03*
X145288000Y-123360180D03*
X147929600Y-125458220D03*
X147929600Y-123360180D03*
D26*
X122859800Y-121978400D03*
X124129800Y-121978400D03*
X125399800Y-121978400D03*
X126669800Y-121978400D03*
X126669800Y-116578400D03*
X125399800Y-116578400D03*
X124129800Y-116578400D03*
X122859800Y-116578400D03*
D14*
X158501080Y-117119400D03*
X158501080Y-116319300D03*
X158501080Y-115519200D03*
X158501080Y-114719100D03*
X158501080Y-113919000D03*
D15*
X158600140Y-119969280D03*
X164099240Y-119969280D03*
X158600140Y-111069120D03*
X164099240Y-111069120D03*
D27*
X137210800Y-85249000D03*
X135178800Y-85299800D03*
X133096000Y-85376000D03*
X131114800Y-85350600D03*
X129082800Y-85376000D03*
X127101600Y-85350600D03*
X125095000Y-85376000D03*
X137172700Y-100687100D03*
X135089900Y-100763300D03*
X133108700Y-100763300D03*
X131089400Y-100776000D03*
X129057400Y-100776000D03*
X127152400Y-100776000D03*
X125120400Y-100776000D03*
X123088400Y-100776000D03*
X123088400Y-85376000D03*
D22*
X143713200Y-87223600D03*
D23*
X146253200Y-87223600D03*
X148793200Y-87223600D03*
X151333200Y-87223600D03*
X153873200Y-87223600D03*
D11*
X119583200Y-123952000D03*
D12*
X119583200Y-121412000D03*
X119583200Y-118872000D03*
X119583200Y-116332000D03*
X119583200Y-113792000D03*
D28*
X156108400Y-87528400D03*
X160274000Y-102971600D03*
X135890000Y-88900000D03*
X125222000Y-88442800D03*
X123190000Y-88392000D03*
X140462000Y-94742000D03*
X145542000Y-101219000D03*
X131165600Y-90068400D03*
X154838400Y-124053600D03*
X148183600Y-117754400D03*
X150266400Y-114350800D03*
X153670000Y-122275600D03*
X152196800Y-121920000D03*
X154279600Y-114655600D03*
D29*
X148894800Y-123342400D02*
X148894800Y-123410980D01*
D30*
X157581600Y-87020400D02*
X157988000Y-87426800D01*
X156616400Y-87020400D02*
X157581600Y-87020400D01*
X156108400Y-87528400D02*
X156616400Y-87020400D01*
X140462000Y-91252000D02*
X141208800Y-91252000D01*
X143713200Y-88747600D02*
X143713200Y-87223600D01*
X141208800Y-91252000D02*
X143713200Y-88747600D01*
X143713200Y-87223600D02*
X143713200Y-85699600D01*
X143713200Y-85699600D02*
X144832516Y-84580284D01*
X164454840Y-100462080D02*
X162783520Y-100462080D01*
X162783520Y-100462080D02*
X160274000Y-102971600D01*
X164454840Y-91561920D02*
X163697920Y-91561920D01*
X163697920Y-91561920D02*
X162763200Y-90627200D01*
X162763200Y-90627200D02*
X159890460Y-90627200D01*
X159890460Y-90627200D02*
X158955740Y-91561920D01*
X154279600Y-106664000D02*
X159832800Y-106664000D01*
X164454840Y-102041960D02*
X164454840Y-100462080D01*
X159832800Y-106664000D02*
X164454840Y-102041960D01*
X158955740Y-100462080D02*
X158955740Y-101653340D01*
X158955740Y-101653340D02*
X160274000Y-102971600D01*
X140462000Y-85664000D02*
X140462000Y-85496400D01*
X140462000Y-85496400D02*
X141378116Y-84580284D01*
X141378116Y-84580284D02*
X144832516Y-84580284D01*
X144832516Y-84580284D02*
X150496763Y-84580284D01*
X140462000Y-85664000D02*
X137851400Y-85664000D01*
X137851400Y-85664000D02*
X137312400Y-86203000D01*
X140843000Y-104902000D02*
X140843000Y-106095800D01*
X140843000Y-106095800D02*
X141782800Y-107035600D01*
X138277600Y-106206800D02*
X138277600Y-106222800D01*
X138277600Y-106222800D02*
X139090400Y-107035600D01*
X139090400Y-107035600D02*
X141782800Y-107035600D01*
X141782800Y-107035600D02*
X148066000Y-107035600D01*
X148066000Y-107035600D02*
X148437600Y-106664000D01*
X154279600Y-106664000D02*
X148437600Y-106664000D01*
X124256800Y-105257600D02*
X124256800Y-105714800D01*
X124256800Y-105714800D02*
X125933200Y-107391200D01*
X125933200Y-107391200D02*
X137093200Y-107391200D01*
X137093200Y-107391200D02*
X138277600Y-106206800D01*
X158955740Y-91561920D02*
X158955740Y-89994740D01*
X158955740Y-89994740D02*
X157988000Y-89027000D01*
X157988000Y-89027000D02*
X157988000Y-87426800D01*
X157224284Y-84580284D02*
X150496763Y-84580284D01*
X157988000Y-87426800D02*
X157988000Y-85344000D01*
X157988000Y-85344000D02*
X157224284Y-84580284D01*
X158856680Y-94411800D02*
X158856680Y-91660980D01*
X158856680Y-91660980D02*
X158955740Y-91561920D01*
X154279600Y-104664000D02*
X155736800Y-104664000D01*
X156895800Y-97612200D02*
X158856680Y-97612200D01*
X156464000Y-98044000D02*
X156895800Y-97612200D01*
X156464000Y-103936800D02*
X156464000Y-98044000D01*
X155736800Y-104664000D02*
X156464000Y-103936800D01*
X145415000Y-104902000D02*
X146507200Y-104902000D01*
X146745200Y-104664000D02*
X148437600Y-104664000D01*
X146507200Y-104902000D02*
X146745200Y-104664000D01*
X154279600Y-104664000D02*
X148437600Y-104664000D01*
X158856680Y-97612200D02*
X158038800Y-97612200D01*
X158856680Y-97612200D02*
X158673800Y-97612200D01*
X153873200Y-87223600D02*
X153873200Y-98045800D01*
X153873200Y-98045800D02*
X154055800Y-98228400D01*
X137274300Y-100241100D02*
X137833100Y-100241100D01*
X137833100Y-100241100D02*
X139827000Y-102235000D01*
X136484400Y-103835200D02*
X137906000Y-103835200D01*
X137906000Y-103835200D02*
X138277600Y-104206800D01*
X138277600Y-104206800D02*
X138277600Y-103632000D01*
X139674600Y-102235000D02*
X139827000Y-102235000D01*
X139827000Y-102235000D02*
X142621000Y-102235000D01*
X138277600Y-103632000D02*
X139674600Y-102235000D01*
X137906000Y-103835200D02*
X138277600Y-104206800D01*
X142621000Y-102235000D02*
X142621000Y-102362000D01*
X142621000Y-102362000D02*
X143129000Y-102870000D01*
X142621000Y-102235000D02*
X142621000Y-102108000D01*
X142621000Y-102108000D02*
X143129000Y-101600000D01*
X142621000Y-102235000D02*
X143129000Y-102235000D01*
X143129000Y-98298000D02*
X143129000Y-101600000D01*
X143129000Y-101600000D02*
X143129000Y-102235000D01*
X143129000Y-102235000D02*
X143129000Y-102870000D01*
X143129000Y-102870000D02*
X143129000Y-104902000D01*
X149017000Y-98076000D02*
X154767000Y-98076000D01*
X143129000Y-98298000D02*
X148795000Y-98298000D01*
X148795000Y-98298000D02*
X149017000Y-98076000D01*
D29*
X135178800Y-88188800D02*
X135178800Y-85999800D01*
X135890000Y-88900000D02*
X135178800Y-88188800D01*
X133108700Y-100063300D02*
X133108700Y-98183700D01*
X148793200Y-91338400D02*
X148793200Y-87223600D01*
X143814800Y-96316800D02*
X148793200Y-91338400D01*
X134975600Y-96316800D02*
X143814800Y-96316800D01*
X133108700Y-98183700D02*
X134975600Y-96316800D01*
X146253200Y-87223600D02*
X146253200Y-91897200D01*
X131089400Y-97764600D02*
X131089400Y-100076000D01*
X133197600Y-95656400D02*
X131089400Y-97764600D01*
X142494000Y-95656400D02*
X133197600Y-95656400D01*
X146253200Y-91897200D02*
X142494000Y-95656400D01*
X127254000Y-100330000D02*
X127254000Y-102819200D01*
X134076400Y-103327200D02*
X134584400Y-103835200D01*
X127762000Y-103327200D02*
X134076400Y-103327200D01*
X127254000Y-102819200D02*
X127762000Y-103327200D01*
X140462000Y-87564000D02*
X140462000Y-88138000D01*
X133190000Y-88740000D02*
X133190000Y-86330000D01*
X135128000Y-90678000D02*
X133190000Y-88740000D01*
X137922000Y-90678000D02*
X135128000Y-90678000D01*
X140462000Y-88138000D02*
X137922000Y-90678000D01*
X125190000Y-86330000D02*
X125190000Y-88410800D01*
X125190000Y-88410800D02*
X125222000Y-88442800D01*
X123190000Y-88392000D02*
X123190000Y-86330000D01*
X148305800Y-102228400D02*
X154055800Y-102228400D01*
X127190000Y-86330000D02*
X127190000Y-88709000D01*
X131633000Y-93152000D02*
X140462000Y-93152000D01*
X127190000Y-88709000D02*
X131633000Y-93152000D01*
X149017000Y-102076000D02*
X146399000Y-102076000D01*
X140462000Y-94742000D02*
X140462000Y-93152000D01*
X146399000Y-102076000D02*
X145542000Y-101219000D01*
X131165600Y-90068400D02*
X131190000Y-90044000D01*
X131190000Y-90044000D02*
X131190000Y-86330000D01*
X158854140Y-110662720D02*
X158628080Y-110662720D01*
X164353240Y-110662720D02*
X163647120Y-110662720D01*
X163647120Y-110662720D02*
X162712400Y-109728000D01*
X162712400Y-109728000D02*
X159788860Y-109728000D01*
X159788860Y-109728000D02*
X158854140Y-110662720D01*
X158427420Y-110236000D02*
X158854140Y-110662720D01*
X158755080Y-110761780D02*
X158854140Y-110662720D01*
X156819600Y-125002800D02*
X155787600Y-125002800D01*
X155787600Y-125002800D02*
X154838400Y-124053600D01*
X156850080Y-111069120D02*
X156687520Y-111069120D01*
X144932400Y-110286800D02*
X143052800Y-112166400D01*
X155905200Y-110286800D02*
X144932400Y-110286800D01*
X156687520Y-111069120D02*
X155905200Y-110286800D01*
X158704280Y-113919000D02*
X156845000Y-113919000D01*
X156850080Y-111069120D02*
X158803340Y-111069120D01*
X156667200Y-111252000D02*
X156850080Y-111069120D01*
X156667200Y-113741200D02*
X156667200Y-111252000D01*
X156845000Y-113919000D02*
X156667200Y-113741200D01*
X163830000Y-125002800D02*
X162442400Y-125002800D01*
X158207200Y-125002800D02*
X156819600Y-125002800D01*
X158851600Y-124358400D02*
X158207200Y-125002800D01*
X161798000Y-124358400D02*
X158851600Y-124358400D01*
X162442400Y-125002800D02*
X161798000Y-124358400D01*
X150794600Y-112427200D02*
X150794600Y-113822600D01*
X148194600Y-117765400D02*
X148183600Y-117754400D01*
X148194600Y-119627200D02*
X148194600Y-117765400D01*
X150794600Y-113822600D02*
X150266400Y-114350800D01*
X158854140Y-119562880D02*
X159644080Y-119562880D01*
X159644080Y-119562880D02*
X160731200Y-120650000D01*
X160731200Y-120650000D02*
X163266120Y-120650000D01*
X163266120Y-120650000D02*
X164353240Y-119562880D01*
X143052800Y-119786400D02*
X142189200Y-119786400D01*
X142189200Y-119786400D02*
X141274800Y-118872000D01*
X141274800Y-118872000D02*
X141274800Y-113944400D01*
X141274800Y-113944400D02*
X143052800Y-112166400D01*
X153619200Y-121208800D02*
X153619200Y-122224800D01*
X153619200Y-122224800D02*
X153670000Y-122275600D01*
X153394600Y-119627200D02*
X153394600Y-120984200D01*
X153394600Y-120984200D02*
X153593800Y-121183400D01*
X163830000Y-125002800D02*
X165065200Y-125002800D01*
X165065200Y-125002800D02*
X165506400Y-124561600D01*
X165506400Y-124561600D02*
X165506400Y-120716040D01*
X165506400Y-120716040D02*
X164353240Y-119562880D01*
X153593800Y-121183400D02*
X153619200Y-121208800D01*
X152744600Y-119627200D02*
X152744600Y-120943800D01*
X153009600Y-121208800D02*
X153619200Y-121208800D01*
X152744600Y-120943800D02*
X153009600Y-121208800D01*
X150144600Y-119627200D02*
X150144600Y-118377002D01*
X152744600Y-118251400D02*
X152744600Y-119627200D01*
X152596002Y-118102802D02*
X152744600Y-118251400D01*
X150418800Y-118102802D02*
X152596002Y-118102802D01*
X150144600Y-118377002D02*
X150418800Y-118102802D01*
X156819600Y-123002800D02*
X156819600Y-121666000D01*
X156667200Y-118110000D02*
X157657800Y-117119400D01*
X156667200Y-121513600D02*
X156667200Y-118110000D01*
X156819600Y-121666000D02*
X156667200Y-121513600D01*
X157657800Y-117119400D02*
X158704280Y-117119400D01*
X156819600Y-123002800D02*
X159978600Y-123002800D01*
X159978600Y-123002800D02*
X160274000Y-122707400D01*
X160274000Y-122148600D02*
X162975800Y-122148600D01*
X162975800Y-122148600D02*
X163830000Y-123002800D01*
X160274000Y-126009400D02*
X158572200Y-126009400D01*
X149494600Y-117916600D02*
X149494600Y-119627200D01*
X150012400Y-117398800D02*
X149494600Y-117916600D01*
X154838400Y-117398800D02*
X150012400Y-117398800D01*
X155752800Y-118313200D02*
X154838400Y-117398800D01*
X155752800Y-120853200D02*
X155752800Y-118313200D01*
X154533600Y-122072400D02*
X155752800Y-120853200D01*
X154533600Y-122478800D02*
X154533600Y-122072400D01*
X153771600Y-123240800D02*
X154533600Y-122478800D01*
X153771600Y-125933200D02*
X153771600Y-123240800D01*
X154330400Y-126492000D02*
X153771600Y-125933200D01*
X158089600Y-126492000D02*
X154330400Y-126492000D01*
X158572200Y-126009400D02*
X158089600Y-126492000D01*
X159842200Y-126441200D02*
X160274000Y-126009400D01*
X159486600Y-125450600D02*
X160020000Y-126390400D01*
X160020000Y-126390400D02*
X160375600Y-125984000D01*
X160274000Y-125450600D02*
X159486600Y-125450600D01*
X130048000Y-121970800D02*
X130606800Y-121970800D01*
X130606800Y-121970800D02*
X132943600Y-119634000D01*
X131775200Y-114401600D02*
X120396000Y-114401600D01*
X132943600Y-115570000D02*
X131775200Y-114401600D01*
X132943600Y-119634000D02*
X132943600Y-115570000D01*
X120396000Y-114401600D02*
X119735600Y-113741200D01*
X122859800Y-121978400D02*
X122859800Y-123825000D01*
X123317000Y-124282200D02*
X124841000Y-124282200D01*
X122859800Y-123825000D02*
X123317000Y-124282200D01*
X130048000Y-121970800D02*
X130048000Y-122428000D01*
X130048000Y-122428000D02*
X128193800Y-124282200D01*
X128193800Y-124282200D02*
X124841000Y-124282200D01*
X124129800Y-121978400D02*
X124129800Y-123571000D01*
X124129800Y-123571000D02*
X124841000Y-124282200D01*
X122859800Y-116578400D02*
X120032800Y-116578400D01*
X120032800Y-116578400D02*
X119735600Y-116281200D01*
X119735600Y-118821200D02*
X124764800Y-118821200D01*
X125399800Y-118186200D02*
X125399800Y-116578400D01*
X124764800Y-118821200D02*
X125399800Y-118186200D01*
X126669800Y-121978400D02*
X126669800Y-120675400D01*
X121139200Y-120973600D02*
X118853000Y-120973600D01*
X121970800Y-120142000D02*
X121139200Y-120973600D01*
X126136400Y-120142000D02*
X121970800Y-120142000D01*
X126669800Y-120675400D02*
X126136400Y-120142000D01*
D31*
X126669800Y-116578400D02*
X126669800Y-116103400D01*
X126669800Y-116103400D02*
X127711200Y-115062000D01*
X124129800Y-116578400D02*
X124129800Y-115493800D01*
X131622800Y-119430800D02*
X130048000Y-119430800D01*
X132181600Y-118872000D02*
X131622800Y-119430800D01*
X132181600Y-115824000D02*
X132181600Y-118872000D01*
X131419600Y-115062000D02*
X132181600Y-115824000D01*
X124561600Y-115062000D02*
X127711200Y-115062000D01*
X127711200Y-115062000D02*
X131419600Y-115062000D01*
X124129800Y-115493800D02*
X124561600Y-115062000D01*
D29*
X158704280Y-116319300D02*
X155003500Y-116319300D01*
X155003500Y-116319300D02*
X154736800Y-116586000D01*
X154736800Y-116586000D02*
X148082000Y-116586000D01*
X146894600Y-117773400D02*
X146894600Y-119627200D01*
X148082000Y-116586000D02*
X146894600Y-117773400D01*
X158704280Y-115519200D02*
X154584400Y-115519200D01*
X154584400Y-115519200D02*
X154432000Y-115671600D01*
X154432000Y-115671600D02*
X154228800Y-115874800D01*
X146244600Y-117204200D02*
X146244600Y-119627200D01*
X147574000Y-115874800D02*
X146244600Y-117204200D01*
X154228800Y-115874800D02*
X147574000Y-115874800D01*
X143052800Y-117246400D02*
X144475200Y-117246400D01*
X152094600Y-114199000D02*
X152094600Y-112427200D01*
X151130000Y-115163600D02*
X152094600Y-114199000D01*
X146558000Y-115163600D02*
X151130000Y-115163600D01*
X144475200Y-117246400D02*
X146558000Y-115163600D01*
X143052800Y-114706400D02*
X144170400Y-114706400D01*
X144932400Y-111353600D02*
X145491200Y-110794800D01*
X144932400Y-113944400D02*
X144932400Y-111353600D01*
X144170400Y-114706400D02*
X144932400Y-113944400D01*
X154694600Y-111209800D02*
X154694600Y-112427200D01*
X154279600Y-110794800D02*
X154694600Y-111209800D01*
X145491200Y-110794800D02*
X154279600Y-110794800D01*
X142189200Y-125410000D02*
X145239780Y-125410000D01*
X145239780Y-125410000D02*
X145288000Y-125458220D01*
X145747780Y-125410000D02*
X145796000Y-125458220D01*
X141224000Y-126644400D02*
X140817600Y-126238000D01*
X152603200Y-126644400D02*
X141224000Y-126644400D01*
X153111200Y-126136400D02*
X152603200Y-126644400D01*
X153111200Y-123698000D02*
X153111200Y-126136400D01*
X151739600Y-123408400D02*
X152821600Y-123408400D01*
X140954800Y-123510000D02*
X142189200Y-123510000D01*
X140817600Y-123647200D02*
X140954800Y-123510000D01*
X140817600Y-126238000D02*
X140817600Y-123647200D01*
X152821600Y-123408400D02*
X153111200Y-123698000D01*
X152744600Y-112427200D02*
X152744600Y-114136600D01*
X151739600Y-122377200D02*
X151739600Y-123408400D01*
X152196800Y-121920000D02*
X151739600Y-122377200D01*
X154228800Y-114604800D02*
X154279600Y-114655600D01*
X153212800Y-114604800D02*
X154228800Y-114604800D01*
X152744600Y-114136600D02*
X153212800Y-114604800D01*
X151739600Y-125308400D02*
X148079420Y-125308400D01*
X148079420Y-125308400D02*
X147929600Y-125458220D01*
X151538980Y-125509020D02*
X151739600Y-125308400D01*
X145288000Y-123360180D02*
X145288000Y-122224800D01*
X150794600Y-120985400D02*
X150794600Y-119627200D01*
X150469600Y-121310400D02*
X150794600Y-120985400D01*
X146202400Y-121310400D02*
X150469600Y-121310400D01*
X145288000Y-122224800D02*
X146202400Y-121310400D01*
X147929600Y-123360180D02*
X147929600Y-122682000D01*
X151444600Y-121453000D02*
X151444600Y-119627200D01*
X150977600Y-121920000D02*
X151444600Y-121453000D01*
X148691600Y-121920000D02*
X150977600Y-121920000D01*
X147929600Y-122682000D02*
X148691600Y-121920000D01*
X130048000Y-116890800D02*
X128625600Y-116890800D01*
X125399800Y-123266200D02*
X125399800Y-121978400D01*
X125730000Y-123596400D02*
X125399800Y-123266200D01*
X127609600Y-123596400D02*
X125730000Y-123596400D01*
X127965200Y-123240800D02*
X127609600Y-123596400D01*
X127965200Y-117551200D02*
X127965200Y-123240800D01*
X128625600Y-116890800D02*
X127965200Y-117551200D01*
M02*
