M48
INCH,TZ
T1C0.016
T2C0.040
%
G90
G05
T1
X48500Y-34800
X49300Y-34820
X51640Y-35460
X53500Y-35000
X55300Y-37300
X57300Y-39850
X58340Y-46360
X59160Y-45020
X59920Y-48000
X60500Y-48140
X60740Y-45140
X60960Y-48840
X61460Y-34460
X63100Y-40540
T2
X47080Y-44800
X47080Y-45800
X47080Y-46800
X47080Y-47800
X47080Y-48800
X48920Y-41440
X49920Y-41440
X50920Y-41440
X51200Y-46020
X51200Y-47020
X51200Y-48020
X51920Y-41440
X56320Y-44160
X56320Y-45160
X56320Y-46160
X56320Y-47160
X56580Y-34340
X57580Y-34340
X58580Y-34340
X59580Y-34340
X60580Y-34340
T0
M30
