G04 #@! TF.FileFunction,Soldermask,Top*
%FSLAX46Y46*%
G04 Gerber Fmt 4.6, Leading zero omitted, Abs format (unit mm)*
G04 Created by KiCad (PCBNEW 4.0.4-stable) date 10/17/16 21:55:59*
%MOMM*%
%LPD*%
G01*
G04 APERTURE LIST*
%ADD10C,0.100000*%
%ADD11R,2.432000X2.127200*%
%ADD12O,2.432000X2.127200*%
%ADD13R,0.850000X2.150000*%
%ADD14R,2.701240X0.900380*%
%ADD15R,2.899360X2.398980*%
%ADD16C,1.299160*%
%ADD17R,1.650000X1.400000*%
%ADD18R,1.100000X1.700000*%
%ADD19R,1.700000X1.100000*%
%ADD20R,3.150000X1.400000*%
%ADD21R,4.057600X2.432000*%
%ADD22R,1.416000X2.432000*%
%ADD23R,2.127200X2.432000*%
%ADD24O,2.127200X2.432000*%
%ADD25R,2.432000X1.924000*%
%ADD26R,1.598880X1.598880*%
%ADD27R,1.000000X1.950000*%
%ADD28C,2.900000*%
%ADD29R,1.650000X3.500000*%
G04 APERTURE END LIST*
D10*
D11*
X143052800Y-119786400D03*
D12*
X143052800Y-117246400D03*
X143052800Y-114706400D03*
X143052800Y-112166400D03*
D11*
X130048000Y-121970800D03*
D12*
X130048000Y-119430800D03*
X130048000Y-116890800D03*
D13*
X154694600Y-112427200D03*
X154044600Y-112427200D03*
X153394600Y-112427200D03*
X152744600Y-112427200D03*
X152094600Y-112427200D03*
X151444600Y-112427200D03*
X150794600Y-112427200D03*
X150144600Y-112427200D03*
X149494600Y-112427200D03*
X148844600Y-112427200D03*
X148194600Y-112427200D03*
X147544600Y-112427200D03*
X146894600Y-112427200D03*
X146244600Y-112427200D03*
X146244600Y-119627200D03*
X146894600Y-119627200D03*
X147544600Y-119627200D03*
X148194600Y-119627200D03*
X148844600Y-119627200D03*
X149494600Y-119627200D03*
X150144600Y-119627200D03*
X150794600Y-119627200D03*
X151444600Y-119627200D03*
X152094600Y-119627200D03*
X152744600Y-119627200D03*
X153394600Y-119627200D03*
X154044600Y-119627200D03*
X154694600Y-119627200D03*
D14*
X158856680Y-97612200D03*
X158856680Y-96812100D03*
X158856680Y-96012000D03*
X158856680Y-95211900D03*
X158856680Y-94411800D03*
D15*
X158955740Y-100462080D03*
X164454840Y-100462080D03*
X158955740Y-91561920D03*
X164454840Y-91561920D03*
D16*
X161455100Y-98211640D03*
X161455100Y-93812360D03*
D17*
X154279600Y-104664000D03*
X154279600Y-106664000D03*
X148437600Y-106664000D03*
X148437600Y-104664000D03*
X138277600Y-106206800D03*
X138277600Y-104206800D03*
D18*
X136484400Y-103835200D03*
X134584400Y-103835200D03*
D19*
X140462000Y-87564000D03*
X140462000Y-85664000D03*
X140462000Y-91252000D03*
X140462000Y-93152000D03*
D20*
X148305800Y-102228400D03*
X154055800Y-102228400D03*
X154055800Y-98228400D03*
X148305800Y-98228400D03*
D21*
X143129000Y-98298000D03*
D22*
X143129000Y-104902000D03*
X145415000Y-104902000D03*
X140843000Y-104902000D03*
D23*
X124256800Y-105257600D03*
D24*
X126796800Y-105257600D03*
X129336800Y-105257600D03*
X131876800Y-105257600D03*
D17*
X163830000Y-125002800D03*
X163830000Y-123002800D03*
X156819600Y-125002800D03*
X156819600Y-123002800D03*
D25*
X160274000Y-126009400D03*
X160274000Y-122707400D03*
D19*
X142189200Y-125410000D03*
X142189200Y-123510000D03*
X151739600Y-125308400D03*
X151739600Y-123408400D03*
D26*
X145288000Y-125458220D03*
X145288000Y-123360180D03*
X147929600Y-125458220D03*
X147929600Y-123360180D03*
D27*
X122859800Y-121978400D03*
X124129800Y-121978400D03*
X125399800Y-121978400D03*
X126669800Y-121978400D03*
X126669800Y-116578400D03*
X125399800Y-116578400D03*
X124129800Y-116578400D03*
X122859800Y-116578400D03*
D28*
X162458400Y-87122000D03*
D14*
X158501080Y-117119400D03*
X158501080Y-116319300D03*
X158501080Y-115519200D03*
X158501080Y-114719100D03*
X158501080Y-113919000D03*
D15*
X158600140Y-119969280D03*
X164099240Y-119969280D03*
X158600140Y-111069120D03*
X164099240Y-111069120D03*
D16*
X161099500Y-117718840D03*
X161099500Y-113319560D03*
D29*
X137210800Y-85249000D03*
X135178800Y-85299800D03*
X133096000Y-85376000D03*
X131114800Y-85350600D03*
X129082800Y-85376000D03*
X127101600Y-85350600D03*
X125095000Y-85376000D03*
X137172700Y-100687100D03*
X135089900Y-100763300D03*
X133108700Y-100763300D03*
X131089400Y-100776000D03*
X129057400Y-100776000D03*
X127152400Y-100776000D03*
X125120400Y-100776000D03*
X123088400Y-100776000D03*
X123088400Y-85376000D03*
D28*
X119176800Y-105460800D03*
D23*
X143713200Y-87223600D03*
D24*
X146253200Y-87223600D03*
X148793200Y-87223600D03*
X151333200Y-87223600D03*
X153873200Y-87223600D03*
D11*
X119583200Y-123952000D03*
D12*
X119583200Y-121412000D03*
X119583200Y-118872000D03*
X119583200Y-116332000D03*
X119583200Y-113792000D03*
M02*
