G04 #@! TF.FileFunction,Legend,Bot*
%FSLAX46Y46*%
G04 Gerber Fmt 4.6, Leading zero omitted, Abs format (unit mm)*
G04 Created by KiCad (PCBNEW 4.0.4-stable) date 12/16/16 21:33:44*
%MOMM*%
%LPD*%
G01*
G04 APERTURE LIST*
%ADD10C,0.100000*%
%ADD11C,0.127000*%
%ADD12C,0.150000*%
%ADD13C,0.307000*%
%ADD14C,0.500000*%
%ADD15C,0.125000*%
G04 APERTURE END LIST*
D10*
D11*
X155067753Y-83005000D02*
G75*
G03X155067753Y-83005000I-4092753J0D01*
G01*
D12*
X149090000Y-89950000D02*
X149090000Y-88950000D01*
X150790000Y-88950000D02*
X150790000Y-89950000D01*
X151400000Y-93775000D02*
X151400000Y-92775000D01*
X153100000Y-92775000D02*
X153100000Y-93775000D01*
X146475000Y-93325000D02*
X147475000Y-93325000D01*
X147475000Y-95025000D02*
X146475000Y-95025000D01*
X151435000Y-88220000D02*
X151435000Y-89420000D01*
X153185000Y-89420000D02*
X153185000Y-88220000D01*
X155535000Y-90980000D02*
X155535000Y-89780000D01*
X153785000Y-89780000D02*
X153785000Y-90980000D01*
X157985000Y-62140000D02*
X157985000Y-60940000D01*
X156235000Y-60940000D02*
X156235000Y-62140000D01*
X152580000Y-63730000D02*
X149780000Y-63730000D01*
X149780000Y-63730000D02*
X149780000Y-65130000D01*
X149780000Y-65130000D02*
X152580000Y-65130000D01*
X152580000Y-65130000D02*
X152580000Y-63730000D01*
X148180000Y-62680000D02*
X148180000Y-63330000D01*
X148180000Y-66180000D02*
X148180000Y-65530000D01*
X154180000Y-65530000D02*
X154180000Y-66180000D01*
X154180000Y-62680000D02*
X154180000Y-63330000D01*
X148180000Y-62680000D02*
X154180000Y-62680000D01*
X154180000Y-66180000D02*
X148180000Y-66180000D01*
X149780000Y-69130000D02*
X152580000Y-69130000D01*
X152580000Y-69130000D02*
X152580000Y-67730000D01*
X152580000Y-67730000D02*
X149780000Y-67730000D01*
X149780000Y-67730000D02*
X149780000Y-69130000D01*
X154180000Y-70180000D02*
X154180000Y-69530000D01*
X154180000Y-66680000D02*
X154180000Y-67330000D01*
X148180000Y-67330000D02*
X148180000Y-66680000D01*
X148180000Y-70180000D02*
X148180000Y-69530000D01*
X154180000Y-70180000D02*
X148180000Y-70180000D01*
X148180000Y-66680000D02*
X154180000Y-66680000D01*
D13*
X149441000Y-102283000D02*
X149949000Y-102283000D01*
X149441000Y-99235000D02*
X149441000Y-102283000D01*
X149949000Y-99235000D02*
X149441000Y-99235000D01*
X149949000Y-102283000D02*
X149949000Y-99235000D01*
D14*
X148675000Y-103299000D02*
G75*
G03X148675000Y-103299000I-250000J0D01*
G01*
D12*
X145150000Y-99525000D02*
X145150000Y-100725000D01*
X146900000Y-100725000D02*
X146900000Y-99525000D01*
X150065000Y-89767857D02*
X150100714Y-89803571D01*
X150207857Y-89839286D01*
X150279286Y-89839286D01*
X150386429Y-89803571D01*
X150457857Y-89732143D01*
X150493572Y-89660714D01*
X150529286Y-89517857D01*
X150529286Y-89410714D01*
X150493572Y-89267857D01*
X150457857Y-89196429D01*
X150386429Y-89125000D01*
X150279286Y-89089286D01*
X150207857Y-89089286D01*
X150100714Y-89125000D01*
X150065000Y-89160714D01*
X149815000Y-89089286D02*
X149350714Y-89089286D01*
X149600714Y-89375000D01*
X149493572Y-89375000D01*
X149422143Y-89410714D01*
X149386429Y-89446429D01*
X149350714Y-89517857D01*
X149350714Y-89696429D01*
X149386429Y-89767857D01*
X149422143Y-89803571D01*
X149493572Y-89839286D01*
X149707857Y-89839286D01*
X149779286Y-89803571D01*
X149815000Y-89767857D01*
X152386666Y-93630000D02*
X152420000Y-93663333D01*
X152520000Y-93696667D01*
X152586666Y-93696667D01*
X152686666Y-93663333D01*
X152753333Y-93596667D01*
X152786666Y-93530000D01*
X152820000Y-93396667D01*
X152820000Y-93296667D01*
X152786666Y-93163333D01*
X152753333Y-93096667D01*
X152686666Y-93030000D01*
X152586666Y-92996667D01*
X152520000Y-92996667D01*
X152420000Y-93030000D01*
X152386666Y-93063333D01*
X151986666Y-93296667D02*
X152053333Y-93263333D01*
X152086666Y-93230000D01*
X152120000Y-93163333D01*
X152120000Y-93130000D01*
X152086666Y-93063333D01*
X152053333Y-93030000D01*
X151986666Y-92996667D01*
X151853333Y-92996667D01*
X151786666Y-93030000D01*
X151753333Y-93063333D01*
X151720000Y-93130000D01*
X151720000Y-93163333D01*
X151753333Y-93230000D01*
X151786666Y-93263333D01*
X151853333Y-93296667D01*
X151986666Y-93296667D01*
X152053333Y-93330000D01*
X152086666Y-93363333D01*
X152120000Y-93430000D01*
X152120000Y-93563333D01*
X152086666Y-93630000D01*
X152053333Y-93663333D01*
X151986666Y-93696667D01*
X151853333Y-93696667D01*
X151786666Y-93663333D01*
X151753333Y-93630000D01*
X151720000Y-93563333D01*
X151720000Y-93430000D01*
X151753333Y-93363333D01*
X151786666Y-93330000D01*
X151853333Y-93296667D01*
D15*
X146974286Y-93713334D02*
X146974286Y-93546668D01*
X147236190Y-93546668D02*
X146736190Y-93546668D01*
X146736190Y-93784763D01*
X146974286Y-94141905D02*
X146998095Y-94213334D01*
X147021905Y-94237143D01*
X147069524Y-94260953D01*
X147140952Y-94260953D01*
X147188571Y-94237143D01*
X147212381Y-94213334D01*
X147236190Y-94165715D01*
X147236190Y-93975239D01*
X146736190Y-93975239D01*
X146736190Y-94141905D01*
X146760000Y-94189524D01*
X146783810Y-94213334D01*
X146831429Y-94237143D01*
X146879048Y-94237143D01*
X146926667Y-94213334D01*
X146950476Y-94189524D01*
X146974286Y-94141905D01*
X146974286Y-93975239D01*
X147236190Y-94737143D02*
X147236190Y-94451429D01*
X147236190Y-94594286D02*
X146736190Y-94594286D01*
X146807619Y-94546667D01*
X146855238Y-94499048D01*
X146879048Y-94451429D01*
D12*
X152410000Y-89109286D02*
X152660000Y-88752143D01*
X152838572Y-89109286D02*
X152838572Y-88359286D01*
X152552857Y-88359286D01*
X152481429Y-88395000D01*
X152445714Y-88430714D01*
X152410000Y-88502143D01*
X152410000Y-88609286D01*
X152445714Y-88680714D01*
X152481429Y-88716429D01*
X152552857Y-88752143D01*
X152838572Y-88752143D01*
X151695714Y-89109286D02*
X152124286Y-89109286D01*
X151910000Y-89109286D02*
X151910000Y-88359286D01*
X151981429Y-88466429D01*
X152052857Y-88537857D01*
X152124286Y-88573571D01*
X154790000Y-90739286D02*
X155040000Y-90382143D01*
X155218572Y-90739286D02*
X155218572Y-89989286D01*
X154932857Y-89989286D01*
X154861429Y-90025000D01*
X154825714Y-90060714D01*
X154790000Y-90132143D01*
X154790000Y-90239286D01*
X154825714Y-90310714D01*
X154861429Y-90346429D01*
X154932857Y-90382143D01*
X155218572Y-90382143D01*
X154111429Y-89989286D02*
X154468572Y-89989286D01*
X154504286Y-90346429D01*
X154468572Y-90310714D01*
X154397143Y-90275000D01*
X154218572Y-90275000D01*
X154147143Y-90310714D01*
X154111429Y-90346429D01*
X154075714Y-90417857D01*
X154075714Y-90596429D01*
X154111429Y-90667857D01*
X154147143Y-90703571D01*
X154218572Y-90739286D01*
X154397143Y-90739286D01*
X154468572Y-90703571D01*
X154504286Y-90667857D01*
X157216666Y-61846667D02*
X157450000Y-61513333D01*
X157616666Y-61846667D02*
X157616666Y-61146667D01*
X157350000Y-61146667D01*
X157283333Y-61180000D01*
X157250000Y-61213333D01*
X157216666Y-61280000D01*
X157216666Y-61380000D01*
X157250000Y-61446667D01*
X157283333Y-61480000D01*
X157350000Y-61513333D01*
X157616666Y-61513333D01*
X156616666Y-61146667D02*
X156750000Y-61146667D01*
X156816666Y-61180000D01*
X156850000Y-61213333D01*
X156916666Y-61313333D01*
X156950000Y-61446667D01*
X156950000Y-61713333D01*
X156916666Y-61780000D01*
X156883333Y-61813333D01*
X156816666Y-61846667D01*
X156683333Y-61846667D01*
X156616666Y-61813333D01*
X156583333Y-61780000D01*
X156550000Y-61713333D01*
X156550000Y-61546667D01*
X156583333Y-61480000D01*
X156616666Y-61446667D01*
X156683333Y-61413333D01*
X156816666Y-61413333D01*
X156883333Y-61446667D01*
X156916666Y-61480000D01*
X156950000Y-61546667D01*
X152180000Y-64733571D02*
X152072857Y-64769286D01*
X151894286Y-64769286D01*
X151822857Y-64733571D01*
X151787143Y-64697857D01*
X151751428Y-64626429D01*
X151751428Y-64555000D01*
X151787143Y-64483571D01*
X151822857Y-64447857D01*
X151894286Y-64412143D01*
X152037143Y-64376429D01*
X152108571Y-64340714D01*
X152144286Y-64305000D01*
X152180000Y-64233571D01*
X152180000Y-64162143D01*
X152144286Y-64090714D01*
X152108571Y-64055000D01*
X152037143Y-64019286D01*
X151858571Y-64019286D01*
X151751428Y-64055000D01*
X151501428Y-64019286D02*
X151322857Y-64769286D01*
X151180000Y-64233571D01*
X151037142Y-64769286D01*
X150858571Y-64019286D01*
X150608571Y-64090714D02*
X150572857Y-64055000D01*
X150501428Y-64019286D01*
X150322857Y-64019286D01*
X150251428Y-64055000D01*
X150215714Y-64090714D01*
X150179999Y-64162143D01*
X150179999Y-64233571D01*
X150215714Y-64340714D01*
X150644285Y-64769286D01*
X150179999Y-64769286D01*
X152280000Y-68733571D02*
X152172857Y-68769286D01*
X151994286Y-68769286D01*
X151922857Y-68733571D01*
X151887143Y-68697857D01*
X151851428Y-68626429D01*
X151851428Y-68555000D01*
X151887143Y-68483571D01*
X151922857Y-68447857D01*
X151994286Y-68412143D01*
X152137143Y-68376429D01*
X152208571Y-68340714D01*
X152244286Y-68305000D01*
X152280000Y-68233571D01*
X152280000Y-68162143D01*
X152244286Y-68090714D01*
X152208571Y-68055000D01*
X152137143Y-68019286D01*
X151958571Y-68019286D01*
X151851428Y-68055000D01*
X151601428Y-68019286D02*
X151422857Y-68769286D01*
X151280000Y-68233571D01*
X151137142Y-68769286D01*
X150958571Y-68019286D01*
X150279999Y-68769286D02*
X150708571Y-68769286D01*
X150494285Y-68769286D02*
X150494285Y-68019286D01*
X150565714Y-68126429D01*
X150637142Y-68197857D01*
X150708571Y-68233571D01*
X150208333Y-98216667D02*
X150208333Y-98783333D01*
X150175000Y-98850000D01*
X150141667Y-98883333D01*
X150075000Y-98916667D01*
X149941667Y-98916667D01*
X149875000Y-98883333D01*
X149841667Y-98850000D01*
X149808333Y-98783333D01*
X149808333Y-98216667D01*
X149508334Y-98283333D02*
X149475000Y-98250000D01*
X149408334Y-98216667D01*
X149241667Y-98216667D01*
X149175000Y-98250000D01*
X149141667Y-98283333D01*
X149108334Y-98350000D01*
X149108334Y-98416667D01*
X149141667Y-98516667D01*
X149541667Y-98916667D01*
X149108334Y-98916667D01*
X146116667Y-100416667D02*
X146350001Y-100083333D01*
X146516667Y-100416667D02*
X146516667Y-99716667D01*
X146250001Y-99716667D01*
X146183334Y-99750000D01*
X146150001Y-99783333D01*
X146116667Y-99850000D01*
X146116667Y-99950000D01*
X146150001Y-100016667D01*
X146183334Y-100050000D01*
X146250001Y-100083333D01*
X146516667Y-100083333D01*
X145850001Y-99783333D02*
X145816667Y-99750000D01*
X145750001Y-99716667D01*
X145583334Y-99716667D01*
X145516667Y-99750000D01*
X145483334Y-99783333D01*
X145450001Y-99850000D01*
X145450001Y-99916667D01*
X145483334Y-100016667D01*
X145883334Y-100416667D01*
X145450001Y-100416667D01*
M02*
