G04 #@! TF.FileFunction,Legend,Bot*
%FSLAX46Y46*%
G04 Gerber Fmt 4.6, Leading zero omitted, Abs format (unit mm)*
G04 Created by KiCad (PCBNEW 4.0.4-stable) date 12/12/16 19:20:19*
%MOMM*%
%LPD*%
G01*
G04 APERTURE LIST*
%ADD10C,0.100000*%
%ADD11C,0.127000*%
%ADD12C,0.150000*%
%ADD13C,0.307000*%
%ADD14C,0.500000*%
%ADD15C,0.125000*%
G04 APERTURE END LIST*
D10*
D11*
X155067753Y-83005000D02*
G75*
G03X155067753Y-83005000I-4092753J0D01*
G01*
D12*
X151310000Y-89680000D02*
X152310000Y-89680000D01*
X152310000Y-91380000D02*
X151310000Y-91380000D01*
X147850000Y-90050000D02*
X147850000Y-89050000D01*
X149550000Y-89050000D02*
X149550000Y-90050000D01*
X145260000Y-89750000D02*
X145260000Y-90750000D01*
X143560000Y-90750000D02*
X143560000Y-89750000D01*
X152410000Y-87455000D02*
X151210000Y-87455000D01*
X151210000Y-89205000D02*
X152410000Y-89205000D01*
X155715000Y-90210000D02*
X155715000Y-89010000D01*
X153965000Y-89010000D02*
X153965000Y-90210000D01*
X157985000Y-62140000D02*
X157985000Y-60940000D01*
X156235000Y-60940000D02*
X156235000Y-62140000D01*
X152580000Y-63730000D02*
X149780000Y-63730000D01*
X149780000Y-63730000D02*
X149780000Y-65130000D01*
X149780000Y-65130000D02*
X152580000Y-65130000D01*
X152580000Y-65130000D02*
X152580000Y-63730000D01*
X148180000Y-62680000D02*
X148180000Y-63330000D01*
X148180000Y-66180000D02*
X148180000Y-65530000D01*
X154180000Y-65530000D02*
X154180000Y-66180000D01*
X154180000Y-62680000D02*
X154180000Y-63330000D01*
X148180000Y-62680000D02*
X154180000Y-62680000D01*
X154180000Y-66180000D02*
X148180000Y-66180000D01*
X149780000Y-69130000D02*
X152580000Y-69130000D01*
X152580000Y-69130000D02*
X152580000Y-67730000D01*
X152580000Y-67730000D02*
X149780000Y-67730000D01*
X149780000Y-67730000D02*
X149780000Y-69130000D01*
X154180000Y-70180000D02*
X154180000Y-69530000D01*
X154180000Y-66680000D02*
X154180000Y-67330000D01*
X148180000Y-67330000D02*
X148180000Y-66680000D01*
X148180000Y-70180000D02*
X148180000Y-69530000D01*
X154180000Y-70180000D02*
X148180000Y-70180000D01*
X148180000Y-66680000D02*
X154180000Y-66680000D01*
D13*
X150766000Y-100208000D02*
X151274000Y-100208000D01*
X150766000Y-97160000D02*
X150766000Y-100208000D01*
X151274000Y-97160000D02*
X150766000Y-97160000D01*
X151274000Y-100208000D02*
X151274000Y-97160000D01*
D14*
X150000000Y-101224000D02*
G75*
G03X150000000Y-101224000I-250000J0D01*
G01*
D12*
X145100000Y-97475000D02*
X145100000Y-98675000D01*
X146850000Y-98675000D02*
X146850000Y-97475000D01*
X152027857Y-90405000D02*
X152063571Y-90369286D01*
X152099286Y-90262143D01*
X152099286Y-90190714D01*
X152063571Y-90083571D01*
X151992143Y-90012143D01*
X151920714Y-89976428D01*
X151777857Y-89940714D01*
X151670714Y-89940714D01*
X151527857Y-89976428D01*
X151456429Y-90012143D01*
X151385000Y-90083571D01*
X151349286Y-90190714D01*
X151349286Y-90262143D01*
X151385000Y-90369286D01*
X151420714Y-90405000D01*
X151349286Y-90655000D02*
X151349286Y-91119286D01*
X151635000Y-90869286D01*
X151635000Y-90976428D01*
X151670714Y-91047857D01*
X151706429Y-91083571D01*
X151777857Y-91119286D01*
X151956429Y-91119286D01*
X152027857Y-91083571D01*
X152063571Y-91047857D01*
X152099286Y-90976428D01*
X152099286Y-90762143D01*
X152063571Y-90690714D01*
X152027857Y-90655000D01*
X148836666Y-89905000D02*
X148870000Y-89938333D01*
X148970000Y-89971667D01*
X149036666Y-89971667D01*
X149136666Y-89938333D01*
X149203333Y-89871667D01*
X149236666Y-89805000D01*
X149270000Y-89671667D01*
X149270000Y-89571667D01*
X149236666Y-89438333D01*
X149203333Y-89371667D01*
X149136666Y-89305000D01*
X149036666Y-89271667D01*
X148970000Y-89271667D01*
X148870000Y-89305000D01*
X148836666Y-89338333D01*
X148436666Y-89571667D02*
X148503333Y-89538333D01*
X148536666Y-89505000D01*
X148570000Y-89438333D01*
X148570000Y-89405000D01*
X148536666Y-89338333D01*
X148503333Y-89305000D01*
X148436666Y-89271667D01*
X148303333Y-89271667D01*
X148236666Y-89305000D01*
X148203333Y-89338333D01*
X148170000Y-89405000D01*
X148170000Y-89438333D01*
X148203333Y-89505000D01*
X148236666Y-89538333D01*
X148303333Y-89571667D01*
X148436666Y-89571667D01*
X148503333Y-89605000D01*
X148536666Y-89638333D01*
X148570000Y-89705000D01*
X148570000Y-89838333D01*
X148536666Y-89905000D01*
X148503333Y-89938333D01*
X148436666Y-89971667D01*
X148303333Y-89971667D01*
X148236666Y-89938333D01*
X148203333Y-89905000D01*
X148170000Y-89838333D01*
X148170000Y-89705000D01*
X148203333Y-89638333D01*
X148236666Y-89605000D01*
X148303333Y-89571667D01*
D15*
X144871666Y-90249286D02*
X145038332Y-90249286D01*
X145038332Y-90511190D02*
X145038332Y-90011190D01*
X144800237Y-90011190D01*
X144443095Y-90249286D02*
X144371666Y-90273095D01*
X144347857Y-90296905D01*
X144324047Y-90344524D01*
X144324047Y-90415952D01*
X144347857Y-90463571D01*
X144371666Y-90487381D01*
X144419285Y-90511190D01*
X144609761Y-90511190D01*
X144609761Y-90011190D01*
X144443095Y-90011190D01*
X144395476Y-90035000D01*
X144371666Y-90058810D01*
X144347857Y-90106429D01*
X144347857Y-90154048D01*
X144371666Y-90201667D01*
X144395476Y-90225476D01*
X144443095Y-90249286D01*
X144609761Y-90249286D01*
X143847857Y-90511190D02*
X144133571Y-90511190D01*
X143990714Y-90511190D02*
X143990714Y-90011190D01*
X144038333Y-90082619D01*
X144085952Y-90130238D01*
X144133571Y-90154048D01*
D12*
X152199286Y-88180000D02*
X151842143Y-87930000D01*
X152199286Y-87751428D02*
X151449286Y-87751428D01*
X151449286Y-88037143D01*
X151485000Y-88108571D01*
X151520714Y-88144286D01*
X151592143Y-88180000D01*
X151699286Y-88180000D01*
X151770714Y-88144286D01*
X151806429Y-88108571D01*
X151842143Y-88037143D01*
X151842143Y-87751428D01*
X152199286Y-88894286D02*
X152199286Y-88465714D01*
X152199286Y-88680000D02*
X151449286Y-88680000D01*
X151556429Y-88608571D01*
X151627857Y-88537143D01*
X151663571Y-88465714D01*
X154970000Y-89969286D02*
X155220000Y-89612143D01*
X155398572Y-89969286D02*
X155398572Y-89219286D01*
X155112857Y-89219286D01*
X155041429Y-89255000D01*
X155005714Y-89290714D01*
X154970000Y-89362143D01*
X154970000Y-89469286D01*
X155005714Y-89540714D01*
X155041429Y-89576429D01*
X155112857Y-89612143D01*
X155398572Y-89612143D01*
X154291429Y-89219286D02*
X154648572Y-89219286D01*
X154684286Y-89576429D01*
X154648572Y-89540714D01*
X154577143Y-89505000D01*
X154398572Y-89505000D01*
X154327143Y-89540714D01*
X154291429Y-89576429D01*
X154255714Y-89647857D01*
X154255714Y-89826429D01*
X154291429Y-89897857D01*
X154327143Y-89933571D01*
X154398572Y-89969286D01*
X154577143Y-89969286D01*
X154648572Y-89933571D01*
X154684286Y-89897857D01*
X157216666Y-61846667D02*
X157450000Y-61513333D01*
X157616666Y-61846667D02*
X157616666Y-61146667D01*
X157350000Y-61146667D01*
X157283333Y-61180000D01*
X157250000Y-61213333D01*
X157216666Y-61280000D01*
X157216666Y-61380000D01*
X157250000Y-61446667D01*
X157283333Y-61480000D01*
X157350000Y-61513333D01*
X157616666Y-61513333D01*
X156616666Y-61146667D02*
X156750000Y-61146667D01*
X156816666Y-61180000D01*
X156850000Y-61213333D01*
X156916666Y-61313333D01*
X156950000Y-61446667D01*
X156950000Y-61713333D01*
X156916666Y-61780000D01*
X156883333Y-61813333D01*
X156816666Y-61846667D01*
X156683333Y-61846667D01*
X156616666Y-61813333D01*
X156583333Y-61780000D01*
X156550000Y-61713333D01*
X156550000Y-61546667D01*
X156583333Y-61480000D01*
X156616666Y-61446667D01*
X156683333Y-61413333D01*
X156816666Y-61413333D01*
X156883333Y-61446667D01*
X156916666Y-61480000D01*
X156950000Y-61546667D01*
X152180000Y-64733571D02*
X152072857Y-64769286D01*
X151894286Y-64769286D01*
X151822857Y-64733571D01*
X151787143Y-64697857D01*
X151751428Y-64626429D01*
X151751428Y-64555000D01*
X151787143Y-64483571D01*
X151822857Y-64447857D01*
X151894286Y-64412143D01*
X152037143Y-64376429D01*
X152108571Y-64340714D01*
X152144286Y-64305000D01*
X152180000Y-64233571D01*
X152180000Y-64162143D01*
X152144286Y-64090714D01*
X152108571Y-64055000D01*
X152037143Y-64019286D01*
X151858571Y-64019286D01*
X151751428Y-64055000D01*
X151501428Y-64019286D02*
X151322857Y-64769286D01*
X151180000Y-64233571D01*
X151037142Y-64769286D01*
X150858571Y-64019286D01*
X150608571Y-64090714D02*
X150572857Y-64055000D01*
X150501428Y-64019286D01*
X150322857Y-64019286D01*
X150251428Y-64055000D01*
X150215714Y-64090714D01*
X150179999Y-64162143D01*
X150179999Y-64233571D01*
X150215714Y-64340714D01*
X150644285Y-64769286D01*
X150179999Y-64769286D01*
X152280000Y-68733571D02*
X152172857Y-68769286D01*
X151994286Y-68769286D01*
X151922857Y-68733571D01*
X151887143Y-68697857D01*
X151851428Y-68626429D01*
X151851428Y-68555000D01*
X151887143Y-68483571D01*
X151922857Y-68447857D01*
X151994286Y-68412143D01*
X152137143Y-68376429D01*
X152208571Y-68340714D01*
X152244286Y-68305000D01*
X152280000Y-68233571D01*
X152280000Y-68162143D01*
X152244286Y-68090714D01*
X152208571Y-68055000D01*
X152137143Y-68019286D01*
X151958571Y-68019286D01*
X151851428Y-68055000D01*
X151601428Y-68019286D02*
X151422857Y-68769286D01*
X151280000Y-68233571D01*
X151137142Y-68769286D01*
X150958571Y-68019286D01*
X150279999Y-68769286D02*
X150708571Y-68769286D01*
X150494285Y-68769286D02*
X150494285Y-68019286D01*
X150565714Y-68126429D01*
X150637142Y-68197857D01*
X150708571Y-68233571D01*
X151533333Y-96141667D02*
X151533333Y-96708333D01*
X151500000Y-96775000D01*
X151466667Y-96808333D01*
X151400000Y-96841667D01*
X151266667Y-96841667D01*
X151200000Y-96808333D01*
X151166667Y-96775000D01*
X151133333Y-96708333D01*
X151133333Y-96141667D01*
X150833334Y-96208333D02*
X150800000Y-96175000D01*
X150733334Y-96141667D01*
X150566667Y-96141667D01*
X150500000Y-96175000D01*
X150466667Y-96208333D01*
X150433334Y-96275000D01*
X150433334Y-96341667D01*
X150466667Y-96441667D01*
X150866667Y-96841667D01*
X150433334Y-96841667D01*
X146066667Y-98366667D02*
X146300001Y-98033333D01*
X146466667Y-98366667D02*
X146466667Y-97666667D01*
X146200001Y-97666667D01*
X146133334Y-97700000D01*
X146100001Y-97733333D01*
X146066667Y-97800000D01*
X146066667Y-97900000D01*
X146100001Y-97966667D01*
X146133334Y-98000000D01*
X146200001Y-98033333D01*
X146466667Y-98033333D01*
X145800001Y-97733333D02*
X145766667Y-97700000D01*
X145700001Y-97666667D01*
X145533334Y-97666667D01*
X145466667Y-97700000D01*
X145433334Y-97733333D01*
X145400001Y-97800000D01*
X145400001Y-97866667D01*
X145433334Y-97966667D01*
X145833334Y-98366667D01*
X145400001Y-98366667D01*
M02*
