M48
INCH,TZ
T1C0.016
T2C0.030
T3C0.039
T4C0.040
T5C0.059
T6C0.091
%
G90
G05
T1
X56467Y-27165
X57067Y-27293
X57831Y-34799
X57854Y-36171
X58697Y-33551
X58882Y-36240
X59402Y-33110
X59685Y-25465
X59957Y-35811
X60862Y-40201
X60898Y-34799
X60913Y-39776
X61110Y-36697
X61776Y-38768
X62037Y-36890
X62339Y-40937
X62362Y-27244
T2
X57437Y-38136
X57437Y-41136
X58437Y-38136
X58437Y-41136
X59437Y-38136
X59437Y-41136
X60437Y-38136
X60437Y-41136
T3
X-1378Y-4055
X-394Y-4055
X394Y-4055
X1378Y-4055
X57992Y-23386
X58976Y-23386
X59764Y-23386
X60748Y-23386
T4
X58496Y-30299
X59047Y-32047
X59496Y-30299
X60047Y-32047
X60496Y-30299
T5
X-866Y-3268
X866Y-3268
X58504Y-22598
X60236Y-22598
T6
X-2362Y-3268
X2362Y-3268
X57008Y-22598
X61732Y-22598
T0
M30
