G04 #@! TF.FileFunction,Copper,L1,Top,Signal*
%FSLAX46Y46*%
G04 Gerber Fmt 4.6, Leading zero omitted, Abs format (unit mm)*
G04 Created by KiCad (PCBNEW 4.0.4-stable) date 12/12/16 19:20:19*
%MOMM*%
%LPD*%
G01*
G04 APERTURE LIST*
%ADD10C,0.100000*%
%ADD11R,3.000000X1.500000*%
%ADD12C,1.501140*%
%ADD13C,2.999740*%
%ADD14R,3.800000X2.000000*%
%ADD15R,1.500000X2.000000*%
%ADD16R,1.250000X1.000000*%
%ADD17C,1.905000*%
%ADD18R,1.000000X1.250000*%
%ADD19R,2.032000X2.032000*%
%ADD20O,2.032000X2.032000*%
%ADD21R,1.727200X2.032000*%
%ADD22O,1.727200X2.032000*%
%ADD23R,1.300000X0.700000*%
%ADD24C,0.600000*%
%ADD25C,0.300000*%
%ADD26C,0.250000*%
G04 APERTURE END LIST*
D10*
D11*
X158300000Y-91347400D03*
X158300000Y-89315400D03*
X158300000Y-87232600D03*
X158300000Y-85251400D03*
X158300000Y-83219400D03*
X158300000Y-81238200D03*
X158300000Y-79231600D03*
X143500000Y-91309300D03*
X143500000Y-89226500D03*
X143500000Y-87245300D03*
X143500000Y-85226000D03*
X143500000Y-83194000D03*
X143500000Y-81289000D03*
X143500000Y-79257000D03*
X143500000Y-77225000D03*
X158300000Y-77225000D03*
D12*
X154300000Y-59400000D03*
X151800000Y-59400000D03*
X149800000Y-59400000D03*
X147300000Y-59400000D03*
D13*
X156800000Y-57400000D03*
X144800000Y-57400000D03*
D14*
X149675000Y-68400000D03*
D15*
X149675000Y-62100000D03*
X147375000Y-62100000D03*
X151975000Y-62100000D03*
D16*
X144775000Y-60375000D03*
X144775000Y-62375000D03*
D17*
X145840000Y-102435000D03*
X148380000Y-102435000D03*
X150920000Y-102435000D03*
X153460000Y-102435000D03*
X153460000Y-94815000D03*
X150920000Y-94815000D03*
X148380000Y-94815000D03*
X145840000Y-94815000D03*
D18*
X156350000Y-102500000D03*
X158350000Y-102500000D03*
D16*
X154575000Y-63750000D03*
X154575000Y-61750000D03*
D18*
X158350000Y-100050000D03*
X156350000Y-100050000D03*
D16*
X143350000Y-102850000D03*
X143350000Y-100850000D03*
D19*
X149980000Y-81400000D03*
D20*
X152520000Y-81400000D03*
D21*
X153660000Y-76960000D03*
D22*
X151120000Y-76960000D03*
X148580000Y-76960000D03*
D23*
X154575000Y-67275000D03*
X154575000Y-65375000D03*
D24*
X157600000Y-98350000D03*
X157575000Y-93700000D03*
X158400000Y-69200000D03*
X154450000Y-100700000D03*
X144925000Y-68925000D03*
X146850000Y-88590000D03*
X151600000Y-64680000D03*
X157850000Y-103950000D03*
X154700000Y-86800000D03*
X149000000Y-84100000D03*
X149090000Y-85220000D03*
X147500000Y-92350000D03*
X143425000Y-69000000D03*
X153900000Y-99700000D03*
D25*
X144475000Y-103925000D02*
X144425000Y-103925000D01*
X150050000Y-103925000D02*
X144475000Y-103925000D01*
X144425000Y-103925000D02*
X143350000Y-102850000D01*
X158350000Y-100050000D02*
X158350000Y-99100000D01*
X158350000Y-99100000D02*
X157600000Y-98350000D01*
X150920000Y-102435000D02*
X153460000Y-102435000D01*
X150050000Y-103925000D02*
X150400000Y-103925000D01*
X150920000Y-103405000D02*
X150920000Y-102435000D01*
X150400000Y-103925000D02*
X150920000Y-103405000D01*
X150050000Y-103925000D02*
X150100000Y-103925000D01*
X158014400Y-91410000D02*
X158077000Y-91347400D01*
X155950000Y-61750000D02*
X154575000Y-61750000D01*
X154300000Y-59400000D02*
X156425000Y-59400000D01*
X156800000Y-59025000D02*
X156800000Y-57400000D01*
X156425000Y-59400000D02*
X156800000Y-59025000D01*
X154575000Y-61750000D02*
X154575000Y-59675000D01*
X154575000Y-59675000D02*
X154300000Y-59400000D01*
X151975000Y-62100000D02*
X154225000Y-62100000D01*
X154225000Y-62100000D02*
X154575000Y-61750000D01*
X144775000Y-62375000D02*
X143650000Y-62375000D01*
X142850000Y-59350000D02*
X144800000Y-57400000D01*
X142850000Y-61575000D02*
X142850000Y-59350000D01*
X143650000Y-62375000D02*
X142850000Y-61575000D01*
X158077000Y-91347400D02*
X158077000Y-91573000D01*
X158077000Y-91573000D02*
X156875000Y-92775000D01*
X156875000Y-92775000D02*
X156875000Y-93000000D01*
X156875000Y-93000000D02*
X157575000Y-93700000D01*
X156500000Y-62300000D02*
X155950000Y-61750000D01*
X156500000Y-67300000D02*
X156500000Y-62300000D01*
X158400000Y-69200000D02*
X156500000Y-67300000D01*
D26*
X154450000Y-100700000D02*
X156250000Y-102500000D01*
X156350000Y-102500000D02*
X156250000Y-102500000D01*
D25*
X149675000Y-68400000D02*
X145450000Y-68400000D01*
X145450000Y-68400000D02*
X144925000Y-68925000D01*
X146210700Y-91309300D02*
X146850000Y-90670000D01*
X146210700Y-91309300D02*
X144038900Y-91309300D01*
X146850000Y-90670000D02*
X146850000Y-88590000D01*
X151600000Y-64680000D02*
X150930000Y-65350000D01*
X149675000Y-65775000D02*
X149675000Y-65675000D01*
X149675000Y-65675000D02*
X150000000Y-65350000D01*
X150000000Y-65350000D02*
X150000000Y-65200000D01*
X150000000Y-65200000D02*
X149675000Y-64875000D01*
X151900000Y-65350000D02*
X150900000Y-65350000D01*
X150900000Y-65350000D02*
X150000000Y-65350000D01*
X150000000Y-65350000D02*
X149675000Y-65350000D01*
X149675000Y-62100000D02*
X149675000Y-64875000D01*
X149675000Y-64875000D02*
X149675000Y-65350000D01*
X149675000Y-65350000D02*
X149675000Y-65775000D01*
X149675000Y-65775000D02*
X149675000Y-68400000D01*
X154575000Y-63750000D02*
X153500000Y-63750000D01*
X153500000Y-63750000D02*
X151900000Y-65350000D01*
X154575000Y-65375000D02*
X154575000Y-63750000D01*
D26*
X158350000Y-103450000D02*
X158350000Y-102500000D01*
X157850000Y-103950000D02*
X158350000Y-103450000D01*
X151120000Y-76960000D02*
X151120000Y-77740000D01*
X151120000Y-77740000D02*
X151940000Y-78560000D01*
X151940000Y-78560000D02*
X154870000Y-78560000D01*
X154870000Y-78560000D02*
X156205000Y-77225000D01*
X156205000Y-77225000D02*
X157950000Y-77225000D01*
X148580000Y-76960000D02*
X148580000Y-78070000D01*
X149741600Y-79231600D02*
X157950000Y-79231600D01*
X148580000Y-78070000D02*
X149741600Y-79231600D01*
X143950000Y-81289000D02*
X145591000Y-81289000D01*
X145591000Y-81289000D02*
X146410000Y-80470000D01*
X146410000Y-80470000D02*
X146410000Y-75740000D01*
X146410000Y-75740000D02*
X147210000Y-74940000D01*
X147210000Y-74940000D02*
X158660000Y-74940000D01*
X158660000Y-74940000D02*
X159425000Y-74175000D01*
X154575000Y-68350000D02*
X154575000Y-67275000D01*
X159425000Y-74175000D02*
X159425000Y-70450000D01*
X159425000Y-70450000D02*
X159100000Y-70125000D01*
X159100000Y-70125000D02*
X156350000Y-70125000D01*
X156350000Y-70125000D02*
X154575000Y-68350000D01*
X155000000Y-89315400D02*
X154265400Y-89315400D01*
X154000000Y-86800000D02*
X154700000Y-86800000D01*
X153450000Y-87350000D02*
X154000000Y-86800000D01*
X153450000Y-88500000D02*
X153450000Y-87350000D01*
X154265400Y-89315400D02*
X153450000Y-88500000D01*
X153460000Y-94815000D02*
X153460000Y-90790000D01*
X154934600Y-89315400D02*
X155000000Y-89315400D01*
X155000000Y-89315400D02*
X158026200Y-89315400D01*
X153460000Y-90790000D02*
X154934600Y-89315400D01*
X153460000Y-94815000D02*
X153325000Y-94815000D01*
X153460000Y-94815000D02*
X153460000Y-94660000D01*
X155451800Y-81238200D02*
X157975400Y-81238200D01*
X155160000Y-81530000D02*
X155451800Y-81238200D01*
X155160000Y-83480000D02*
X155160000Y-81530000D01*
X154540000Y-84100000D02*
X155160000Y-83480000D01*
X149000000Y-84100000D02*
X154540000Y-84100000D01*
X149090000Y-85220000D02*
X149121400Y-85251400D01*
X149121400Y-85251400D02*
X157975400Y-85251400D01*
X147500000Y-92350000D02*
X147100000Y-91950000D01*
X147100000Y-91950000D02*
X147100000Y-91400000D01*
X147100000Y-91400000D02*
X147800000Y-90700000D01*
X147800000Y-90700000D02*
X147800000Y-88000000D01*
X147800000Y-88000000D02*
X147045300Y-87245300D01*
X147045300Y-87245300D02*
X143962700Y-87245300D01*
X144365300Y-87245300D02*
X143962700Y-87245300D01*
X144295300Y-87245300D02*
X143962700Y-87245300D01*
X148380000Y-94815000D02*
X148380000Y-92520000D01*
X147776000Y-85226000D02*
X143950000Y-85226000D01*
X149300000Y-86750000D02*
X147776000Y-85226000D01*
X149300000Y-91600000D02*
X149300000Y-86750000D01*
X148380000Y-92520000D02*
X149300000Y-91600000D01*
D25*
X147375000Y-65050000D02*
X143425000Y-69000000D01*
X147375000Y-62100000D02*
X147375000Y-65050000D01*
X145840000Y-97100000D02*
X145840000Y-97210000D01*
X143350000Y-99700000D02*
X143350000Y-100850000D01*
X145840000Y-97210000D02*
X143350000Y-99700000D01*
X145840000Y-97160000D02*
X145840000Y-97100000D01*
X145840000Y-97100000D02*
X145840000Y-94815000D01*
X145865000Y-94965000D02*
X145735000Y-94965000D01*
X147375000Y-62100000D02*
X147375000Y-62800000D01*
X144775000Y-60375000D02*
X146325000Y-60375000D01*
X146325000Y-60375000D02*
X147300000Y-59400000D01*
X147300000Y-59400000D02*
X147300000Y-62025000D01*
X147300000Y-62025000D02*
X147375000Y-62100000D01*
D26*
X154250000Y-100050000D02*
X153900000Y-99700000D01*
X156350000Y-100050000D02*
X154250000Y-100050000D01*
M02*
