G04 #@! TF.FileFunction,Soldermask,Bot*
%FSLAX46Y46*%
G04 Gerber Fmt 4.6, Leading zero omitted, Abs format (unit mm)*
G04 Created by KiCad (PCBNEW 4.0.4-stable) date 12/28/16 21:00:51*
%MOMM*%
%LPD*%
G01*
G04 APERTURE LIST*
%ADD10C,0.100000*%
%ADD11C,2.305000*%
%ADD12R,1.650000X1.400000*%
%ADD13R,1.900000X1.650000*%
%ADD14R,2.432000X2.432000*%
%ADD15O,2.432000X2.432000*%
%ADD16R,2.127200X2.432000*%
%ADD17O,2.127200X2.432000*%
%ADD18R,1.700000X1.100000*%
%ADD19R,2.400000X2.000000*%
%ADD20R,1.390000X0.880000*%
%ADD21C,2.150000*%
%ADD22C,1.901140*%
%ADD23C,3.399740*%
%ADD24O,1.650000X1.350000*%
%ADD25O,1.400000X1.950000*%
G04 APERTURE END LIST*
D10*
D11*
X145890000Y-104485000D03*
X148430000Y-104485000D03*
X150970000Y-104485000D03*
X153510000Y-104485000D03*
X153510000Y-96865000D03*
X150970000Y-96865000D03*
X148430000Y-96865000D03*
X145890000Y-96865000D03*
D12*
X149940000Y-88450000D03*
X149940000Y-90450000D03*
X152250000Y-92275000D03*
X152250000Y-94275000D03*
D13*
X148225000Y-94175000D03*
X145725000Y-94175000D03*
D14*
X149980000Y-81400000D03*
D15*
X152520000Y-81400000D03*
D16*
X153660000Y-76960000D03*
D17*
X151120000Y-76960000D03*
X148580000Y-76960000D03*
D18*
X152310000Y-89770000D03*
X152310000Y-87870000D03*
X154660000Y-89430000D03*
X154660000Y-91330000D03*
X157110000Y-60590000D03*
X157110000Y-62490000D03*
D19*
X148480000Y-64430000D03*
X153880000Y-64430000D03*
X153880000Y-68430000D03*
X148480000Y-68430000D03*
D20*
X148425000Y-101775000D03*
X148425000Y-101125000D03*
X148425000Y-100475000D03*
X148425000Y-99825000D03*
X151015000Y-99825000D03*
X151015000Y-100475000D03*
X151015000Y-101125000D03*
X151015000Y-101775000D03*
D18*
X146025000Y-101075000D03*
X146025000Y-99175000D03*
D21*
X-2200000Y-8300000D03*
X2200000Y-8300000D03*
D22*
X3500000Y-10300000D03*
X1000000Y-10300000D03*
X-1000000Y-10300000D03*
X-3500000Y-10300000D03*
D23*
X6000000Y-8300000D03*
X-6000000Y-8300000D03*
D24*
X153360900Y-58742540D03*
X148360900Y-58742540D03*
D25*
X154360900Y-56042540D03*
X147360900Y-56042540D03*
M02*
