G04 #@! TF.FileFunction,Profile,NP*
%FSLAX46Y46*%
G04 Gerber Fmt 4.6, Leading zero omitted, Abs format (unit mm)*
G04 Created by KiCad (PCBNEW 4.0.4-stable) date 12/16/16 21:33:44*
%MOMM*%
%LPD*%
G01*
G04 APERTURE LIST*
%ADD10C,0.100000*%
%ADD11C,0.150000*%
G04 APERTURE END LIST*
D10*
D11*
X159760000Y-104600000D02*
X159760000Y-104580000D01*
X151200000Y-80500000D02*
X150775000Y-80500000D01*
X151000000Y-80825000D02*
X151000000Y-80100000D01*
X159850000Y-68050000D02*
X159850000Y-78975000D01*
X159825000Y-93575000D02*
X159825000Y-82050000D01*
X142150000Y-93600000D02*
X142150000Y-82050000D01*
X142150000Y-68050000D02*
X142150000Y-78950000D01*
X143975000Y-54600000D02*
X158025000Y-54600000D01*
X142150000Y-56425000D02*
X143975000Y-54600000D01*
X142150000Y-63050000D02*
X142150000Y-56450000D01*
X159850000Y-56425000D02*
X158025000Y-54600000D01*
X159850000Y-56425000D02*
X159850000Y-63050000D01*
X142150000Y-104550000D02*
X142150000Y-98600000D01*
X159850000Y-98600000D02*
X159850000Y-104500000D01*
X157350000Y-65550000D02*
G75*
G03X159850000Y-68050000I2500000J0D01*
G01*
X142150000Y-68050000D02*
G75*
G03X144650000Y-65550000I0J2500000D01*
G01*
X144650000Y-65550000D02*
G75*
G03X142150000Y-63050000I-2500000J0D01*
G01*
X159850000Y-63050000D02*
G75*
G03X157350000Y-65550000I0J-2500000D01*
G01*
X157350000Y-96100000D02*
G75*
G03X159850000Y-98600000I2500000J0D01*
G01*
X159825000Y-93600000D02*
G75*
G03X157350000Y-96125000I25000J-2500000D01*
G01*
X142150000Y-98600000D02*
G75*
G03X144650000Y-96100000I0J2500000D01*
G01*
X144650000Y-96100000D02*
G75*
G03X142150000Y-93600000I-2500000J0D01*
G01*
X142150000Y-104550000D02*
X144025000Y-106425000D01*
X157925000Y-106425000D02*
X144050000Y-106425000D01*
X157925000Y-106425000D02*
X159850000Y-104500000D01*
X159825000Y-79000000D02*
G75*
G03X159850000Y-82075000I1550000J-1525000D01*
G01*
X142175000Y-82025000D02*
G75*
G03X142150000Y-78950000I-1550000J1525000D01*
G01*
X144625000Y-65525000D02*
X144625000Y-65025000D01*
M02*
