M48
INCH,TZ
T1C0.016
T2C0.020
T3C0.022
T4C0.030
T5C0.039
T6C0.040
T7C0.059
T8C0.091
%
G90
G05
T1
X56467Y-27165
X57067Y-27293
X57831Y-34799
X57854Y-36171
X58697Y-33551
X58882Y-36240
X59402Y-33110
X59685Y-25465
X59957Y-35811
X60862Y-40201
X60898Y-34799
X60913Y-39776
X61110Y-36697
X61587Y-23173
X61776Y-38768
X62037Y-36890
X62339Y-40937
X62362Y-27244
T4
X57437Y-38136
X57437Y-41136
X58437Y-38136
X58437Y-41136
X59437Y-38136
X59437Y-41136
X60437Y-38136
X60437Y-41136
T5
X-1378Y-4055
X-394Y-4055
X394Y-4055
X1378Y-4055
T6
X58496Y-30299
X59047Y-32047
X59496Y-30299
X60047Y-32047
X60496Y-30299
T7
X-866Y-3268
X866Y-3268
T8
X-2362Y-3268
X2362Y-3268
T2
X58016Y-21936G85X58016Y-22192
G05
X60772Y-21936G85X60772Y-22192
G05
T3
X58469Y-23127G85X58351Y-23127
G05
X60437Y-23127G85X60319Y-23127
G05
T0
M30
