G04 #@! TF.FileFunction,Legend,Top*
%FSLAX46Y46*%
G04 Gerber Fmt 4.6, Leading zero omitted, Abs format (unit mm)*
G04 Created by KiCad (PCBNEW 4.0.4-stable) date 12/16/16 21:33:44*
%MOMM*%
%LPD*%
G01*
G04 APERTURE LIST*
%ADD10C,0.100000*%
%ADD11C,0.250000*%
%ADD12C,0.127000*%
%ADD13C,0.120000*%
%ADD14C,0.150000*%
%ADD15C,0.152400*%
%ADD16C,0.125000*%
G04 APERTURE END LIST*
D10*
D11*
X146583333Y-55503571D02*
X146726190Y-55551190D01*
X146773809Y-55598810D01*
X146821428Y-55694048D01*
X146821428Y-55836905D01*
X146773809Y-55932143D01*
X146726190Y-55979762D01*
X146630952Y-56027381D01*
X146249999Y-56027381D01*
X146249999Y-55027381D01*
X146583333Y-55027381D01*
X146678571Y-55075000D01*
X146726190Y-55122619D01*
X146773809Y-55217857D01*
X146773809Y-55313095D01*
X146726190Y-55408333D01*
X146678571Y-55455952D01*
X146583333Y-55503571D01*
X146249999Y-55503571D01*
X147154761Y-55360714D02*
X147392856Y-56027381D01*
X147630952Y-55360714D02*
X147392856Y-56027381D01*
X147297618Y-56265476D01*
X147249999Y-56313095D01*
X147154761Y-56360714D01*
X148726190Y-55979762D02*
X148869047Y-56027381D01*
X149107143Y-56027381D01*
X149202381Y-55979762D01*
X149250000Y-55932143D01*
X149297619Y-55836905D01*
X149297619Y-55741667D01*
X149250000Y-55646429D01*
X149202381Y-55598810D01*
X149107143Y-55551190D01*
X148916666Y-55503571D01*
X148821428Y-55455952D01*
X148773809Y-55408333D01*
X148726190Y-55313095D01*
X148726190Y-55217857D01*
X148773809Y-55122619D01*
X148821428Y-55075000D01*
X148916666Y-55027381D01*
X149154762Y-55027381D01*
X149297619Y-55075000D01*
X150154762Y-55360714D02*
X150154762Y-56027381D01*
X149726190Y-55360714D02*
X149726190Y-55884524D01*
X149773809Y-55979762D01*
X149869047Y-56027381D01*
X150011905Y-56027381D01*
X150107143Y-55979762D01*
X150154762Y-55932143D01*
X150630952Y-55360714D02*
X150630952Y-56027381D01*
X150630952Y-55455952D02*
X150678571Y-55408333D01*
X150773809Y-55360714D01*
X150916667Y-55360714D01*
X151011905Y-55408333D01*
X151059524Y-55503571D01*
X151059524Y-56027381D01*
X151964286Y-56027381D02*
X151964286Y-55027381D01*
X151964286Y-55979762D02*
X151869048Y-56027381D01*
X151678571Y-56027381D01*
X151583333Y-55979762D01*
X151535714Y-55932143D01*
X151488095Y-55836905D01*
X151488095Y-55551190D01*
X151535714Y-55455952D01*
X151583333Y-55408333D01*
X151678571Y-55360714D01*
X151869048Y-55360714D01*
X151964286Y-55408333D01*
X152440476Y-56027381D02*
X152440476Y-55027381D01*
X152440476Y-55408333D02*
X152535714Y-55360714D01*
X152726191Y-55360714D01*
X152821429Y-55408333D01*
X152869048Y-55455952D01*
X152916667Y-55551190D01*
X152916667Y-55836905D01*
X152869048Y-55932143D01*
X152821429Y-55979762D01*
X152726191Y-56027381D01*
X152535714Y-56027381D01*
X152440476Y-55979762D01*
X153726191Y-55979762D02*
X153630953Y-56027381D01*
X153440476Y-56027381D01*
X153345238Y-55979762D01*
X153297619Y-55884524D01*
X153297619Y-55503571D01*
X153345238Y-55408333D01*
X153440476Y-55360714D01*
X153630953Y-55360714D01*
X153726191Y-55408333D01*
X153773810Y-55503571D01*
X153773810Y-55598810D01*
X153297619Y-55694048D01*
X154202381Y-56027381D02*
X154202381Y-55360714D01*
X154202381Y-55551190D02*
X154250000Y-55455952D01*
X154297619Y-55408333D01*
X154392857Y-55360714D01*
X154488096Y-55360714D01*
X155250001Y-55360714D02*
X155250001Y-56170238D01*
X155202382Y-56265476D01*
X155154763Y-56313095D01*
X155059524Y-56360714D01*
X154916667Y-56360714D01*
X154821429Y-56313095D01*
X155250001Y-55979762D02*
X155154763Y-56027381D01*
X154964286Y-56027381D01*
X154869048Y-55979762D01*
X154821429Y-55932143D01*
X154773810Y-55836905D01*
X154773810Y-55551190D01*
X154821429Y-55455952D01*
X154869048Y-55408333D01*
X154964286Y-55360714D01*
X155154763Y-55360714D01*
X155250001Y-55408333D01*
X147083333Y-57491667D02*
X147559524Y-57491667D01*
X146988095Y-57777381D02*
X147321428Y-56777381D01*
X147654762Y-57777381D01*
X147988095Y-57777381D02*
X147988095Y-56777381D01*
X147988095Y-57253571D02*
X148559524Y-57253571D01*
X148559524Y-57777381D02*
X148559524Y-56777381D01*
X149035714Y-57253571D02*
X149369048Y-57253571D01*
X149511905Y-57777381D02*
X149035714Y-57777381D01*
X149035714Y-56777381D01*
X149511905Y-56777381D01*
X149940476Y-57396429D02*
X150702381Y-57396429D01*
X151130952Y-57729762D02*
X151273809Y-57777381D01*
X151511905Y-57777381D01*
X151607143Y-57729762D01*
X151654762Y-57682143D01*
X151702381Y-57586905D01*
X151702381Y-57491667D01*
X151654762Y-57396429D01*
X151607143Y-57348810D01*
X151511905Y-57301190D01*
X151321428Y-57253571D01*
X151226190Y-57205952D01*
X151178571Y-57158333D01*
X151130952Y-57063095D01*
X151130952Y-56967857D01*
X151178571Y-56872619D01*
X151226190Y-56825000D01*
X151321428Y-56777381D01*
X151559524Y-56777381D01*
X151702381Y-56825000D01*
X151988095Y-57110714D02*
X152369047Y-57110714D01*
X152130952Y-56777381D02*
X152130952Y-57634524D01*
X152178571Y-57729762D01*
X152273809Y-57777381D01*
X152369047Y-57777381D01*
X152702381Y-57777381D02*
X152702381Y-57110714D01*
X152702381Y-56777381D02*
X152654762Y-56825000D01*
X152702381Y-56872619D01*
X152750000Y-56825000D01*
X152702381Y-56777381D01*
X152702381Y-56872619D01*
X153607143Y-57729762D02*
X153511905Y-57777381D01*
X153321428Y-57777381D01*
X153226190Y-57729762D01*
X153178571Y-57682143D01*
X153130952Y-57586905D01*
X153130952Y-57301190D01*
X153178571Y-57205952D01*
X153226190Y-57158333D01*
X153321428Y-57110714D01*
X153511905Y-57110714D01*
X153607143Y-57158333D01*
X154035714Y-57777381D02*
X154035714Y-56777381D01*
X154130952Y-57396429D02*
X154416667Y-57777381D01*
X154416667Y-57110714D02*
X154035714Y-57491667D01*
D12*
X143125000Y-62500000D02*
X142250000Y-61625000D01*
X143125000Y-61625000D02*
X142250000Y-61625000D01*
X143100000Y-61650000D02*
X142250000Y-62500000D01*
X142250000Y-62500000D02*
X142250000Y-61625000D01*
X142250000Y-62500000D02*
X143125000Y-62500000D01*
X143125000Y-62500000D02*
X143125000Y-61625000D01*
X159750000Y-62500000D02*
X159750000Y-61625000D01*
X158875000Y-62500000D02*
X159750000Y-62500000D01*
X158875000Y-62500000D02*
X158875000Y-61625000D01*
X159725000Y-61650000D02*
X158875000Y-62500000D01*
X159750000Y-61625000D02*
X158875000Y-61625000D01*
X159750000Y-62500000D02*
X158875000Y-61625000D01*
D13*
X146265000Y-67160000D02*
X147525000Y-67160000D01*
X153085000Y-67160000D02*
X151825000Y-67160000D01*
X146265000Y-63400000D02*
X146265000Y-67160000D01*
X153085000Y-61150000D02*
X153085000Y-67160000D01*
D14*
X145625000Y-61875000D02*
X145625000Y-60875000D01*
X143925000Y-60875000D02*
X143925000Y-61875000D01*
X144620000Y-101564000D02*
X144620000Y-103977000D01*
X144620000Y-99786000D02*
X144620000Y-97373000D01*
X144620000Y-101564000D02*
G75*
G03X145509000Y-100675000I0J889000D01*
G01*
X145509000Y-100675000D02*
G75*
G03X144620000Y-99786000I-889000J0D01*
G01*
X145763000Y-102834000D02*
G75*
G03X145763000Y-102834000I-254000J0D01*
G01*
X154780000Y-103977000D02*
X154653000Y-103977000D01*
X152113000Y-103977000D02*
X152367000Y-103977000D01*
X149573000Y-103977000D02*
X149827000Y-103977000D01*
X147033000Y-103977000D02*
X147287000Y-103977000D01*
X144620000Y-103977000D02*
X144747000Y-103977000D01*
X144620000Y-97373000D02*
X144747000Y-97373000D01*
X154780000Y-97373000D02*
X154653000Y-97373000D01*
X152113000Y-97373000D02*
X152367000Y-97373000D01*
X149573000Y-97373000D02*
X149827000Y-97373000D01*
X147033000Y-97373000D02*
X147287000Y-97373000D01*
X154780000Y-103977000D02*
X154780000Y-97373000D01*
X157840000Y-101270000D02*
X156840000Y-101270000D01*
X156840000Y-102970000D02*
X157840000Y-102970000D01*
X153725000Y-62250000D02*
X153725000Y-63250000D01*
X155425000Y-63250000D02*
X155425000Y-62250000D01*
X156820000Y-100720000D02*
X157820000Y-100720000D01*
X157820000Y-99020000D02*
X156820000Y-99020000D01*
X142600000Y-102225000D02*
X142600000Y-103225000D01*
X144300000Y-103225000D02*
X144300000Y-102225000D01*
X148430000Y-82950000D02*
X149980000Y-82950000D01*
X153790000Y-82670000D02*
X151250000Y-82670000D01*
X151250000Y-82670000D02*
X151250000Y-80130000D01*
X149980000Y-79850000D02*
X148430000Y-79850000D01*
X148430000Y-79850000D02*
X148430000Y-82950000D01*
X151250000Y-80130000D02*
X153790000Y-80130000D01*
X153790000Y-80130000D02*
X153790000Y-82670000D01*
X153660000Y-78510000D02*
X155210000Y-78510000D01*
X155210000Y-78510000D02*
X155210000Y-75410000D01*
X155210000Y-75410000D02*
X153660000Y-75410000D01*
X152390000Y-78230000D02*
X147310000Y-78230000D01*
X147310000Y-78230000D02*
X147310000Y-75690000D01*
X147310000Y-75690000D02*
X152390000Y-75690000D01*
X152390000Y-75690000D02*
X152390000Y-78230000D01*
X155450000Y-65725000D02*
X155450000Y-66925000D01*
X153700000Y-66925000D02*
X153700000Y-65725000D01*
D15*
X142950000Y-70825000D02*
X158950000Y-70825000D01*
X158950000Y-70825000D02*
X158950000Y-76225000D01*
X142950000Y-70825000D02*
X142950000Y-76225000D01*
X142950000Y-92025000D02*
X142950000Y-92825000D01*
X142950000Y-92825000D02*
X158950000Y-92825000D01*
X158950000Y-92825000D02*
X158950000Y-92025000D01*
X158950000Y-70825000D02*
X142950000Y-74625000D01*
X142950000Y-70825000D02*
X158950000Y-74625000D01*
X142942000Y-74625000D02*
X158942000Y-74625000D01*
D14*
X147352381Y-66011905D02*
X148161905Y-66011905D01*
X148257143Y-65964286D01*
X148304762Y-65916667D01*
X148352381Y-65821429D01*
X148352381Y-65630952D01*
X148304762Y-65535714D01*
X148257143Y-65488095D01*
X148161905Y-65440476D01*
X147352381Y-65440476D01*
X148352381Y-64440476D02*
X148352381Y-65011905D01*
X148352381Y-64726191D02*
X147352381Y-64726191D01*
X147495238Y-64821429D01*
X147590476Y-64916667D01*
X147638095Y-65011905D01*
X144650000Y-61667857D02*
X144614286Y-61703571D01*
X144507143Y-61739286D01*
X144435714Y-61739286D01*
X144328571Y-61703571D01*
X144257143Y-61632143D01*
X144221428Y-61560714D01*
X144185714Y-61417857D01*
X144185714Y-61310714D01*
X144221428Y-61167857D01*
X144257143Y-61096429D01*
X144328571Y-61025000D01*
X144435714Y-60989286D01*
X144507143Y-60989286D01*
X144614286Y-61025000D01*
X144650000Y-61060714D01*
X145364286Y-61739286D02*
X144935714Y-61739286D01*
X145150000Y-61739286D02*
X145150000Y-60989286D01*
X145078571Y-61096429D01*
X145007143Y-61167857D01*
X144935714Y-61203571D01*
X148938095Y-100127381D02*
X148938095Y-100936905D01*
X148985714Y-101032143D01*
X149033333Y-101079762D01*
X149128571Y-101127381D01*
X149319048Y-101127381D01*
X149414286Y-101079762D01*
X149461905Y-101032143D01*
X149509524Y-100936905D01*
X149509524Y-100127381D01*
X150414286Y-100460714D02*
X150414286Y-101127381D01*
X150176190Y-100079762D02*
X149938095Y-100794048D01*
X150557143Y-100794048D01*
X157615000Y-102246666D02*
X157648333Y-102280000D01*
X157681667Y-102380000D01*
X157681667Y-102446666D01*
X157648333Y-102546666D01*
X157581667Y-102613333D01*
X157515000Y-102646666D01*
X157381667Y-102680000D01*
X157281667Y-102680000D01*
X157148333Y-102646666D01*
X157081667Y-102613333D01*
X157015000Y-102546666D01*
X156981667Y-102446666D01*
X156981667Y-102380000D01*
X157015000Y-102280000D01*
X157048333Y-102246666D01*
X157048333Y-101980000D02*
X157015000Y-101946666D01*
X156981667Y-101880000D01*
X156981667Y-101713333D01*
X157015000Y-101646666D01*
X157048333Y-101613333D01*
X157115000Y-101580000D01*
X157181667Y-101580000D01*
X157281667Y-101613333D01*
X157681667Y-102013333D01*
X157681667Y-101580000D01*
D16*
X154500000Y-62992857D02*
X154464286Y-63028571D01*
X154357143Y-63064286D01*
X154285714Y-63064286D01*
X154178571Y-63028571D01*
X154107143Y-62957143D01*
X154071428Y-62885714D01*
X154035714Y-62742857D01*
X154035714Y-62635714D01*
X154071428Y-62492857D01*
X154107143Y-62421429D01*
X154178571Y-62350000D01*
X154285714Y-62314286D01*
X154357143Y-62314286D01*
X154464286Y-62350000D01*
X154500000Y-62385714D01*
X155142857Y-62564286D02*
X155142857Y-63064286D01*
X154964286Y-62278571D02*
X154785714Y-62814286D01*
X155250000Y-62814286D01*
D14*
X157173334Y-100110000D02*
X157140000Y-100143333D01*
X157040000Y-100176667D01*
X156973334Y-100176667D01*
X156873334Y-100143333D01*
X156806667Y-100076667D01*
X156773334Y-100010000D01*
X156740000Y-99876667D01*
X156740000Y-99776667D01*
X156773334Y-99643333D01*
X156806667Y-99576667D01*
X156873334Y-99510000D01*
X156973334Y-99476667D01*
X157040000Y-99476667D01*
X157140000Y-99510000D01*
X157173334Y-99543333D01*
X157806667Y-99476667D02*
X157473334Y-99476667D01*
X157440000Y-99810000D01*
X157473334Y-99776667D01*
X157540000Y-99743333D01*
X157706667Y-99743333D01*
X157773334Y-99776667D01*
X157806667Y-99810000D01*
X157840000Y-99876667D01*
X157840000Y-100043333D01*
X157806667Y-100110000D01*
X157773334Y-100143333D01*
X157706667Y-100176667D01*
X157540000Y-100176667D01*
X157473334Y-100143333D01*
X157440000Y-100110000D01*
X143323334Y-103010000D02*
X143290000Y-103043333D01*
X143190000Y-103076667D01*
X143123334Y-103076667D01*
X143023334Y-103043333D01*
X142956667Y-102976667D01*
X142923334Y-102910000D01*
X142890000Y-102776667D01*
X142890000Y-102676667D01*
X142923334Y-102543333D01*
X142956667Y-102476667D01*
X143023334Y-102410000D01*
X143123334Y-102376667D01*
X143190000Y-102376667D01*
X143290000Y-102410000D01*
X143323334Y-102443333D01*
X143656667Y-103076667D02*
X143790000Y-103076667D01*
X143856667Y-103043333D01*
X143890000Y-103010000D01*
X143956667Y-102910000D01*
X143990000Y-102776667D01*
X143990000Y-102510000D01*
X143956667Y-102443333D01*
X143923334Y-102410000D01*
X143856667Y-102376667D01*
X143723334Y-102376667D01*
X143656667Y-102410000D01*
X143623334Y-102443333D01*
X143590000Y-102510000D01*
X143590000Y-102676667D01*
X143623334Y-102743333D01*
X143656667Y-102776667D01*
X143723334Y-102810000D01*
X143856667Y-102810000D01*
X143923334Y-102776667D01*
X143956667Y-102743333D01*
X143990000Y-102676667D01*
X147082381Y-78997619D02*
X146082381Y-78997619D01*
X146082381Y-78759524D01*
X146130000Y-78616666D01*
X146225238Y-78521428D01*
X146320476Y-78473809D01*
X146510952Y-78426190D01*
X146653810Y-78426190D01*
X146844286Y-78473809D01*
X146939524Y-78521428D01*
X147034762Y-78616666D01*
X147082381Y-78759524D01*
X147082381Y-78997619D01*
X147034762Y-77616666D02*
X147082381Y-77711904D01*
X147082381Y-77902381D01*
X147034762Y-77997619D01*
X146939524Y-78045238D01*
X146558571Y-78045238D01*
X146463333Y-77997619D01*
X146415714Y-77902381D01*
X146415714Y-77711904D01*
X146463333Y-77616666D01*
X146558571Y-77569047D01*
X146653810Y-77569047D01*
X146749048Y-78045238D01*
X147082381Y-77140476D02*
X146082381Y-77140476D01*
X146463333Y-77140476D02*
X146415714Y-77045238D01*
X146415714Y-76854761D01*
X146463333Y-76759523D01*
X146510952Y-76711904D01*
X146606190Y-76664285D01*
X146891905Y-76664285D01*
X146987143Y-76711904D01*
X147034762Y-76759523D01*
X147082381Y-76854761D01*
X147082381Y-77045238D01*
X147034762Y-77140476D01*
X146415714Y-75807142D02*
X147082381Y-75807142D01*
X146415714Y-76235714D02*
X146939524Y-76235714D01*
X147034762Y-76188095D01*
X147082381Y-76092857D01*
X147082381Y-75949999D01*
X147034762Y-75854761D01*
X146987143Y-75807142D01*
X146415714Y-74902380D02*
X147225238Y-74902380D01*
X147320476Y-74949999D01*
X147368095Y-74997618D01*
X147415714Y-75092857D01*
X147415714Y-75235714D01*
X147368095Y-75330952D01*
X147034762Y-74902380D02*
X147082381Y-74997618D01*
X147082381Y-75188095D01*
X147034762Y-75283333D01*
X146987143Y-75330952D01*
X146891905Y-75378571D01*
X146606190Y-75378571D01*
X146510952Y-75330952D01*
X146463333Y-75283333D01*
X146415714Y-75188095D01*
X146415714Y-74997618D01*
X146463333Y-74902380D01*
X154483334Y-66766667D02*
X154250000Y-66433333D01*
X154083334Y-66766667D02*
X154083334Y-66066667D01*
X154350000Y-66066667D01*
X154416667Y-66100000D01*
X154450000Y-66133333D01*
X154483334Y-66200000D01*
X154483334Y-66300000D01*
X154450000Y-66366667D01*
X154416667Y-66400000D01*
X154350000Y-66433333D01*
X154083334Y-66433333D01*
X155083334Y-66300000D02*
X155083334Y-66766667D01*
X154916667Y-66033333D02*
X154750000Y-66533333D01*
X155183334Y-66533333D01*
X143213095Y-74977381D02*
X143213095Y-75786905D01*
X143260714Y-75882143D01*
X143308333Y-75929762D01*
X143403571Y-75977381D01*
X143594048Y-75977381D01*
X143689286Y-75929762D01*
X143736905Y-75882143D01*
X143784524Y-75786905D01*
X143784524Y-74977381D01*
X144165476Y-74977381D02*
X144784524Y-74977381D01*
X144451190Y-75358333D01*
X144594048Y-75358333D01*
X144689286Y-75405952D01*
X144736905Y-75453571D01*
X144784524Y-75548810D01*
X144784524Y-75786905D01*
X144736905Y-75882143D01*
X144689286Y-75929762D01*
X144594048Y-75977381D01*
X144308333Y-75977381D01*
X144213095Y-75929762D01*
X144165476Y-75882143D01*
X147127714Y-72277381D02*
X147127714Y-71277381D01*
X147699143Y-72277381D01*
X147699143Y-71277381D01*
X148318190Y-72277381D02*
X148222952Y-72229762D01*
X148175333Y-72182143D01*
X148127714Y-72086905D01*
X148127714Y-71801190D01*
X148175333Y-71705952D01*
X148222952Y-71658333D01*
X148318190Y-71610714D01*
X148461048Y-71610714D01*
X148556286Y-71658333D01*
X148603905Y-71705952D01*
X148651524Y-71801190D01*
X148651524Y-72086905D01*
X148603905Y-72182143D01*
X148556286Y-72229762D01*
X148461048Y-72277381D01*
X148318190Y-72277381D01*
X150413429Y-72182143D02*
X150365810Y-72229762D01*
X150222953Y-72277381D01*
X150127715Y-72277381D01*
X149984857Y-72229762D01*
X149889619Y-72134524D01*
X149842000Y-72039286D01*
X149794381Y-71848810D01*
X149794381Y-71705952D01*
X149842000Y-71515476D01*
X149889619Y-71420238D01*
X149984857Y-71325000D01*
X150127715Y-71277381D01*
X150222953Y-71277381D01*
X150365810Y-71325000D01*
X150413429Y-71372619D01*
X150984857Y-72277381D02*
X150889619Y-72229762D01*
X150842000Y-72182143D01*
X150794381Y-72086905D01*
X150794381Y-71801190D01*
X150842000Y-71705952D01*
X150889619Y-71658333D01*
X150984857Y-71610714D01*
X151127715Y-71610714D01*
X151222953Y-71658333D01*
X151270572Y-71705952D01*
X151318191Y-71801190D01*
X151318191Y-72086905D01*
X151270572Y-72182143D01*
X151222953Y-72229762D01*
X151127715Y-72277381D01*
X150984857Y-72277381D01*
X151746762Y-71610714D02*
X151746762Y-72610714D01*
X151746762Y-71658333D02*
X151842000Y-71610714D01*
X152032477Y-71610714D01*
X152127715Y-71658333D01*
X152175334Y-71705952D01*
X152222953Y-71801190D01*
X152222953Y-72086905D01*
X152175334Y-72182143D01*
X152127715Y-72229762D01*
X152032477Y-72277381D01*
X151842000Y-72277381D01*
X151746762Y-72229762D01*
X152651524Y-71610714D02*
X152651524Y-72610714D01*
X152651524Y-71658333D02*
X152746762Y-71610714D01*
X152937239Y-71610714D01*
X153032477Y-71658333D01*
X153080096Y-71705952D01*
X153127715Y-71801190D01*
X153127715Y-72086905D01*
X153080096Y-72182143D01*
X153032477Y-72229762D01*
X152937239Y-72277381D01*
X152746762Y-72277381D01*
X152651524Y-72229762D01*
X153937239Y-72229762D02*
X153842001Y-72277381D01*
X153651524Y-72277381D01*
X153556286Y-72229762D01*
X153508667Y-72134524D01*
X153508667Y-71753571D01*
X153556286Y-71658333D01*
X153651524Y-71610714D01*
X153842001Y-71610714D01*
X153937239Y-71658333D01*
X153984858Y-71753571D01*
X153984858Y-71848810D01*
X153508667Y-71944048D01*
X154413429Y-72277381D02*
X154413429Y-71610714D01*
X154413429Y-71801190D02*
X154461048Y-71705952D01*
X154508667Y-71658333D01*
X154603905Y-71610714D01*
X154699144Y-71610714D01*
M02*
