G04 #@! TF.FileFunction,Soldermask,Top*
%FSLAX46Y46*%
G04 Gerber Fmt 4.6, Leading zero omitted, Abs format (unit mm)*
G04 Created by KiCad (PCBNEW 4.0.4-stable) date 12/28/16 17:07:54*
%MOMM*%
%LPD*%
G01*
G04 APERTURE LIST*
%ADD10C,0.100000*%
%ADD11R,4.200000X2.400000*%
%ADD12R,1.900000X2.400000*%
%ADD13R,1.650000X1.400000*%
%ADD14C,2.305000*%
%ADD15R,1.400000X1.650000*%
%ADD16R,2.432000X2.432000*%
%ADD17O,2.432000X2.432000*%
%ADD18R,2.127200X2.432000*%
%ADD19O,2.127200X2.432000*%
%ADD20R,1.700000X1.100000*%
%ADD21R,3.400000X1.900000*%
%ADD22C,2.150000*%
%ADD23C,1.901140*%
%ADD24C,3.399740*%
G04 APERTURE END LIST*
D10*
D11*
X149675000Y-68400000D03*
D12*
X149675000Y-62100000D03*
X147375000Y-62100000D03*
X151975000Y-62100000D03*
D13*
X144775000Y-60375000D03*
X144775000Y-62375000D03*
D14*
X145890000Y-104485000D03*
X148430000Y-104485000D03*
X150970000Y-104485000D03*
X153510000Y-104485000D03*
X153510000Y-96865000D03*
X150970000Y-96865000D03*
X148430000Y-96865000D03*
X145890000Y-96865000D03*
D15*
X156340000Y-102120000D03*
X158340000Y-102120000D03*
D13*
X154575000Y-63750000D03*
X154575000Y-61750000D03*
D15*
X158320000Y-99870000D03*
X156320000Y-99870000D03*
D13*
X143450000Y-103725000D03*
X143450000Y-101725000D03*
D16*
X149980000Y-81400000D03*
D17*
X152520000Y-81400000D03*
D18*
X153660000Y-76960000D03*
D19*
X151120000Y-76960000D03*
X148580000Y-76960000D03*
D20*
X154575000Y-67275000D03*
X154575000Y-65375000D03*
D21*
X158777000Y-91347400D03*
X158726200Y-89315400D03*
X158650000Y-87232600D03*
X158675400Y-85251400D03*
X158650000Y-83219400D03*
X158675400Y-81238200D03*
X158650000Y-79231600D03*
X143338900Y-91309300D03*
X143262700Y-89226500D03*
X143262700Y-87245300D03*
X143250000Y-85226000D03*
X143250000Y-83194000D03*
X143250000Y-81289000D03*
X143250000Y-79257000D03*
X143250000Y-77225000D03*
X158650000Y-77225000D03*
D22*
X-2200000Y-8300000D03*
X2200000Y-8300000D03*
D23*
X3500000Y-10300000D03*
X1000000Y-10300000D03*
X-1000000Y-10300000D03*
X-3500000Y-10300000D03*
D24*
X6000000Y-8300000D03*
X-6000000Y-8300000D03*
D22*
X148600000Y-57400000D03*
X153000000Y-57400000D03*
D23*
X154300000Y-59400000D03*
X151800000Y-59400000D03*
X149800000Y-59400000D03*
X147300000Y-59400000D03*
D24*
X156800000Y-57400000D03*
X144800000Y-57400000D03*
M02*
