M48
INCH,TZ
T1C0.016
T2C0.030
T3C0.039
T4C0.040
T5C0.091
%
G90
G05
T1
X56467Y-27165
X57057Y-27136
X57815Y-34878
X58071Y-36358
X58661Y-33110
X58697Y-33551
X59685Y-25465
X60591Y-39252
X60807Y-39646
X60906Y-34173
X62037Y-36890
X62047Y-38720
X62146Y-40925
X62362Y-27244
T2
X57417Y-37329
X57417Y-40329
X58417Y-37329
X58417Y-40329
X59417Y-37329
X59417Y-40329
X60417Y-37329
X60417Y-40329
T3
X57992Y-23386
X58976Y-23386
X59764Y-23386
X60748Y-23386
T4
X58496Y-30299
X59047Y-32047
X59496Y-30299
X60047Y-32047
X60496Y-30299
T5
X57008Y-22598
X61732Y-22598
T0
M30
