G04 #@! TF.FileFunction,Soldermask,Top*
%FSLAX46Y46*%
G04 Gerber Fmt 4.6, Leading zero omitted, Abs format (unit mm)*
G04 Created by KiCad (PCBNEW 4.0.4-stable) date 01/28/17 22:06:06*
%MOMM*%
%LPD*%
G01*
G04 APERTURE LIST*
%ADD10C,0.100000*%
%ADD11C,2.305000*%
%ADD12R,3.400000X1.900000*%
%ADD13R,2.432000X2.432000*%
%ADD14O,2.432000X2.432000*%
%ADD15R,1.400000X1.650000*%
%ADD16R,2.432000X2.127200*%
%ADD17O,2.432000X2.127200*%
%ADD18R,1.700000X1.100000*%
%ADD19R,1.100000X1.700000*%
%ADD20R,4.200000X2.400000*%
%ADD21R,1.900000X2.400000*%
%ADD22C,2.150000*%
%ADD23C,3.399740*%
%ADD24R,2.100000X2.100000*%
%ADD25O,2.100000X2.100000*%
%ADD26R,1.650000X1.400000*%
G04 APERTURE END LIST*
D10*
D11*
X154740000Y-75480000D03*
X154740000Y-78020000D03*
X154740000Y-80560000D03*
X154740000Y-83100000D03*
X147120000Y-83100000D03*
X147120000Y-80560000D03*
X147120000Y-78020000D03*
X147120000Y-75480000D03*
D12*
X158617000Y-90702400D03*
X158566200Y-88670400D03*
X158490000Y-86587600D03*
X158515400Y-84606400D03*
X158490000Y-82574400D03*
X158515400Y-80593200D03*
X158490000Y-78586600D03*
X143178900Y-90664300D03*
X143102700Y-88581500D03*
X143102700Y-86600300D03*
X143090000Y-84581000D03*
X143090000Y-82549000D03*
X143090000Y-80644000D03*
X143090000Y-78612000D03*
X143090000Y-76580000D03*
X158490000Y-76580000D03*
D13*
X152030000Y-99170000D03*
D14*
X149490000Y-99170000D03*
D15*
X145250000Y-60350000D03*
X143250000Y-60350000D03*
D16*
X155570000Y-63570000D03*
D17*
X155570000Y-66110000D03*
X155570000Y-68650000D03*
D18*
X146330000Y-65930000D03*
X146330000Y-64030000D03*
D19*
X155520000Y-93530000D03*
X157420000Y-93530000D03*
D20*
X150610000Y-68720000D03*
D21*
X150610000Y-62420000D03*
X148310000Y-62420000D03*
X152910000Y-62420000D03*
X154300000Y-59600000D03*
X151800000Y-59600000D03*
X149800000Y-59600000D03*
D22*
X148600000Y-57400000D03*
X153000000Y-57400000D03*
D21*
X147300000Y-59600000D03*
D23*
X156800000Y-57400000D03*
X144800000Y-57400000D03*
D15*
X146140000Y-62330000D03*
X144140000Y-62330000D03*
D24*
X149280000Y-65840000D03*
D25*
X151820000Y-65840000D03*
D26*
X145380000Y-69280000D03*
X145380000Y-67280000D03*
M02*
