G04 #@! TF.FileFunction,Copper,L2,Bot,Signal*
%FSLAX46Y46*%
G04 Gerber Fmt 4.6, Leading zero omitted, Abs format (unit mm)*
G04 Created by KiCad (PCBNEW 4.0.4-stable) date 01/28/17 22:06:06*
%MOMM*%
%LPD*%
G01*
G04 APERTURE LIST*
%ADD10C,0.100000*%
%ADD11R,1.000000X1.250000*%
%ADD12C,1.905000*%
%ADD13R,1.500000X1.250000*%
%ADD14R,2.500000X1.600000*%
%ADD15R,2.032000X2.032000*%
%ADD16O,2.032000X2.032000*%
%ADD17R,0.700000X1.300000*%
%ADD18R,0.650000X1.060000*%
%ADD19R,1.250000X1.000000*%
%ADD20R,2.032000X1.727200*%
%ADD21O,2.032000X1.727200*%
%ADD22R,1.300000X0.700000*%
%ADD23C,1.750000*%
%ADD24C,2.999740*%
%ADD25R,1.700000X1.700000*%
%ADD26O,1.700000X1.700000*%
%ADD27C,0.700000*%
%ADD28C,0.600000*%
%ADD29C,0.350000*%
%ADD30C,0.250000*%
G04 APERTURE END LIST*
D10*
D11*
X152000000Y-78190000D03*
X150000000Y-78190000D03*
D12*
X154740000Y-75480000D03*
X154740000Y-78020000D03*
X154740000Y-80560000D03*
X154740000Y-83100000D03*
X147120000Y-83100000D03*
X147120000Y-80560000D03*
X147120000Y-78020000D03*
X147120000Y-75480000D03*
D13*
X148710000Y-85180000D03*
X146210000Y-85180000D03*
D14*
X145580000Y-62720000D03*
X152280000Y-62720000D03*
D15*
X152030000Y-99170000D03*
D16*
X149490000Y-99170000D03*
D17*
X151890000Y-95400000D03*
X149990000Y-95400000D03*
D18*
X149050000Y-89590000D03*
X150000000Y-89590000D03*
X150950000Y-89590000D03*
X150950000Y-91790000D03*
X149050000Y-91790000D03*
D11*
X143510000Y-92870000D03*
X145510000Y-92870000D03*
D19*
X154320000Y-89630000D03*
X154320000Y-91630000D03*
X147900000Y-93460000D03*
X147900000Y-95460000D03*
D11*
X152010000Y-76150000D03*
X150010000Y-76150000D03*
D19*
X153460000Y-95130000D03*
X153460000Y-93130000D03*
D11*
X152100000Y-80080000D03*
X150100000Y-80080000D03*
X148620000Y-87870000D03*
X146620000Y-87870000D03*
D20*
X155570000Y-63570000D03*
D21*
X155570000Y-66110000D03*
X155570000Y-68650000D03*
D17*
X158350000Y-60610000D03*
X156450000Y-60610000D03*
D22*
X152490000Y-89870000D03*
X152490000Y-91770000D03*
X147320000Y-91930000D03*
X147320000Y-90030000D03*
D17*
X149990000Y-93530000D03*
X151890000Y-93530000D03*
D22*
X150850000Y-83910000D03*
X150850000Y-85810000D03*
D17*
X151260000Y-87780000D03*
X153160000Y-87780000D03*
D23*
X148600000Y-57400000D03*
X153000000Y-57400000D03*
D24*
X156800000Y-57400000D03*
X144800000Y-57400000D03*
D25*
X149280000Y-65840000D03*
D26*
X151820000Y-65840000D03*
D27*
X150570000Y-81710000D03*
X153100000Y-85760000D03*
X154360000Y-88430000D03*
X146130000Y-96770000D03*
X150060000Y-87870000D03*
X146290000Y-95460000D03*
X144820000Y-94320000D03*
X147080000Y-68720000D03*
D28*
X156120000Y-79240000D03*
X149310000Y-74630000D03*
D29*
X152030000Y-99170000D02*
X155670000Y-95530000D01*
X155670000Y-88930000D02*
X155670000Y-87780000D01*
X158760000Y-84690000D02*
X158760000Y-81830000D01*
X155670000Y-87780000D02*
X158760000Y-84690000D01*
X158760000Y-81830000D02*
X158760000Y-75580000D01*
X158760000Y-75020000D02*
X159330000Y-74450000D01*
X159330000Y-74450000D02*
X159330000Y-73340000D01*
X158760000Y-75580000D02*
X158760000Y-75020000D01*
X155670000Y-95530000D02*
X155670000Y-88930000D01*
X159330000Y-69680000D02*
X157090000Y-67440000D01*
X159330000Y-72450000D02*
X159330000Y-69680000D01*
X157190000Y-62720000D02*
X157190000Y-62730000D01*
X157090000Y-62820000D02*
X157190000Y-62720000D01*
X157090000Y-67440000D02*
X157090000Y-62820000D01*
X150100000Y-81240000D02*
X150570000Y-81710000D01*
X150100000Y-81240000D02*
X150100000Y-80080000D01*
X152000000Y-78220000D02*
X152200000Y-78220000D01*
X154740000Y-80560000D02*
X157080000Y-80560000D01*
X157080000Y-80560000D02*
X157455000Y-80185000D01*
X157455000Y-80185000D02*
X157455000Y-78445000D01*
X157455000Y-78445000D02*
X157455000Y-74325000D01*
X157455000Y-74325000D02*
X157505000Y-74275000D01*
X157505000Y-74275000D02*
X159330000Y-72450000D01*
X154740000Y-83100000D02*
X154740000Y-80560000D01*
X154740000Y-83100000D02*
X154740000Y-83700000D01*
X154740000Y-83700000D02*
X153100000Y-85340000D01*
X153100000Y-85760000D02*
X153100000Y-85340000D01*
X158110000Y-74680000D02*
X158110000Y-74560000D01*
X154360000Y-88430000D02*
X154360000Y-88400000D01*
X154360000Y-88400000D02*
X158110000Y-84600000D01*
X158110000Y-84600000D02*
X158110000Y-74750000D01*
X158110000Y-74750000D02*
X158110000Y-74680000D01*
X158110000Y-74560000D02*
X159330000Y-73340000D01*
X155320000Y-63560000D02*
X156360000Y-63560000D01*
X156360000Y-63560000D02*
X157000000Y-62920000D01*
X157010000Y-62910000D02*
X157190000Y-62730000D01*
X157000000Y-62920000D02*
X157010000Y-62910000D01*
X158350000Y-60610000D02*
X158350000Y-58950000D01*
X158350000Y-58950000D02*
X156800000Y-57400000D01*
X158350000Y-61530000D02*
X158350000Y-60610000D01*
X158370000Y-61550000D02*
X158350000Y-61530000D01*
X157190000Y-62730000D02*
X158370000Y-61550000D01*
X159330000Y-73340000D02*
X159330000Y-72450000D01*
X157455000Y-78445000D02*
X157460000Y-78440000D01*
X157460000Y-78440000D02*
X157460000Y-78430000D01*
X152000000Y-78220000D02*
X152000000Y-76320000D01*
X152000000Y-76320000D02*
X152010000Y-76310000D01*
X154360000Y-88430000D02*
X153710000Y-87780000D01*
X153710000Y-87780000D02*
X153160000Y-87780000D01*
X145510000Y-92870000D02*
X146100000Y-92870000D01*
X145330000Y-95970000D02*
X146130000Y-96770000D01*
X145330000Y-95010000D02*
X145330000Y-95970000D01*
X146290000Y-94050000D02*
X145330000Y-95010000D01*
X146290000Y-93060000D02*
X146290000Y-94050000D01*
X146100000Y-92870000D02*
X146290000Y-93060000D01*
X150000000Y-89590000D02*
X150000000Y-87930000D01*
X150000000Y-87930000D02*
X150060000Y-87870000D01*
X148620000Y-87870000D02*
X150060000Y-87870000D01*
X150000000Y-89590000D02*
X150050000Y-89540000D01*
X147900000Y-95460000D02*
X146290000Y-95460000D01*
X150110000Y-80080000D02*
X150450000Y-80080000D01*
X150450000Y-80080000D02*
X151110000Y-79420000D01*
X151110000Y-79420000D02*
X151110000Y-78420000D01*
X151110000Y-78420000D02*
X151310000Y-78220000D01*
X151310000Y-78220000D02*
X152000000Y-78220000D01*
X147080000Y-68720000D02*
X145580000Y-67220000D01*
X145580000Y-67220000D02*
X145580000Y-62720000D01*
X145710000Y-62590000D02*
X145580000Y-62720000D01*
X144190000Y-75530000D02*
X144190000Y-75240000D01*
X143160000Y-70461470D02*
X144891470Y-68730000D01*
X143160000Y-74210000D02*
X143160000Y-70461470D01*
X144190000Y-75240000D02*
X143160000Y-74210000D01*
X143510000Y-75510000D02*
X143460000Y-75510000D01*
X142540000Y-70330000D02*
X143510000Y-69360000D01*
X142540000Y-74590000D02*
X142540000Y-70330000D01*
X143460000Y-75510000D02*
X142540000Y-74590000D01*
X144440000Y-93940000D02*
X144820000Y-94320000D01*
X144210000Y-92870000D02*
X143510000Y-92870000D01*
X144440000Y-93100000D02*
X144210000Y-92870000D01*
X144440000Y-93100000D02*
X144440000Y-93940000D01*
X144190000Y-84140000D02*
X144190000Y-84660000D01*
X144190000Y-84140000D02*
X144190000Y-75530000D01*
X144710000Y-85180000D02*
X146210000Y-85180000D01*
X144190000Y-84660000D02*
X144710000Y-85180000D01*
X143510000Y-69360000D02*
X144140000Y-68730000D01*
X144740000Y-68730000D02*
X144140000Y-68730000D01*
X143510000Y-75510000D02*
X143510000Y-92870000D01*
X147070000Y-68730000D02*
X144740000Y-68730000D01*
X147080000Y-68720000D02*
X147070000Y-68730000D01*
D30*
X150010000Y-76150000D02*
X150010000Y-75100000D01*
X154060000Y-74800000D02*
X154740000Y-75480000D01*
X150310000Y-74800000D02*
X154060000Y-74800000D01*
X150010000Y-75100000D02*
X150310000Y-74800000D01*
X150000000Y-78190000D02*
X149990000Y-78190000D01*
X149990000Y-78190000D02*
X148700000Y-76900000D01*
X148480000Y-75480000D02*
X147120000Y-75480000D01*
X148700000Y-75700000D02*
X148480000Y-75480000D01*
X148700000Y-76900000D02*
X148700000Y-75700000D01*
X148710000Y-85180000D02*
X148760000Y-85130000D01*
X148760000Y-85130000D02*
X148760000Y-78590000D01*
X149160000Y-78190000D02*
X150000000Y-78190000D01*
X148760000Y-78590000D02*
X149160000Y-78190000D01*
X150000000Y-78220000D02*
X149770000Y-78220000D01*
X150000000Y-78220000D02*
X150000000Y-76320000D01*
X150000000Y-76320000D02*
X150010000Y-76310000D01*
X150010000Y-76310000D02*
X150010000Y-75860000D01*
X148710000Y-85180000D02*
X148550000Y-85180000D01*
X148550000Y-85180000D02*
X147170000Y-86560000D01*
X147170000Y-86560000D02*
X145580000Y-86560000D01*
X145580000Y-86560000D02*
X145390000Y-86750000D01*
X145390000Y-86750000D02*
X145390000Y-90000000D01*
X145390000Y-90000000D02*
X147320000Y-91930000D01*
X147320000Y-91930000D02*
X147320000Y-92850000D01*
X147320000Y-92850000D02*
X147840000Y-93370000D01*
X149990000Y-95330000D02*
X149540000Y-95330000D01*
X149050000Y-94840000D02*
X149050000Y-91790000D01*
X149540000Y-95330000D02*
X149050000Y-94840000D01*
X149050000Y-91790000D02*
X147460000Y-91790000D01*
X147460000Y-91790000D02*
X147320000Y-91930000D01*
X150850000Y-83910000D02*
X152100000Y-82660000D01*
X152100000Y-82660000D02*
X152100000Y-80080000D01*
X152100000Y-80080000D02*
X152680000Y-80080000D01*
X152680000Y-80080000D02*
X154740000Y-78020000D01*
X150950000Y-89590000D02*
X151260000Y-89280000D01*
X151260000Y-89280000D02*
X151260000Y-87780000D01*
X146620000Y-87870000D02*
X146620000Y-89330000D01*
X146620000Y-89330000D02*
X147320000Y-90030000D01*
X147260000Y-89970000D02*
X147320000Y-90030000D01*
X147320000Y-90030000D02*
X147160000Y-90030000D01*
X147320000Y-90030000D02*
X147320000Y-90110000D01*
X147320000Y-90110000D02*
X147900000Y-90690000D01*
X147900000Y-90690000D02*
X150760000Y-90690000D01*
X150760000Y-90690000D02*
X150950000Y-90500000D01*
X150950000Y-90500000D02*
X150950000Y-89590000D01*
X158625000Y-72165000D02*
X158625000Y-70545002D01*
X153620000Y-69970000D02*
X153920000Y-70270000D01*
X153620000Y-63570000D02*
X152770000Y-62720000D01*
X153620000Y-63570000D02*
X153620000Y-69740000D01*
X153620000Y-69740000D02*
X153620000Y-69970000D01*
X153920000Y-70270000D02*
X158349998Y-70270000D01*
X158625000Y-70545002D02*
X158349998Y-70270000D01*
X156230000Y-74560000D02*
X158625000Y-72165000D01*
X156230000Y-79130000D02*
X156230000Y-74560000D01*
X156120000Y-79240000D02*
X156230000Y-79130000D01*
X158625000Y-72165000D02*
X158629999Y-72160001D01*
X152770000Y-62720000D02*
X152770000Y-61770000D01*
X152770000Y-61770000D02*
X153930000Y-60610000D01*
X153930000Y-60610000D02*
X156450000Y-60610000D01*
X143760002Y-70709998D02*
X144790002Y-69679998D01*
X145350000Y-73960000D02*
X143950002Y-73960000D01*
X149310000Y-74630000D02*
X148640000Y-73960000D01*
X148640000Y-73960000D02*
X145350000Y-73960000D01*
X143760002Y-73770000D02*
X143760002Y-70990000D01*
X143950002Y-73960000D02*
X143760002Y-73770000D01*
X149280000Y-65840000D02*
X149280000Y-68720000D01*
X148480000Y-69520000D02*
X149280000Y-68720000D01*
X144950000Y-69520000D02*
X148480000Y-69520000D01*
X144790002Y-69679998D02*
X144950000Y-69520000D01*
X143760002Y-70990000D02*
X143760002Y-70709998D01*
X149380000Y-86610000D02*
X150050000Y-86610000D01*
X150050000Y-86610000D02*
X150850000Y-85810000D01*
X152170000Y-86810000D02*
X151970000Y-86610000D01*
X152490000Y-89870000D02*
X152490000Y-89220000D01*
X152170000Y-88900000D02*
X152170000Y-86810000D01*
X152490000Y-89220000D02*
X152170000Y-88900000D01*
X151970000Y-86610000D02*
X151010000Y-86610000D01*
X147570000Y-89000000D02*
X147570000Y-87010000D01*
X147570000Y-87010000D02*
X147970000Y-86610000D01*
X147970000Y-86610000D02*
X149380000Y-86610000D01*
X149380000Y-86610000D02*
X151010000Y-86610000D01*
X149050000Y-89590000D02*
X148640000Y-89180000D01*
X147750000Y-89180000D02*
X147570000Y-89000000D01*
X148640000Y-89180000D02*
X147750000Y-89180000D01*
X152490000Y-89870000D02*
X154080000Y-89870000D01*
X154080000Y-89870000D02*
X154320000Y-89630000D01*
X152490000Y-89870000D02*
X152490000Y-89600000D01*
X154310000Y-91610000D02*
X152650000Y-91610000D01*
X152490000Y-91770000D02*
X150970000Y-91770000D01*
X150970000Y-91770000D02*
X150950000Y-91790000D01*
X152650000Y-91610000D02*
X152490000Y-91770000D01*
X149990000Y-93530000D02*
X149990000Y-92100000D01*
X150300000Y-91790000D02*
X150950000Y-91790000D01*
X149990000Y-92100000D02*
X150300000Y-91790000D01*
X149490000Y-99170000D02*
X149490000Y-98530000D01*
X149490000Y-98530000D02*
X151930000Y-96090000D01*
X151930000Y-96090000D02*
X151930000Y-95400000D01*
X153460000Y-95130000D02*
X152090000Y-95130000D01*
X152090000Y-95130000D02*
X151890000Y-95330000D01*
X153460000Y-93130000D02*
X152290000Y-93130000D01*
X152290000Y-93130000D02*
X151890000Y-93530000D01*
M02*
