G04 #@! TF.FileFunction,Soldermask,Bot*
%FSLAX46Y46*%
G04 Gerber Fmt 4.6, Leading zero omitted, Abs format (unit mm)*
G04 Created by KiCad (PCBNEW 4.0.4-stable) date 01/28/17 22:06:06*
%MOMM*%
%LPD*%
G01*
G04 APERTURE LIST*
%ADD10C,0.100000*%
%ADD11R,1.400000X1.650000*%
%ADD12C,2.305000*%
%ADD13R,1.900000X1.650000*%
%ADD14R,2.900000X2.000000*%
%ADD15R,2.432000X2.432000*%
%ADD16O,2.432000X2.432000*%
%ADD17R,1.100000X1.700000*%
%ADD18R,1.050000X1.460000*%
%ADD19R,1.650000X1.400000*%
%ADD20R,2.432000X2.127200*%
%ADD21O,2.432000X2.127200*%
%ADD22R,1.700000X1.100000*%
%ADD23C,2.150000*%
%ADD24C,3.399740*%
%ADD25R,2.100000X2.100000*%
%ADD26O,2.100000X2.100000*%
G04 APERTURE END LIST*
D10*
D11*
X152000000Y-78190000D03*
X150000000Y-78190000D03*
D12*
X154740000Y-75480000D03*
X154740000Y-78020000D03*
X154740000Y-80560000D03*
X154740000Y-83100000D03*
X147120000Y-83100000D03*
X147120000Y-80560000D03*
X147120000Y-78020000D03*
X147120000Y-75480000D03*
D13*
X148710000Y-85180000D03*
X146210000Y-85180000D03*
D14*
X145580000Y-62720000D03*
X152280000Y-62720000D03*
D15*
X152030000Y-99170000D03*
D16*
X149490000Y-99170000D03*
D17*
X151890000Y-95400000D03*
X149990000Y-95400000D03*
D18*
X149050000Y-89590000D03*
X150000000Y-89590000D03*
X150950000Y-89590000D03*
X150950000Y-91790000D03*
X149050000Y-91790000D03*
D11*
X143510000Y-92870000D03*
X145510000Y-92870000D03*
D19*
X154320000Y-89630000D03*
X154320000Y-91630000D03*
X147900000Y-93460000D03*
X147900000Y-95460000D03*
D11*
X152010000Y-76150000D03*
X150010000Y-76150000D03*
D19*
X153460000Y-95130000D03*
X153460000Y-93130000D03*
D11*
X152100000Y-80080000D03*
X150100000Y-80080000D03*
X148620000Y-87870000D03*
X146620000Y-87870000D03*
D20*
X155570000Y-63570000D03*
D21*
X155570000Y-66110000D03*
X155570000Y-68650000D03*
D17*
X158350000Y-60610000D03*
X156450000Y-60610000D03*
D22*
X152490000Y-89870000D03*
X152490000Y-91770000D03*
X147320000Y-91930000D03*
X147320000Y-90030000D03*
D17*
X149990000Y-93530000D03*
X151890000Y-93530000D03*
D22*
X150850000Y-83910000D03*
X150850000Y-85810000D03*
D17*
X151260000Y-87780000D03*
X153160000Y-87780000D03*
D23*
X148600000Y-57400000D03*
X153000000Y-57400000D03*
D24*
X156800000Y-57400000D03*
X144800000Y-57400000D03*
D25*
X149280000Y-65840000D03*
D26*
X151820000Y-65840000D03*
M02*
