M48
INCH,TZ
T1C0.016
T2C0.030
T3C0.039
T4C0.040
T5C0.059
T6C0.091
%
G90
G05
T1
X57016Y-37134
X57531Y-38098
X57594Y-37583
X57906Y-27055
X58783Y-29382
X59079Y-34594
X59280Y-32169
X60276Y-33764
X60772Y-34815
X61465Y-31197
T2
X57921Y-29717
X57921Y-30717
X57921Y-31717
X57921Y-32717
X60921Y-29717
X60921Y-30717
X60921Y-31717
X60921Y-32717
T3
X58772Y-25921
X59772Y-25921
T4
X58854Y-39043
X59854Y-39043
X61248Y-25028
X61248Y-26028
X61248Y-27028
T5
X58504Y-22598
X60236Y-22598
T6
X57008Y-22598
X61732Y-22598
T0
M30
