G04 #@! TF.FileFunction,Legend,Top*
%FSLAX46Y46*%
G04 Gerber Fmt 4.6, Leading zero omitted, Abs format (unit mm)*
G04 Created by KiCad (PCBNEW 4.0.4-stable) date 01/28/17 22:02:24*
%MOMM*%
%LPD*%
G01*
G04 APERTURE LIST*
%ADD10C,0.100000*%
%ADD11C,0.175000*%
%ADD12C,0.125000*%
%ADD13C,0.127000*%
%ADD14C,0.152400*%
%ADD15C,0.150000*%
%ADD16C,0.120000*%
G04 APERTURE END LIST*
D10*
D11*
X145346667Y-62140000D02*
X145313333Y-62106667D01*
X145213333Y-62073333D01*
X145146667Y-62073333D01*
X145046667Y-62106667D01*
X144980000Y-62173333D01*
X144946667Y-62240000D01*
X144913333Y-62373333D01*
X144913333Y-62473333D01*
X144946667Y-62606667D01*
X144980000Y-62673333D01*
X145046667Y-62740000D01*
X145146667Y-62773333D01*
X145213333Y-62773333D01*
X145313333Y-62740000D01*
X145346667Y-62706667D01*
X142986667Y-58630000D02*
X142953333Y-58596667D01*
X142853333Y-58563333D01*
X142786667Y-58563333D01*
X142686667Y-58596667D01*
X142620000Y-58663333D01*
X142586667Y-58730000D01*
X142553333Y-58863333D01*
X142553333Y-58963333D01*
X142586667Y-59096667D01*
X142620000Y-59163333D01*
X142686667Y-59230000D01*
X142786667Y-59263333D01*
X142853333Y-59263333D01*
X142953333Y-59230000D01*
X142986667Y-59196667D01*
X144823333Y-65386667D02*
X145056667Y-65053333D01*
X145223333Y-65386667D02*
X145223333Y-64686667D01*
X144956667Y-64686667D01*
X144890000Y-64720000D01*
X144856667Y-64753333D01*
X144823333Y-64820000D01*
X144823333Y-64920000D01*
X144856667Y-64986667D01*
X144890000Y-65020000D01*
X144956667Y-65053333D01*
X145223333Y-65053333D01*
D12*
X145117143Y-102555000D02*
X145545714Y-102555000D01*
X145031428Y-102812143D02*
X145331428Y-101912143D01*
X145631428Y-102812143D01*
X146060000Y-102812143D02*
X145974286Y-102769286D01*
X145931429Y-102683571D01*
X145931429Y-101912143D01*
X146531429Y-102812143D02*
X146445715Y-102769286D01*
X146402858Y-102683571D01*
X146402858Y-101912143D01*
X146874287Y-102812143D02*
X146874287Y-101912143D01*
X146874287Y-102340714D02*
X147388572Y-102340714D01*
X147388572Y-102812143D02*
X147388572Y-101912143D01*
X148160001Y-102769286D02*
X148074287Y-102812143D01*
X147902858Y-102812143D01*
X147817144Y-102769286D01*
X147774287Y-102683571D01*
X147774287Y-102340714D01*
X147817144Y-102255000D01*
X147902858Y-102212143D01*
X148074287Y-102212143D01*
X148160001Y-102255000D01*
X148202858Y-102340714D01*
X148202858Y-102426429D01*
X147774287Y-102512143D01*
X148974287Y-102812143D02*
X148974287Y-102340714D01*
X148931430Y-102255000D01*
X148845716Y-102212143D01*
X148674287Y-102212143D01*
X148588573Y-102255000D01*
X148974287Y-102769286D02*
X148888573Y-102812143D01*
X148674287Y-102812143D01*
X148588573Y-102769286D01*
X148545716Y-102683571D01*
X148545716Y-102597857D01*
X148588573Y-102512143D01*
X148674287Y-102469286D01*
X148888573Y-102469286D01*
X148974287Y-102426429D01*
X149402859Y-102812143D02*
X149402859Y-102212143D01*
X149402859Y-102383571D02*
X149445716Y-102297857D01*
X149488573Y-102255000D01*
X149574287Y-102212143D01*
X149660002Y-102212143D01*
X149960002Y-102812143D02*
X149960002Y-102212143D01*
X149960002Y-101912143D02*
X149917145Y-101955000D01*
X149960002Y-101997857D01*
X150002859Y-101955000D01*
X149960002Y-101912143D01*
X149960002Y-101997857D01*
X150388573Y-102212143D02*
X150388573Y-102812143D01*
X150388573Y-102297857D02*
X150431430Y-102255000D01*
X150517144Y-102212143D01*
X150645716Y-102212143D01*
X150731430Y-102255000D01*
X150774287Y-102340714D01*
X150774287Y-102812143D01*
X151588573Y-102212143D02*
X151588573Y-102940714D01*
X151545716Y-103026429D01*
X151502859Y-103069286D01*
X151417144Y-103112143D01*
X151288573Y-103112143D01*
X151202859Y-103069286D01*
X151588573Y-102769286D02*
X151502859Y-102812143D01*
X151331430Y-102812143D01*
X151245716Y-102769286D01*
X151202859Y-102726429D01*
X151160002Y-102640714D01*
X151160002Y-102383571D01*
X151202859Y-102297857D01*
X151245716Y-102255000D01*
X151331430Y-102212143D01*
X151502859Y-102212143D01*
X151588573Y-102255000D01*
X152017145Y-102340714D02*
X152317145Y-102340714D01*
X152445716Y-102812143D02*
X152017145Y-102812143D01*
X152017145Y-101912143D01*
X152445716Y-101912143D01*
X153217145Y-102812143D02*
X153217145Y-102340714D01*
X153174288Y-102255000D01*
X153088574Y-102212143D01*
X152917145Y-102212143D01*
X152831431Y-102255000D01*
X153217145Y-102769286D02*
X153131431Y-102812143D01*
X152917145Y-102812143D01*
X152831431Y-102769286D01*
X152788574Y-102683571D01*
X152788574Y-102597857D01*
X152831431Y-102512143D01*
X152917145Y-102469286D01*
X153131431Y-102469286D01*
X153217145Y-102426429D01*
X153645717Y-102812143D02*
X153645717Y-102212143D01*
X153645717Y-102383571D02*
X153688574Y-102297857D01*
X153731431Y-102255000D01*
X153817145Y-102212143D01*
X153902860Y-102212143D01*
X154802859Y-101912143D02*
X155017145Y-102812143D01*
X155188574Y-102169286D01*
X155360002Y-102812143D01*
X155574288Y-101912143D01*
X155917145Y-102812143D02*
X155917145Y-102212143D01*
X155917145Y-101912143D02*
X155874288Y-101955000D01*
X155917145Y-101997857D01*
X155960002Y-101955000D01*
X155917145Y-101912143D01*
X155917145Y-101997857D01*
X156217144Y-102212143D02*
X156560001Y-102212143D01*
X156345716Y-102812143D02*
X156345716Y-102040714D01*
X156388573Y-101955000D01*
X156474287Y-101912143D01*
X156560001Y-101912143D01*
X156860002Y-102812143D02*
X156860002Y-102212143D01*
X156860002Y-101912143D02*
X156817145Y-101955000D01*
X156860002Y-101997857D01*
X156902859Y-101955000D01*
X156860002Y-101912143D01*
X156860002Y-101997857D01*
X142288570Y-103687143D02*
X142459999Y-104287143D01*
X142631428Y-103858571D01*
X142802856Y-104287143D01*
X142974285Y-103687143D01*
X143231427Y-103687143D02*
X143402856Y-104287143D01*
X143574285Y-103858571D01*
X143745713Y-104287143D01*
X143917142Y-103687143D01*
X144174284Y-103687143D02*
X144345713Y-104287143D01*
X144517142Y-103858571D01*
X144688570Y-104287143D01*
X144859999Y-103687143D01*
X145202856Y-104201429D02*
X145245713Y-104244286D01*
X145202856Y-104287143D01*
X145159999Y-104244286D01*
X145202856Y-104201429D01*
X145202856Y-104287143D01*
X146017141Y-104287143D02*
X146017141Y-103815714D01*
X145974284Y-103730000D01*
X145888570Y-103687143D01*
X145717141Y-103687143D01*
X145631427Y-103730000D01*
X146017141Y-104244286D02*
X145931427Y-104287143D01*
X145717141Y-104287143D01*
X145631427Y-104244286D01*
X145588570Y-104158571D01*
X145588570Y-104072857D01*
X145631427Y-103987143D01*
X145717141Y-103944286D01*
X145931427Y-103944286D01*
X146017141Y-103901429D01*
X146574284Y-104287143D02*
X146488570Y-104244286D01*
X146445713Y-104158571D01*
X146445713Y-103387143D01*
X147045713Y-104287143D02*
X146959999Y-104244286D01*
X146917142Y-104158571D01*
X146917142Y-103387143D01*
X147388571Y-104287143D02*
X147388571Y-103387143D01*
X147774285Y-104287143D02*
X147774285Y-103815714D01*
X147731428Y-103730000D01*
X147645714Y-103687143D01*
X147517142Y-103687143D01*
X147431428Y-103730000D01*
X147388571Y-103772857D01*
X148545714Y-104244286D02*
X148460000Y-104287143D01*
X148288571Y-104287143D01*
X148202857Y-104244286D01*
X148160000Y-104158571D01*
X148160000Y-103815714D01*
X148202857Y-103730000D01*
X148288571Y-103687143D01*
X148460000Y-103687143D01*
X148545714Y-103730000D01*
X148588571Y-103815714D01*
X148588571Y-103901429D01*
X148160000Y-103987143D01*
X149360000Y-104287143D02*
X149360000Y-103815714D01*
X149317143Y-103730000D01*
X149231429Y-103687143D01*
X149060000Y-103687143D01*
X148974286Y-103730000D01*
X149360000Y-104244286D02*
X149274286Y-104287143D01*
X149060000Y-104287143D01*
X148974286Y-104244286D01*
X148931429Y-104158571D01*
X148931429Y-104072857D01*
X148974286Y-103987143D01*
X149060000Y-103944286D01*
X149274286Y-103944286D01*
X149360000Y-103901429D01*
X149788572Y-104287143D02*
X149788572Y-103687143D01*
X149788572Y-103858571D02*
X149831429Y-103772857D01*
X149874286Y-103730000D01*
X149960000Y-103687143D01*
X150045715Y-103687143D01*
X150345715Y-104287143D02*
X150345715Y-103687143D01*
X150345715Y-103387143D02*
X150302858Y-103430000D01*
X150345715Y-103472857D01*
X150388572Y-103430000D01*
X150345715Y-103387143D01*
X150345715Y-103472857D01*
X150774286Y-103687143D02*
X150774286Y-104287143D01*
X150774286Y-103772857D02*
X150817143Y-103730000D01*
X150902857Y-103687143D01*
X151031429Y-103687143D01*
X151117143Y-103730000D01*
X151160000Y-103815714D01*
X151160000Y-104287143D01*
X151974286Y-103687143D02*
X151974286Y-104415714D01*
X151931429Y-104501429D01*
X151888572Y-104544286D01*
X151802857Y-104587143D01*
X151674286Y-104587143D01*
X151588572Y-104544286D01*
X151974286Y-104244286D02*
X151888572Y-104287143D01*
X151717143Y-104287143D01*
X151631429Y-104244286D01*
X151588572Y-104201429D01*
X151545715Y-104115714D01*
X151545715Y-103858571D01*
X151588572Y-103772857D01*
X151631429Y-103730000D01*
X151717143Y-103687143D01*
X151888572Y-103687143D01*
X151974286Y-103730000D01*
X152745715Y-104244286D02*
X152660001Y-104287143D01*
X152488572Y-104287143D01*
X152402858Y-104244286D01*
X152360001Y-104158571D01*
X152360001Y-103815714D01*
X152402858Y-103730000D01*
X152488572Y-103687143D01*
X152660001Y-103687143D01*
X152745715Y-103730000D01*
X152788572Y-103815714D01*
X152788572Y-103901429D01*
X152360001Y-103987143D01*
X153560001Y-104287143D02*
X153560001Y-103815714D01*
X153517144Y-103730000D01*
X153431430Y-103687143D01*
X153260001Y-103687143D01*
X153174287Y-103730000D01*
X153560001Y-104244286D02*
X153474287Y-104287143D01*
X153260001Y-104287143D01*
X153174287Y-104244286D01*
X153131430Y-104158571D01*
X153131430Y-104072857D01*
X153174287Y-103987143D01*
X153260001Y-103944286D01*
X153474287Y-103944286D01*
X153560001Y-103901429D01*
X153988573Y-104287143D02*
X153988573Y-103687143D01*
X153988573Y-103858571D02*
X154031430Y-103772857D01*
X154074287Y-103730000D01*
X154160001Y-103687143D01*
X154245716Y-103687143D01*
X154460001Y-103687143D02*
X154631430Y-104287143D01*
X154802859Y-103858571D01*
X154974287Y-104287143D01*
X155145716Y-103687143D01*
X155488573Y-104287143D02*
X155488573Y-103687143D01*
X155488573Y-103387143D02*
X155445716Y-103430000D01*
X155488573Y-103472857D01*
X155531430Y-103430000D01*
X155488573Y-103387143D01*
X155488573Y-103472857D01*
X155788572Y-103687143D02*
X156131429Y-103687143D01*
X155917144Y-104287143D02*
X155917144Y-103515714D01*
X155960001Y-103430000D01*
X156045715Y-103387143D01*
X156131429Y-103387143D01*
X156431430Y-104287143D02*
X156431430Y-103687143D01*
X156431430Y-103387143D02*
X156388573Y-103430000D01*
X156431430Y-103472857D01*
X156474287Y-103430000D01*
X156431430Y-103387143D01*
X156431430Y-103472857D01*
X156860001Y-104201429D02*
X156902858Y-104244286D01*
X156860001Y-104287143D01*
X156817144Y-104244286D01*
X156860001Y-104201429D01*
X156860001Y-104287143D01*
X157674286Y-104244286D02*
X157588572Y-104287143D01*
X157417143Y-104287143D01*
X157331429Y-104244286D01*
X157288572Y-104201429D01*
X157245715Y-104115714D01*
X157245715Y-103858571D01*
X157288572Y-103772857D01*
X157331429Y-103730000D01*
X157417143Y-103687143D01*
X157588572Y-103687143D01*
X157674286Y-103730000D01*
X158188572Y-104287143D02*
X158102858Y-104244286D01*
X158060001Y-104201429D01*
X158017144Y-104115714D01*
X158017144Y-103858571D01*
X158060001Y-103772857D01*
X158102858Y-103730000D01*
X158188572Y-103687143D01*
X158317144Y-103687143D01*
X158402858Y-103730000D01*
X158445715Y-103772857D01*
X158488572Y-103858571D01*
X158488572Y-104115714D01*
X158445715Y-104201429D01*
X158402858Y-104244286D01*
X158317144Y-104287143D01*
X158188572Y-104287143D01*
X158874287Y-104287143D02*
X158874287Y-103687143D01*
X158874287Y-103772857D02*
X158917144Y-103730000D01*
X159002858Y-103687143D01*
X159131430Y-103687143D01*
X159217144Y-103730000D01*
X159260001Y-103815714D01*
X159260001Y-104287143D01*
X159260001Y-103815714D02*
X159302858Y-103730000D01*
X159388572Y-103687143D01*
X159517144Y-103687143D01*
X159602858Y-103730000D01*
X159645715Y-103815714D01*
X159645715Y-104287143D01*
X145202857Y-105762143D02*
X145202857Y-104862143D01*
X145202857Y-105205000D02*
X145288571Y-105162143D01*
X145460000Y-105162143D01*
X145545714Y-105205000D01*
X145588571Y-105247857D01*
X145631428Y-105333571D01*
X145631428Y-105590714D01*
X145588571Y-105676429D01*
X145545714Y-105719286D01*
X145460000Y-105762143D01*
X145288571Y-105762143D01*
X145202857Y-105719286D01*
X145931428Y-105162143D02*
X146145714Y-105762143D01*
X146360000Y-105162143D02*
X146145714Y-105762143D01*
X146060000Y-105976429D01*
X146017143Y-106019286D01*
X145931428Y-106062143D01*
X147345714Y-105505000D02*
X147774285Y-105505000D01*
X147259999Y-105762143D02*
X147559999Y-104862143D01*
X147859999Y-105762143D01*
X148160000Y-105419286D02*
X148845714Y-105419286D01*
X148502857Y-105762143D02*
X148502857Y-105076429D01*
X149274286Y-105762143D02*
X149274286Y-104862143D01*
X149574286Y-105505000D01*
X149874286Y-104862143D01*
X149874286Y-105762143D01*
X150945714Y-105719286D02*
X151074285Y-105762143D01*
X151288571Y-105762143D01*
X151374285Y-105719286D01*
X151417142Y-105676429D01*
X151459999Y-105590714D01*
X151459999Y-105505000D01*
X151417142Y-105419286D01*
X151374285Y-105376429D01*
X151288571Y-105333571D01*
X151117142Y-105290714D01*
X151031428Y-105247857D01*
X150988571Y-105205000D01*
X150945714Y-105119286D01*
X150945714Y-105033571D01*
X150988571Y-104947857D01*
X151031428Y-104905000D01*
X151117142Y-104862143D01*
X151331428Y-104862143D01*
X151459999Y-104905000D01*
X152231428Y-105162143D02*
X152231428Y-105762143D01*
X151845714Y-105162143D02*
X151845714Y-105633571D01*
X151888571Y-105719286D01*
X151974285Y-105762143D01*
X152102857Y-105762143D01*
X152188571Y-105719286D01*
X152231428Y-105676429D01*
X152660000Y-105162143D02*
X152660000Y-105762143D01*
X152660000Y-105247857D02*
X152702857Y-105205000D01*
X152788571Y-105162143D01*
X152917143Y-105162143D01*
X153002857Y-105205000D01*
X153045714Y-105290714D01*
X153045714Y-105762143D01*
X153860000Y-105762143D02*
X153860000Y-104862143D01*
X153860000Y-105719286D02*
X153774286Y-105762143D01*
X153602857Y-105762143D01*
X153517143Y-105719286D01*
X153474286Y-105676429D01*
X153431429Y-105590714D01*
X153431429Y-105333571D01*
X153474286Y-105247857D01*
X153517143Y-105205000D01*
X153602857Y-105162143D01*
X153774286Y-105162143D01*
X153860000Y-105205000D01*
X154288572Y-105762143D02*
X154288572Y-104862143D01*
X154288572Y-105205000D02*
X154374286Y-105162143D01*
X154545715Y-105162143D01*
X154631429Y-105205000D01*
X154674286Y-105247857D01*
X154717143Y-105333571D01*
X154717143Y-105590714D01*
X154674286Y-105676429D01*
X154631429Y-105719286D01*
X154545715Y-105762143D01*
X154374286Y-105762143D01*
X154288572Y-105719286D01*
X155445715Y-105719286D02*
X155360001Y-105762143D01*
X155188572Y-105762143D01*
X155102858Y-105719286D01*
X155060001Y-105633571D01*
X155060001Y-105290714D01*
X155102858Y-105205000D01*
X155188572Y-105162143D01*
X155360001Y-105162143D01*
X155445715Y-105205000D01*
X155488572Y-105290714D01*
X155488572Y-105376429D01*
X155060001Y-105462143D01*
X155874287Y-105762143D02*
X155874287Y-105162143D01*
X155874287Y-105333571D02*
X155917144Y-105247857D01*
X155960001Y-105205000D01*
X156045715Y-105162143D01*
X156131430Y-105162143D01*
X156817144Y-105162143D02*
X156817144Y-105890714D01*
X156774287Y-105976429D01*
X156731430Y-106019286D01*
X156645715Y-106062143D01*
X156517144Y-106062143D01*
X156431430Y-106019286D01*
X156817144Y-105719286D02*
X156731430Y-105762143D01*
X156560001Y-105762143D01*
X156474287Y-105719286D01*
X156431430Y-105676429D01*
X156388573Y-105590714D01*
X156388573Y-105333571D01*
X156431430Y-105247857D01*
X156474287Y-105205000D01*
X156560001Y-105162143D01*
X156731430Y-105162143D01*
X156817144Y-105205000D01*
D13*
X158910000Y-100660000D02*
X159785000Y-100660000D01*
X159760000Y-99810000D02*
X158910000Y-100660000D01*
D11*
X145710000Y-73126667D02*
X145476666Y-72793333D01*
X145310000Y-73126667D02*
X145310000Y-72426667D01*
X145576666Y-72426667D01*
X145643333Y-72460000D01*
X145676666Y-72493333D01*
X145710000Y-72560000D01*
X145710000Y-72660000D01*
X145676666Y-72726667D01*
X145643333Y-72760000D01*
X145576666Y-72793333D01*
X145310000Y-72793333D01*
X146276666Y-73093333D02*
X146210000Y-73126667D01*
X146076666Y-73126667D01*
X146010000Y-73093333D01*
X145976666Y-73026667D01*
X145976666Y-72760000D01*
X146010000Y-72693333D01*
X146076666Y-72660000D01*
X146210000Y-72660000D01*
X146276666Y-72693333D01*
X146310000Y-72760000D01*
X146310000Y-72826667D01*
X145976666Y-72893333D01*
X146543333Y-72660000D02*
X146710000Y-73126667D01*
X146876666Y-72660000D01*
X147643332Y-72493333D02*
X147676666Y-72460000D01*
X147743332Y-72426667D01*
X147909999Y-72426667D01*
X147976666Y-72460000D01*
X148009999Y-72493333D01*
X148043332Y-72560000D01*
X148043332Y-72626667D01*
X148009999Y-72726667D01*
X147609999Y-73126667D01*
X148043332Y-73126667D01*
X148543333Y-73393333D02*
X148509999Y-73360000D01*
X148443333Y-73260000D01*
X148409999Y-73193333D01*
X148376666Y-73093333D01*
X148343333Y-72926667D01*
X148343333Y-72793333D01*
X148376666Y-72626667D01*
X148409999Y-72526667D01*
X148443333Y-72460000D01*
X148509999Y-72360000D01*
X148543333Y-72326667D01*
X149110000Y-73126667D02*
X149110000Y-72426667D01*
X149110000Y-73093333D02*
X149043333Y-73126667D01*
X148910000Y-73126667D01*
X148843333Y-73093333D01*
X148810000Y-73060000D01*
X148776666Y-72993333D01*
X148776666Y-72793333D01*
X148810000Y-72726667D01*
X148843333Y-72693333D01*
X148910000Y-72660000D01*
X149043333Y-72660000D01*
X149110000Y-72693333D01*
X149743333Y-72660000D02*
X149743333Y-73126667D01*
X149443333Y-72660000D02*
X149443333Y-73026667D01*
X149476666Y-73093333D01*
X149543333Y-73126667D01*
X149643333Y-73126667D01*
X149709999Y-73093333D01*
X149743333Y-73060000D01*
X150376666Y-73126667D02*
X150376666Y-72760000D01*
X150343332Y-72693333D01*
X150276666Y-72660000D01*
X150143332Y-72660000D01*
X150076666Y-72693333D01*
X150376666Y-73093333D02*
X150309999Y-73126667D01*
X150143332Y-73126667D01*
X150076666Y-73093333D01*
X150043332Y-73026667D01*
X150043332Y-72960000D01*
X150076666Y-72893333D01*
X150143332Y-72860000D01*
X150309999Y-72860000D01*
X150376666Y-72826667D01*
X150809999Y-73126667D02*
X150743332Y-73093333D01*
X150709999Y-73026667D01*
X150709999Y-72426667D01*
X151009999Y-73393333D02*
X151043332Y-73360000D01*
X151109999Y-73260000D01*
X151143332Y-73193333D01*
X151176666Y-73093333D01*
X151209999Y-72926667D01*
X151209999Y-72793333D01*
X151176666Y-72626667D01*
X151143332Y-72526667D01*
X151109999Y-72460000D01*
X151043332Y-72360000D01*
X151009999Y-72326667D01*
X152043332Y-72493333D02*
X152076666Y-72460000D01*
X152143332Y-72426667D01*
X152309999Y-72426667D01*
X152376666Y-72460000D01*
X152409999Y-72493333D01*
X152443332Y-72560000D01*
X152443332Y-72626667D01*
X152409999Y-72726667D01*
X152009999Y-73126667D01*
X152443332Y-73126667D01*
X152843333Y-72726667D02*
X152776666Y-72693333D01*
X152743333Y-72660000D01*
X152709999Y-72593333D01*
X152709999Y-72560000D01*
X152743333Y-72493333D01*
X152776666Y-72460000D01*
X152843333Y-72426667D01*
X152976666Y-72426667D01*
X153043333Y-72460000D01*
X153076666Y-72493333D01*
X153109999Y-72560000D01*
X153109999Y-72593333D01*
X153076666Y-72660000D01*
X153043333Y-72693333D01*
X152976666Y-72726667D01*
X152843333Y-72726667D01*
X152776666Y-72760000D01*
X152743333Y-72793333D01*
X152709999Y-72860000D01*
X152709999Y-72993333D01*
X152743333Y-73060000D01*
X152776666Y-73093333D01*
X152843333Y-73126667D01*
X152976666Y-73126667D01*
X153043333Y-73093333D01*
X153076666Y-73060000D01*
X153109999Y-72993333D01*
X153109999Y-72860000D01*
X153076666Y-72793333D01*
X153043333Y-72760000D01*
X152976666Y-72726667D01*
X153410000Y-73060000D02*
X153443333Y-73093333D01*
X153410000Y-73126667D01*
X153376666Y-73093333D01*
X153410000Y-73060000D01*
X153410000Y-73126667D01*
X153876666Y-72426667D02*
X153943333Y-72426667D01*
X154009999Y-72460000D01*
X154043333Y-72493333D01*
X154076666Y-72560000D01*
X154109999Y-72693333D01*
X154109999Y-72860000D01*
X154076666Y-72993333D01*
X154043333Y-73060000D01*
X154009999Y-73093333D01*
X153943333Y-73126667D01*
X153876666Y-73126667D01*
X153809999Y-73093333D01*
X153776666Y-73060000D01*
X153743333Y-72993333D01*
X153709999Y-72860000D01*
X153709999Y-72693333D01*
X153743333Y-72560000D01*
X153776666Y-72493333D01*
X153809999Y-72460000D01*
X153876666Y-72426667D01*
X154776666Y-73126667D02*
X154376666Y-73126667D01*
X154576666Y-73126667D02*
X154576666Y-72426667D01*
X154510000Y-72526667D01*
X154443333Y-72593333D01*
X154376666Y-72626667D01*
X155076667Y-73060000D02*
X155110000Y-73093333D01*
X155076667Y-73126667D01*
X155043333Y-73093333D01*
X155076667Y-73060000D01*
X155076667Y-73126667D01*
X155776666Y-73126667D02*
X155376666Y-73126667D01*
X155576666Y-73126667D02*
X155576666Y-72426667D01*
X155510000Y-72526667D01*
X155443333Y-72593333D01*
X155376666Y-72626667D01*
X156010000Y-72426667D02*
X156476667Y-72426667D01*
X156176667Y-73126667D01*
D13*
X159785000Y-100660000D02*
X158910000Y-99785000D01*
X159785000Y-99785000D02*
X158910000Y-99785000D01*
X158910000Y-100660000D02*
X158910000Y-99785000D01*
X159785000Y-100660000D02*
X159785000Y-99785000D01*
X143105000Y-100640000D02*
X143105000Y-99765000D01*
X142230000Y-100640000D02*
X143105000Y-100640000D01*
X142230000Y-100640000D02*
X142230000Y-99765000D01*
X143080000Y-99790000D02*
X142230000Y-100640000D01*
X143105000Y-99765000D02*
X142230000Y-99765000D01*
X143105000Y-100640000D02*
X142230000Y-99765000D01*
X143115000Y-62480000D02*
X142240000Y-61605000D01*
X143115000Y-61605000D02*
X142240000Y-61605000D01*
X143090000Y-61630000D02*
X142240000Y-62480000D01*
X142240000Y-62480000D02*
X142240000Y-61605000D01*
X142240000Y-62480000D02*
X143115000Y-62480000D01*
X143115000Y-62480000D02*
X143115000Y-61605000D01*
X159750000Y-62500000D02*
X159750000Y-61625000D01*
X158875000Y-62500000D02*
X159750000Y-62500000D01*
X158875000Y-62500000D02*
X158875000Y-61625000D01*
X159725000Y-61650000D02*
X158875000Y-62500000D01*
X159750000Y-61625000D02*
X158875000Y-61625000D01*
X159750000Y-62500000D02*
X158875000Y-61625000D01*
D14*
X142790000Y-70180000D02*
X158790000Y-70180000D01*
X158790000Y-70180000D02*
X158790000Y-75580000D01*
X142790000Y-70180000D02*
X142790000Y-75580000D01*
X142790000Y-91380000D02*
X142790000Y-92180000D01*
X142790000Y-92180000D02*
X158790000Y-92180000D01*
X158790000Y-92180000D02*
X158790000Y-91380000D01*
X142782000Y-73980000D02*
X158782000Y-73980000D01*
D15*
X157070000Y-94405000D02*
X155870000Y-94405000D01*
X155870000Y-92655000D02*
X157070000Y-92655000D01*
D16*
X147200000Y-67480000D02*
X148460000Y-67480000D01*
X154020000Y-67480000D02*
X152760000Y-67480000D01*
X147200000Y-63720000D02*
X147200000Y-67480000D01*
X154020000Y-61470000D02*
X154020000Y-67480000D01*
X144530000Y-67780000D02*
X144530000Y-68780000D01*
X146230000Y-68780000D02*
X146230000Y-67780000D01*
X143730000Y-61190000D02*
X144730000Y-61190000D01*
X144730000Y-59490000D02*
X143730000Y-59490000D01*
X144600000Y-63230000D02*
X145600000Y-63230000D01*
X145600000Y-61530000D02*
X144600000Y-61530000D01*
D15*
X157120000Y-63570000D02*
X157120000Y-62020000D01*
X157120000Y-62020000D02*
X154020000Y-62020000D01*
X154020000Y-62020000D02*
X154020000Y-63570000D01*
X156840000Y-64840000D02*
X156840000Y-69920000D01*
X156840000Y-69920000D02*
X154300000Y-69920000D01*
X154300000Y-69920000D02*
X154300000Y-64840000D01*
X154300000Y-64840000D02*
X156840000Y-64840000D01*
X153580000Y-98360000D02*
X152030000Y-98360000D01*
X148220000Y-98640000D02*
X150760000Y-98640000D01*
X150760000Y-98640000D02*
X150760000Y-101180000D01*
X152030000Y-101460000D02*
X153580000Y-101460000D01*
X153580000Y-101460000D02*
X153580000Y-98360000D01*
X150760000Y-101180000D02*
X148220000Y-101180000D01*
X148220000Y-101180000D02*
X148220000Y-98640000D01*
X147195000Y-64410000D02*
X147195000Y-65610000D01*
X145445000Y-65610000D02*
X145445000Y-64410000D01*
X143053095Y-74332381D02*
X143053095Y-75141905D01*
X143100714Y-75237143D01*
X143148333Y-75284762D01*
X143243571Y-75332381D01*
X143434048Y-75332381D01*
X143529286Y-75284762D01*
X143576905Y-75237143D01*
X143624524Y-75141905D01*
X143624524Y-74332381D01*
X144053095Y-74427619D02*
X144100714Y-74380000D01*
X144195952Y-74332381D01*
X144434048Y-74332381D01*
X144529286Y-74380000D01*
X144576905Y-74427619D01*
X144624524Y-74522857D01*
X144624524Y-74618095D01*
X144576905Y-74760952D01*
X144005476Y-75332381D01*
X144624524Y-75332381D01*
X145816666Y-71636667D02*
X146292857Y-71636667D01*
X145721428Y-71922381D02*
X146054761Y-70922381D01*
X146388095Y-71922381D01*
X146864285Y-71922381D02*
X146769047Y-71874762D01*
X146721428Y-71779524D01*
X146721428Y-70922381D01*
X147388095Y-71922381D02*
X147292857Y-71874762D01*
X147245238Y-71779524D01*
X147245238Y-70922381D01*
X147769048Y-71922381D02*
X147769048Y-70922381D01*
X147769048Y-71398571D02*
X148340477Y-71398571D01*
X148340477Y-71922381D02*
X148340477Y-70922381D01*
X149197620Y-71874762D02*
X149102382Y-71922381D01*
X148911905Y-71922381D01*
X148816667Y-71874762D01*
X148769048Y-71779524D01*
X148769048Y-71398571D01*
X148816667Y-71303333D01*
X148911905Y-71255714D01*
X149102382Y-71255714D01*
X149197620Y-71303333D01*
X149245239Y-71398571D01*
X149245239Y-71493810D01*
X148769048Y-71589048D01*
X150102382Y-71922381D02*
X150102382Y-71398571D01*
X150054763Y-71303333D01*
X149959525Y-71255714D01*
X149769048Y-71255714D01*
X149673810Y-71303333D01*
X150102382Y-71874762D02*
X150007144Y-71922381D01*
X149769048Y-71922381D01*
X149673810Y-71874762D01*
X149626191Y-71779524D01*
X149626191Y-71684286D01*
X149673810Y-71589048D01*
X149769048Y-71541429D01*
X150007144Y-71541429D01*
X150102382Y-71493810D01*
X150578572Y-71922381D02*
X150578572Y-71255714D01*
X150578572Y-71446190D02*
X150626191Y-71350952D01*
X150673810Y-71303333D01*
X150769048Y-71255714D01*
X150864287Y-71255714D01*
X151626192Y-71255714D02*
X151626192Y-72065238D01*
X151578573Y-72160476D01*
X151530954Y-72208095D01*
X151435715Y-72255714D01*
X151292858Y-72255714D01*
X151197620Y-72208095D01*
X151626192Y-71874762D02*
X151530954Y-71922381D01*
X151340477Y-71922381D01*
X151245239Y-71874762D01*
X151197620Y-71827143D01*
X151150001Y-71731905D01*
X151150001Y-71446190D01*
X151197620Y-71350952D01*
X151245239Y-71303333D01*
X151340477Y-71255714D01*
X151530954Y-71255714D01*
X151626192Y-71303333D01*
X152102382Y-71922381D02*
X152102382Y-71255714D01*
X152102382Y-70922381D02*
X152054763Y-70970000D01*
X152102382Y-71017619D01*
X152150001Y-70970000D01*
X152102382Y-70922381D01*
X152102382Y-71017619D01*
X152578572Y-71255714D02*
X152578572Y-71922381D01*
X152578572Y-71350952D02*
X152626191Y-71303333D01*
X152721429Y-71255714D01*
X152864287Y-71255714D01*
X152959525Y-71303333D01*
X153007144Y-71398571D01*
X153007144Y-71922381D01*
X153483334Y-71398571D02*
X153816668Y-71398571D01*
X153959525Y-71922381D02*
X153483334Y-71922381D01*
X153483334Y-70922381D01*
X153959525Y-70922381D01*
X154816668Y-71922381D02*
X154816668Y-71398571D01*
X154769049Y-71303333D01*
X154673811Y-71255714D01*
X154483334Y-71255714D01*
X154388096Y-71303333D01*
X154816668Y-71874762D02*
X154721430Y-71922381D01*
X154483334Y-71922381D01*
X154388096Y-71874762D01*
X154340477Y-71779524D01*
X154340477Y-71684286D01*
X154388096Y-71589048D01*
X154483334Y-71541429D01*
X154721430Y-71541429D01*
X154816668Y-71493810D01*
X155292858Y-71922381D02*
X155292858Y-71255714D01*
X155292858Y-71446190D02*
X155340477Y-71350952D01*
X155388096Y-71303333D01*
X155483334Y-71255714D01*
X155578573Y-71255714D01*
X156316667Y-95381905D02*
X156050000Y-95000952D01*
X155859524Y-95381905D02*
X155859524Y-94581905D01*
X156164286Y-94581905D01*
X156240477Y-94620000D01*
X156278572Y-94658095D01*
X156316667Y-94734286D01*
X156316667Y-94848571D01*
X156278572Y-94924762D01*
X156240477Y-94962857D01*
X156164286Y-95000952D01*
X155859524Y-95000952D01*
X156583334Y-94581905D02*
X157078572Y-94581905D01*
X156811905Y-94886667D01*
X156926191Y-94886667D01*
X157002381Y-94924762D01*
X157040477Y-94962857D01*
X157078572Y-95039048D01*
X157078572Y-95229524D01*
X157040477Y-95305714D01*
X157002381Y-95343810D01*
X156926191Y-95381905D01*
X156697619Y-95381905D01*
X156621429Y-95343810D01*
X156583334Y-95305714D01*
X146798095Y-69052381D02*
X146798095Y-69861905D01*
X146845714Y-69957143D01*
X146893333Y-70004762D01*
X146988571Y-70052381D01*
X147179048Y-70052381D01*
X147274286Y-70004762D01*
X147321905Y-69957143D01*
X147369524Y-69861905D01*
X147369524Y-69052381D01*
X148369524Y-70052381D02*
X147798095Y-70052381D01*
X148083809Y-70052381D02*
X148083809Y-69052381D01*
X147988571Y-69195238D01*
X147893333Y-69290476D01*
X147798095Y-69338095D01*
X144265714Y-69443333D02*
X144303810Y-69481428D01*
X144341905Y-69595714D01*
X144341905Y-69671904D01*
X144303810Y-69786190D01*
X144227619Y-69862381D01*
X144151429Y-69900476D01*
X143999048Y-69938571D01*
X143884762Y-69938571D01*
X143732381Y-69900476D01*
X143656190Y-69862381D01*
X143580000Y-69786190D01*
X143541905Y-69671904D01*
X143541905Y-69595714D01*
X143580000Y-69481428D01*
X143618095Y-69443333D01*
X143541905Y-68757619D02*
X143541905Y-68910000D01*
X143580000Y-68986190D01*
X143618095Y-69024285D01*
X143732381Y-69100476D01*
X143884762Y-69138571D01*
X144189524Y-69138571D01*
X144265714Y-69100476D01*
X144303810Y-69062381D01*
X144341905Y-68986190D01*
X144341905Y-68833809D01*
X144303810Y-68757619D01*
X144265714Y-68719523D01*
X144189524Y-68681428D01*
X143999048Y-68681428D01*
X143922857Y-68719523D01*
X143884762Y-68757619D01*
X143846667Y-68833809D01*
X143846667Y-68986190D01*
X143884762Y-69062381D01*
X143922857Y-69100476D01*
X143999048Y-69138571D01*
X144000000Y-60053333D02*
X144033334Y-60020000D01*
X144100000Y-59986667D01*
X144266667Y-59986667D01*
X144333334Y-60020000D01*
X144366667Y-60053333D01*
X144400000Y-60120000D01*
X144400000Y-60186667D01*
X144366667Y-60286667D01*
X143966667Y-60686667D01*
X144400000Y-60686667D01*
X144686666Y-64026667D02*
X144286666Y-64026667D01*
X144486666Y-64026667D02*
X144486666Y-63326667D01*
X144420000Y-63426667D01*
X144353333Y-63493333D01*
X144286666Y-63526667D01*
X145353333Y-64026667D02*
X144953333Y-64026667D01*
X145153333Y-64026667D02*
X145153333Y-63326667D01*
X145086667Y-63426667D01*
X145020000Y-63493333D01*
X144953333Y-63526667D01*
X158122381Y-69918095D02*
X157122381Y-69918095D01*
X157122381Y-69537142D01*
X157170000Y-69441904D01*
X157217619Y-69394285D01*
X157312857Y-69346666D01*
X157455714Y-69346666D01*
X157550952Y-69394285D01*
X157598571Y-69441904D01*
X157646190Y-69537142D01*
X157646190Y-69918095D01*
X157217619Y-68965714D02*
X157170000Y-68918095D01*
X157122381Y-68822857D01*
X157122381Y-68584761D01*
X157170000Y-68489523D01*
X157217619Y-68441904D01*
X157312857Y-68394285D01*
X157408095Y-68394285D01*
X157550952Y-68441904D01*
X158122381Y-69013333D01*
X158122381Y-68394285D01*
X145748095Y-65268571D02*
X145710000Y-65230476D01*
X145671905Y-65154285D01*
X145671905Y-64963809D01*
X145710000Y-64887619D01*
X145748095Y-64849523D01*
X145824286Y-64811428D01*
X145900476Y-64811428D01*
X146014762Y-64849523D01*
X146471905Y-65306666D01*
X146471905Y-64811428D01*
M02*
