G04 #@! TF.FileFunction,Legend,Bot*
%FSLAX46Y46*%
G04 Gerber Fmt 4.6, Leading zero omitted, Abs format (unit mm)*
G04 Created by KiCad (PCBNEW 4.0.4-stable) date 01/28/17 22:06:06*
%MOMM*%
%LPD*%
G01*
G04 APERTURE LIST*
%ADD10C,0.100000*%
%ADD11C,0.200000*%
%ADD12C,0.127000*%
%ADD13C,0.120000*%
%ADD14C,0.150000*%
G04 APERTURE END LIST*
D10*
D11*
X152872857Y-67862857D02*
X153139524Y-67862857D01*
X153139524Y-68281905D02*
X153139524Y-67481905D01*
X152758571Y-67481905D01*
X152339524Y-68281905D02*
X152415715Y-68243810D01*
X152453810Y-68167619D01*
X152453810Y-67481905D01*
X151691905Y-68281905D02*
X151691905Y-67862857D01*
X151730000Y-67786667D01*
X151806190Y-67748571D01*
X151958571Y-67748571D01*
X152034762Y-67786667D01*
X151691905Y-68243810D02*
X151768095Y-68281905D01*
X151958571Y-68281905D01*
X152034762Y-68243810D01*
X152072857Y-68167619D01*
X152072857Y-68091429D01*
X152034762Y-68015238D01*
X151958571Y-67977143D01*
X151768095Y-67977143D01*
X151691905Y-67939048D01*
X151349047Y-68243810D02*
X151272857Y-68281905D01*
X151120476Y-68281905D01*
X151044285Y-68243810D01*
X151006190Y-68167619D01*
X151006190Y-68129524D01*
X151044285Y-68053333D01*
X151120476Y-68015238D01*
X151234761Y-68015238D01*
X151310952Y-67977143D01*
X151349047Y-67900952D01*
X151349047Y-67862857D01*
X151310952Y-67786667D01*
X151234761Y-67748571D01*
X151120476Y-67748571D01*
X151044285Y-67786667D01*
X150663333Y-68281905D02*
X150663333Y-67481905D01*
X150320476Y-68281905D02*
X150320476Y-67862857D01*
X150358571Y-67786667D01*
X150434761Y-67748571D01*
X150549047Y-67748571D01*
X150625238Y-67786667D01*
X150663333Y-67824762D01*
D12*
X154450000Y-94140000D02*
X156030000Y-94140000D01*
X152460000Y-90820000D02*
X152690000Y-91050000D01*
X152680000Y-90600000D02*
X152460000Y-90820000D01*
X153340000Y-90630000D02*
X156640000Y-90630000D01*
X153150000Y-90820000D02*
X153340000Y-90630000D01*
X152490000Y-90820000D02*
X153150000Y-90820000D01*
X152430000Y-94140000D02*
X152610000Y-94320000D01*
X152440000Y-94110000D02*
X152600000Y-93950000D01*
X152440000Y-94140000D02*
X152440000Y-94110000D01*
X154440000Y-94140000D02*
X152440000Y-94140000D01*
D11*
X150218571Y-90621905D02*
X150218571Y-91269524D01*
X150180476Y-91345714D01*
X150142380Y-91383810D01*
X150066190Y-91421905D01*
X149913809Y-91421905D01*
X149837618Y-91383810D01*
X149799523Y-91345714D01*
X149761428Y-91269524D01*
X149761428Y-90621905D01*
D12*
X155626905Y-101295000D02*
G75*
G03X155626905Y-101295000I-4666905J0D01*
G01*
D13*
X150500000Y-77340000D02*
X151500000Y-77340000D01*
X151500000Y-79040000D02*
X150500000Y-79040000D01*
D14*
X151819000Y-74210000D02*
X154232000Y-74210000D01*
X150041000Y-74210000D02*
X147628000Y-74210000D01*
X151819000Y-74210000D02*
G75*
G02X150930000Y-75099000I-889000J0D01*
G01*
X150930000Y-75099000D02*
G75*
G02X150041000Y-74210000I0J889000D01*
G01*
X153343000Y-75099000D02*
G75*
G03X153343000Y-75099000I-254000J0D01*
G01*
X154232000Y-84370000D02*
X154232000Y-84243000D01*
X154232000Y-81703000D02*
X154232000Y-81957000D01*
X154232000Y-79163000D02*
X154232000Y-79417000D01*
X154232000Y-76623000D02*
X154232000Y-76877000D01*
X154232000Y-74210000D02*
X154232000Y-74337000D01*
X147628000Y-74210000D02*
X147628000Y-74337000D01*
X147628000Y-84370000D02*
X147628000Y-84243000D01*
X147628000Y-81703000D02*
X147628000Y-81957000D01*
X147628000Y-79163000D02*
X147628000Y-79417000D01*
X147628000Y-76623000D02*
X147628000Y-76877000D01*
X154232000Y-84370000D02*
X147628000Y-84370000D01*
D13*
X146960000Y-84330000D02*
X147960000Y-84330000D01*
X147960000Y-86030000D02*
X146960000Y-86030000D01*
D14*
X150280000Y-62020000D02*
X147480000Y-62020000D01*
X147480000Y-62020000D02*
X147480000Y-63420000D01*
X147480000Y-63420000D02*
X150280000Y-63420000D01*
X150280000Y-63420000D02*
X150280000Y-62020000D01*
X145880000Y-60970000D02*
X145880000Y-61620000D01*
X145880000Y-64470000D02*
X145880000Y-63820000D01*
X151880000Y-63820000D02*
X151880000Y-64470000D01*
X151880000Y-60970000D02*
X151880000Y-61620000D01*
X145880000Y-60970000D02*
X151880000Y-60970000D01*
X151880000Y-64470000D02*
X145880000Y-64470000D01*
X150340000Y-96275000D02*
X151540000Y-96275000D01*
X151540000Y-94525000D02*
X150340000Y-94525000D01*
D13*
X151610000Y-89790000D02*
X151610000Y-91590000D01*
X148390000Y-91590000D02*
X148390000Y-89140000D01*
X145010000Y-93720000D02*
X144010000Y-93720000D01*
X144010000Y-92020000D02*
X145010000Y-92020000D01*
X153470000Y-91130000D02*
X153470000Y-90130000D01*
X155170000Y-90130000D02*
X155170000Y-91130000D01*
X147050000Y-94960000D02*
X147050000Y-93960000D01*
X148750000Y-93960000D02*
X148750000Y-94960000D01*
X150510000Y-75300000D02*
X151510000Y-75300000D01*
X151510000Y-77000000D02*
X150510000Y-77000000D01*
X154310000Y-93630000D02*
X154310000Y-94630000D01*
X152610000Y-94630000D02*
X152610000Y-93630000D01*
X150600000Y-79230000D02*
X151600000Y-79230000D01*
X151600000Y-80930000D02*
X150600000Y-80930000D01*
X147120000Y-87020000D02*
X148120000Y-87020000D01*
X148120000Y-88720000D02*
X147120000Y-88720000D01*
D14*
X156800000Y-61485000D02*
X158000000Y-61485000D01*
X158000000Y-59735000D02*
X156800000Y-59735000D01*
X153365000Y-91420000D02*
X153365000Y-90220000D01*
X151615000Y-90220000D02*
X151615000Y-91420000D01*
X146445000Y-90380000D02*
X146445000Y-91580000D01*
X148195000Y-91580000D02*
X148195000Y-90380000D01*
X151540000Y-92655000D02*
X150340000Y-92655000D01*
X150340000Y-94405000D02*
X151540000Y-94405000D01*
X151725000Y-85460000D02*
X151725000Y-84260000D01*
X149975000Y-84260000D02*
X149975000Y-85460000D01*
X152810000Y-86905000D02*
X151610000Y-86905000D01*
X151610000Y-88655000D02*
X152810000Y-88655000D01*
D13*
X150550000Y-64450000D02*
X153210000Y-64450000D01*
X153210000Y-64450000D02*
X153210000Y-67230000D01*
X153210000Y-67230000D02*
X150550000Y-67230000D01*
X150550000Y-67230000D02*
X150550000Y-64450000D01*
X149280000Y-64450000D02*
X147890000Y-64450000D01*
X147890000Y-64450000D02*
X147890000Y-65840000D01*
D14*
X149145714Y-77655714D02*
X149183810Y-77617619D01*
X149221905Y-77503333D01*
X149221905Y-77427143D01*
X149183810Y-77312857D01*
X149107619Y-77236666D01*
X149031429Y-77198571D01*
X148879048Y-77160476D01*
X148764762Y-77160476D01*
X148612381Y-77198571D01*
X148536190Y-77236666D01*
X148460000Y-77312857D01*
X148421905Y-77427143D01*
X148421905Y-77503333D01*
X148460000Y-77617619D01*
X148498095Y-77655714D01*
X149221905Y-78417619D02*
X149221905Y-77960476D01*
X149221905Y-78189047D02*
X148421905Y-78189047D01*
X148536190Y-78112857D01*
X148612381Y-78036666D01*
X148650476Y-77960476D01*
X148421905Y-78912857D02*
X148421905Y-78989048D01*
X148460000Y-79065238D01*
X148498095Y-79103333D01*
X148574286Y-79141429D01*
X148726667Y-79179524D01*
X148917143Y-79179524D01*
X149069524Y-79141429D01*
X149145714Y-79103333D01*
X149183810Y-79065238D01*
X149221905Y-78989048D01*
X149221905Y-78912857D01*
X149183810Y-78836667D01*
X149145714Y-78798571D01*
X149069524Y-78760476D01*
X148917143Y-78722381D01*
X148726667Y-78722381D01*
X148574286Y-78760476D01*
X148498095Y-78798571D01*
X148460000Y-78836667D01*
X148421905Y-78912857D01*
X154221905Y-72992381D02*
X154221905Y-73801905D01*
X154174286Y-73897143D01*
X154126667Y-73944762D01*
X154031429Y-73992381D01*
X153840952Y-73992381D01*
X153745714Y-73944762D01*
X153698095Y-73897143D01*
X153650476Y-73801905D01*
X153650476Y-72992381D01*
X152745714Y-73325714D02*
X152745714Y-73992381D01*
X152983810Y-72944762D02*
X153221905Y-73659048D01*
X152602857Y-73659048D01*
X144632857Y-84493334D02*
X144632857Y-84226667D01*
X145051905Y-84226667D02*
X144251905Y-84226667D01*
X144251905Y-84607620D01*
X144632857Y-85179048D02*
X144670952Y-85293334D01*
X144709048Y-85331429D01*
X144785238Y-85369524D01*
X144899524Y-85369524D01*
X144975714Y-85331429D01*
X145013810Y-85293334D01*
X145051905Y-85217143D01*
X145051905Y-84912381D01*
X144251905Y-84912381D01*
X144251905Y-85179048D01*
X144290000Y-85255238D01*
X144328095Y-85293334D01*
X144404286Y-85331429D01*
X144480476Y-85331429D01*
X144556667Y-85293334D01*
X144594762Y-85255238D01*
X144632857Y-85179048D01*
X144632857Y-84912381D01*
X145051905Y-86131429D02*
X145051905Y-85674286D01*
X145051905Y-85902857D02*
X144251905Y-85902857D01*
X144366190Y-85826667D01*
X144442381Y-85750476D01*
X144480476Y-85674286D01*
X150070476Y-62232381D02*
X149832381Y-63232381D01*
X149641904Y-62518095D01*
X149451428Y-63232381D01*
X149213333Y-62232381D01*
X148832381Y-63232381D02*
X148832381Y-62565714D01*
X148832381Y-62232381D02*
X148880000Y-62280000D01*
X148832381Y-62327619D01*
X148784762Y-62280000D01*
X148832381Y-62232381D01*
X148832381Y-62327619D01*
X148499048Y-62565714D02*
X148118096Y-62565714D01*
X148356191Y-63232381D02*
X148356191Y-62375238D01*
X148308572Y-62280000D01*
X148213334Y-62232381D01*
X148118096Y-62232381D01*
X147784762Y-63232381D02*
X147784762Y-62565714D01*
X147784762Y-62232381D02*
X147832381Y-62280000D01*
X147784762Y-62327619D01*
X147737143Y-62280000D01*
X147784762Y-62232381D01*
X147784762Y-62327619D01*
X151053333Y-97271905D02*
X151320000Y-96890952D01*
X151510476Y-97271905D02*
X151510476Y-96471905D01*
X151205714Y-96471905D01*
X151129523Y-96510000D01*
X151091428Y-96548095D01*
X151053333Y-96624286D01*
X151053333Y-96738571D01*
X151091428Y-96814762D01*
X151129523Y-96852857D01*
X151205714Y-96890952D01*
X151510476Y-96890952D01*
X150329523Y-96471905D02*
X150710476Y-96471905D01*
X150748571Y-96852857D01*
X150710476Y-96814762D01*
X150634285Y-96776667D01*
X150443809Y-96776667D01*
X150367619Y-96814762D01*
X150329523Y-96852857D01*
X150291428Y-96929048D01*
X150291428Y-97119524D01*
X150329523Y-97195714D01*
X150367619Y-97233810D01*
X150443809Y-97271905D01*
X150634285Y-97271905D01*
X150710476Y-97233810D01*
X150748571Y-97195714D01*
X150246666Y-91671905D02*
X149751428Y-91671905D01*
X150018095Y-91976667D01*
X149903809Y-91976667D01*
X149827619Y-92014762D01*
X149789523Y-92052857D01*
X149751428Y-92129048D01*
X149751428Y-92319524D01*
X149789523Y-92395714D01*
X149827619Y-92433810D01*
X149903809Y-92471905D01*
X150132381Y-92471905D01*
X150208571Y-92433810D01*
X150246666Y-92395714D01*
X143653333Y-91755714D02*
X143691428Y-91793810D01*
X143805714Y-91831905D01*
X143881904Y-91831905D01*
X143996190Y-91793810D01*
X144072381Y-91717619D01*
X144110476Y-91641429D01*
X144148571Y-91489048D01*
X144148571Y-91374762D01*
X144110476Y-91222381D01*
X144072381Y-91146190D01*
X143996190Y-91070000D01*
X143881904Y-91031905D01*
X143805714Y-91031905D01*
X143691428Y-91070000D01*
X143653333Y-91108095D01*
X142891428Y-91831905D02*
X143348571Y-91831905D01*
X143120000Y-91831905D02*
X143120000Y-91031905D01*
X143196190Y-91146190D01*
X143272381Y-91222381D01*
X143348571Y-91260476D01*
X156033333Y-89975714D02*
X156071428Y-90013810D01*
X156185714Y-90051905D01*
X156261904Y-90051905D01*
X156376190Y-90013810D01*
X156452381Y-89937619D01*
X156490476Y-89861429D01*
X156528571Y-89709048D01*
X156528571Y-89594762D01*
X156490476Y-89442381D01*
X156452381Y-89366190D01*
X156376190Y-89290000D01*
X156261904Y-89251905D01*
X156185714Y-89251905D01*
X156071428Y-89290000D01*
X156033333Y-89328095D01*
X155766666Y-89251905D02*
X155271428Y-89251905D01*
X155538095Y-89556667D01*
X155423809Y-89556667D01*
X155347619Y-89594762D01*
X155309523Y-89632857D01*
X155271428Y-89709048D01*
X155271428Y-89899524D01*
X155309523Y-89975714D01*
X155347619Y-90013810D01*
X155423809Y-90051905D01*
X155652381Y-90051905D01*
X155728571Y-90013810D01*
X155766666Y-89975714D01*
X148053333Y-97095714D02*
X148091428Y-97133810D01*
X148205714Y-97171905D01*
X148281904Y-97171905D01*
X148396190Y-97133810D01*
X148472381Y-97057619D01*
X148510476Y-96981429D01*
X148548571Y-96829048D01*
X148548571Y-96714762D01*
X148510476Y-96562381D01*
X148472381Y-96486190D01*
X148396190Y-96410000D01*
X148281904Y-96371905D01*
X148205714Y-96371905D01*
X148091428Y-96410000D01*
X148053333Y-96448095D01*
X147367619Y-96638571D02*
X147367619Y-97171905D01*
X147558095Y-96333810D02*
X147748571Y-96905238D01*
X147253333Y-96905238D01*
X149175714Y-75926667D02*
X149213810Y-75888572D01*
X149251905Y-75774286D01*
X149251905Y-75698096D01*
X149213810Y-75583810D01*
X149137619Y-75507619D01*
X149061429Y-75469524D01*
X148909048Y-75431429D01*
X148794762Y-75431429D01*
X148642381Y-75469524D01*
X148566190Y-75507619D01*
X148490000Y-75583810D01*
X148451905Y-75698096D01*
X148451905Y-75774286D01*
X148490000Y-75888572D01*
X148528095Y-75926667D01*
X148451905Y-76650477D02*
X148451905Y-76269524D01*
X148832857Y-76231429D01*
X148794762Y-76269524D01*
X148756667Y-76345715D01*
X148756667Y-76536191D01*
X148794762Y-76612381D01*
X148832857Y-76650477D01*
X148909048Y-76688572D01*
X149099524Y-76688572D01*
X149175714Y-76650477D01*
X149213810Y-76612381D01*
X149251905Y-76536191D01*
X149251905Y-76345715D01*
X149213810Y-76269524D01*
X149175714Y-76231429D01*
X153703333Y-96735714D02*
X153741428Y-96773810D01*
X153855714Y-96811905D01*
X153931904Y-96811905D01*
X154046190Y-96773810D01*
X154122381Y-96697619D01*
X154160476Y-96621429D01*
X154198571Y-96469048D01*
X154198571Y-96354762D01*
X154160476Y-96202381D01*
X154122381Y-96126190D01*
X154046190Y-96050000D01*
X153931904Y-96011905D01*
X153855714Y-96011905D01*
X153741428Y-96050000D01*
X153703333Y-96088095D01*
X153436666Y-96011905D02*
X152903333Y-96011905D01*
X153246190Y-96811905D01*
X149165714Y-79956667D02*
X149203810Y-79918572D01*
X149241905Y-79804286D01*
X149241905Y-79728096D01*
X149203810Y-79613810D01*
X149127619Y-79537619D01*
X149051429Y-79499524D01*
X148899048Y-79461429D01*
X148784762Y-79461429D01*
X148632381Y-79499524D01*
X148556190Y-79537619D01*
X148480000Y-79613810D01*
X148441905Y-79728096D01*
X148441905Y-79804286D01*
X148480000Y-79918572D01*
X148518095Y-79956667D01*
X148784762Y-80413810D02*
X148746667Y-80337619D01*
X148708571Y-80299524D01*
X148632381Y-80261429D01*
X148594286Y-80261429D01*
X148518095Y-80299524D01*
X148480000Y-80337619D01*
X148441905Y-80413810D01*
X148441905Y-80566191D01*
X148480000Y-80642381D01*
X148518095Y-80680477D01*
X148594286Y-80718572D01*
X148632381Y-80718572D01*
X148708571Y-80680477D01*
X148746667Y-80642381D01*
X148784762Y-80566191D01*
X148784762Y-80413810D01*
X148822857Y-80337619D01*
X148860952Y-80299524D01*
X148937143Y-80261429D01*
X149089524Y-80261429D01*
X149165714Y-80299524D01*
X149203810Y-80337619D01*
X149241905Y-80413810D01*
X149241905Y-80566191D01*
X149203810Y-80642381D01*
X149165714Y-80680477D01*
X149089524Y-80718572D01*
X148937143Y-80718572D01*
X148860952Y-80680477D01*
X148822857Y-80642381D01*
X148784762Y-80566191D01*
X145705714Y-87706667D02*
X145743810Y-87668572D01*
X145781905Y-87554286D01*
X145781905Y-87478096D01*
X145743810Y-87363810D01*
X145667619Y-87287619D01*
X145591429Y-87249524D01*
X145439048Y-87211429D01*
X145324762Y-87211429D01*
X145172381Y-87249524D01*
X145096190Y-87287619D01*
X145020000Y-87363810D01*
X144981905Y-87478096D01*
X144981905Y-87554286D01*
X145020000Y-87668572D01*
X145058095Y-87706667D01*
X145781905Y-88087619D02*
X145781905Y-88240000D01*
X145743810Y-88316191D01*
X145705714Y-88354286D01*
X145591429Y-88430477D01*
X145439048Y-88468572D01*
X145134286Y-88468572D01*
X145058095Y-88430477D01*
X145020000Y-88392381D01*
X144981905Y-88316191D01*
X144981905Y-88163810D01*
X145020000Y-88087619D01*
X145058095Y-88049524D01*
X145134286Y-88011429D01*
X145324762Y-88011429D01*
X145400952Y-88049524D01*
X145439048Y-88087619D01*
X145477143Y-88163810D01*
X145477143Y-88316191D01*
X145439048Y-88392381D01*
X145400952Y-88430477D01*
X145324762Y-88468572D01*
X158153333Y-62491905D02*
X158420000Y-62110952D01*
X158610476Y-62491905D02*
X158610476Y-61691905D01*
X158305714Y-61691905D01*
X158229523Y-61730000D01*
X158191428Y-61768095D01*
X158153333Y-61844286D01*
X158153333Y-61958571D01*
X158191428Y-62034762D01*
X158229523Y-62072857D01*
X158305714Y-62110952D01*
X158610476Y-62110952D01*
X157391428Y-62491905D02*
X157848571Y-62491905D01*
X157620000Y-62491905D02*
X157620000Y-61691905D01*
X157696190Y-61806190D01*
X157772381Y-61882381D01*
X157848571Y-61920476D01*
X156103333Y-91591905D02*
X156370000Y-91210952D01*
X156560476Y-91591905D02*
X156560476Y-90791905D01*
X156255714Y-90791905D01*
X156179523Y-90830000D01*
X156141428Y-90868095D01*
X156103333Y-90944286D01*
X156103333Y-91058571D01*
X156141428Y-91134762D01*
X156179523Y-91172857D01*
X156255714Y-91210952D01*
X156560476Y-91210952D01*
X155417619Y-91058571D02*
X155417619Y-91591905D01*
X155608095Y-90753810D02*
X155798571Y-91325238D01*
X155303333Y-91325238D01*
X146241905Y-90866667D02*
X145860952Y-90600000D01*
X146241905Y-90409524D02*
X145441905Y-90409524D01*
X145441905Y-90714286D01*
X145480000Y-90790477D01*
X145518095Y-90828572D01*
X145594286Y-90866667D01*
X145708571Y-90866667D01*
X145784762Y-90828572D01*
X145822857Y-90790477D01*
X145860952Y-90714286D01*
X145860952Y-90409524D01*
X145441905Y-91552381D02*
X145441905Y-91400000D01*
X145480000Y-91323810D01*
X145518095Y-91285715D01*
X145632381Y-91209524D01*
X145784762Y-91171429D01*
X146089524Y-91171429D01*
X146165714Y-91209524D01*
X146203810Y-91247619D01*
X146241905Y-91323810D01*
X146241905Y-91476191D01*
X146203810Y-91552381D01*
X146165714Y-91590477D01*
X146089524Y-91628572D01*
X145899048Y-91628572D01*
X145822857Y-91590477D01*
X145784762Y-91552381D01*
X145746667Y-91476191D01*
X145746667Y-91323810D01*
X145784762Y-91247619D01*
X145822857Y-91209524D01*
X145899048Y-91171429D01*
X155503333Y-95121905D02*
X155770000Y-94740952D01*
X155960476Y-95121905D02*
X155960476Y-94321905D01*
X155655714Y-94321905D01*
X155579523Y-94360000D01*
X155541428Y-94398095D01*
X155503333Y-94474286D01*
X155503333Y-94588571D01*
X155541428Y-94664762D01*
X155579523Y-94702857D01*
X155655714Y-94740952D01*
X155960476Y-94740952D01*
X155236666Y-94321905D02*
X154703333Y-94321905D01*
X155046190Y-95121905D01*
X150983333Y-83281905D02*
X151250000Y-82900952D01*
X151440476Y-83281905D02*
X151440476Y-82481905D01*
X151135714Y-82481905D01*
X151059523Y-82520000D01*
X151021428Y-82558095D01*
X150983333Y-82634286D01*
X150983333Y-82748571D01*
X151021428Y-82824762D01*
X151059523Y-82862857D01*
X151135714Y-82900952D01*
X151440476Y-82900952D01*
X150526190Y-82824762D02*
X150602381Y-82786667D01*
X150640476Y-82748571D01*
X150678571Y-82672381D01*
X150678571Y-82634286D01*
X150640476Y-82558095D01*
X150602381Y-82520000D01*
X150526190Y-82481905D01*
X150373809Y-82481905D01*
X150297619Y-82520000D01*
X150259523Y-82558095D01*
X150221428Y-82634286D01*
X150221428Y-82672381D01*
X150259523Y-82748571D01*
X150297619Y-82786667D01*
X150373809Y-82824762D01*
X150526190Y-82824762D01*
X150602381Y-82862857D01*
X150640476Y-82900952D01*
X150678571Y-82977143D01*
X150678571Y-83129524D01*
X150640476Y-83205714D01*
X150602381Y-83243810D01*
X150526190Y-83281905D01*
X150373809Y-83281905D01*
X150297619Y-83243810D01*
X150259523Y-83205714D01*
X150221428Y-83129524D01*
X150221428Y-82977143D01*
X150259523Y-82900952D01*
X150297619Y-82862857D01*
X150373809Y-82824762D01*
X154701905Y-87236667D02*
X154320952Y-86970000D01*
X154701905Y-86779524D02*
X153901905Y-86779524D01*
X153901905Y-87084286D01*
X153940000Y-87160477D01*
X153978095Y-87198572D01*
X154054286Y-87236667D01*
X154168571Y-87236667D01*
X154244762Y-87198572D01*
X154282857Y-87160477D01*
X154320952Y-87084286D01*
X154320952Y-86779524D01*
X154701905Y-87617619D02*
X154701905Y-87770000D01*
X154663810Y-87846191D01*
X154625714Y-87884286D01*
X154511429Y-87960477D01*
X154359048Y-87998572D01*
X154054286Y-87998572D01*
X153978095Y-87960477D01*
X153940000Y-87922381D01*
X153901905Y-87846191D01*
X153901905Y-87693810D01*
X153940000Y-87617619D01*
X153978095Y-87579524D01*
X154054286Y-87541429D01*
X154244762Y-87541429D01*
X154320952Y-87579524D01*
X154359048Y-87617619D01*
X154397143Y-87693810D01*
X154397143Y-87846191D01*
X154359048Y-87922381D01*
X154320952Y-87960477D01*
X154244762Y-87998572D01*
M02*
