G04 #@! TF.FileFunction,Legend,Bot*
%FSLAX46Y46*%
G04 Gerber Fmt 4.6, Leading zero omitted, Abs format (unit mm)*
G04 Created by KiCad (PCBNEW 4.0.4-stable) date 01/28/17 22:02:24*
%MOMM*%
%LPD*%
G01*
G04 APERTURE LIST*
%ADD10C,0.100000*%
%ADD11C,0.127000*%
%ADD12C,0.200000*%
%ADD13C,0.150000*%
%ADD14C,0.120000*%
%ADD15C,0.117500*%
%ADD16C,0.125000*%
G04 APERTURE END LIST*
D10*
D11*
X150910000Y-96260000D02*
X150910000Y-96240000D01*
X151090000Y-96440000D02*
X150910000Y-96260000D01*
X151090000Y-96040000D02*
X151090000Y-96440000D01*
X150900000Y-96230000D02*
X151090000Y-96040000D01*
X151260000Y-96230000D02*
X150900000Y-96230000D01*
X151260000Y-97560000D02*
X151260000Y-96230000D01*
X150910000Y-97560000D02*
X151260000Y-97560000D01*
X147720000Y-91650000D02*
X147720000Y-91670000D01*
X147860000Y-91510000D02*
X147720000Y-91650000D01*
X147530000Y-91510000D02*
X147860000Y-91510000D01*
X147670000Y-91650000D02*
X147530000Y-91510000D01*
X147680000Y-91090000D02*
X147680000Y-91760000D01*
X146090000Y-95070000D02*
X146160000Y-95000000D01*
X146090000Y-94830000D02*
X146090000Y-95070000D01*
X146210000Y-94950000D02*
X146090000Y-94830000D01*
X144950000Y-94950000D02*
X146210000Y-94950000D01*
X152420000Y-87890000D02*
X152420000Y-87900000D01*
X152620000Y-87690000D02*
X152420000Y-87890000D01*
X152220000Y-87690000D02*
X152620000Y-87690000D01*
X152420000Y-87890000D02*
X152220000Y-87690000D01*
X152420000Y-87140000D02*
X152420000Y-87890000D01*
D12*
X152872857Y-67862857D02*
X153139524Y-67862857D01*
X153139524Y-68281905D02*
X153139524Y-67481905D01*
X152758571Y-67481905D01*
X152339524Y-68281905D02*
X152415715Y-68243810D01*
X152453810Y-68167619D01*
X152453810Y-67481905D01*
X151691905Y-68281905D02*
X151691905Y-67862857D01*
X151730000Y-67786667D01*
X151806190Y-67748571D01*
X151958571Y-67748571D01*
X152034762Y-67786667D01*
X151691905Y-68243810D02*
X151768095Y-68281905D01*
X151958571Y-68281905D01*
X152034762Y-68243810D01*
X152072857Y-68167619D01*
X152072857Y-68091429D01*
X152034762Y-68015238D01*
X151958571Y-67977143D01*
X151768095Y-67977143D01*
X151691905Y-67939048D01*
X151349047Y-68243810D02*
X151272857Y-68281905D01*
X151120476Y-68281905D01*
X151044285Y-68243810D01*
X151006190Y-68167619D01*
X151006190Y-68129524D01*
X151044285Y-68053333D01*
X151120476Y-68015238D01*
X151234761Y-68015238D01*
X151310952Y-67977143D01*
X151349047Y-67900952D01*
X151349047Y-67862857D01*
X151310952Y-67786667D01*
X151234761Y-67748571D01*
X151120476Y-67748571D01*
X151044285Y-67786667D01*
X150663333Y-68281905D02*
X150663333Y-67481905D01*
X150320476Y-68281905D02*
X150320476Y-67862857D01*
X150358571Y-67786667D01*
X150434761Y-67748571D01*
X150549047Y-67748571D01*
X150625238Y-67786667D01*
X150663333Y-67824762D01*
D11*
X155666905Y-101615000D02*
G75*
G03X155666905Y-101615000I-4666905J0D01*
G01*
D13*
X150360000Y-61780000D02*
X147560000Y-61780000D01*
X147560000Y-61780000D02*
X147560000Y-63180000D01*
X147560000Y-63180000D02*
X150360000Y-63180000D01*
X150360000Y-63180000D02*
X150360000Y-61780000D01*
X145960000Y-60730000D02*
X145960000Y-61380000D01*
X145960000Y-64230000D02*
X145960000Y-63580000D01*
X151960000Y-63580000D02*
X151960000Y-64230000D01*
X151960000Y-60730000D02*
X151960000Y-61380000D01*
X145960000Y-60730000D02*
X151960000Y-60730000D01*
X151960000Y-64230000D02*
X145960000Y-64230000D01*
X153280000Y-87875000D02*
X152080000Y-87875000D01*
X152080000Y-89625000D02*
X153280000Y-89625000D01*
D14*
X150500000Y-77340000D02*
X151500000Y-77340000D01*
X151500000Y-79040000D02*
X150500000Y-79040000D01*
D13*
X151819000Y-74210000D02*
X154232000Y-74210000D01*
X150041000Y-74210000D02*
X147628000Y-74210000D01*
X151819000Y-74210000D02*
G75*
G02X150930000Y-75099000I-889000J0D01*
G01*
X150930000Y-75099000D02*
G75*
G02X150041000Y-74210000I0J889000D01*
G01*
X153343000Y-75099000D02*
G75*
G03X153343000Y-75099000I-254000J0D01*
G01*
X154232000Y-84370000D02*
X154232000Y-84243000D01*
X154232000Y-81703000D02*
X154232000Y-81957000D01*
X154232000Y-79163000D02*
X154232000Y-79417000D01*
X154232000Y-76623000D02*
X154232000Y-76877000D01*
X154232000Y-74210000D02*
X154232000Y-74337000D01*
X147628000Y-74210000D02*
X147628000Y-74337000D01*
X147628000Y-84370000D02*
X147628000Y-84243000D01*
X147628000Y-81703000D02*
X147628000Y-81957000D01*
X147628000Y-79163000D02*
X147628000Y-79417000D01*
X147628000Y-76623000D02*
X147628000Y-76877000D01*
X154232000Y-84370000D02*
X147628000Y-84370000D01*
D14*
X146410000Y-84340000D02*
X147410000Y-84340000D01*
X147410000Y-86040000D02*
X146410000Y-86040000D01*
X143410000Y-88690000D02*
X143410000Y-87690000D01*
X145110000Y-87690000D02*
X145110000Y-88690000D01*
X150510000Y-75300000D02*
X151510000Y-75300000D01*
X151510000Y-77000000D02*
X150510000Y-77000000D01*
D13*
X156800000Y-61485000D02*
X158000000Y-61485000D01*
X158000000Y-59735000D02*
X156800000Y-59735000D01*
D14*
X149240000Y-95780000D02*
X149240000Y-94780000D01*
X150940000Y-94780000D02*
X150940000Y-95780000D01*
X155580000Y-87900000D02*
X156580000Y-87900000D01*
X156580000Y-89600000D02*
X155580000Y-89600000D01*
X146430000Y-86080000D02*
X147430000Y-86080000D01*
X147430000Y-87780000D02*
X146430000Y-87780000D01*
X153250000Y-95490000D02*
X154250000Y-95490000D01*
X154250000Y-97190000D02*
X153250000Y-97190000D01*
D13*
X153350000Y-93545000D02*
X154550000Y-93545000D01*
X154550000Y-91795000D02*
X153350000Y-91795000D01*
X147050000Y-97025000D02*
X148250000Y-97025000D01*
X148250000Y-95275000D02*
X147050000Y-95275000D01*
X148250000Y-93515000D02*
X147050000Y-93515000D01*
X147050000Y-95265000D02*
X148250000Y-95265000D01*
X147050000Y-93515000D02*
X148250000Y-93515000D01*
X148250000Y-91765000D02*
X147050000Y-91765000D01*
X153400000Y-91665000D02*
X154600000Y-91665000D01*
X154600000Y-89915000D02*
X153400000Y-89915000D01*
X154540000Y-93555000D02*
X153340000Y-93555000D01*
X153340000Y-95305000D02*
X154540000Y-95305000D01*
X144445000Y-91930000D02*
X144445000Y-93130000D01*
X146195000Y-93130000D02*
X146195000Y-91930000D01*
X150140000Y-86645000D02*
X151340000Y-86645000D01*
X151340000Y-84895000D02*
X150140000Y-84895000D01*
D14*
X149120000Y-92590000D02*
X149120000Y-90790000D01*
X152340000Y-90790000D02*
X152340000Y-93240000D01*
X146440000Y-87670000D02*
X148240000Y-87670000D01*
X148240000Y-90890000D02*
X145790000Y-90890000D01*
X150560000Y-64220000D02*
X153220000Y-64220000D01*
X153220000Y-64220000D02*
X153220000Y-67000000D01*
X153220000Y-67000000D02*
X150560000Y-67000000D01*
X150560000Y-67000000D02*
X150560000Y-64220000D01*
X149290000Y-64220000D02*
X147900000Y-64220000D01*
X147900000Y-64220000D02*
X147900000Y-65610000D01*
D13*
X150150476Y-61972381D02*
X149912381Y-62972381D01*
X149721904Y-62258095D01*
X149531428Y-62972381D01*
X149293333Y-61972381D01*
X148912381Y-62972381D02*
X148912381Y-62305714D01*
X148912381Y-61972381D02*
X148960000Y-62020000D01*
X148912381Y-62067619D01*
X148864762Y-62020000D01*
X148912381Y-61972381D01*
X148912381Y-62067619D01*
X148579048Y-62305714D02*
X148198096Y-62305714D01*
X148436191Y-62972381D02*
X148436191Y-62115238D01*
X148388572Y-62020000D01*
X148293334Y-61972381D01*
X148198096Y-61972381D01*
X147864762Y-62972381D02*
X147864762Y-62305714D01*
X147864762Y-61972381D02*
X147912381Y-62020000D01*
X147864762Y-62067619D01*
X147817143Y-62020000D01*
X147864762Y-61972381D01*
X147864762Y-62067619D01*
X153580000Y-86956667D02*
X153813334Y-86623333D01*
X153980000Y-86956667D02*
X153980000Y-86256667D01*
X153713334Y-86256667D01*
X153646667Y-86290000D01*
X153613334Y-86323333D01*
X153580000Y-86390000D01*
X153580000Y-86490000D01*
X153613334Y-86556667D01*
X153646667Y-86590000D01*
X153713334Y-86623333D01*
X153980000Y-86623333D01*
X152913334Y-86956667D02*
X153313334Y-86956667D01*
X153113334Y-86956667D02*
X153113334Y-86256667D01*
X153180000Y-86356667D01*
X153246667Y-86423333D01*
X153313334Y-86456667D01*
X152480000Y-86256667D02*
X152413333Y-86256667D01*
X152346667Y-86290000D01*
X152313333Y-86323333D01*
X152280000Y-86390000D01*
X152246667Y-86523333D01*
X152246667Y-86690000D01*
X152280000Y-86823333D01*
X152313333Y-86890000D01*
X152346667Y-86923333D01*
X152413333Y-86956667D01*
X152480000Y-86956667D01*
X152546667Y-86923333D01*
X152580000Y-86890000D01*
X152613333Y-86823333D01*
X152646667Y-86690000D01*
X152646667Y-86523333D01*
X152613333Y-86390000D01*
X152580000Y-86323333D01*
X152546667Y-86290000D01*
X152480000Y-86256667D01*
X149145714Y-77655714D02*
X149183810Y-77617619D01*
X149221905Y-77503333D01*
X149221905Y-77427143D01*
X149183810Y-77312857D01*
X149107619Y-77236666D01*
X149031429Y-77198571D01*
X148879048Y-77160476D01*
X148764762Y-77160476D01*
X148612381Y-77198571D01*
X148536190Y-77236666D01*
X148460000Y-77312857D01*
X148421905Y-77427143D01*
X148421905Y-77503333D01*
X148460000Y-77617619D01*
X148498095Y-77655714D01*
X149221905Y-78417619D02*
X149221905Y-77960476D01*
X149221905Y-78189047D02*
X148421905Y-78189047D01*
X148536190Y-78112857D01*
X148612381Y-78036666D01*
X148650476Y-77960476D01*
X148421905Y-78912857D02*
X148421905Y-78989048D01*
X148460000Y-79065238D01*
X148498095Y-79103333D01*
X148574286Y-79141429D01*
X148726667Y-79179524D01*
X148917143Y-79179524D01*
X149069524Y-79141429D01*
X149145714Y-79103333D01*
X149183810Y-79065238D01*
X149221905Y-78989048D01*
X149221905Y-78912857D01*
X149183810Y-78836667D01*
X149145714Y-78798571D01*
X149069524Y-78760476D01*
X148917143Y-78722381D01*
X148726667Y-78722381D01*
X148574286Y-78760476D01*
X148498095Y-78798571D01*
X148460000Y-78836667D01*
X148421905Y-78912857D01*
X154221905Y-72992381D02*
X154221905Y-73801905D01*
X154174286Y-73897143D01*
X154126667Y-73944762D01*
X154031429Y-73992381D01*
X153840952Y-73992381D01*
X153745714Y-73944762D01*
X153698095Y-73897143D01*
X153650476Y-73801905D01*
X153650476Y-72992381D01*
X152745714Y-73325714D02*
X152745714Y-73992381D01*
X152983810Y-72944762D02*
X153221905Y-73659048D01*
X152602857Y-73659048D01*
X144082857Y-84503334D02*
X144082857Y-84236667D01*
X144501905Y-84236667D02*
X143701905Y-84236667D01*
X143701905Y-84617620D01*
X144082857Y-85189048D02*
X144120952Y-85303334D01*
X144159048Y-85341429D01*
X144235238Y-85379524D01*
X144349524Y-85379524D01*
X144425714Y-85341429D01*
X144463810Y-85303334D01*
X144501905Y-85227143D01*
X144501905Y-84922381D01*
X143701905Y-84922381D01*
X143701905Y-85189048D01*
X143740000Y-85265238D01*
X143778095Y-85303334D01*
X143854286Y-85341429D01*
X143930476Y-85341429D01*
X144006667Y-85303334D01*
X144044762Y-85265238D01*
X144082857Y-85189048D01*
X144082857Y-84922381D01*
X144501905Y-86141429D02*
X144501905Y-85684286D01*
X144501905Y-85912857D02*
X143701905Y-85912857D01*
X143816190Y-85836667D01*
X143892381Y-85760476D01*
X143930476Y-85684286D01*
X143095714Y-88046667D02*
X143133810Y-88008572D01*
X143171905Y-87894286D01*
X143171905Y-87818096D01*
X143133810Y-87703810D01*
X143057619Y-87627619D01*
X142981429Y-87589524D01*
X142829048Y-87551429D01*
X142714762Y-87551429D01*
X142562381Y-87589524D01*
X142486190Y-87627619D01*
X142410000Y-87703810D01*
X142371905Y-87818096D01*
X142371905Y-87894286D01*
X142410000Y-88008572D01*
X142448095Y-88046667D01*
X143171905Y-88808572D02*
X143171905Y-88351429D01*
X143171905Y-88580000D02*
X142371905Y-88580000D01*
X142486190Y-88503810D01*
X142562381Y-88427619D01*
X142600476Y-88351429D01*
X149175714Y-75926667D02*
X149213810Y-75888572D01*
X149251905Y-75774286D01*
X149251905Y-75698096D01*
X149213810Y-75583810D01*
X149137619Y-75507619D01*
X149061429Y-75469524D01*
X148909048Y-75431429D01*
X148794762Y-75431429D01*
X148642381Y-75469524D01*
X148566190Y-75507619D01*
X148490000Y-75583810D01*
X148451905Y-75698096D01*
X148451905Y-75774286D01*
X148490000Y-75888572D01*
X148528095Y-75926667D01*
X148451905Y-76650477D02*
X148451905Y-76269524D01*
X148832857Y-76231429D01*
X148794762Y-76269524D01*
X148756667Y-76345715D01*
X148756667Y-76536191D01*
X148794762Y-76612381D01*
X148832857Y-76650477D01*
X148909048Y-76688572D01*
X149099524Y-76688572D01*
X149175714Y-76650477D01*
X149213810Y-76612381D01*
X149251905Y-76536191D01*
X149251905Y-76345715D01*
X149213810Y-76269524D01*
X149175714Y-76231429D01*
X158153333Y-62491905D02*
X158420000Y-62110952D01*
X158610476Y-62491905D02*
X158610476Y-61691905D01*
X158305714Y-61691905D01*
X158229523Y-61730000D01*
X158191428Y-61768095D01*
X158153333Y-61844286D01*
X158153333Y-61958571D01*
X158191428Y-62034762D01*
X158229523Y-62072857D01*
X158305714Y-62110952D01*
X158610476Y-62110952D01*
X157391428Y-62491905D02*
X157848571Y-62491905D01*
X157620000Y-62491905D02*
X157620000Y-61691905D01*
X157696190Y-61806190D01*
X157772381Y-61882381D01*
X157848571Y-61920476D01*
X150296666Y-97860000D02*
X150330000Y-97893333D01*
X150430000Y-97926667D01*
X150496666Y-97926667D01*
X150596666Y-97893333D01*
X150663333Y-97826667D01*
X150696666Y-97760000D01*
X150730000Y-97626667D01*
X150730000Y-97526667D01*
X150696666Y-97393333D01*
X150663333Y-97326667D01*
X150596666Y-97260000D01*
X150496666Y-97226667D01*
X150430000Y-97226667D01*
X150330000Y-97260000D01*
X150296666Y-97293333D01*
X150063333Y-97226667D02*
X149630000Y-97226667D01*
X149863333Y-97493333D01*
X149763333Y-97493333D01*
X149696666Y-97526667D01*
X149663333Y-97560000D01*
X149630000Y-97626667D01*
X149630000Y-97793333D01*
X149663333Y-97860000D01*
X149696666Y-97893333D01*
X149763333Y-97926667D01*
X149963333Y-97926667D01*
X150030000Y-97893333D01*
X150063333Y-97860000D01*
D15*
X156156666Y-87640000D02*
X156190000Y-87673333D01*
X156290000Y-87706667D01*
X156356666Y-87706667D01*
X156456666Y-87673333D01*
X156523333Y-87606667D01*
X156556666Y-87540000D01*
X156590000Y-87406667D01*
X156590000Y-87306667D01*
X156556666Y-87173333D01*
X156523333Y-87106667D01*
X156456666Y-87040000D01*
X156356666Y-87006667D01*
X156290000Y-87006667D01*
X156190000Y-87040000D01*
X156156666Y-87073333D01*
X155556666Y-87240000D02*
X155556666Y-87706667D01*
X155723333Y-86973333D02*
X155890000Y-87473333D01*
X155456666Y-87473333D01*
D13*
X149350000Y-87053334D02*
X149383333Y-87020000D01*
X149416667Y-86920000D01*
X149416667Y-86853334D01*
X149383333Y-86753334D01*
X149316667Y-86686667D01*
X149250000Y-86653334D01*
X149116667Y-86620000D01*
X149016667Y-86620000D01*
X148883333Y-86653334D01*
X148816667Y-86686667D01*
X148750000Y-86753334D01*
X148716667Y-86853334D01*
X148716667Y-86920000D01*
X148750000Y-87020000D01*
X148783333Y-87053334D01*
X148716667Y-87286667D02*
X148716667Y-87753334D01*
X149416667Y-87453334D01*
X154876666Y-98030000D02*
X154910000Y-98063333D01*
X155010000Y-98096667D01*
X155076666Y-98096667D01*
X155176666Y-98063333D01*
X155243333Y-97996667D01*
X155276666Y-97930000D01*
X155310000Y-97796667D01*
X155310000Y-97696667D01*
X155276666Y-97563333D01*
X155243333Y-97496667D01*
X155176666Y-97430000D01*
X155076666Y-97396667D01*
X155010000Y-97396667D01*
X154910000Y-97430000D01*
X154876666Y-97463333D01*
X154543333Y-98096667D02*
X154410000Y-98096667D01*
X154343333Y-98063333D01*
X154310000Y-98030000D01*
X154243333Y-97930000D01*
X154210000Y-97796667D01*
X154210000Y-97530000D01*
X154243333Y-97463333D01*
X154276666Y-97430000D01*
X154343333Y-97396667D01*
X154476666Y-97396667D01*
X154543333Y-97430000D01*
X154576666Y-97463333D01*
X154610000Y-97530000D01*
X154610000Y-97696667D01*
X154576666Y-97763333D01*
X154543333Y-97796667D01*
X154476666Y-97830000D01*
X154343333Y-97830000D01*
X154276666Y-97796667D01*
X154243333Y-97763333D01*
X154210000Y-97696667D01*
X156346667Y-92543334D02*
X156013333Y-92310000D01*
X156346667Y-92143334D02*
X155646667Y-92143334D01*
X155646667Y-92410000D01*
X155680000Y-92476667D01*
X155713333Y-92510000D01*
X155780000Y-92543334D01*
X155880000Y-92543334D01*
X155946667Y-92510000D01*
X155980000Y-92476667D01*
X156013333Y-92410000D01*
X156013333Y-92143334D01*
X155880000Y-93143334D02*
X156346667Y-93143334D01*
X155613333Y-92976667D02*
X156113333Y-92810000D01*
X156113333Y-93243334D01*
X147806666Y-97956667D02*
X148040000Y-97623333D01*
X148206666Y-97956667D02*
X148206666Y-97256667D01*
X147940000Y-97256667D01*
X147873333Y-97290000D01*
X147840000Y-97323333D01*
X147806666Y-97390000D01*
X147806666Y-97490000D01*
X147840000Y-97556667D01*
X147873333Y-97590000D01*
X147940000Y-97623333D01*
X148206666Y-97623333D01*
X147173333Y-97256667D02*
X147506666Y-97256667D01*
X147540000Y-97590000D01*
X147506666Y-97556667D01*
X147440000Y-97523333D01*
X147273333Y-97523333D01*
X147206666Y-97556667D01*
X147173333Y-97590000D01*
X147140000Y-97656667D01*
X147140000Y-97823333D01*
X147173333Y-97890000D01*
X147206666Y-97923333D01*
X147273333Y-97956667D01*
X147440000Y-97956667D01*
X147506666Y-97923333D01*
X147540000Y-97890000D01*
X145526666Y-95846667D02*
X145760000Y-95513333D01*
X145926666Y-95846667D02*
X145926666Y-95146667D01*
X145660000Y-95146667D01*
X145593333Y-95180000D01*
X145560000Y-95213333D01*
X145526666Y-95280000D01*
X145526666Y-95380000D01*
X145560000Y-95446667D01*
X145593333Y-95480000D01*
X145660000Y-95513333D01*
X145926666Y-95513333D01*
X144926666Y-95146667D02*
X145060000Y-95146667D01*
X145126666Y-95180000D01*
X145160000Y-95213333D01*
X145226666Y-95313333D01*
X145260000Y-95446667D01*
X145260000Y-95713333D01*
X145226666Y-95780000D01*
X145193333Y-95813333D01*
X145126666Y-95846667D01*
X144993333Y-95846667D01*
X144926666Y-95813333D01*
X144893333Y-95780000D01*
X144860000Y-95713333D01*
X144860000Y-95546667D01*
X144893333Y-95480000D01*
X144926666Y-95446667D01*
X144993333Y-95413333D01*
X145126666Y-95413333D01*
X145193333Y-95446667D01*
X145226666Y-95480000D01*
X145260000Y-95546667D01*
X146966666Y-91726667D02*
X147200000Y-91393333D01*
X147366666Y-91726667D02*
X147366666Y-91026667D01*
X147100000Y-91026667D01*
X147033333Y-91060000D01*
X147000000Y-91093333D01*
X146966666Y-91160000D01*
X146966666Y-91260000D01*
X147000000Y-91326667D01*
X147033333Y-91360000D01*
X147100000Y-91393333D01*
X147366666Y-91393333D01*
X146733333Y-91026667D02*
X146266666Y-91026667D01*
X146566666Y-91726667D01*
X156276667Y-90693334D02*
X155943333Y-90460000D01*
X156276667Y-90293334D02*
X155576667Y-90293334D01*
X155576667Y-90560000D01*
X155610000Y-90626667D01*
X155643333Y-90660000D01*
X155710000Y-90693334D01*
X155810000Y-90693334D01*
X155876667Y-90660000D01*
X155910000Y-90626667D01*
X155943333Y-90560000D01*
X155943333Y-90293334D01*
X155876667Y-91093334D02*
X155843333Y-91026667D01*
X155810000Y-90993334D01*
X155743333Y-90960000D01*
X155710000Y-90960000D01*
X155643333Y-90993334D01*
X155610000Y-91026667D01*
X155576667Y-91093334D01*
X155576667Y-91226667D01*
X155610000Y-91293334D01*
X155643333Y-91326667D01*
X155710000Y-91360000D01*
X155743333Y-91360000D01*
X155810000Y-91326667D01*
X155843333Y-91293334D01*
X155876667Y-91226667D01*
X155876667Y-91093334D01*
X155910000Y-91026667D01*
X155943333Y-90993334D01*
X156010000Y-90960000D01*
X156143333Y-90960000D01*
X156210000Y-90993334D01*
X156243333Y-91026667D01*
X156276667Y-91093334D01*
X156276667Y-91226667D01*
X156243333Y-91293334D01*
X156210000Y-91326667D01*
X156143333Y-91360000D01*
X156010000Y-91360000D01*
X155943333Y-91326667D01*
X155910000Y-91293334D01*
X155876667Y-91226667D01*
X156296667Y-94383334D02*
X155963333Y-94150000D01*
X156296667Y-93983334D02*
X155596667Y-93983334D01*
X155596667Y-94250000D01*
X155630000Y-94316667D01*
X155663333Y-94350000D01*
X155730000Y-94383334D01*
X155830000Y-94383334D01*
X155896667Y-94350000D01*
X155930000Y-94316667D01*
X155963333Y-94250000D01*
X155963333Y-93983334D01*
X156296667Y-94716667D02*
X156296667Y-94850000D01*
X156263333Y-94916667D01*
X156230000Y-94950000D01*
X156130000Y-95016667D01*
X155996667Y-95050000D01*
X155730000Y-95050000D01*
X155663333Y-95016667D01*
X155630000Y-94983334D01*
X155596667Y-94916667D01*
X155596667Y-94783334D01*
X155630000Y-94716667D01*
X155663333Y-94683334D01*
X155730000Y-94650000D01*
X155896667Y-94650000D01*
X155963333Y-94683334D01*
X155996667Y-94716667D01*
X156030000Y-94783334D01*
X156030000Y-94916667D01*
X155996667Y-94983334D01*
X155963333Y-95016667D01*
X155896667Y-95050000D01*
X144246667Y-92060000D02*
X143913333Y-91826666D01*
X144246667Y-91660000D02*
X143546667Y-91660000D01*
X143546667Y-91926666D01*
X143580000Y-91993333D01*
X143613333Y-92026666D01*
X143680000Y-92060000D01*
X143780000Y-92060000D01*
X143846667Y-92026666D01*
X143880000Y-91993333D01*
X143913333Y-91926666D01*
X143913333Y-91660000D01*
X144246667Y-92726666D02*
X144246667Y-92326666D01*
X144246667Y-92526666D02*
X143546667Y-92526666D01*
X143646667Y-92460000D01*
X143713333Y-92393333D01*
X143746667Y-92326666D01*
X144246667Y-93393333D02*
X144246667Y-92993333D01*
X144246667Y-93193333D02*
X143546667Y-93193333D01*
X143646667Y-93126667D01*
X143713333Y-93060000D01*
X143746667Y-92993333D01*
X151190000Y-87526667D02*
X151423334Y-87193333D01*
X151590000Y-87526667D02*
X151590000Y-86826667D01*
X151323334Y-86826667D01*
X151256667Y-86860000D01*
X151223334Y-86893333D01*
X151190000Y-86960000D01*
X151190000Y-87060000D01*
X151223334Y-87126667D01*
X151256667Y-87160000D01*
X151323334Y-87193333D01*
X151590000Y-87193333D01*
X150523334Y-87526667D02*
X150923334Y-87526667D01*
X150723334Y-87526667D02*
X150723334Y-86826667D01*
X150790000Y-86926667D01*
X150856667Y-86993333D01*
X150923334Y-87026667D01*
X150256667Y-86893333D02*
X150223333Y-86860000D01*
X150156667Y-86826667D01*
X149990000Y-86826667D01*
X149923333Y-86860000D01*
X149890000Y-86893333D01*
X149856667Y-86960000D01*
X149856667Y-87026667D01*
X149890000Y-87126667D01*
X150290000Y-87526667D01*
X149856667Y-87526667D01*
D16*
X150396667Y-90066667D02*
X150963333Y-90066667D01*
X151030000Y-90100000D01*
X151063333Y-90133333D01*
X151096667Y-90200000D01*
X151096667Y-90333333D01*
X151063333Y-90400000D01*
X151030000Y-90433333D01*
X150963333Y-90466667D01*
X150396667Y-90466667D01*
X150396667Y-90733333D02*
X150396667Y-91166666D01*
X150663333Y-90933333D01*
X150663333Y-91033333D01*
X150696667Y-91100000D01*
X150730000Y-91133333D01*
X150796667Y-91166666D01*
X150963333Y-91166666D01*
X151030000Y-91133333D01*
X151063333Y-91100000D01*
X151096667Y-91033333D01*
X151096667Y-90833333D01*
X151063333Y-90766666D01*
X151030000Y-90733333D01*
D13*
X148263333Y-88956667D02*
X148263333Y-89523333D01*
X148230000Y-89590000D01*
X148196667Y-89623333D01*
X148130000Y-89656667D01*
X147996667Y-89656667D01*
X147930000Y-89623333D01*
X147896667Y-89590000D01*
X147863333Y-89523333D01*
X147863333Y-88956667D01*
X147196667Y-88956667D02*
X147530000Y-88956667D01*
X147563334Y-89290000D01*
X147530000Y-89256667D01*
X147463334Y-89223333D01*
X147296667Y-89223333D01*
X147230000Y-89256667D01*
X147196667Y-89290000D01*
X147163334Y-89356667D01*
X147163334Y-89523333D01*
X147196667Y-89590000D01*
X147230000Y-89623333D01*
X147296667Y-89656667D01*
X147463334Y-89656667D01*
X147530000Y-89623333D01*
X147563334Y-89590000D01*
M02*
