M48
INCH,TZ
T1C0.016
T2C0.030
T3C0.039
T4C0.039
T5C0.040
T6C0.059
T7C0.091
%
G90
G05
T1
X56335Y-36594
X57386Y-37209
X57713Y-38465
X57831Y-34217
X57906Y-27055
X58039Y-34752
X58122Y-37890
X58130Y-36492
X58339Y-35917
X58783Y-29382
X59063Y-35122
X59382Y-31567
X59437Y-32988
X59539Y-36102
X59626Y-37575
X60276Y-33764
X60370Y-34417
X60594Y-36827
X60622Y-35441
X61465Y-31197
T2
X57921Y-29717
X57921Y-30717
X57921Y-31717
X57921Y-32717
X60921Y-29717
X60921Y-30717
X60921Y-31717
X60921Y-32717
T3
X58776Y-25831
X59776Y-25831
T4
X57992Y-23386
X58976Y-23386
X59764Y-23386
X60748Y-23386
T5
X58854Y-39335
X59854Y-39335
X61248Y-25028
X61248Y-26028
X61248Y-27028
T6
X58504Y-22598
X60236Y-22598
T7
X57008Y-22598
X61732Y-22598
T0
M30
