G04 #@! TF.FileFunction,Legend,Top*
%FSLAX46Y46*%
G04 Gerber Fmt 4.6, Leading zero omitted, Abs format (unit mm)*
G04 Created by KiCad (PCBNEW 4.0.4-stable) date 01/28/17 22:06:06*
%MOMM*%
%LPD*%
G01*
G04 APERTURE LIST*
%ADD10C,0.100000*%
%ADD11C,0.175000*%
%ADD12C,0.125000*%
%ADD13C,0.127000*%
%ADD14C,0.152400*%
%ADD15C,0.150000*%
%ADD16C,0.120000*%
G04 APERTURE END LIST*
D10*
D11*
X145346667Y-62140000D02*
X145313333Y-62106667D01*
X145213333Y-62073333D01*
X145146667Y-62073333D01*
X145046667Y-62106667D01*
X144980000Y-62173333D01*
X144946667Y-62240000D01*
X144913333Y-62373333D01*
X144913333Y-62473333D01*
X144946667Y-62606667D01*
X144980000Y-62673333D01*
X145046667Y-62740000D01*
X145146667Y-62773333D01*
X145213333Y-62773333D01*
X145313333Y-62740000D01*
X145346667Y-62706667D01*
X142986667Y-58630000D02*
X142953333Y-58596667D01*
X142853333Y-58563333D01*
X142786667Y-58563333D01*
X142686667Y-58596667D01*
X142620000Y-58663333D01*
X142586667Y-58730000D01*
X142553333Y-58863333D01*
X142553333Y-58963333D01*
X142586667Y-59096667D01*
X142620000Y-59163333D01*
X142686667Y-59230000D01*
X142786667Y-59263333D01*
X142853333Y-59263333D01*
X142953333Y-59230000D01*
X142986667Y-59196667D01*
X144823333Y-65386667D02*
X145056667Y-65053333D01*
X145223333Y-65386667D02*
X145223333Y-64686667D01*
X144956667Y-64686667D01*
X144890000Y-64720000D01*
X144856667Y-64753333D01*
X144823333Y-64820000D01*
X144823333Y-64920000D01*
X144856667Y-64986667D01*
X144890000Y-65020000D01*
X144956667Y-65053333D01*
X145223333Y-65053333D01*
D12*
X145167143Y-102005000D02*
X145595714Y-102005000D01*
X145081428Y-102262143D02*
X145381428Y-101362143D01*
X145681428Y-102262143D01*
X146110000Y-102262143D02*
X146024286Y-102219286D01*
X145981429Y-102133571D01*
X145981429Y-101362143D01*
X146581429Y-102262143D02*
X146495715Y-102219286D01*
X146452858Y-102133571D01*
X146452858Y-101362143D01*
X146924287Y-102262143D02*
X146924287Y-101362143D01*
X146924287Y-101790714D02*
X147438572Y-101790714D01*
X147438572Y-102262143D02*
X147438572Y-101362143D01*
X148210001Y-102219286D02*
X148124287Y-102262143D01*
X147952858Y-102262143D01*
X147867144Y-102219286D01*
X147824287Y-102133571D01*
X147824287Y-101790714D01*
X147867144Y-101705000D01*
X147952858Y-101662143D01*
X148124287Y-101662143D01*
X148210001Y-101705000D01*
X148252858Y-101790714D01*
X148252858Y-101876429D01*
X147824287Y-101962143D01*
X149024287Y-102262143D02*
X149024287Y-101790714D01*
X148981430Y-101705000D01*
X148895716Y-101662143D01*
X148724287Y-101662143D01*
X148638573Y-101705000D01*
X149024287Y-102219286D02*
X148938573Y-102262143D01*
X148724287Y-102262143D01*
X148638573Y-102219286D01*
X148595716Y-102133571D01*
X148595716Y-102047857D01*
X148638573Y-101962143D01*
X148724287Y-101919286D01*
X148938573Y-101919286D01*
X149024287Y-101876429D01*
X149452859Y-102262143D02*
X149452859Y-101662143D01*
X149452859Y-101833571D02*
X149495716Y-101747857D01*
X149538573Y-101705000D01*
X149624287Y-101662143D01*
X149710002Y-101662143D01*
X150010002Y-102262143D02*
X150010002Y-101662143D01*
X150010002Y-101362143D02*
X149967145Y-101405000D01*
X150010002Y-101447857D01*
X150052859Y-101405000D01*
X150010002Y-101362143D01*
X150010002Y-101447857D01*
X150438573Y-101662143D02*
X150438573Y-102262143D01*
X150438573Y-101747857D02*
X150481430Y-101705000D01*
X150567144Y-101662143D01*
X150695716Y-101662143D01*
X150781430Y-101705000D01*
X150824287Y-101790714D01*
X150824287Y-102262143D01*
X151638573Y-101662143D02*
X151638573Y-102390714D01*
X151595716Y-102476429D01*
X151552859Y-102519286D01*
X151467144Y-102562143D01*
X151338573Y-102562143D01*
X151252859Y-102519286D01*
X151638573Y-102219286D02*
X151552859Y-102262143D01*
X151381430Y-102262143D01*
X151295716Y-102219286D01*
X151252859Y-102176429D01*
X151210002Y-102090714D01*
X151210002Y-101833571D01*
X151252859Y-101747857D01*
X151295716Y-101705000D01*
X151381430Y-101662143D01*
X151552859Y-101662143D01*
X151638573Y-101705000D01*
X152067145Y-101790714D02*
X152367145Y-101790714D01*
X152495716Y-102262143D02*
X152067145Y-102262143D01*
X152067145Y-101362143D01*
X152495716Y-101362143D01*
X153267145Y-102262143D02*
X153267145Y-101790714D01*
X153224288Y-101705000D01*
X153138574Y-101662143D01*
X152967145Y-101662143D01*
X152881431Y-101705000D01*
X153267145Y-102219286D02*
X153181431Y-102262143D01*
X152967145Y-102262143D01*
X152881431Y-102219286D01*
X152838574Y-102133571D01*
X152838574Y-102047857D01*
X152881431Y-101962143D01*
X152967145Y-101919286D01*
X153181431Y-101919286D01*
X153267145Y-101876429D01*
X153695717Y-102262143D02*
X153695717Y-101662143D01*
X153695717Y-101833571D02*
X153738574Y-101747857D01*
X153781431Y-101705000D01*
X153867145Y-101662143D01*
X153952860Y-101662143D01*
X154852859Y-101362143D02*
X155067145Y-102262143D01*
X155238574Y-101619286D01*
X155410002Y-102262143D01*
X155624288Y-101362143D01*
X155967145Y-102262143D02*
X155967145Y-101662143D01*
X155967145Y-101362143D02*
X155924288Y-101405000D01*
X155967145Y-101447857D01*
X156010002Y-101405000D01*
X155967145Y-101362143D01*
X155967145Y-101447857D01*
X156267144Y-101662143D02*
X156610001Y-101662143D01*
X156395716Y-102262143D02*
X156395716Y-101490714D01*
X156438573Y-101405000D01*
X156524287Y-101362143D01*
X156610001Y-101362143D01*
X156910002Y-102262143D02*
X156910002Y-101662143D01*
X156910002Y-101362143D02*
X156867145Y-101405000D01*
X156910002Y-101447857D01*
X156952859Y-101405000D01*
X156910002Y-101362143D01*
X156910002Y-101447857D01*
X142338570Y-103137143D02*
X142509999Y-103737143D01*
X142681428Y-103308571D01*
X142852856Y-103737143D01*
X143024285Y-103137143D01*
X143281427Y-103137143D02*
X143452856Y-103737143D01*
X143624285Y-103308571D01*
X143795713Y-103737143D01*
X143967142Y-103137143D01*
X144224284Y-103137143D02*
X144395713Y-103737143D01*
X144567142Y-103308571D01*
X144738570Y-103737143D01*
X144909999Y-103137143D01*
X145252856Y-103651429D02*
X145295713Y-103694286D01*
X145252856Y-103737143D01*
X145209999Y-103694286D01*
X145252856Y-103651429D01*
X145252856Y-103737143D01*
X146067141Y-103737143D02*
X146067141Y-103265714D01*
X146024284Y-103180000D01*
X145938570Y-103137143D01*
X145767141Y-103137143D01*
X145681427Y-103180000D01*
X146067141Y-103694286D02*
X145981427Y-103737143D01*
X145767141Y-103737143D01*
X145681427Y-103694286D01*
X145638570Y-103608571D01*
X145638570Y-103522857D01*
X145681427Y-103437143D01*
X145767141Y-103394286D01*
X145981427Y-103394286D01*
X146067141Y-103351429D01*
X146624284Y-103737143D02*
X146538570Y-103694286D01*
X146495713Y-103608571D01*
X146495713Y-102837143D01*
X147095713Y-103737143D02*
X147009999Y-103694286D01*
X146967142Y-103608571D01*
X146967142Y-102837143D01*
X147438571Y-103737143D02*
X147438571Y-102837143D01*
X147824285Y-103737143D02*
X147824285Y-103265714D01*
X147781428Y-103180000D01*
X147695714Y-103137143D01*
X147567142Y-103137143D01*
X147481428Y-103180000D01*
X147438571Y-103222857D01*
X148595714Y-103694286D02*
X148510000Y-103737143D01*
X148338571Y-103737143D01*
X148252857Y-103694286D01*
X148210000Y-103608571D01*
X148210000Y-103265714D01*
X148252857Y-103180000D01*
X148338571Y-103137143D01*
X148510000Y-103137143D01*
X148595714Y-103180000D01*
X148638571Y-103265714D01*
X148638571Y-103351429D01*
X148210000Y-103437143D01*
X149410000Y-103737143D02*
X149410000Y-103265714D01*
X149367143Y-103180000D01*
X149281429Y-103137143D01*
X149110000Y-103137143D01*
X149024286Y-103180000D01*
X149410000Y-103694286D02*
X149324286Y-103737143D01*
X149110000Y-103737143D01*
X149024286Y-103694286D01*
X148981429Y-103608571D01*
X148981429Y-103522857D01*
X149024286Y-103437143D01*
X149110000Y-103394286D01*
X149324286Y-103394286D01*
X149410000Y-103351429D01*
X149838572Y-103737143D02*
X149838572Y-103137143D01*
X149838572Y-103308571D02*
X149881429Y-103222857D01*
X149924286Y-103180000D01*
X150010000Y-103137143D01*
X150095715Y-103137143D01*
X150395715Y-103737143D02*
X150395715Y-103137143D01*
X150395715Y-102837143D02*
X150352858Y-102880000D01*
X150395715Y-102922857D01*
X150438572Y-102880000D01*
X150395715Y-102837143D01*
X150395715Y-102922857D01*
X150824286Y-103137143D02*
X150824286Y-103737143D01*
X150824286Y-103222857D02*
X150867143Y-103180000D01*
X150952857Y-103137143D01*
X151081429Y-103137143D01*
X151167143Y-103180000D01*
X151210000Y-103265714D01*
X151210000Y-103737143D01*
X152024286Y-103137143D02*
X152024286Y-103865714D01*
X151981429Y-103951429D01*
X151938572Y-103994286D01*
X151852857Y-104037143D01*
X151724286Y-104037143D01*
X151638572Y-103994286D01*
X152024286Y-103694286D02*
X151938572Y-103737143D01*
X151767143Y-103737143D01*
X151681429Y-103694286D01*
X151638572Y-103651429D01*
X151595715Y-103565714D01*
X151595715Y-103308571D01*
X151638572Y-103222857D01*
X151681429Y-103180000D01*
X151767143Y-103137143D01*
X151938572Y-103137143D01*
X152024286Y-103180000D01*
X152795715Y-103694286D02*
X152710001Y-103737143D01*
X152538572Y-103737143D01*
X152452858Y-103694286D01*
X152410001Y-103608571D01*
X152410001Y-103265714D01*
X152452858Y-103180000D01*
X152538572Y-103137143D01*
X152710001Y-103137143D01*
X152795715Y-103180000D01*
X152838572Y-103265714D01*
X152838572Y-103351429D01*
X152410001Y-103437143D01*
X153610001Y-103737143D02*
X153610001Y-103265714D01*
X153567144Y-103180000D01*
X153481430Y-103137143D01*
X153310001Y-103137143D01*
X153224287Y-103180000D01*
X153610001Y-103694286D02*
X153524287Y-103737143D01*
X153310001Y-103737143D01*
X153224287Y-103694286D01*
X153181430Y-103608571D01*
X153181430Y-103522857D01*
X153224287Y-103437143D01*
X153310001Y-103394286D01*
X153524287Y-103394286D01*
X153610001Y-103351429D01*
X154038573Y-103737143D02*
X154038573Y-103137143D01*
X154038573Y-103308571D02*
X154081430Y-103222857D01*
X154124287Y-103180000D01*
X154210001Y-103137143D01*
X154295716Y-103137143D01*
X154510001Y-103137143D02*
X154681430Y-103737143D01*
X154852859Y-103308571D01*
X155024287Y-103737143D01*
X155195716Y-103137143D01*
X155538573Y-103737143D02*
X155538573Y-103137143D01*
X155538573Y-102837143D02*
X155495716Y-102880000D01*
X155538573Y-102922857D01*
X155581430Y-102880000D01*
X155538573Y-102837143D01*
X155538573Y-102922857D01*
X155838572Y-103137143D02*
X156181429Y-103137143D01*
X155967144Y-103737143D02*
X155967144Y-102965714D01*
X156010001Y-102880000D01*
X156095715Y-102837143D01*
X156181429Y-102837143D01*
X156481430Y-103737143D02*
X156481430Y-103137143D01*
X156481430Y-102837143D02*
X156438573Y-102880000D01*
X156481430Y-102922857D01*
X156524287Y-102880000D01*
X156481430Y-102837143D01*
X156481430Y-102922857D01*
X156910001Y-103651429D02*
X156952858Y-103694286D01*
X156910001Y-103737143D01*
X156867144Y-103694286D01*
X156910001Y-103651429D01*
X156910001Y-103737143D01*
X157724286Y-103694286D02*
X157638572Y-103737143D01*
X157467143Y-103737143D01*
X157381429Y-103694286D01*
X157338572Y-103651429D01*
X157295715Y-103565714D01*
X157295715Y-103308571D01*
X157338572Y-103222857D01*
X157381429Y-103180000D01*
X157467143Y-103137143D01*
X157638572Y-103137143D01*
X157724286Y-103180000D01*
X158238572Y-103737143D02*
X158152858Y-103694286D01*
X158110001Y-103651429D01*
X158067144Y-103565714D01*
X158067144Y-103308571D01*
X158110001Y-103222857D01*
X158152858Y-103180000D01*
X158238572Y-103137143D01*
X158367144Y-103137143D01*
X158452858Y-103180000D01*
X158495715Y-103222857D01*
X158538572Y-103308571D01*
X158538572Y-103565714D01*
X158495715Y-103651429D01*
X158452858Y-103694286D01*
X158367144Y-103737143D01*
X158238572Y-103737143D01*
X158924287Y-103737143D02*
X158924287Y-103137143D01*
X158924287Y-103222857D02*
X158967144Y-103180000D01*
X159052858Y-103137143D01*
X159181430Y-103137143D01*
X159267144Y-103180000D01*
X159310001Y-103265714D01*
X159310001Y-103737143D01*
X159310001Y-103265714D02*
X159352858Y-103180000D01*
X159438572Y-103137143D01*
X159567144Y-103137143D01*
X159652858Y-103180000D01*
X159695715Y-103265714D01*
X159695715Y-103737143D01*
X145252857Y-105212143D02*
X145252857Y-104312143D01*
X145252857Y-104655000D02*
X145338571Y-104612143D01*
X145510000Y-104612143D01*
X145595714Y-104655000D01*
X145638571Y-104697857D01*
X145681428Y-104783571D01*
X145681428Y-105040714D01*
X145638571Y-105126429D01*
X145595714Y-105169286D01*
X145510000Y-105212143D01*
X145338571Y-105212143D01*
X145252857Y-105169286D01*
X145981428Y-104612143D02*
X146195714Y-105212143D01*
X146410000Y-104612143D02*
X146195714Y-105212143D01*
X146110000Y-105426429D01*
X146067143Y-105469286D01*
X145981428Y-105512143D01*
X147395714Y-104955000D02*
X147824285Y-104955000D01*
X147309999Y-105212143D02*
X147609999Y-104312143D01*
X147909999Y-105212143D01*
X148210000Y-104869286D02*
X148895714Y-104869286D01*
X148552857Y-105212143D02*
X148552857Y-104526429D01*
X149324286Y-105212143D02*
X149324286Y-104312143D01*
X149624286Y-104955000D01*
X149924286Y-104312143D01*
X149924286Y-105212143D01*
X150995714Y-105169286D02*
X151124285Y-105212143D01*
X151338571Y-105212143D01*
X151424285Y-105169286D01*
X151467142Y-105126429D01*
X151509999Y-105040714D01*
X151509999Y-104955000D01*
X151467142Y-104869286D01*
X151424285Y-104826429D01*
X151338571Y-104783571D01*
X151167142Y-104740714D01*
X151081428Y-104697857D01*
X151038571Y-104655000D01*
X150995714Y-104569286D01*
X150995714Y-104483571D01*
X151038571Y-104397857D01*
X151081428Y-104355000D01*
X151167142Y-104312143D01*
X151381428Y-104312143D01*
X151509999Y-104355000D01*
X152281428Y-104612143D02*
X152281428Y-105212143D01*
X151895714Y-104612143D02*
X151895714Y-105083571D01*
X151938571Y-105169286D01*
X152024285Y-105212143D01*
X152152857Y-105212143D01*
X152238571Y-105169286D01*
X152281428Y-105126429D01*
X152710000Y-104612143D02*
X152710000Y-105212143D01*
X152710000Y-104697857D02*
X152752857Y-104655000D01*
X152838571Y-104612143D01*
X152967143Y-104612143D01*
X153052857Y-104655000D01*
X153095714Y-104740714D01*
X153095714Y-105212143D01*
X153910000Y-105212143D02*
X153910000Y-104312143D01*
X153910000Y-105169286D02*
X153824286Y-105212143D01*
X153652857Y-105212143D01*
X153567143Y-105169286D01*
X153524286Y-105126429D01*
X153481429Y-105040714D01*
X153481429Y-104783571D01*
X153524286Y-104697857D01*
X153567143Y-104655000D01*
X153652857Y-104612143D01*
X153824286Y-104612143D01*
X153910000Y-104655000D01*
X154338572Y-105212143D02*
X154338572Y-104312143D01*
X154338572Y-104655000D02*
X154424286Y-104612143D01*
X154595715Y-104612143D01*
X154681429Y-104655000D01*
X154724286Y-104697857D01*
X154767143Y-104783571D01*
X154767143Y-105040714D01*
X154724286Y-105126429D01*
X154681429Y-105169286D01*
X154595715Y-105212143D01*
X154424286Y-105212143D01*
X154338572Y-105169286D01*
X155495715Y-105169286D02*
X155410001Y-105212143D01*
X155238572Y-105212143D01*
X155152858Y-105169286D01*
X155110001Y-105083571D01*
X155110001Y-104740714D01*
X155152858Y-104655000D01*
X155238572Y-104612143D01*
X155410001Y-104612143D01*
X155495715Y-104655000D01*
X155538572Y-104740714D01*
X155538572Y-104826429D01*
X155110001Y-104912143D01*
X155924287Y-105212143D02*
X155924287Y-104612143D01*
X155924287Y-104783571D02*
X155967144Y-104697857D01*
X156010001Y-104655000D01*
X156095715Y-104612143D01*
X156181430Y-104612143D01*
X156867144Y-104612143D02*
X156867144Y-105340714D01*
X156824287Y-105426429D01*
X156781430Y-105469286D01*
X156695715Y-105512143D01*
X156567144Y-105512143D01*
X156481430Y-105469286D01*
X156867144Y-105169286D02*
X156781430Y-105212143D01*
X156610001Y-105212143D01*
X156524287Y-105169286D01*
X156481430Y-105126429D01*
X156438573Y-105040714D01*
X156438573Y-104783571D01*
X156481430Y-104697857D01*
X156524287Y-104655000D01*
X156610001Y-104612143D01*
X156781430Y-104612143D01*
X156867144Y-104655000D01*
D13*
X158910000Y-100660000D02*
X159785000Y-100660000D01*
X159760000Y-99810000D02*
X158910000Y-100660000D01*
D11*
X145323334Y-73156667D02*
X145090000Y-72823333D01*
X144923334Y-73156667D02*
X144923334Y-72456667D01*
X145190000Y-72456667D01*
X145256667Y-72490000D01*
X145290000Y-72523333D01*
X145323334Y-72590000D01*
X145323334Y-72690000D01*
X145290000Y-72756667D01*
X145256667Y-72790000D01*
X145190000Y-72823333D01*
X144923334Y-72823333D01*
X145890000Y-73123333D02*
X145823334Y-73156667D01*
X145690000Y-73156667D01*
X145623334Y-73123333D01*
X145590000Y-73056667D01*
X145590000Y-72790000D01*
X145623334Y-72723333D01*
X145690000Y-72690000D01*
X145823334Y-72690000D01*
X145890000Y-72723333D01*
X145923334Y-72790000D01*
X145923334Y-72856667D01*
X145590000Y-72923333D01*
X146156667Y-72690000D02*
X146323334Y-73156667D01*
X146490000Y-72690000D01*
X147256666Y-72523333D02*
X147290000Y-72490000D01*
X147356666Y-72456667D01*
X147523333Y-72456667D01*
X147590000Y-72490000D01*
X147623333Y-72523333D01*
X147656666Y-72590000D01*
X147656666Y-72656667D01*
X147623333Y-72756667D01*
X147223333Y-73156667D01*
X147656666Y-73156667D01*
X148690000Y-73423333D02*
X148656666Y-73390000D01*
X148590000Y-73290000D01*
X148556666Y-73223333D01*
X148523333Y-73123333D01*
X148490000Y-72956667D01*
X148490000Y-72823333D01*
X148523333Y-72656667D01*
X148556666Y-72556667D01*
X148590000Y-72490000D01*
X148656666Y-72390000D01*
X148690000Y-72356667D01*
X149090000Y-72456667D02*
X149223333Y-72456667D01*
X149290000Y-72490000D01*
X149356667Y-72556667D01*
X149390000Y-72690000D01*
X149390000Y-72923333D01*
X149356667Y-73056667D01*
X149290000Y-73123333D01*
X149223333Y-73156667D01*
X149090000Y-73156667D01*
X149023333Y-73123333D01*
X148956667Y-73056667D01*
X148923333Y-72923333D01*
X148923333Y-72690000D01*
X148956667Y-72556667D01*
X149023333Y-72490000D01*
X149090000Y-72456667D01*
X149690000Y-73156667D02*
X149690000Y-72456667D01*
X149956666Y-72456667D01*
X150023333Y-72490000D01*
X150056666Y-72523333D01*
X150090000Y-72590000D01*
X150090000Y-72690000D01*
X150056666Y-72756667D01*
X150023333Y-72790000D01*
X149956666Y-72823333D01*
X149690000Y-72823333D01*
X150356666Y-72956667D02*
X150690000Y-72956667D01*
X150290000Y-73156667D02*
X150523333Y-72456667D01*
X150756666Y-73156667D01*
X150923333Y-73423333D02*
X150956666Y-73390000D01*
X151023333Y-73290000D01*
X151056666Y-73223333D01*
X151090000Y-73123333D01*
X151123333Y-72956667D01*
X151123333Y-72823333D01*
X151090000Y-72656667D01*
X151056666Y-72556667D01*
X151023333Y-72490000D01*
X150956666Y-72390000D01*
X150923333Y-72356667D01*
X151990000Y-72890000D02*
X152523333Y-72890000D01*
X153356666Y-72523333D02*
X153390000Y-72490000D01*
X153456666Y-72456667D01*
X153623333Y-72456667D01*
X153690000Y-72490000D01*
X153723333Y-72523333D01*
X153756666Y-72590000D01*
X153756666Y-72656667D01*
X153723333Y-72756667D01*
X153323333Y-73156667D01*
X153756666Y-73156667D01*
X154156667Y-72756667D02*
X154090000Y-72723333D01*
X154056667Y-72690000D01*
X154023333Y-72623333D01*
X154023333Y-72590000D01*
X154056667Y-72523333D01*
X154090000Y-72490000D01*
X154156667Y-72456667D01*
X154290000Y-72456667D01*
X154356667Y-72490000D01*
X154390000Y-72523333D01*
X154423333Y-72590000D01*
X154423333Y-72623333D01*
X154390000Y-72690000D01*
X154356667Y-72723333D01*
X154290000Y-72756667D01*
X154156667Y-72756667D01*
X154090000Y-72790000D01*
X154056667Y-72823333D01*
X154023333Y-72890000D01*
X154023333Y-73023333D01*
X154056667Y-73090000D01*
X154090000Y-73123333D01*
X154156667Y-73156667D01*
X154290000Y-73156667D01*
X154356667Y-73123333D01*
X154390000Y-73090000D01*
X154423333Y-73023333D01*
X154423333Y-72890000D01*
X154390000Y-72823333D01*
X154356667Y-72790000D01*
X154290000Y-72756667D01*
X154723334Y-73090000D02*
X154756667Y-73123333D01*
X154723334Y-73156667D01*
X154690000Y-73123333D01*
X154723334Y-73090000D01*
X154723334Y-73156667D01*
X155423333Y-73156667D02*
X155023333Y-73156667D01*
X155223333Y-73156667D02*
X155223333Y-72456667D01*
X155156667Y-72556667D01*
X155090000Y-72623333D01*
X155023333Y-72656667D01*
X155723334Y-73090000D02*
X155756667Y-73123333D01*
X155723334Y-73156667D01*
X155690000Y-73123333D01*
X155723334Y-73090000D01*
X155723334Y-73156667D01*
X156423333Y-73156667D02*
X156023333Y-73156667D01*
X156223333Y-73156667D02*
X156223333Y-72456667D01*
X156156667Y-72556667D01*
X156090000Y-72623333D01*
X156023333Y-72656667D01*
X156656667Y-72456667D02*
X157123334Y-72456667D01*
X156823334Y-73156667D01*
D13*
X159785000Y-100660000D02*
X158910000Y-99785000D01*
X159785000Y-99785000D02*
X158910000Y-99785000D01*
X158910000Y-100660000D02*
X158910000Y-99785000D01*
X159785000Y-100660000D02*
X159785000Y-99785000D01*
X143105000Y-100640000D02*
X143105000Y-99765000D01*
X142230000Y-100640000D02*
X143105000Y-100640000D01*
X142230000Y-100640000D02*
X142230000Y-99765000D01*
X143080000Y-99790000D02*
X142230000Y-100640000D01*
X143105000Y-99765000D02*
X142230000Y-99765000D01*
X143105000Y-100640000D02*
X142230000Y-99765000D01*
X143115000Y-62480000D02*
X142240000Y-61605000D01*
X143115000Y-61605000D02*
X142240000Y-61605000D01*
X143090000Y-61630000D02*
X142240000Y-62480000D01*
X142240000Y-62480000D02*
X142240000Y-61605000D01*
X142240000Y-62480000D02*
X143115000Y-62480000D01*
X143115000Y-62480000D02*
X143115000Y-61605000D01*
X159750000Y-62500000D02*
X159750000Y-61625000D01*
X158875000Y-62500000D02*
X159750000Y-62500000D01*
X158875000Y-62500000D02*
X158875000Y-61625000D01*
X159725000Y-61650000D02*
X158875000Y-62500000D01*
X159750000Y-61625000D02*
X158875000Y-61625000D01*
X159750000Y-62500000D02*
X158875000Y-61625000D01*
D14*
X142790000Y-70180000D02*
X158790000Y-70180000D01*
X158790000Y-70180000D02*
X158790000Y-75580000D01*
X142790000Y-70180000D02*
X142790000Y-75580000D01*
X142790000Y-91380000D02*
X142790000Y-92180000D01*
X142790000Y-92180000D02*
X158790000Y-92180000D01*
X158790000Y-92180000D02*
X158790000Y-91380000D01*
X142782000Y-73980000D02*
X158782000Y-73980000D01*
D15*
X153580000Y-97620000D02*
X152030000Y-97620000D01*
X148220000Y-97900000D02*
X150760000Y-97900000D01*
X150760000Y-97900000D02*
X150760000Y-100440000D01*
X152030000Y-100720000D02*
X153580000Y-100720000D01*
X153580000Y-100720000D02*
X153580000Y-97620000D01*
X150760000Y-100440000D02*
X148220000Y-100440000D01*
X148220000Y-100440000D02*
X148220000Y-97900000D01*
D16*
X143750000Y-61200000D02*
X144750000Y-61200000D01*
X144750000Y-59500000D02*
X143750000Y-59500000D01*
D15*
X157120000Y-63570000D02*
X157120000Y-62020000D01*
X157120000Y-62020000D02*
X154020000Y-62020000D01*
X154020000Y-62020000D02*
X154020000Y-63570000D01*
X156840000Y-64840000D02*
X156840000Y-69920000D01*
X156840000Y-69920000D02*
X154300000Y-69920000D01*
X154300000Y-69920000D02*
X154300000Y-64840000D01*
X154300000Y-64840000D02*
X156840000Y-64840000D01*
X147205000Y-64380000D02*
X147205000Y-65580000D01*
X145455000Y-65580000D02*
X145455000Y-64380000D01*
X157070000Y-94405000D02*
X155870000Y-94405000D01*
X155870000Y-92655000D02*
X157070000Y-92655000D01*
D16*
X147200000Y-67480000D02*
X148460000Y-67480000D01*
X154020000Y-67480000D02*
X152760000Y-67480000D01*
X147200000Y-63720000D02*
X147200000Y-67480000D01*
X154020000Y-61470000D02*
X154020000Y-67480000D01*
X144640000Y-63180000D02*
X145640000Y-63180000D01*
X145640000Y-61480000D02*
X144640000Y-61480000D01*
X144530000Y-67780000D02*
X144530000Y-68780000D01*
X146230000Y-68780000D02*
X146230000Y-67780000D01*
D15*
X143053095Y-74332381D02*
X143053095Y-75141905D01*
X143100714Y-75237143D01*
X143148333Y-75284762D01*
X143243571Y-75332381D01*
X143434048Y-75332381D01*
X143529286Y-75284762D01*
X143576905Y-75237143D01*
X143624524Y-75141905D01*
X143624524Y-74332381D01*
X144053095Y-74427619D02*
X144100714Y-74380000D01*
X144195952Y-74332381D01*
X144434048Y-74332381D01*
X144529286Y-74380000D01*
X144576905Y-74427619D01*
X144624524Y-74522857D01*
X144624524Y-74618095D01*
X144576905Y-74760952D01*
X144005476Y-75332381D01*
X144624524Y-75332381D01*
X145816666Y-71636667D02*
X146292857Y-71636667D01*
X145721428Y-71922381D02*
X146054761Y-70922381D01*
X146388095Y-71922381D01*
X146864285Y-71922381D02*
X146769047Y-71874762D01*
X146721428Y-71779524D01*
X146721428Y-70922381D01*
X147388095Y-71922381D02*
X147292857Y-71874762D01*
X147245238Y-71779524D01*
X147245238Y-70922381D01*
X147769048Y-71922381D02*
X147769048Y-70922381D01*
X147769048Y-71398571D02*
X148340477Y-71398571D01*
X148340477Y-71922381D02*
X148340477Y-70922381D01*
X149197620Y-71874762D02*
X149102382Y-71922381D01*
X148911905Y-71922381D01*
X148816667Y-71874762D01*
X148769048Y-71779524D01*
X148769048Y-71398571D01*
X148816667Y-71303333D01*
X148911905Y-71255714D01*
X149102382Y-71255714D01*
X149197620Y-71303333D01*
X149245239Y-71398571D01*
X149245239Y-71493810D01*
X148769048Y-71589048D01*
X150102382Y-71922381D02*
X150102382Y-71398571D01*
X150054763Y-71303333D01*
X149959525Y-71255714D01*
X149769048Y-71255714D01*
X149673810Y-71303333D01*
X150102382Y-71874762D02*
X150007144Y-71922381D01*
X149769048Y-71922381D01*
X149673810Y-71874762D01*
X149626191Y-71779524D01*
X149626191Y-71684286D01*
X149673810Y-71589048D01*
X149769048Y-71541429D01*
X150007144Y-71541429D01*
X150102382Y-71493810D01*
X150578572Y-71922381D02*
X150578572Y-71255714D01*
X150578572Y-71446190D02*
X150626191Y-71350952D01*
X150673810Y-71303333D01*
X150769048Y-71255714D01*
X150864287Y-71255714D01*
X151197620Y-71922381D02*
X151197620Y-71255714D01*
X151197620Y-70922381D02*
X151150001Y-70970000D01*
X151197620Y-71017619D01*
X151245239Y-70970000D01*
X151197620Y-70922381D01*
X151197620Y-71017619D01*
X151673810Y-71255714D02*
X151673810Y-71922381D01*
X151673810Y-71350952D02*
X151721429Y-71303333D01*
X151816667Y-71255714D01*
X151959525Y-71255714D01*
X152054763Y-71303333D01*
X152102382Y-71398571D01*
X152102382Y-71922381D01*
X153007144Y-71255714D02*
X153007144Y-72065238D01*
X152959525Y-72160476D01*
X152911906Y-72208095D01*
X152816667Y-72255714D01*
X152673810Y-72255714D01*
X152578572Y-72208095D01*
X153007144Y-71874762D02*
X152911906Y-71922381D01*
X152721429Y-71922381D01*
X152626191Y-71874762D01*
X152578572Y-71827143D01*
X152530953Y-71731905D01*
X152530953Y-71446190D01*
X152578572Y-71350952D01*
X152626191Y-71303333D01*
X152721429Y-71255714D01*
X152911906Y-71255714D01*
X153007144Y-71303333D01*
X153483334Y-71398571D02*
X153816668Y-71398571D01*
X153959525Y-71922381D02*
X153483334Y-71922381D01*
X153483334Y-70922381D01*
X153959525Y-70922381D01*
X154816668Y-71922381D02*
X154816668Y-71398571D01*
X154769049Y-71303333D01*
X154673811Y-71255714D01*
X154483334Y-71255714D01*
X154388096Y-71303333D01*
X154816668Y-71874762D02*
X154721430Y-71922381D01*
X154483334Y-71922381D01*
X154388096Y-71874762D01*
X154340477Y-71779524D01*
X154340477Y-71684286D01*
X154388096Y-71589048D01*
X154483334Y-71541429D01*
X154721430Y-71541429D01*
X154816668Y-71493810D01*
X155292858Y-71922381D02*
X155292858Y-71255714D01*
X155292858Y-71446190D02*
X155340477Y-71350952D01*
X155388096Y-71303333D01*
X155483334Y-71255714D01*
X155578573Y-71255714D01*
X144060000Y-60053333D02*
X144093334Y-60020000D01*
X144160000Y-59986667D01*
X144326667Y-59986667D01*
X144393334Y-60020000D01*
X144426667Y-60053333D01*
X144460000Y-60120000D01*
X144460000Y-60186667D01*
X144426667Y-60286667D01*
X144026667Y-60686667D01*
X144460000Y-60686667D01*
X157766667Y-69913332D02*
X157066667Y-69913332D01*
X157066667Y-69746666D01*
X157100000Y-69646666D01*
X157166667Y-69579999D01*
X157233333Y-69546666D01*
X157366667Y-69513332D01*
X157466667Y-69513332D01*
X157600000Y-69546666D01*
X157666667Y-69579999D01*
X157733333Y-69646666D01*
X157766667Y-69746666D01*
X157766667Y-69913332D01*
X157733333Y-68946666D02*
X157766667Y-69013332D01*
X157766667Y-69146666D01*
X157733333Y-69213332D01*
X157666667Y-69246666D01*
X157400000Y-69246666D01*
X157333333Y-69213332D01*
X157300000Y-69146666D01*
X157300000Y-69013332D01*
X157333333Y-68946666D01*
X157400000Y-68913332D01*
X157466667Y-68913332D01*
X157533333Y-69246666D01*
X157766667Y-68613332D02*
X157066667Y-68613332D01*
X157333333Y-68613332D02*
X157300000Y-68546666D01*
X157300000Y-68413332D01*
X157333333Y-68346666D01*
X157366667Y-68313332D01*
X157433333Y-68279999D01*
X157633333Y-68279999D01*
X157700000Y-68313332D01*
X157733333Y-68346666D01*
X157766667Y-68413332D01*
X157766667Y-68546666D01*
X157733333Y-68613332D01*
X157300000Y-67679999D02*
X157766667Y-67679999D01*
X157300000Y-67979999D02*
X157666667Y-67979999D01*
X157733333Y-67946666D01*
X157766667Y-67879999D01*
X157766667Y-67779999D01*
X157733333Y-67713333D01*
X157700000Y-67679999D01*
X157300000Y-67046666D02*
X157866667Y-67046666D01*
X157933333Y-67080000D01*
X157966667Y-67113333D01*
X158000000Y-67180000D01*
X158000000Y-67280000D01*
X157966667Y-67346666D01*
X157733333Y-67046666D02*
X157766667Y-67113333D01*
X157766667Y-67246666D01*
X157733333Y-67313333D01*
X157700000Y-67346666D01*
X157633333Y-67380000D01*
X157433333Y-67380000D01*
X157366667Y-67346666D01*
X157333333Y-67313333D01*
X157300000Y-67246666D01*
X157300000Y-67113333D01*
X157333333Y-67046666D01*
X145713333Y-65200000D02*
X145680000Y-65166666D01*
X145646667Y-65100000D01*
X145646667Y-64933333D01*
X145680000Y-64866666D01*
X145713333Y-64833333D01*
X145780000Y-64800000D01*
X145846667Y-64800000D01*
X145946667Y-64833333D01*
X146346667Y-65233333D01*
X146346667Y-64800000D01*
X156316667Y-95381905D02*
X156050000Y-95000952D01*
X155859524Y-95381905D02*
X155859524Y-94581905D01*
X156164286Y-94581905D01*
X156240477Y-94620000D01*
X156278572Y-94658095D01*
X156316667Y-94734286D01*
X156316667Y-94848571D01*
X156278572Y-94924762D01*
X156240477Y-94962857D01*
X156164286Y-95000952D01*
X155859524Y-95000952D01*
X156583334Y-94581905D02*
X157078572Y-94581905D01*
X156811905Y-94886667D01*
X156926191Y-94886667D01*
X157002381Y-94924762D01*
X157040477Y-94962857D01*
X157078572Y-95039048D01*
X157078572Y-95229524D01*
X157040477Y-95305714D01*
X157002381Y-95343810D01*
X156926191Y-95381905D01*
X156697619Y-95381905D01*
X156621429Y-95343810D01*
X156583334Y-95305714D01*
X146798095Y-69052381D02*
X146798095Y-69861905D01*
X146845714Y-69957143D01*
X146893333Y-70004762D01*
X146988571Y-70052381D01*
X147179048Y-70052381D01*
X147274286Y-70004762D01*
X147321905Y-69957143D01*
X147369524Y-69861905D01*
X147369524Y-69052381D01*
X148369524Y-70052381D02*
X147798095Y-70052381D01*
X148083809Y-70052381D02*
X148083809Y-69052381D01*
X147988571Y-69195238D01*
X147893333Y-69290476D01*
X147798095Y-69338095D01*
X144656666Y-64026667D02*
X144256666Y-64026667D01*
X144456666Y-64026667D02*
X144456666Y-63326667D01*
X144390000Y-63426667D01*
X144323333Y-63493333D01*
X144256666Y-63526667D01*
X145323333Y-64026667D02*
X144923333Y-64026667D01*
X145123333Y-64026667D02*
X145123333Y-63326667D01*
X145056667Y-63426667D01*
X144990000Y-63493333D01*
X144923333Y-63526667D01*
X144265714Y-69443333D02*
X144303810Y-69481428D01*
X144341905Y-69595714D01*
X144341905Y-69671904D01*
X144303810Y-69786190D01*
X144227619Y-69862381D01*
X144151429Y-69900476D01*
X143999048Y-69938571D01*
X143884762Y-69938571D01*
X143732381Y-69900476D01*
X143656190Y-69862381D01*
X143580000Y-69786190D01*
X143541905Y-69671904D01*
X143541905Y-69595714D01*
X143580000Y-69481428D01*
X143618095Y-69443333D01*
X143541905Y-68757619D02*
X143541905Y-68910000D01*
X143580000Y-68986190D01*
X143618095Y-69024285D01*
X143732381Y-69100476D01*
X143884762Y-69138571D01*
X144189524Y-69138571D01*
X144265714Y-69100476D01*
X144303810Y-69062381D01*
X144341905Y-68986190D01*
X144341905Y-68833809D01*
X144303810Y-68757619D01*
X144265714Y-68719523D01*
X144189524Y-68681428D01*
X143999048Y-68681428D01*
X143922857Y-68719523D01*
X143884762Y-68757619D01*
X143846667Y-68833809D01*
X143846667Y-68986190D01*
X143884762Y-69062381D01*
X143922857Y-69100476D01*
X143999048Y-69138571D01*
M02*
