G04 #@! TF.FileFunction,Soldermask,Bot*
%FSLAX46Y46*%
G04 Gerber Fmt 4.6, Leading zero omitted, Abs format (unit mm)*
G04 Created by KiCad (PCBNEW 4.0.4-stable) date 01/28/17 22:02:24*
%MOMM*%
%LPD*%
G01*
G04 APERTURE LIST*
%ADD10C,0.100000*%
%ADD11R,2.900000X2.000000*%
%ADD12R,1.100000X1.700000*%
%ADD13R,1.400000X1.650000*%
%ADD14C,2.305000*%
%ADD15R,1.900000X1.650000*%
%ADD16R,1.650000X1.400000*%
%ADD17C,2.150000*%
%ADD18C,1.901140*%
%ADD19C,3.399740*%
%ADD20R,2.432000X2.127200*%
%ADD21O,2.432000X2.127200*%
%ADD22R,2.432000X2.432000*%
%ADD23O,2.432000X2.432000*%
%ADD24R,1.700000X1.100000*%
%ADD25R,1.050000X1.460000*%
%ADD26R,1.460000X1.050000*%
%ADD27R,2.100000X2.100000*%
%ADD28O,2.100000X2.100000*%
G04 APERTURE END LIST*
D10*
D11*
X145760000Y-62480000D03*
X152260000Y-62480000D03*
D12*
X151730000Y-88750000D03*
X153630000Y-88750000D03*
D13*
X152000000Y-78190000D03*
X150000000Y-78190000D03*
D14*
X154740000Y-75480000D03*
X154740000Y-78020000D03*
X154740000Y-80560000D03*
X154740000Y-83100000D03*
X147120000Y-83100000D03*
X147120000Y-80560000D03*
X147120000Y-78020000D03*
X147120000Y-75480000D03*
D15*
X148160000Y-85190000D03*
X145660000Y-85190000D03*
D16*
X144260000Y-87190000D03*
X144260000Y-89190000D03*
D13*
X152010000Y-76150000D03*
X150010000Y-76150000D03*
D12*
X158350000Y-60610000D03*
X156450000Y-60610000D03*
D16*
X150090000Y-94280000D03*
X150090000Y-96280000D03*
D13*
X157080000Y-88750000D03*
X155080000Y-88750000D03*
X147930000Y-86930000D03*
X145930000Y-86930000D03*
X154750000Y-96340000D03*
X152750000Y-96340000D03*
D17*
X148600000Y-57400000D03*
X153000000Y-57400000D03*
D18*
X154300000Y-59400000D03*
X151800000Y-59400000D03*
X149800000Y-59400000D03*
X147300000Y-59400000D03*
D19*
X156800000Y-57400000D03*
X144800000Y-57400000D03*
D20*
X155570000Y-63570000D03*
D21*
X155570000Y-66110000D03*
X155570000Y-68650000D03*
D22*
X152030000Y-99910000D03*
D23*
X149490000Y-99910000D03*
D12*
X154900000Y-92670000D03*
X153000000Y-92670000D03*
X148600000Y-96150000D03*
X146700000Y-96150000D03*
X146700000Y-94390000D03*
X148600000Y-94390000D03*
X148600000Y-92640000D03*
X146700000Y-92640000D03*
X154950000Y-90790000D03*
X153050000Y-90790000D03*
X152990000Y-94430000D03*
X154890000Y-94430000D03*
D24*
X145320000Y-93480000D03*
X145320000Y-91580000D03*
D12*
X151690000Y-85770000D03*
X149790000Y-85770000D03*
D25*
X151680000Y-92790000D03*
X150730000Y-92790000D03*
X149780000Y-92790000D03*
X149780000Y-90590000D03*
X151680000Y-90590000D03*
D26*
X146240000Y-90230000D03*
X146240000Y-89280000D03*
X146240000Y-88330000D03*
X148440000Y-88330000D03*
X148440000Y-90230000D03*
D27*
X149290000Y-65610000D03*
D28*
X151830000Y-65610000D03*
M02*
